ISO-10303-21;
HEADER;
FILE_DESCRIPTION (( 'STEP AP214' ),
    '1' );
FILE_NAME ('右侧电机连接器.STEP',
    '2026-03-22T14:18:52',
    ( '' ),
    ( '' ),
    'SwSTEP 2.0',
    'SolidWorks 2024',
    '' );
FILE_SCHEMA (( 'AUTOMOTIVE_DESIGN' ));
ENDSEC;

DATA;
#1 = FACE_OUTER_BOUND ( 'NONE', #21, .T. ) ;
#2 = CARTESIAN_POINT ( 'NONE',  ( -8.840757382627357330, 13.00000000000000000, 2.749999999999995559 ) ) ;
#3 = EDGE_CURVE ( 'NONE', #406, #597, #679, .T. ) ;
#4 = SURFACE_SIDE_STYLE ('',( #49 ) ) ;
#5 = CARTESIAN_POINT ( 'NONE',  ( 0.000000000000000000, 0.000000000000000000, -2.749999999999999112 ) ) ;
#6 = PRODUCT_DEFINITION_FORMATION_WITH_SPECIFIED_SOURCE ( '浠', '', #278, .NOT_KNOWN. ) ;
#7 = DIRECTION ( 'NONE',  ( -0.000000000000000000, -1.000000000000000000, -0.000000000000000000 ) ) ;
#8 = ORIENTED_EDGE ( 'NONE', *, *, #660, .T. ) ;
#9 = AXIS2_PLACEMENT_3D ( 'NONE', #316, #696, #424 ) ;
#10 = EDGE_CURVE ( 'NONE', #302, #134, #405, .T. ) ;
#11 = CYLINDRICAL_SURFACE ( 'NONE', #668, 14.50000000000000000 ) ;
#12 = ORIENTED_EDGE ( 'NONE', *, *, #667, .F. ) ;
#13 = DIRECTION ( 'NONE',  ( 0.000000000000000000, 0.000000000000000000, 1.000000000000000000 ) ) ;
#14 = CIRCLE ( 'NONE', #400, 1.500000000000000444 ) ;
#15 = AXIS2_PLACEMENT_3D ( 'NONE', #506, #504, #289 ) ;
#16 = ORIENTED_EDGE ( 'NONE', *, *, #266, .T. ) ;
#17 = ORIENTED_EDGE ( 'NONE', *, *, #229, .F. ) ;
#18 = EDGE_CURVE ( 'NONE', #449, #390, #53, .T. ) ;
#19 = DIRECTION ( 'NONE',  ( 0.000000000000000000, 0.000000000000000000, -1.000000000000000000 ) ) ;
#20 = EDGE_CURVE ( 'NONE', #436, #302, #79, .T. ) ;
#21 = EDGE_LOOP ( 'NONE', ( #244, #438, #417, #468, #694, #63 ) ) ;
#22 = DIRECTION ( 'NONE',  ( 0.000000000000000000, 0.000000000000000000, 1.000000000000000000 ) ) ;
#23 = VERTEX_POINT ( 'NONE', #189 ) ;
#24 = CYLINDRICAL_SURFACE ( 'NONE', #427, 1.499999999999999556 ) ;
#25 = LINE ( 'NONE', #573, #104 ) ;
#26 = APPLICATION_PROTOCOL_DEFINITION ( 'draft international standard', 'automotive_design', 1998, #351 ) ;
#27 = EDGE_CURVE ( 'NONE', #503, #42, #133, .T. ) ;
#28 = DIRECTION ( 'NONE',  ( 0.000000000000000000, 0.000000000000000000, 1.000000000000000000 ) ) ;
#29 = PLANE ( 'NONE',  #558 ) ;
#30 =( GEOMETRIC_REPRESENTATION_CONTEXT ( 3 ) GLOBAL_UNCERTAINTY_ASSIGNED_CONTEXT ( ( #462 ) ) GLOBAL_UNIT_ASSIGNED_CONTEXT ( ( #478, #431, #652 ) ) REPRESENTATION_CONTEXT ( 'NONE', 'WORKASPACE' ) );
#31 = ORIENTED_EDGE ( 'NONE', *, *, #317, .T. ) ;
#32 = EDGE_LOOP ( 'NONE', ( #422, #642 ) ) ;
#33 = CARTESIAN_POINT ( 'NONE',  ( 0.000000000000000000, 0.000000000000000000, 0.000000000000000000 ) ) ;
#34 = CYLINDRICAL_SURFACE ( 'NONE', #242, 1.500000000000000444 ) ;
#35 = CIRCLE ( 'NONE', #432, 1.499999999999999556 ) ;
#36 = ORIENTED_EDGE ( 'NONE', *, *, #345, .T. ) ;
#37 = LINE ( 'NONE', #201, #76 ) ;
#38 = DIRECTION ( 'NONE',  ( 0.000000000000000000, -0.000000000000000000, 1.000000000000000000 ) ) ;
#39 = FACE_OUTER_BOUND ( 'NONE', #67, .T. ) ;
#40 = EDGE_CURVE ( 'NONE', #220, #591, #25, .T. ) ;
#41 = ORIENTED_EDGE ( 'NONE', *, *, #237, .F. ) ;
#42 = VERTEX_POINT ( 'NONE', #74 ) ;
#43 = EDGE_CURVE ( 'NONE', #661, #176, #620, .T. ) ;
#44 = FACE_BOUND ( 'NONE', #308, .T. ) ;
#45 = FACE_OUTER_BOUND ( 'NONE', #114, .T. ) ;
#46 = LINE ( 'NONE', #163, #659 ) ;
#47 = VERTEX_POINT ( 'NONE', #570 ) ;
#48 = VERTEX_POINT ( 'NONE', #181 ) ;
#49 = SURFACE_STYLE_FILL_AREA ( #483 ) ;
#50 = LINE ( 'NONE', #136, #321 ) ;
#51 = DIRECTION ( 'NONE',  ( -1.000000000000000000, 0.000000000000000000, 0.000000000000000000 ) ) ;
#52 = VECTOR ( 'NONE', #473, 1000.000000000000000 ) ;
#53 = CIRCLE ( 'NONE', #132, 1.499999999999999556 ) ;
#54 = CARTESIAN_POINT ( 'NONE',  ( 1.836970198721028948E-16, 13.00000000000000000, -1.249999999999999334 ) ) ;
#55 = EDGE_CURVE ( 'NONE', #597, #295, #569, .T. ) ;
#56 = DIRECTION ( 'NONE',  ( -0.000000000000000000, -1.000000000000000000, -0.000000000000000000 ) ) ;
#57 = CARTESIAN_POINT ( 'NONE',  ( 20.15924261737264089, 13.00000000000000000, 4.249999999999995559 ) ) ;
#58 = FACE_OUTER_BOUND ( 'NONE', #557, .T. ) ;
#59 = DIRECTION ( 'NONE',  ( 0.000000000000000000, 1.000000000000000000, 0.000000000000000000 ) ) ;
#60 = AXIS2_PLACEMENT_3D ( 'NONE', #622, #579, #403 ) ;
#61 = PLANE ( 'NONE',  #653 ) ;
#62 = CIRCLE ( 'NONE', #324, 14.50000000000000000 ) ;
#63 = ORIENTED_EDGE ( 'NONE', *, *, #266, .F. ) ;
#64 = CIRCLE ( 'NONE', #301, 1.500000000000001332 ) ;
#65 = EDGE_CURVE ( 'NONE', #463, #173, #292, .T. ) ;
#66 = DIRECTION ( 'NONE',  ( 0.000000000000000000, 0.000000000000000000, -1.000000000000000000 ) ) ;
#67 = EDGE_LOOP ( 'NONE', ( #688, #581, #385, #112, #474, #494 ) ) ;
#68 = CARTESIAN_POINT ( 'NONE',  ( 12.00000000000000000, 0.000000000000000000, -2.749999999999999112 ) ) ;
#69 = VERTEX_POINT ( 'NONE', #619 ) ;
#70 = EDGE_LOOP ( 'NONE', ( #626, #364, #323, #512 ) ) ;
#71 = ADVANCED_FACE ( 'NONE', ( #284 ), #287, .F. ) ;
#72 = SHAPE_DEFINITION_REPRESENTATION ( #664, #444 ) ;
#73 = EDGE_LOOP ( 'NONE', ( #298, #633 ) ) ;
#74 = CARTESIAN_POINT ( 'NONE',  ( -23.50000000000000000, 0.000000000000000000, 5.500000000000000000 ) ) ;
#75 = ORIENTED_EDGE ( 'NONE', *, *, #105, .T. ) ;
#76 = VECTOR ( 'NONE', #627, 1000.000000000000000 ) ;
#77 = CARTESIAN_POINT ( 'NONE',  ( -23.50000000000000000, 13.00000000000000000, 5.500000000000000000 ) ) ;
#78 = DIRECTION ( 'NONE',  ( 0.000000000000000000, 0.000000000000000000, -1.000000000000000000 ) ) ;
#79 = CIRCLE ( 'NONE', #401, 1.500000000000001332 ) ;
#80 = EDGE_CURVE ( 'NONE', #149, #527, #476, .T. ) ;
#81 = DIRECTION ( 'NONE',  ( -0.000000000000000000, -1.000000000000000000, -0.000000000000000000 ) ) ;
#82 = FACE_BOUND ( 'NONE', #528, .T. ) ;
#83 = DIRECTION ( 'NONE',  ( 0.000000000000000000, 1.000000000000000000, 0.000000000000000000 ) ) ;
#84 = ORIENTED_EDGE ( 'NONE', *, *, #90, .F. ) ;
#85 = CARTESIAN_POINT ( 'NONE',  ( -23.50000000000000000, 13.00000000000000000, 5.500000000000000000 ) ) ;
#86 = FACE_BOUND ( 'NONE', #97, .T. ) ;
#87 = ORIENTED_EDGE ( 'NONE', *, *, #18, .F. ) ;
#88 = DIRECTION ( 'NONE',  ( 0.000000000000000000, 1.000000000000000000, 0.000000000000000000 ) ) ;
#89 = DIRECTION ( 'NONE',  ( -1.000000000000000000, 0.000000000000000000, 0.000000000000000000 ) ) ;
#90 = EDGE_CURVE ( 'NONE', #341, #591, #228, .T. ) ;
#91 = AXIS2_PLACEMENT_3D ( 'NONE', #219, #7, #66 ) ;
#92 = VERTEX_POINT ( 'NONE', #297 ) ;
#93 = ORIENTED_EDGE ( 'NONE', *, *, #398, .T. ) ;
#94 = PLANE ( 'NONE',  #657 ) ;
#95 = CARTESIAN_POINT ( 'NONE',  ( 0.000000000000000000, 13.00000000000000000, 0.000000000000000000 ) ) ;
#96 = DIRECTION ( 'NONE',  ( 0.000000000000000000, 0.000000000000000000, -1.000000000000000000 ) ) ;
#97 = EDGE_LOOP ( 'NONE', ( #87, #396 ) ) ;
#98 = ORIENTED_EDGE ( 'NONE', *, *, #391, .T. ) ;
#99 = DIRECTION ( 'NONE',  ( -0.000000000000000000, -1.000000000000000000, -0.000000000000000000 ) ) ;
#100 = DIRECTION ( 'NONE',  ( -0.000000000000000000, -1.000000000000000000, -0.000000000000000000 ) ) ;
#101 = COLOUR_RGB ( '',0.7921568627450980005, 0.8196078431372548767, 0.9333333333333333481 ) ;
#102 = CARTESIAN_POINT ( 'NONE',  ( -23.50000000000000000, 13.00000000000000000, 5.500000000000000000 ) ) ;
#103 = FACE_OUTER_BOUND ( 'NONE', #155, .T. ) ;
#104 = VECTOR ( 'NONE', #81, 1000.000000000000000 ) ;
#105 = EDGE_CURVE ( 'NONE', #23, #134, #536, .T. ) ;
#106 = DIRECTION ( 'NONE',  ( 0.000000000000000000, 1.000000000000000000, 0.000000000000000000 ) ) ;
#107 = DIRECTION ( 'NONE',  ( -0.000000000000000000, -1.000000000000000000, -0.000000000000000000 ) ) ;
#108 = CARTESIAN_POINT ( 'NONE',  ( 22.00000000000002842, -14.99999999999999467, -11.49999999999999822 ) ) ;
#109 = DIRECTION ( 'NONE',  ( 0.000000000000000000, 0.000000000000000000, -1.000000000000000000 ) ) ;
#110 = CARTESIAN_POINT ( 'NONE',  ( -19.34075738262735911, 0.000000000000000000, 4.249999999999996447 ) ) ;
#111 = CIRCLE ( 'NONE', #265, 1.500000000000000444 ) ;
#112 = ORIENTED_EDGE ( 'NONE', *, *, #490, .F. ) ;
#113 = DIRECTION ( 'NONE',  ( 0.000000000000000000, 1.000000000000000000, 0.000000000000000000 ) ) ;
#114 = EDGE_LOOP ( 'NONE', ( #84, #645, #644, #335 ) ) ;
#115 = CARTESIAN_POINT ( 'NONE',  ( 20.15924261737264089, 0.000000000000000000, 2.749999999999995559 ) ) ;
#116 = ORIENTED_EDGE ( 'NONE', *, *, #317, .F. ) ;
#117 = CIRCLE ( 'NONE', #554, 14.50000000000000000 ) ;
#118 = CARTESIAN_POINT ( 'NONE',  ( -23.49999999999997158, -29.99999999999999645, -21.50000000000000000 ) ) ;
#119 = ADVANCED_FACE ( 'NONE', ( #404 ), #152, .F. ) ;
#120 = ORIENTED_EDGE ( 'NONE', *, *, #429, .F. ) ;
#121 =( NAMED_UNIT ( * ) SI_UNIT ( $, .STERADIAN. ) SOLID_ANGLE_UNIT ( ) );
#122 = ORIENTED_EDGE ( 'NONE', *, *, #517, .T. ) ;
#123 = AXIS2_PLACEMENT_3D ( 'NONE', #342, #19, #285 ) ;
#124 = ORIENTED_EDGE ( 'NONE', *, *, #90, .T. ) ;
#125 = ORIENTED_EDGE ( 'NONE', *, *, #660, .F. ) ;
#126 = CARTESIAN_POINT ( 'NONE',  ( 0.000000000000000000, 13.00000000000000000, -2.749999999999999112 ) ) ;
#127 = PLANE ( 'NONE',  #286 ) ;
#128 = ADVANCED_FACE ( 'NONE', ( #45 ), #455, .T. ) ;
#129 = DIRECTION ( 'NONE',  ( 0.000000000000000000, 0.000000000000000000, -1.000000000000000000 ) ) ;
#130 = AXIS2_PLACEMENT_3D ( 'NONE', #2, #521, #539 ) ;
#131 = LINE ( 'NONE', #358, #253 ) ;
#132 = AXIS2_PLACEMENT_3D ( 'NONE', #126, #453, #508 ) ;
#133 = LINE ( 'NONE', #77, #678 ) ;
#134 = VERTEX_POINT ( 'NONE', #692 ) ;
#135 = DIRECTION ( 'NONE',  ( -1.000000000000000000, -0.000000000000000000, -0.000000000000000000 ) ) ;
#136 = CARTESIAN_POINT ( 'NONE',  ( -23.50000000000000000, 13.00000000000000000, 5.500000000000000000 ) ) ;
#137 = EDGE_LOOP ( 'NONE', ( #609, #564, #36, #248 ) ) ;
#138 = ORIENTED_EDGE ( 'NONE', *, *, #229, .T. ) ;
#139 = EDGE_CURVE ( 'NONE', #352, #527, #471, .T. ) ;
#140 = DIRECTION ( 'NONE',  ( -0.000000000000000000, -0.000000000000000000, 1.000000000000000000 ) ) ;
#141 = CYLINDRICAL_SURFACE ( 'NONE', #380, 1.499999999999999556 ) ;
#142 = ADVANCED_FACE ( 'NONE', ( #193 ), #34, .F. ) ;
#143 = VECTOR ( 'NONE', #100, 1000.000000000000000 ) ;
#144 = ORIENTED_EDGE ( 'NONE', *, *, #40, .F. ) ;
#145 = DIRECTION ( 'NONE',  ( 0.000000000000000000, 1.000000000000000000, 0.000000000000000000 ) ) ;
#146 = CARTESIAN_POINT ( 'NONE',  ( 0.000000000000000000, 13.00000000000000000, -2.749999999999999112 ) ) ;
#147 = CYLINDRICAL_SURFACE ( 'NONE', #535, 1.500000000000000666 ) ;
#148 = VECTOR ( 'NONE', #381, 1000.000000000000000 ) ;
#149 = VERTEX_POINT ( 'NONE', #675 ) ;
#150 = ORIENTED_EDGE ( 'NONE', *, *, #182, .F. ) ;
#151 = DIRECTION ( 'NONE',  ( 1.000000000000000000, 0.000000000000000000, 0.000000000000000000 ) ) ;
#152 = CYLINDRICAL_SURFACE ( 'NONE', #164, 14.50000000000000000 ) ;
#153 = ORIENTED_EDGE ( 'NONE', *, *, #451, .F. ) ;
#154 = CARTESIAN_POINT ( 'NONE',  ( -6.999999999999973355, -14.99999999999999645, -11.49999999999999822 ) ) ;
#155 = EDGE_LOOP ( 'NONE', ( #418, #518, #116, #630 ) ) ;
#156 = VERTEX_POINT ( 'NONE', #515 ) ;
#157 = EDGE_LOOP ( 'NONE', ( #357, #281, #231, #680 ) ) ;
#158 = CARTESIAN_POINT ( 'NONE',  ( 20.15924261737264089, 0.000000000000000000, 2.749999999999995559 ) ) ;
#159 = AXIS2_PLACEMENT_3D ( 'NONE', #482, #209, #650 ) ;
#160 = ADVANCED_FACE ( 'NONE', ( #86, #202, #632, #354, #367, #641 ), #29, .T. ) ;
#161 = CYLINDRICAL_SURFACE ( 'NONE', #159, 1.500000000000001332 ) ;
#162 = CARTESIAN_POINT ( 'NONE',  ( 23.50000000000000000, 0.000000000000000000, -21.50000000000000000 ) ) ;
#163 = CARTESIAN_POINT ( 'NONE',  ( 23.50000000000000000, 13.00000000000000000, -21.50000000000000000 ) ) ;
#164 = AXIS2_PLACEMENT_3D ( 'NONE', #682, #359, #89 ) ;
#165 = CIRCLE ( 'NONE', #123, 14.50000000000000000 ) ;
#166 = CARTESIAN_POINT ( 'NONE',  ( -19.34075738262735911, 13.00000000000000000, 4.249999999999996447 ) ) ;
#167 = DIRECTION ( 'NONE',  ( -0.000000000000000000, -0.000000000000000000, -1.000000000000000000 ) ) ;
#168 = EDGE_CURVE ( 'NONE', #640, #463, #280, .T. ) ;
#169 = DIRECTION ( 'NONE',  ( 0.000000000000000000, 1.000000000000000000, 0.000000000000000000 ) ) ;
#170 = AXIS2_PLACEMENT_3D ( 'NONE', #671, #88, #28 ) ;
#171 = ORIENTED_EDGE ( 'NONE', *, *, #18, .T. ) ;
#172 = DIRECTION ( 'NONE',  ( 0.000000000000000000, 0.000000000000000000, -1.000000000000000000 ) ) ;
#173 = VERTEX_POINT ( 'NONE', #246 ) ;
#174 = EDGE_CURVE ( 'NONE', #475, #591, #196, .T. ) ;
#175 = CARTESIAN_POINT ( 'NONE',  ( 12.00000000000000000, 13.00000000000000000, -4.249999999999999112 ) ) ;
#176 = VERTEX_POINT ( 'NONE', #577 ) ;
#177 = ORIENTED_EDGE ( 'NONE', *, *, #517, .F. ) ;
#178 = ORIENTED_EDGE ( 'NONE', *, *, #223, .F. ) ;
#179 = AXIS2_PLACEMENT_3D ( 'NONE', #247, #214, #377 ) ;
#180 = VECTOR ( 'NONE', #662, 1000.000000000000000 ) ;
#181 = CARTESIAN_POINT ( 'NONE',  ( 20.15924261737264089, 0.000000000000000000, 4.249999999999996447 ) ) ;
#182 = EDGE_CURVE ( 'NONE', #92, #47, #187, .T. ) ;
#183 = DIRECTION ( 'NONE',  ( -0.000000000000000000, -1.000000000000000000, -0.000000000000000000 ) ) ;
#184 = CARTESIAN_POINT ( 'NONE',  ( 20.15924261737264089, 13.00000000000000000, 4.249999999999996447 ) ) ;
#185 = CARTESIAN_POINT ( 'NONE',  ( 12.00000000000000000, 0.000000000000000000, -2.749999999999999112 ) ) ;
#186 = DIRECTION ( 'NONE',  ( 0.000000000000000000, 1.000000000000000000, 0.000000000000000000 ) ) ;
#187 = LINE ( 'NONE', #305, #143 ) ;
#188 = CLOSED_SHELL ( 'NONE', ( #546, #516, #361, #592, #435, #442, #160, #327, #544, #373, #415, #275, #71, #488, #461, #206, #142, #128, #610, #119 ) ) ;
#189 = CARTESIAN_POINT ( 'NONE',  ( -8.840757382627357330, 0.000000000000000000, 4.249999999999996447 ) ) ;
#190 = EDGE_CURVE ( 'NONE', #503, #92, #50, .T. ) ;
#191 = ORIENTED_EDGE ( 'NONE', *, *, #602, .T. ) ;
#192 = DIRECTION ( 'NONE',  ( -9.251858538542973800E-16, 1.000000000000000000, 0.000000000000000000 ) ) ;
#193 = FACE_OUTER_BOUND ( 'NONE', #329, .T. ) ;
#194 = EDGE_LOOP ( 'NONE', ( #551, #249, #456, #683 ) ) ;
#195 = DIRECTION ( 'NONE',  ( 0.000000000000000000, 0.000000000000000000, -1.000000000000000000 ) ) ;
#196 = LINE ( 'NONE', #459, #355 ) ;
#197 = CARTESIAN_POINT ( 'NONE',  ( 12.00000000000000000, 13.00000000000000000, -2.749999999999999112 ) ) ;
#198 = VECTOR ( 'NONE', #296, 1000.000000000000000 ) ;
#199 = ORIENTED_EDGE ( 'NONE', *, *, #565, .F. ) ;
#200 = VERTEX_POINT ( 'NONE', #412 ) ;
#201 = CARTESIAN_POINT ( 'NONE',  ( 23.50000000000002842, -29.99999999999999645, -11.49999999999999822 ) ) ;
#202 = FACE_BOUND ( 'NONE', #613, .T. ) ;
#203 = DIRECTION ( 'NONE',  ( -0.000000000000000000, -1.000000000000000000, -0.000000000000000000 ) ) ;
#204 = ORIENTED_EDGE ( 'NONE', *, *, #264, .T. ) ;
#205 = ORIENTED_EDGE ( 'NONE', *, *, #213, .T. ) ;
#206 = ADVANCED_FACE ( 'NONE', ( #636 ), #141, .F. ) ;
#207 = FACE_BOUND ( 'NONE', #73, .T. ) ;
#208 = ORIENTED_EDGE ( 'NONE', *, *, #168, .T. ) ;
#209 = DIRECTION ( 'NONE',  ( -0.000000000000000000, -1.000000000000000000, -0.000000000000000000 ) ) ;
#210 = AXIS2_PLACEMENT_3D ( 'NONE', #158, #106, #320 ) ;
#211 = CARTESIAN_POINT ( 'NONE',  ( 7.500000000000027534, -14.99999999999999645, -11.49999999999999822 ) ) ;
#212 = SURFACE_STYLE_USAGE ( .BOTH. , #4 ) ;
#213 = EDGE_CURVE ( 'NONE', #529, #220, #576, .T. ) ;
#214 = DIRECTION ( 'NONE',  ( -1.000000000000000000, 0.000000000000000000, 0.000000000000000000 ) ) ;
#215 = CIRCLE ( 'NONE', #363, 1.499999999999999556 ) ;
#216 = PRODUCT_RELATED_PRODUCT_CATEGORY ( 'part', '', ( #278 ) ) ;
#217 = DIRECTION ( 'NONE',  ( -1.000000000000000000, 0.000000000000000000, -0.000000000000000000 ) ) ;
#218 = EDGE_LOOP ( 'NONE', ( #31, #522 ) ) ;
#219 = CARTESIAN_POINT ( 'NONE',  ( 20.15924261737264089, 13.00000000000000000, 2.749999999999995559 ) ) ;
#220 = VERTEX_POINT ( 'NONE', #568 ) ;
#221 = VECTOR ( 'NONE', #362, 1000.000000000000000 ) ;
#222 = FACE_OUTER_BOUND ( 'NONE', #137, .T. ) ;
#223 = EDGE_CURVE ( 'NONE', #134, #23, #227, .T. ) ;
#224 = ORIENTED_EDGE ( 'NONE', *, *, #534, .T. ) ;
#225 = EDGE_LOOP ( 'NONE', ( #98, #457 ) ) ;
#226 = ORIENTED_EDGE ( 'NONE', *, *, #625, .T. ) ;
#227 = CIRCLE ( 'NONE', #472, 1.500000000000001332 ) ;
#228 = LINE ( 'NONE', #339, #598 ) ;
#229 = EDGE_CURVE ( 'NONE', #436, #23, #470, .T. ) ;
#230 = AXIS2_PLACEMENT_3D ( 'NONE', #68, #542, #13 ) ;
#231 = ORIENTED_EDGE ( 'NONE', *, *, #429, .T. ) ;
#232 = CARTESIAN_POINT ( 'NONE',  ( -8.840757382627357330, 0.000000000000000000, 2.749999999999995559 ) ) ;
#233 = EDGE_LOOP ( 'NONE', ( #224, #150, #500, #618 ) ) ;
#234 = VECTOR ( 'NONE', #599, 1000.000000000000000 ) ;
#235 = CARTESIAN_POINT ( 'NONE',  ( 23.50000000000002842, -29.99999999999999645, -21.50000000000000000 ) ) ;
#236 = DIRECTION ( 'NONE',  ( 0.000000000000000000, -1.000000000000000000, -0.000000000000000000 ) ) ;
#237 = EDGE_CURVE ( 'NONE', #661, #356, #634, .T. ) ;
#238 = DIRECTION ( 'NONE',  ( -0.000000000000000000, -1.000000000000000000, -0.000000000000000000 ) ) ;
#239 = EDGE_LOOP ( 'NONE', ( #588, #549 ) ) ;
#240 = DIRECTION ( 'NONE',  ( 0.000000000000000000, 0.000000000000000000, -1.000000000000000000 ) ) ;
#241 = DIRECTION ( 'NONE',  ( -0.000000000000000000, -1.000000000000000000, -0.000000000000000000 ) ) ;
#242 = AXIS2_PLACEMENT_3D ( 'NONE', #584, #241, #408 ) ;
#243 = AXIS2_PLACEMENT_3D ( 'NONE', #115, #113, #611 ) ;
#244 = ORIENTED_EDGE ( 'NONE', *, *, #40, .T. ) ;
#245 = CARTESIAN_POINT ( 'NONE',  ( 23.50000000000002842, -29.99999999999999645, -11.49999999999999822 ) ) ;
#246 = CARTESIAN_POINT ( 'NONE',  ( -6.999999999999973355, -14.99999999999999645, -21.50000000000000000 ) ) ;
#247 = CARTESIAN_POINT ( 'NONE',  ( 23.50000000000000000, 13.00000000000000000, -21.50000000000000000 ) ) ;
#248 = ORIENTED_EDGE ( 'NONE', *, *, #65, .F. ) ;
#249 = ORIENTED_EDGE ( 'NONE', *, *, #575, .T. ) ;
#250 = CARTESIAN_POINT ( 'NONE',  ( -23.50000000000000000, 13.00000000000000000, -21.50000000000000000 ) ) ;
#251 = CARTESIAN_POINT ( 'NONE',  ( 23.50000000000002842, -29.99999999999999645, -11.49999999999999822 ) ) ;
#252 = CARTESIAN_POINT ( 'NONE',  ( 20.15924261737264089, 13.00000000000000000, 2.749999999999995559 ) ) ;
#253 = VECTOR ( 'NONE', #140, 1000.000000000000000 ) ;
#254 = EDGE_LOOP ( 'NONE', ( #616, #124, #144, #555 ) ) ;
#255 = EDGE_LOOP ( 'NONE', ( #41, #469 ) ) ;
#256 = CARTESIAN_POINT ( 'NONE',  ( -19.34075738262735911, 13.00000000000000000, 1.249999999999994893 ) ) ;
#257 = CARTESIAN_POINT ( 'NONE',  ( -8.840757382627357330, 0.000000000000000000, 2.749999999999995559 ) ) ;
#258 = AXIS2_PLACEMENT_3D ( 'NONE', #257, #531, #525 ) ;
#259 = CYLINDRICAL_SURFACE ( 'NONE', #313, 1.500000000000000666 ) ;
#260 = PRESENTATION_STYLE_ASSIGNMENT (( #212 ) ) ;
#261 = DIRECTION ( 'NONE',  ( -0.000000000000000000, -1.000000000000000000, -0.000000000000000000 ) ) ;
#262 = DIRECTION ( 'NONE',  ( -0.000000000000000000, -1.000000000000000000, -0.000000000000000000 ) ) ;
#263 = LINE ( 'NONE', #693, #638 ) ;
#264 = EDGE_CURVE ( 'NONE', #607, #352, #567, .T. ) ;
#265 = AXIS2_PLACEMENT_3D ( 'NONE', #465, #145, #635 ) ;
#266 = EDGE_CURVE ( 'NONE', #220, #503, #131, .T. ) ;
#267 = DIRECTION ( 'NONE',  ( 0.000000000000000000, 0.000000000000000000, 1.000000000000000000 ) ) ;
#268 = VECTOR ( 'NONE', #167, 1000.000000000000000 ) ;
#269 = DIRECTION ( 'NONE',  ( 0.000000000000000000, 1.000000000000000000, 0.000000000000000000 ) ) ;
#270 = CIRCLE ( 'NONE', #333, 1.499999999999999556 ) ;
#271 = EDGE_LOOP ( 'NONE', ( #153, #538, #441, #594 ) ) ;
#272 = LINE ( 'NONE', #434, #268 ) ;
#273 = EDGE_LOOP ( 'NONE', ( #347, #177, #277, #639 ) ) ;
#274 = PRESENTATION_LAYER_ASSIGNMENT (  '', '', ( #648 ) ) ;
#275 = ADVANCED_FACE ( 'NONE', ( #691 ), #94, .F. ) ;
#276 = FACE_OUTER_BOUND ( 'NONE', #271, .T. ) ;
#277 = ORIENTED_EDGE ( 'NONE', *, *, #65, .T. ) ;
#278 = PRODUCT ( '\X2\53f34fa77535673a8fde63a55668\X0\', '\X2\53f34fa77535673a8fde63a55668\X0\', '', ( #560 ) ) ;
#279 = AXIS2_PLACEMENT_3D ( 'NONE', #251, #236, #580 ) ;
#280 = CIRCLE ( 'NONE', #666, 14.50000000000000000 ) ;
#281 = ORIENTED_EDGE ( 'NONE', *, *, #676, .T. ) ;
#282 = EDGE_LOOP ( 'NONE', ( #171, #226, #125, #120 ) ) ;
#283 = EDGE_CURVE ( 'NONE', #365, #475, #37, .T. ) ;
#284 = FACE_OUTER_BOUND ( 'NONE', #194, .T. ) ;
#285 = DIRECTION ( 'NONE',  ( -1.000000000000000000, 0.000000000000000000, 0.000000000000000000 ) ) ;
#286 = AXIS2_PLACEMENT_3D ( 'NONE', #33, #509, #291 ) ;
#287 = CYLINDRICAL_SURFACE ( 'NONE', #15, 1.500000000000000666 ) ;
#288 = DIRECTION ( 'NONE',  ( -1.000000000000000000, 0.000000000000000000, 0.000000000000000000 ) ) ;
#289 = DIRECTION ( 'NONE',  ( 0.000000000000000000, 0.000000000000000000, -1.000000000000000000 ) ) ;
#290 = EDGE_CURVE ( 'NONE', #365, #341, #304, .T. ) ;
#291 = DIRECTION ( 'NONE',  ( 0.000000000000000000, -0.000000000000000000, 1.000000000000000000 ) ) ;
#292 = LINE ( 'NONE', #562, #314 ) ;
#293 = CIRCLE ( 'NONE', #9, 1.500000000000000666 ) ;
#294 = EDGE_CURVE ( 'NONE', #475, #200, #348, .T. ) ;
#295 = VERTEX_POINT ( 'NONE', #514 ) ;
#296 = DIRECTION ( 'NONE',  ( 0.000000000000000000, 0.000000000000000000, -1.000000000000000000 ) ) ;
#297 = CARTESIAN_POINT ( 'NONE',  ( 23.50000000000000000, 13.00000000000000000, 5.500000000000000000 ) ) ;
#298 = ORIENTED_EDGE ( 'NONE', *, *, #687, .F. ) ;
#299 = DIRECTION ( 'NONE',  ( -1.000000000000000000, 0.000000000000000000, -0.000000000000000000 ) ) ;
#300 = CARTESIAN_POINT ( 'NONE',  ( 12.00000000000000000, 13.00000000000000000, -1.249999999999998224 ) ) ;
#301 = AXIS2_PLACEMENT_3D ( 'NONE', #552, #59, #267 ) ;
#302 = VERTEX_POINT ( 'NONE', #411 ) ;
#303 = ORIENTED_EDGE ( 'NONE', *, *, #10, .T. ) ;
#304 = LINE ( 'NONE', #245, #198 ) ;
#305 = CARTESIAN_POINT ( 'NONE',  ( 23.50000000000000000, 13.00000000000000000, 5.500000000000000000 ) ) ;
#306 = CARTESIAN_POINT ( 'NONE',  ( -23.49999999999997158, -29.99999999999999645, -11.49999999999999822 ) ) ;
#307 = ORIENTED_EDGE ( 'NONE', *, *, #43, .F. ) ;
#308 = EDGE_LOOP ( 'NONE', ( #523, #75 ) ) ;
#309 = DIRECTION ( 'NONE',  ( 1.000000000000000000, 0.000000000000000000, -0.000000000000000000 ) ) ;
#310 = DIRECTION ( 'NONE',  ( 0.000000000000000000, 0.000000000000000000, -1.000000000000000000 ) ) ;
#311 = FACE_OUTER_BOUND ( 'NONE', #695, .T. ) ;
#312 = DIRECTION ( 'NONE',  ( 0.000000000000000000, 0.000000000000000000, 1.000000000000000000 ) ) ;
#313 = AXIS2_PLACEMENT_3D ( 'NONE', #252, #203, #600 ) ;
#314 = VECTOR ( 'NONE', #129, 1000.000000000000000 ) ;
#315 = FACE_OUTER_BOUND ( 'NONE', #332, .T. ) ;
#316 = CARTESIAN_POINT ( 'NONE',  ( 12.00000000000000000, 13.00000000000000000, -2.749999999999999112 ) ) ;
#317 = EDGE_CURVE ( 'NONE', #295, #597, #111, .T. ) ;
#318 = CARTESIAN_POINT ( 'NONE',  ( 12.00000000000000000, 0.000000000000000000, -1.249999999999998224 ) ) ;
#319 = DIRECTION ( 'NONE',  ( 0.000000000000000000, 0.000000000000000000, 1.000000000000000000 ) ) ;
#320 = DIRECTION ( 'NONE',  ( 0.000000000000000000, 0.000000000000000000, 1.000000000000000000 ) ) ;
#321 = VECTOR ( 'NONE', #479, 1000.000000000000000 ) ;
#322 = CARTESIAN_POINT ( 'NONE',  ( 1.836970198721028948E-16, 13.00000000000000000, -1.249999999999999334 ) ) ;
#323 = ORIENTED_EDGE ( 'NONE', *, *, #43, .T. ) ;
#324 = AXIS2_PLACEMENT_3D ( 'NONE', #211, #376, #51 ) ;
#325 = FACE_BOUND ( 'NONE', #513, .T. ) ;
#326 = ORIENTED_EDGE ( 'NONE', *, *, #139, .T. ) ;
#327 = ADVANCED_FACE ( 'NONE', ( #344, #452, #44, #631, #82, #419 ), #127, .F. ) ;
#328 = CARTESIAN_POINT ( 'NONE',  ( 22.00000000000002842, -14.99999999999999467, -21.50000000000000000 ) ) ;
#329 = EDGE_LOOP ( 'NONE', ( #387, #93, #191, #533 ) ) ;
#330 = AXIS2_PLACEMENT_3D ( 'NONE', #486, #151, #366 ) ;
#331 = DIRECTION ( 'NONE',  ( 0.000000000000000000, 1.000000000000000000, 0.000000000000000000 ) ) ;
#332 = EDGE_LOOP ( 'NONE', ( #663, #138, #178, #402 ) ) ;
#333 = AXIS2_PLACEMENT_3D ( 'NONE', #5, #331, #319 ) ;
#334 = EDGE_CURVE ( 'NONE', #640, #656, #524, .T. ) ;
#335 = ORIENTED_EDGE ( 'NONE', *, *, #174, .T. ) ;
#336 = EDGE_CURVE ( 'NONE', #356, #661, #445, .T. ) ;
#337 = DIRECTION ( 'NONE',  ( 0.000000000000000000, 0.000000000000000000, 1.000000000000000000 ) ) ;
#338 = ORIENTED_EDGE ( 'NONE', *, *, #20, .T. ) ;
#339 = CARTESIAN_POINT ( 'NONE',  ( 23.50000000000002842, -29.99999999999999645, -21.50000000000000000 ) ) ;
#340 = CARTESIAN_POINT ( 'NONE',  ( 7.500000000000027534, -14.99999999999999645, -21.50000000000000000 ) ) ;
#341 = VERTEX_POINT ( 'NONE', #235 ) ;
#342 = CARTESIAN_POINT ( 'NONE',  ( 7.500000000000027534, -14.99999999999999645, -21.50000000000000000 ) ) ;
#343 = AXIS2_PLACEMENT_3D ( 'NONE', #185, #446, #22 ) ;
#344 = FACE_OUTER_BOUND ( 'NONE', #497, .T. ) ;
#345 = EDGE_CURVE ( 'NONE', #656, #173, #117, .T. ) ;
#346 = DIRECTION ( 'NONE',  ( -0.000000000000000000, -1.000000000000000000, -0.000000000000000000 ) ) ;
#347 = ORIENTED_EDGE ( 'NONE', *, *, #334, .F. ) ;
#348 = LINE ( 'NONE', #572, #414 ) ;
#349 = DIRECTION ( 'NONE',  ( -0.000000000000000000, -1.000000000000000000, -0.000000000000000000 ) ) ;
#350 = CARTESIAN_POINT ( 'NONE',  ( 20.15924261737264089, 13.00000000000000000, 1.249999999999994893 ) ) ;
#351 = APPLICATION_CONTEXT ( 'automotive_design' ) ;
#352 = VERTEX_POINT ( 'NONE', #454 ) ;
#353 = CARTESIAN_POINT ( 'NONE',  ( 20.15924261737264089, 13.00000000000000000, 2.749999999999995559 ) ) ;
#354 = FACE_BOUND ( 'NONE', #239, .T. ) ;
#355 = VECTOR ( 'NONE', #590, 1000.000000000000000 ) ;
#356 = VERTEX_POINT ( 'NONE', #184 ) ;
#357 = ORIENTED_EDGE ( 'NONE', *, *, #625, .F. ) ;
#358 = CARTESIAN_POINT ( 'NONE',  ( -23.50000000000000000, 13.00000000000000000, -5.500000000000000000 ) ) ;
#359 = DIRECTION ( 'NONE',  ( 0.000000000000000000, 0.000000000000000000, -1.000000000000000000 ) ) ;
#360 = AXIS2_PLACEMENT_3D ( 'NONE', #197, #261, #686 ) ;
#361 = ADVANCED_FACE ( 'NONE', ( #507 ), #24, .F. ) ;
#362 = DIRECTION ( 'NONE',  ( 1.000000000000000000, 0.000000000000000000, 0.000000000000000000 ) ) ;
#363 = AXIS2_PLACEMENT_3D ( 'NONE', #386, #269, #608 ) ;
#364 = ORIENTED_EDGE ( 'NONE', *, *, #336, .T. ) ;
#365 = VERTEX_POINT ( 'NONE', #646 ) ;
#366 = DIRECTION ( 'NONE',  ( 0.000000000000000000, 0.000000000000000000, -1.000000000000000000 ) ) ;
#367 = FACE_BOUND ( 'NONE', #255, .T. ) ;
#368 = DIRECTION ( 'NONE',  ( 0.000000000000000000, 1.000000000000000000, 0.000000000000000000 ) ) ;
#369 = EDGE_LOOP ( 'NONE', ( #615, #372 ) ) ;
#370 = ORIENTED_EDGE ( 'NONE', *, *, #534, .F. ) ;
#371 = FACE_OUTER_BOUND ( 'NONE', #70, .T. ) ;
#372 = ORIENTED_EDGE ( 'NONE', *, *, #398, .F. ) ;
#373 = ADVANCED_FACE ( 'NONE', ( #374, #207 ), #428, .F. ) ;
#374 = FACE_OUTER_BOUND ( 'NONE', #254, .T. ) ;
#375 = AXIS2_PLACEMENT_3D ( 'NONE', #392, #83, #337 ) ;
#376 = DIRECTION ( 'NONE',  ( 0.000000000000000000, 0.000000000000000000, -1.000000000000000000 ) ) ;
#377 = DIRECTION ( 'NONE',  ( 0.000000000000000000, 0.000000000000000000, 1.000000000000000000 ) ) ;
#378 = PLANE ( 'NONE',  #330 ) ;
#379 = DIRECTION ( 'NONE',  ( -1.000000000000000000, 0.000000000000000000, 0.000000000000000000 ) ) ;
#380 = AXIS2_PLACEMENT_3D ( 'NONE', #146, #349, #510 ) ;
#381 = DIRECTION ( 'NONE',  ( 0.000000000000000000, 0.000000000000000000, 1.000000000000000000 ) ) ;
#382 = ORIENTED_EDGE ( 'NONE', *, *, #80, .F. ) ;
#383 = VECTOR ( 'NONE', #238, 1000.000000000000000 ) ;
#384 = CYLINDRICAL_SURFACE ( 'NONE', #91, 1.500000000000000666 ) ;
#385 = ORIENTED_EDGE ( 'NONE', *, *, #290, .T. ) ;
#386 = CARTESIAN_POINT ( 'NONE',  ( 0.000000000000000000, 0.000000000000000000, -2.749999999999999112 ) ) ;
#387 = ORIENTED_EDGE ( 'NONE', *, *, #139, .F. ) ;
#388 = VECTOR ( 'NONE', #99, 1000.000000000000000 ) ;
#389 = EDGE_CURVE ( 'NONE', #47, #566, #537, .T. ) ;
#390 = VERTEX_POINT ( 'NONE', #54 ) ;
#391 = EDGE_CURVE ( 'NONE', #176, #48, #612, .T. ) ;
#392 = CARTESIAN_POINT ( 'NONE',  ( -19.34075738262735911, 0.000000000000000000, 2.749999999999995559 ) ) ;
#393 = DIRECTION ( 'NONE',  ( 1.000000000000000000, 0.000000000000000000, 0.000000000000000000 ) ) ;
#394 = DIRECTION ( 'NONE',  ( 0.000000000000000000, 0.000000000000000000, 1.000000000000000000 ) ) ;
#395 = APPLICATION_PROTOCOL_DEFINITION ( 'draft international standard', 'automotive_design', 1998, #501 ) ;
#396 = ORIENTED_EDGE ( 'NONE', *, *, #676, .F. ) ;
#397 = CARTESIAN_POINT ( 'NONE',  ( 0.000000000000000000, 13.00000000000000000, -2.749999999999999112 ) ) ;
#398 = EDGE_CURVE ( 'NONE', #352, #607, #293, .T. ) ;
#399 = CARTESIAN_POINT ( 'NONE',  ( -19.34075738262735911, 13.00000000000000000, 4.249999999999995559 ) ) ;
#400 = AXIS2_PLACEMENT_3D ( 'NONE', #596, #368, #697 ) ;
#401 = AXIS2_PLACEMENT_3D ( 'NONE', #673, #669, #394 ) ;
#402 = ORIENTED_EDGE ( 'NONE', *, *, #10, .F. ) ;
#403 = DIRECTION ( 'NONE',  ( 0.000000000000000000, 0.000000000000000000, 1.000000000000000000 ) ) ;
#404 = FACE_OUTER_BOUND ( 'NONE', #273, .T. ) ;
#405 = LINE ( 'NONE', #624, #383 ) ;
#406 = VERTEX_POINT ( 'NONE', #166 ) ;
#407 = DIRECTION ( 'NONE',  ( -0.000000000000000000, -1.000000000000000000, -0.000000000000000000 ) ) ;
#408 = DIRECTION ( 'NONE',  ( 0.000000000000000000, 0.000000000000000000, -1.000000000000000000 ) ) ;
#409 = EDGE_CURVE ( 'NONE', #356, #48, #540, .T. ) ;
#410 = ORIENTED_EDGE ( 'NONE', *, *, #602, .F. ) ;
#411 = CARTESIAN_POINT ( 'NONE',  ( -8.840757382627357330, 13.00000000000000000, 1.249999999999994227 ) ) ;
#412 = CARTESIAN_POINT ( 'NONE',  ( -23.50000000000000000, 0.000000000000000000, -11.49999999999999822 ) ) ;
#413 = MANIFOLD_SOLID_BREP ( '\X2\51f853f0\X0\-\X2\62c94f38\X0\2', #188 ) ;
#414 = VECTOR ( 'NONE', #192, 1000.000000000000000 ) ;
#415 = ADVANCED_FACE ( 'NONE', ( #1 ), #378, .F. ) ;
#416 = CARTESIAN_POINT ( 'NONE',  ( 0.000000000000000000, 13.00000000000000000, -4.249999999999998224 ) ) ;
#417 = ORIENTED_EDGE ( 'NONE', *, *, #294, .T. ) ;
#418 = ORIENTED_EDGE ( 'NONE', *, *, #481, .T. ) ;
#419 = FACE_BOUND ( 'NONE', #32, .T. ) ;
#420 = CARTESIAN_POINT ( 'NONE',  ( 7.500000000000027534, -14.99999999999999645, -11.49999999999999822 ) ) ;
#421 = LINE ( 'NONE', #643, #493 ) ;
#422 = ORIENTED_EDGE ( 'NONE', *, *, #80, .T. ) ;
#423 = VERTEX_POINT ( 'NONE', #589 ) ;
#424 = DIRECTION ( 'NONE',  ( 0.000000000000000000, 0.000000000000000000, 1.000000000000000000 ) ) ;
#425 = CARTESIAN_POINT ( 'NONE',  ( -8.840757382627357330, 13.00000000000000000, 4.249999999999996447 ) ) ;
#426 = EDGE_CURVE ( 'NONE', #156, #295, #530, .T. ) ;
#427 = AXIS2_PLACEMENT_3D ( 'NONE', #397, #674, #109 ) ;
#428 = PLANE ( 'NONE',  #511 ) ;
#429 = EDGE_CURVE ( 'NONE', #449, #423, #421, .T. ) ;
#430 = CYLINDRICAL_SURFACE ( 'NONE', #360, 1.500000000000000444 ) ;
#431 =( NAMED_UNIT ( * ) PLANE_ANGLE_UNIT ( ) SI_UNIT ( $, .RADIAN. ) );
#432 = AXIS2_PLACEMENT_3D ( 'NONE', #485, #563, #448 ) ;
#433 = FACE_OUTER_BOUND ( 'NONE', #587, .T. ) ;
#434 = CARTESIAN_POINT ( 'NONE',  ( 23.50000000000000000, 13.00000000000000000, -5.500000000000000000 ) ) ;
#435 = ADVANCED_FACE ( 'NONE', ( #315 ), #161, .F. ) ;
#436 = VERTEX_POINT ( 'NONE', #425 ) ;
#437 = LINE ( 'NONE', #322, #487 ) ;
#438 = ORIENTED_EDGE ( 'NONE', *, *, #174, .F. ) ;
#439 = AXIS2_PLACEMENT_3D ( 'NONE', #550, #169, #547 ) ;
#440 = CARTESIAN_POINT ( 'NONE',  ( 7.500000000000027534, -14.99999999999999645, -11.49999999999999822 ) ) ;
#441 = ORIENTED_EDGE ( 'NONE', *, *, #283, .F. ) ;
#442 = ADVANCED_FACE ( 'NONE', ( #103 ), #147, .F. ) ;
#443 = ORIENTED_EDGE ( 'NONE', *, *, #237, .T. ) ;
#444 = ADVANCED_BREP_SHAPE_REPRESENTATION ( '\X2\53f34fa77535673a8fde63a55668\X0\', ( #413, #559 ), #460 ) ;
#445 = CIRCLE ( 'NONE', #689, 1.500000000000000444 ) ;
#446 = DIRECTION ( 'NONE',  ( 0.000000000000000000, 1.000000000000000000, 0.000000000000000000 ) ) ;
#447 = CIRCLE ( 'NONE', #230, 1.500000000000000666 ) ;
#448 = DIRECTION ( 'NONE',  ( 0.000000000000000000, 0.000000000000000000, 1.000000000000000000 ) ) ;
#449 = VERTEX_POINT ( 'NONE', #416 ) ;
#450 = CARTESIAN_POINT ( 'NONE',  ( 0.000000000000000000, 0.000000000000000000, 0.000000000000000000 ) ) ;
#451 = EDGE_CURVE ( 'NONE', #200, #566, #480, .T. ) ;
#452 = FACE_BOUND ( 'NONE', #218, .T. ) ;
#453 = DIRECTION ( 'NONE',  ( 0.000000000000000000, 1.000000000000000000, 0.000000000000000000 ) ) ;
#454 = CARTESIAN_POINT ( 'NONE',  ( 12.00000000000000000, 13.00000000000000000, -1.249999999999998224 ) ) ;
#455 = PLANE ( 'NONE',  #279 ) ;
#456 = ORIENTED_EDGE ( 'NONE', *, *, #426, .T. ) ;
#457 = ORIENTED_EDGE ( 'NONE', *, *, #603, .T. ) ;
#458 = DIRECTION ( 'NONE',  ( 0.000000000000000000, 1.000000000000000000, 0.000000000000000000 ) ) ;
#459 = CARTESIAN_POINT ( 'NONE',  ( -23.49999999999997158, -29.99999999999999645, -11.49999999999999822 ) ) ;
#460 =( GEOMETRIC_REPRESENTATION_CONTEXT ( 3 ) GLOBAL_UNCERTAINTY_ASSIGNED_CONTEXT ( ( #502 ) ) GLOBAL_UNIT_ASSIGNED_CONTEXT ( ( #571, #621, #121 ) ) REPRESENTATION_CONTEXT ( 'NONE', 'WORKASPACE' ) );
#461 = ADVANCED_FACE ( 'NONE', ( #371 ), #259, .F. ) ;
#462 = UNCERTAINTY_MEASURE_WITH_UNIT (LENGTH_MEASURE( 1.000000000000000082E-05 ), #478, 'distance_accuracy_value', 'NONE');
#463 = VERTEX_POINT ( 'NONE', #154 ) ;
#464 = PRODUCT_DEFINITION ( '鏈', '', #6, #496 ) ;
#465 = CARTESIAN_POINT ( 'NONE',  ( -19.34075738262735911, 0.000000000000000000, 2.749999999999995559 ) ) ;
#466 = DIRECTION ( 'NONE',  ( -1.000000000000000000, 0.000000000000000000, 0.000000000000000000 ) ) ;
#467 = DIRECTION ( 'NONE',  ( -0.000000000000000000, -1.000000000000000000, -0.000000000000000000 ) ) ;
#468 = ORIENTED_EDGE ( 'NONE', *, *, #565, .T. ) ;
#469 = ORIENTED_EDGE ( 'NONE', *, *, #336, .F. ) ;
#470 = LINE ( 'NONE', #681, #505 ) ;
#471 = LINE ( 'NONE', #300, #677 ) ;
#472 = AXIS2_PLACEMENT_3D ( 'NONE', #232, #186, #519 ) ;
#473 = DIRECTION ( 'NONE',  ( 9.251858538542973800E-16, -1.000000000000000000, 0.000000000000000000 ) ) ;
#474 = ORIENTED_EDGE ( 'NONE', *, *, #556, .F. ) ;
#475 = VERTEX_POINT ( 'NONE', #306 ) ;
#476 = CIRCLE ( 'NONE', #343, 1.500000000000000666 ) ;
#477 = ORIENTED_EDGE ( 'NONE', *, *, #409, .T. ) ;
#478 =( LENGTH_UNIT ( ) NAMED_UNIT ( * ) SI_UNIT ( .MILLI., .METRE. ) );
#479 = DIRECTION ( 'NONE',  ( 1.000000000000000000, 0.000000000000000000, 0.000000000000000000 ) ) ;
#480 = LINE ( 'NONE', #647, #221 ) ;
#481 = EDGE_CURVE ( 'NONE', #156, #406, #14, .T. ) ;
#482 = CARTESIAN_POINT ( 'NONE',  ( -8.840757382627357330, 13.00000000000000000, 2.749999999999995559 ) ) ;
#483 = FILL_AREA_STYLE ('',( #543 ) ) ;
#484 = DIRECTION ( 'NONE',  ( 1.000000000000000000, 0.000000000000000000, 0.000000000000000000 ) ) ;
#485 = CARTESIAN_POINT ( 'NONE',  ( 0.000000000000000000, 13.00000000000000000, -2.749999999999999112 ) ) ;
#486 = CARTESIAN_POINT ( 'NONE',  ( -23.50000000000000000, 13.00000000000000000, -5.500000000000000000 ) ) ;
#487 = VECTOR ( 'NONE', #654, 1000.000000000000000 ) ;
#488 = ADVANCED_FACE ( 'NONE', ( #58 ), #526, .F. ) ;
#489 = CARTESIAN_POINT ( 'NONE',  ( 12.00000000000000000, 13.00000000000000000, -4.250000000000000000 ) ) ;
#490 = EDGE_CURVE ( 'NONE', #529, #341, #46, .T. ) ;
#491 = ORIENTED_EDGE ( 'NONE', *, *, #105, .F. ) ;
#492 = CARTESIAN_POINT ( 'NONE',  ( 23.50000000000000000, 0.000000000000000000, -11.49999999999999822 ) ) ;
#493 = VECTOR ( 'NONE', #107, 1000.000000000000000 ) ;
#494 = ORIENTED_EDGE ( 'NONE', *, *, #182, .T. ) ;
#495 = CARTESIAN_POINT ( 'NONE',  ( 20.15924261737264089, 13.00000000000000000, 1.249999999999994893 ) ) ;
#496 = PRODUCT_DEFINITION_CONTEXT ( 'detailed design', #501, 'design' ) ;
#497 = EDGE_LOOP ( 'NONE', ( #199, #665, #582, #370 ) ) ;
#498 = EDGE_CURVE ( 'NONE', #566, #365, #593, .T. ) ;
#499 = VECTOR ( 'NONE', #629, 1000.000000000000000 ) ;
#500 = ORIENTED_EDGE ( 'NONE', *, *, #190, .F. ) ;
#501 = APPLICATION_CONTEXT ( 'automotive_design' ) ;
#502 = UNCERTAINTY_MEASURE_WITH_UNIT (LENGTH_MEASURE( 1.000000000000000082E-05 ), #571, 'distance_accuracy_value', 'NONE');
#503 = VERTEX_POINT ( 'NONE', #102 ) ;
#504 = DIRECTION ( 'NONE',  ( -0.000000000000000000, -1.000000000000000000, -0.000000000000000000 ) ) ;
#505 = VECTOR ( 'NONE', #407, 1000.000000000000000 ) ;
#506 = CARTESIAN_POINT ( 'NONE',  ( -19.34075738262735911, 13.00000000000000000, 2.749999999999995559 ) ) ;
#507 = FACE_OUTER_BOUND ( 'NONE', #282, .T. ) ;
#508 = DIRECTION ( 'NONE',  ( 0.000000000000000000, 0.000000000000000000, 1.000000000000000000 ) ) ;
#509 = DIRECTION ( 'NONE',  ( 0.000000000000000000, 1.000000000000000000, 0.000000000000000000 ) ) ;
#510 = DIRECTION ( 'NONE',  ( 0.000000000000000000, 0.000000000000000000, -1.000000000000000000 ) ) ;
#511 = AXIS2_PLACEMENT_3D ( 'NONE', #649, #312, #309 ) ;
#512 = ORIENTED_EDGE ( 'NONE', *, *, #603, .F. ) ;
#513 = EDGE_LOOP ( 'NONE', ( #122, #208 ) ) ;
#514 = CARTESIAN_POINT ( 'NONE',  ( -19.34075738262735911, 0.000000000000000000, 1.249999999999994893 ) ) ;
#515 = CARTESIAN_POINT ( 'NONE',  ( -19.34075738262735911, 13.00000000000000000, 1.249999999999994893 ) ) ;
#516 = ADVANCED_FACE ( 'NONE', ( #311 ), #430, .F. ) ;
#517 = EDGE_CURVE ( 'NONE', #463, #640, #62, .T. ) ;
#518 = ORIENTED_EDGE ( 'NONE', *, *, #3, .T. ) ;
#519 = DIRECTION ( 'NONE',  ( 0.000000000000000000, 0.000000000000000000, 1.000000000000000000 ) ) ;
#520 = DIRECTION ( 'NONE',  ( 0.000000000000000000, 1.000000000000000000, 0.000000000000000000 ) ) ;
#521 = DIRECTION ( 'NONE',  ( -0.000000000000000000, -1.000000000000000000, -0.000000000000000000 ) ) ;
#522 = ORIENTED_EDGE ( 'NONE', *, *, #55, .T. ) ;
#523 = ORIENTED_EDGE ( 'NONE', *, *, #223, .T. ) ;
#524 = LINE ( 'NONE', #583, #605 ) ;
#525 = DIRECTION ( 'NONE',  ( 0.000000000000000000, 0.000000000000000000, 1.000000000000000000 ) ) ;
#526 = CYLINDRICAL_SURFACE ( 'NONE', #130, 1.500000000000001332 ) ;
#527 = VERTEX_POINT ( 'NONE', #318 ) ;
#528 = EDGE_LOOP ( 'NONE', ( #8, #561 ) ) ;
#529 = VERTEX_POINT ( 'NONE', #541 ) ;
#530 = LINE ( 'NONE', #256, #388 ) ;
#531 = DIRECTION ( 'NONE',  ( 0.000000000000000000, 1.000000000000000000, 0.000000000000000000 ) ) ;
#532 = CARTESIAN_POINT ( 'NONE',  ( 23.50000000000000000, 0.000000000000000000, -11.49999999999999822 ) ) ;
#533 = ORIENTED_EDGE ( 'NONE', *, *, #553, .F. ) ;
#534 = EDGE_CURVE ( 'NONE', #42, #47, #263, .T. ) ;
#535 = AXIS2_PLACEMENT_3D ( 'NONE', #585, #467, #96 ) ;
#536 = CIRCLE ( 'NONE', #258, 1.500000000000001332 ) ;
#537 = LINE ( 'NONE', #162, #234 ) ;
#538 = ORIENTED_EDGE ( 'NONE', *, *, #294, .F. ) ;
#539 = DIRECTION ( 'NONE',  ( 0.000000000000000000, 0.000000000000000000, -1.000000000000000000 ) ) ;
#540 = LINE ( 'NONE', #57, #595 ) ;
#541 = CARTESIAN_POINT ( 'NONE',  ( 23.50000000000000000, 13.00000000000000000, -21.50000000000000000 ) ) ;
#542 = DIRECTION ( 'NONE',  ( 0.000000000000000000, 1.000000000000000000, 0.000000000000000000 ) ) ;
#543 = FILL_AREA_STYLE_COLOUR ( '', #101 ) ;
#544 = ADVANCED_FACE ( 'NONE', ( #39 ), #637, .F. ) ;
#545 = VECTOR ( 'NONE', #135, 1000.000000000000000 ) ;
#546 = ADVANCED_FACE ( 'NONE', ( #222 ), #11, .F. ) ;
#547 = DIRECTION ( 'NONE',  ( 0.000000000000000000, 0.000000000000000000, 1.000000000000000000 ) ) ;
#548 = CIRCLE ( 'NONE', #439, 1.500000000000000444 ) ;
#549 = ORIENTED_EDGE ( 'NONE', *, *, #575, .F. ) ;
#550 = CARTESIAN_POINT ( 'NONE',  ( -19.34075738262735911, 13.00000000000000000, 2.749999999999995559 ) ) ;
#551 = ORIENTED_EDGE ( 'NONE', *, *, #3, .F. ) ;
#552 = CARTESIAN_POINT ( 'NONE',  ( -8.840757382627357330, 13.00000000000000000, 2.749999999999995559 ) ) ;
#553 = EDGE_CURVE ( 'NONE', #527, #149, #447, .T. ) ;
#554 = AXIS2_PLACEMENT_3D ( 'NONE', #340, #78, #288 ) ;
#555 = ORIENTED_EDGE ( 'NONE', *, *, #213, .F. ) ;
#556 = EDGE_CURVE ( 'NONE', #92, #529, #272, .T. ) ;
#557 = EDGE_LOOP ( 'NONE', ( #17, #338, #303, #491 ) ) ;
#558 = AXIS2_PLACEMENT_3D ( 'NONE', #95, #520, #38 ) ;
#559 = AXIS2_PLACEMENT_3D ( 'NONE', #450, #614, #393 ) ;
#560 = PRODUCT_CONTEXT ( 'NONE', #351, 'mechanical' ) ;
#561 = ORIENTED_EDGE ( 'NONE', *, *, #651, .T. ) ;
#562 = CARTESIAN_POINT ( 'NONE',  ( -6.999999999999973355, -14.99999999999999645, -11.49999999999999822 ) ) ;
#563 = DIRECTION ( 'NONE',  ( 0.000000000000000000, 1.000000000000000000, 0.000000000000000000 ) ) ;
#564 = ORIENTED_EDGE ( 'NONE', *, *, #334, .T. ) ;
#565 = EDGE_CURVE ( 'NONE', #200, #42, #658, .T. ) ;
#566 = VERTEX_POINT ( 'NONE', #492 ) ;
#567 = CIRCLE ( 'NONE', #170, 1.500000000000000666 ) ;
#568 = CARTESIAN_POINT ( 'NONE',  ( -23.50000000000000000, 13.00000000000000000, -21.50000000000000000 ) ) ;
#569 = CIRCLE ( 'NONE', #375, 1.500000000000000444 ) ;
#570 = CARTESIAN_POINT ( 'NONE',  ( 23.50000000000000000, 0.000000000000000000, 5.500000000000000000 ) ) ;
#571 =( LENGTH_UNIT ( ) NAMED_UNIT ( * ) SI_UNIT ( .MILLI., .METRE. ) );
#572 = CARTESIAN_POINT ( 'NONE',  ( -23.49999999999997158, -29.99999999999999645, -11.49999999999999822 ) ) ;
#573 = CARTESIAN_POINT ( 'NONE',  ( -23.50000000000000000, 13.00000000000000000, -21.50000000000000000 ) ) ;
#574 = ORIENTED_EDGE ( 'NONE', *, *, #20, .F. ) ;
#575 = EDGE_CURVE ( 'NONE', #406, #156, #548, .T. ) ;
#576 = LINE ( 'NONE', #250, #545 ) ;
#577 = CARTESIAN_POINT ( 'NONE',  ( 20.15924261737264089, 0.000000000000000000, 1.249999999999994893 ) ) ;
#578 = ORIENTED_EDGE ( 'NONE', *, *, #190, .T. ) ;
#579 = DIRECTION ( 'NONE',  ( 0.000000000000000000, 1.000000000000000000, 0.000000000000000000 ) ) ;
#580 = DIRECTION ( 'NONE',  ( 0.000000000000000000, 0.000000000000000000, -1.000000000000000000 ) ) ;
#581 = ORIENTED_EDGE ( 'NONE', *, *, #498, .T. ) ;
#582 = ORIENTED_EDGE ( 'NONE', *, *, #389, .F. ) ;
#583 = CARTESIAN_POINT ( 'NONE',  ( 22.00000000000002487, -14.99999999999999467, -11.49999999999999822 ) ) ;
#584 = CARTESIAN_POINT ( 'NONE',  ( 12.00000000000000000, 13.00000000000000000, -2.749999999999999112 ) ) ;
#585 = CARTESIAN_POINT ( 'NONE',  ( -19.34075738262735911, 13.00000000000000000, 2.749999999999995559 ) ) ;
#586 = EDGE_LOOP ( 'NONE', ( #690, #205, #16, #578 ) ) ;
#587 = EDGE_LOOP ( 'NONE', ( #443, #477, #670, #307 ) ) ;
#588 = ORIENTED_EDGE ( 'NONE', *, *, #481, .F. ) ;
#589 = CARTESIAN_POINT ( 'NONE',  ( 0.000000000000000000, 0.000000000000000000, -4.249999999999998224 ) ) ;
#590 = DIRECTION ( 'NONE',  ( 0.000000000000000000, 0.000000000000000000, -1.000000000000000000 ) ) ;
#591 = VERTEX_POINT ( 'NONE', #118 ) ;
#592 = ADVANCED_FACE ( 'NONE', ( #433 ), #384, .F. ) ;
#593 = LINE ( 'NONE', #532, #52 ) ;
#594 = ORIENTED_EDGE ( 'NONE', *, *, #498, .F. ) ;
#595 = VECTOR ( 'NONE', #262, 1000.000000000000000 ) ;
#596 = CARTESIAN_POINT ( 'NONE',  ( -19.34075738262735911, 13.00000000000000000, 2.749999999999995559 ) ) ;
#597 = VERTEX_POINT ( 'NONE', #110 ) ;
#598 = VECTOR ( 'NONE', #466, 1000.000000000000000 ) ;
#599 = DIRECTION ( 'NONE',  ( -0.000000000000000000, -0.000000000000000000, -1.000000000000000000 ) ) ;
#600 = DIRECTION ( 'NONE',  ( 0.000000000000000000, 0.000000000000000000, -1.000000000000000000 ) ) ;
#601 = CARTESIAN_POINT ( 'NONE',  ( -23.50000000000000000, 0.000000000000000000, -5.500000000000000000 ) ) ;
#602 = EDGE_CURVE ( 'NONE', #607, #149, #606, .T. ) ;
#603 = EDGE_CURVE ( 'NONE', #48, #176, #617, .T. ) ;
#604 = CARTESIAN_POINT ( 'NONE',  ( 0.000000000000000000, 0.000000000000000000, -11.49999999999999822 ) ) ;
#605 = VECTOR ( 'NONE', #240, 1000.000000000000000 ) ;
#606 = LINE ( 'NONE', #175, #180 ) ;
#607 = VERTEX_POINT ( 'NONE', #489 ) ;
#608 = DIRECTION ( 'NONE',  ( 0.000000000000000000, 0.000000000000000000, 1.000000000000000000 ) ) ;
#609 = ORIENTED_EDGE ( 'NONE', *, *, #168, .F. ) ;
#610 = ADVANCED_FACE ( 'NONE', ( #325, #276 ), #61, .F. ) ;
#611 = DIRECTION ( 'NONE',  ( 0.000000000000000000, 0.000000000000000000, 1.000000000000000000 ) ) ;
#612 = CIRCLE ( 'NONE', #210, 1.500000000000000444 ) ;
#613 = EDGE_LOOP ( 'NONE', ( #12, #574 ) ) ;
#614 = DIRECTION ( 'NONE',  ( 0.000000000000000000, 0.000000000000000000, 1.000000000000000000 ) ) ;
#615 = ORIENTED_EDGE ( 'NONE', *, *, #264, .F. ) ;
#616 = ORIENTED_EDGE ( 'NONE', *, *, #490, .T. ) ;
#617 = CIRCLE ( 'NONE', #243, 1.500000000000000444 ) ;
#618 = ORIENTED_EDGE ( 'NONE', *, *, #27, .T. ) ;
#619 = CARTESIAN_POINT ( 'NONE',  ( 1.836970198721028948E-16, 0.000000000000000000, -1.249999999999999334 ) ) ;
#620 = LINE ( 'NONE', #350, #499 ) ;
#621 =( NAMED_UNIT ( * ) PLANE_ANGLE_UNIT ( ) SI_UNIT ( $, .RADIAN. ) );
#622 = CARTESIAN_POINT ( 'NONE',  ( 20.15924261737264089, 13.00000000000000000, 2.749999999999995559 ) ) ;
#623 = VECTOR ( 'NONE', #183, 1000.000000000000000 ) ;
#624 = CARTESIAN_POINT ( 'NONE',  ( -8.840757382627357330, 13.00000000000000000, 1.249999999999994227 ) ) ;
#625 = EDGE_CURVE ( 'NONE', #390, #69, #437, .T. ) ;
#626 = ORIENTED_EDGE ( 'NONE', *, *, #409, .F. ) ;
#627 = DIRECTION ( 'NONE',  ( -1.000000000000000000, 0.000000000000000000, 0.000000000000000000 ) ) ;
#628 = DIRECTION ( 'NONE',  ( -0.000000000000000000, -1.000000000000000000, -0.000000000000000000 ) ) ;
#629 = DIRECTION ( 'NONE',  ( -0.000000000000000000, -1.000000000000000000, -0.000000000000000000 ) ) ;
#630 = ORIENTED_EDGE ( 'NONE', *, *, #426, .F. ) ;
#631 = FACE_BOUND ( 'NONE', #225, .T. ) ;
#632 = FACE_OUTER_BOUND ( 'NONE', #586, .T. ) ;
#633 = ORIENTED_EDGE ( 'NONE', *, *, #345, .F. ) ;
#634 = CIRCLE ( 'NONE', #60, 1.500000000000000444 ) ;
#635 = DIRECTION ( 'NONE',  ( 0.000000000000000000, 0.000000000000000000, 1.000000000000000000 ) ) ;
#636 = FACE_OUTER_BOUND ( 'NONE', #157, .T. ) ;
#637 = PLANE ( 'NONE',  #179 ) ;
#638 = VECTOR ( 'NONE', #484, 1000.000000000000000 ) ;
#639 = ORIENTED_EDGE ( 'NONE', *, *, #687, .T. ) ;
#640 = VERTEX_POINT ( 'NONE', #108 ) ;
#641 = FACE_BOUND ( 'NONE', #369, .T. ) ;
#642 = ORIENTED_EDGE ( 'NONE', *, *, #553, .T. ) ;
#643 = CARTESIAN_POINT ( 'NONE',  ( 0.000000000000000000, 13.00000000000000000, -4.249999999999998224 ) ) ;
#644 = ORIENTED_EDGE ( 'NONE', *, *, #283, .T. ) ;
#645 = ORIENTED_EDGE ( 'NONE', *, *, #290, .F. ) ;
#646 = CARTESIAN_POINT ( 'NONE',  ( 23.50000000000002842, -29.99999999999999645, -11.49999999999999822 ) ) ;
#647 = CARTESIAN_POINT ( 'NONE',  ( -23.50000000000000000, 0.000000000000000000, -11.49999999999999822 ) ) ;
#648 = STYLED_ITEM ( 'NONE', ( #260 ), #413 ) ;
#649 = CARTESIAN_POINT ( 'NONE',  ( -23.50000000000000000, 13.00000000000000000, -21.50000000000000000 ) ) ;
#650 = DIRECTION ( 'NONE',  ( 0.000000000000000000, 0.000000000000000000, -1.000000000000000000 ) ) ;
#651 = EDGE_CURVE ( 'NONE', #69, #423, #215, .T. ) ;
#652 =( NAMED_UNIT ( * ) SI_UNIT ( $, .STERADIAN. ) SOLID_ANGLE_UNIT ( ) );
#653 = AXIS2_PLACEMENT_3D ( 'NONE', #604, #172, #217 ) ;
#654 = DIRECTION ( 'NONE',  ( -0.000000000000000000, -1.000000000000000000, -0.000000000000000000 ) ) ;
#655 = DIRECTION ( 'NONE',  ( 0.000000000000000000, 0.000000000000000000, -1.000000000000000000 ) ) ;
#656 = VERTEX_POINT ( 'NONE', #328 ) ;
#657 = AXIS2_PLACEMENT_3D ( 'NONE', #85, #195, #299 ) ;
#658 = LINE ( 'NONE', #601, #148 ) ;
#659 = VECTOR ( 'NONE', #56, 1000.000000000000000 ) ;
#660 = EDGE_CURVE ( 'NONE', #423, #69, #270, .T. ) ;
#661 = VERTEX_POINT ( 'NONE', #495 ) ;
#662 = DIRECTION ( 'NONE',  ( -0.000000000000000000, -1.000000000000000000, -0.000000000000000000 ) ) ;
#663 = ORIENTED_EDGE ( 'NONE', *, *, #667, .T. ) ;
#664 = PRODUCT_DEFINITION_SHAPE ( 'NONE', 'NONE',  #464 ) ;
#665 = ORIENTED_EDGE ( 'NONE', *, *, #451, .T. ) ;
#666 = AXIS2_PLACEMENT_3D ( 'NONE', #420, #310, #685 ) ;
#667 = EDGE_CURVE ( 'NONE', #302, #436, #64, .T. ) ;
#668 = AXIS2_PLACEMENT_3D ( 'NONE', #440, #655, #379 ) ;
#669 = DIRECTION ( 'NONE',  ( 0.000000000000000000, 1.000000000000000000, 0.000000000000000000 ) ) ;
#670 = ORIENTED_EDGE ( 'NONE', *, *, #391, .F. ) ;
#671 = CARTESIAN_POINT ( 'NONE',  ( 12.00000000000000000, 13.00000000000000000, -2.749999999999999112 ) ) ;
#672 = MECHANICAL_DESIGN_GEOMETRIC_PRESENTATION_REPRESENTATION (  '', ( #648 ), #30 ) ;
#673 = CARTESIAN_POINT ( 'NONE',  ( -8.840757382627357330, 13.00000000000000000, 2.749999999999995559 ) ) ;
#674 = DIRECTION ( 'NONE',  ( -0.000000000000000000, -1.000000000000000000, -0.000000000000000000 ) ) ;
#675 = CARTESIAN_POINT ( 'NONE',  ( 12.00000000000000000, 0.000000000000000000, -4.250000000000000000 ) ) ;
#676 = EDGE_CURVE ( 'NONE', #390, #449, #35, .T. ) ;
#677 = VECTOR ( 'NONE', #628, 1000.000000000000000 ) ;
#678 = VECTOR ( 'NONE', #346, 1000.000000000000000 ) ;
#679 = LINE ( 'NONE', #399, #623 ) ;
#680 = ORIENTED_EDGE ( 'NONE', *, *, #651, .F. ) ;
#681 = CARTESIAN_POINT ( 'NONE',  ( -8.840757382627357330, 13.00000000000000000, 4.249999999999996447 ) ) ;
#682 = CARTESIAN_POINT ( 'NONE',  ( 7.500000000000027534, -14.99999999999999645, -11.49999999999999822 ) ) ;
#683 = ORIENTED_EDGE ( 'NONE', *, *, #55, .F. ) ;
#684 = DIRECTION ( 'NONE',  ( 0.000000000000000000, 0.000000000000000000, 1.000000000000000000 ) ) ;
#685 = DIRECTION ( 'NONE',  ( -1.000000000000000000, 0.000000000000000000, 0.000000000000000000 ) ) ;
#686 = DIRECTION ( 'NONE',  ( 0.000000000000000000, 0.000000000000000000, -1.000000000000000000 ) ) ;
#687 = EDGE_CURVE ( 'NONE', #173, #656, #165, .T. ) ;
#688 = ORIENTED_EDGE ( 'NONE', *, *, #389, .T. ) ;
#689 = AXIS2_PLACEMENT_3D ( 'NONE', #353, #458, #684 ) ;
#690 = ORIENTED_EDGE ( 'NONE', *, *, #556, .T. ) ;
#691 = FACE_OUTER_BOUND ( 'NONE', #233, .T. ) ;
#692 = CARTESIAN_POINT ( 'NONE',  ( -8.840757382627357330, 0.000000000000000000, 1.249999999999994227 ) ) ;
#693 = CARTESIAN_POINT ( 'NONE',  ( -23.50000000000000000, 0.000000000000000000, 5.500000000000000000 ) ) ;
#694 = ORIENTED_EDGE ( 'NONE', *, *, #27, .F. ) ;
#695 = EDGE_LOOP ( 'NONE', ( #204, #326, #382, #410 ) ) ;
#696 = DIRECTION ( 'NONE',  ( 0.000000000000000000, 1.000000000000000000, 0.000000000000000000 ) ) ;
#697 = DIRECTION ( 'NONE',  ( 0.000000000000000000, 0.000000000000000000, 1.000000000000000000 ) ) ;
ENDSEC;
END-ISO-10303-21;
