ISO-10303-21;
HEADER;
FILE_DESCRIPTION (( 'STEP AP214' ),
    '1' );
FILE_NAME ('左侧电机连接器.STEP',
    '2026-03-22T14:19:06',
    ( '' ),
    ( '' ),
    'SwSTEP 2.0',
    'SolidWorks 2024',
    '' );
FILE_SCHEMA (( 'AUTOMOTIVE_DESIGN' ));
ENDSEC;

DATA;
#1 = AXIS2_PLACEMENT_3D ( 'NONE', #422, #638, #524 ) ;
#2 = FACE_OUTER_BOUND ( 'NONE', #5, .T. ) ;
#3 = VERTEX_POINT ( 'NONE', #454 ) ;
#4 = LINE ( 'NONE', #318, #652 ) ;
#5 = EDGE_LOOP ( 'NONE', ( #55, #456, #17, #565 ) ) ;
#6 = LINE ( 'NONE', #155, #207 ) ;
#7 = EDGE_CURVE ( 'NONE', #625, #178, #683, .T. ) ;
#8 = ORIENTED_EDGE ( 'NONE', *, *, #91, .F. ) ;
#9 = CARTESIAN_POINT ( 'NONE',  ( 1.836970198721028948E-16, 13.00000000000000000, 4.249999999999999112 ) ) ;
#10 = DIRECTION ( 'NONE',  ( 0.000000000000000000, 1.000000000000000000, 0.000000000000000000 ) ) ;
#11 = VECTOR ( 'NONE', #313, 1000.000000000000000 ) ;
#12 = CIRCLE ( 'NONE', #653, 1.500000000000000666 ) ;
#13 = ORIENTED_EDGE ( 'NONE', *, *, #396, .T. ) ;
#14 = ORIENTED_EDGE ( 'NONE', *, *, #615, .T. ) ;
#15 = CARTESIAN_POINT ( 'NONE',  ( 22.00000000000000711, -15.00000000000000355, 21.50000000000000000 ) ) ;
#16 = FILL_AREA_STYLE ('',( #162 ) ) ;
#17 = ORIENTED_EDGE ( 'NONE', *, *, #384, .T. ) ;
#18 = AXIS2_PLACEMENT_3D ( 'NONE', #634, #127, #184 ) ;
#19 = EDGE_CURVE ( 'NONE', #275, #405, #633, .T. ) ;
#20 = ORIENTED_EDGE ( 'NONE', *, *, #615, .F. ) ;
#21 = PRODUCT_RELATED_PRODUCT_CATEGORY ( 'part', '', ( #627 ) ) ;
#22 = ORIENTED_EDGE ( 'NONE', *, *, #421, .T. ) ;
#23 = CARTESIAN_POINT ( 'NONE',  ( 0.000000000000000000, 13.00000000000000000, 0.000000000000000000 ) ) ;
#24 = FACE_BOUND ( 'NONE', #134, .T. ) ;
#25 = ORIENTED_EDGE ( 'NONE', *, *, #519, .T. ) ;
#26 = CARTESIAN_POINT ( 'NONE',  ( -23.50000000000000000, 13.00000000000000000, -5.500000000000000000 ) ) ;
#27 = CARTESIAN_POINT ( 'NONE',  ( -23.50000000000000000, 0.000000000000000000, -5.500000000000000000 ) ) ;
#28 = DIRECTION ( 'NONE',  ( 0.000000000000000000, 0.000000000000000000, -1.000000000000000000 ) ) ;
#29 = VERTEX_POINT ( 'NONE', #27 ) ;
#30 =( NAMED_UNIT ( * ) PLANE_ANGLE_UNIT ( ) SI_UNIT ( $, .RADIAN. ) );
#31 = VERTEX_POINT ( 'NONE', #143 ) ;
#32 = DIRECTION ( 'NONE',  ( 0.000000000000000000, 1.000000000000000000, 0.000000000000000000 ) ) ;
#33 = CYLINDRICAL_SURFACE ( 'NONE', #145, 1.500000000000001332 ) ;
#34 = CARTESIAN_POINT ( 'NONE',  ( -19.34075738262738042, 0.000000000000000000, -2.750000000000009326 ) ) ;
#35 = VERTEX_POINT ( 'NONE', #675 ) ;
#36 = LINE ( 'NONE', #410, #497 ) ;
#37 = ORIENTED_EDGE ( 'NONE', *, *, #664, .T. ) ;
#38 = DIRECTION ( 'NONE',  ( 1.000000000000000000, 0.000000000000000000, 0.000000000000000000 ) ) ;
#39 = DIRECTION ( 'NONE',  ( -0.000000000000000000, -1.000000000000000000, -0.000000000000000000 ) ) ;
#40 = FACE_OUTER_BOUND ( 'NONE', #394, .T. ) ;
#41 = CARTESIAN_POINT ( 'NONE',  ( 7.500000000000000000, -15.00000000000000355, 11.50000000000000178 ) ) ;
#42 = CARTESIAN_POINT ( 'NONE',  ( 0.000000000000000000, 13.00000000000000000, 2.750000000000000000 ) ) ;
#43 = CARTESIAN_POINT ( 'NONE',  ( -23.49999999999999289, -30.00000000000000355, 11.50000000000000178 ) ) ;
#44 = EDGE_CURVE ( 'NONE', #29, #491, #679, .T. ) ;
#45 = EDGE_CURVE ( 'NONE', #231, #323, #340, .T. ) ;
#46 = FACE_OUTER_BOUND ( 'NONE', #530, .T. ) ;
#47 = ADVANCED_FACE ( 'NONE', ( #40 ), #404, .F. ) ;
#48 = VECTOR ( 'NONE', #428, 1000.000000000000000 ) ;
#49 = CIRCLE ( 'NONE', #528, 1.500000000000001332 ) ;
#50 = AXIS2_PLACEMENT_3D ( 'NONE', #662, #63, #228 ) ;
#51 = FACE_OUTER_BOUND ( 'NONE', #643, .T. ) ;
#52 = DIRECTION ( 'NONE',  ( 0.000000000000000000, 0.000000000000000000, -1.000000000000000000 ) ) ;
#53 = DIRECTION ( 'NONE',  ( 0.000000000000000000, 0.000000000000000000, -1.000000000000000000 ) ) ;
#54 = CYLINDRICAL_SURFACE ( 'NONE', #139, 1.500000000000000444 ) ;
#55 = ORIENTED_EDGE ( 'NONE', *, *, #337, .F. ) ;
#56 = EDGE_CURVE ( 'NONE', #69, #133, #573, .T. ) ;
#57 = LINE ( 'NONE', #641, #507 ) ;
#58 = ORIENTED_EDGE ( 'NONE', *, *, #265, .F. ) ;
#59 = DIRECTION ( 'NONE',  ( 0.000000000000000000, 1.000000000000000000, 0.000000000000000000 ) ) ;
#60 = EDGE_CURVE ( 'NONE', #461, #545, #618, .T. ) ;
#61 = DIRECTION ( 'NONE',  ( 1.000000000000000000, 0.000000000000000000, 0.000000000000000000 ) ) ;
#62 = ORIENTED_EDGE ( 'NONE', *, *, #464, .F. ) ;
#63 = DIRECTION ( 'NONE',  ( 0.000000000000000000, 0.000000000000000000, 1.000000000000000000 ) ) ;
#64 = EDGE_LOOP ( 'NONE', ( #610, #172 ) ) ;
#65 = CARTESIAN_POINT ( 'NONE',  ( -23.49999999999999289, 13.00000000000000000, 21.50000000000000000 ) ) ;
#66 = FACE_OUTER_BOUND ( 'NONE', #343, .T. ) ;
#67 = EDGE_CURVE ( 'NONE', #79, #326, #458, .T. ) ;
#68 = ORIENTED_EDGE ( 'NONE', *, *, #342, .T. ) ;
#69 = VERTEX_POINT ( 'NONE', #196 ) ;
#70 = ORIENTED_EDGE ( 'NONE', *, *, #691, .F. ) ;
#71 = DIRECTION ( 'NONE',  ( 0.000000000000000000, 0.000000000000000000, 1.000000000000000000 ) ) ;
#72 = CARTESIAN_POINT ( 'NONE',  ( 7.500000000000000000, -15.00000000000000355, 21.50000000000000000 ) ) ;
#73 = ORIENTED_EDGE ( 'NONE', *, *, #265, .T. ) ;
#74 = FACE_BOUND ( 'NONE', #160, .T. ) ;
#75 = CARTESIAN_POINT ( 'NONE',  ( 22.00000000000000711, -15.00000000000000355, 11.50000000000000178 ) ) ;
#76 = DIRECTION ( 'NONE',  ( -0.000000000000000000, -1.000000000000000000, -0.000000000000000000 ) ) ;
#77 = CIRCLE ( 'NONE', #398, 14.50000000000000533 ) ;
#78 = APPLICATION_PROTOCOL_DEFINITION ( 'draft international standard', 'automotive_design', 1998, #353 ) ;
#79 = VERTEX_POINT ( 'NONE', #75 ) ;
#80 = LINE ( 'NONE', #297, #198 ) ;
#81 = CARTESIAN_POINT ( 'NONE',  ( 23.50000000000000000, -30.00000000000000355, 11.50000000000000178 ) ) ;
#82 = DIRECTION ( 'NONE',  ( -1.000000000000000000, -0.000000000000000000, -0.000000000000000000 ) ) ;
#83 = AXIS2_PLACEMENT_3D ( 'NONE', #596, #217, #589 ) ;
#84 = EDGE_LOOP ( 'NONE', ( #123, #22, #221, #584 ) ) ;
#85 = VECTOR ( 'NONE', #344, 1000.000000000000000 ) ;
#86 =( GEOMETRIC_REPRESENTATION_CONTEXT ( 3 ) GLOBAL_UNCERTAINTY_ASSIGNED_CONTEXT ( ( #494 ) ) GLOBAL_UNIT_ASSIGNED_CONTEXT ( ( #295, #30, #177 ) ) REPRESENTATION_CONTEXT ( 'NONE', 'WORKASPACE' ) );
#87 = VERTEX_POINT ( 'NONE', #292 ) ;
#88 = DIRECTION ( 'NONE',  ( 0.000000000000000000, 0.000000000000000000, 1.000000000000000000 ) ) ;
#89 = DIRECTION ( 'NONE',  ( 0.000000000000000000, 1.000000000000000000, 0.000000000000000000 ) ) ;
#90 = CARTESIAN_POINT ( 'NONE',  ( 0.000000000000000000, 13.00000000000000000, 2.750000000000000000 ) ) ;
#91 = EDGE_CURVE ( 'NONE', #253, #333, #317, .T. ) ;
#92 = AXIS2_PLACEMENT_3D ( 'NONE', #308, #200, #96 ) ;
#93 = DIRECTION ( 'NONE',  ( 1.000000000000000000, 0.000000000000000000, 0.000000000000000000 ) ) ;
#94 = CARTESIAN_POINT ( 'NONE',  ( -8.840757382627378647, 13.00000000000000000, -2.750000000000009326 ) ) ;
#95 = DIRECTION ( 'NONE',  ( 0.000000000000000000, 1.000000000000000000, 0.000000000000000000 ) ) ;
#96 = DIRECTION ( 'NONE',  ( 0.000000000000000000, 0.000000000000000000, 1.000000000000000000 ) ) ;
#97 = DIRECTION ( 'NONE',  ( -0.000000000000000000, -1.000000000000000000, -0.000000000000000000 ) ) ;
#98 = ADVANCED_FACE ( 'NONE', ( #306 ), #33, .F. ) ;
#99 = CIRCLE ( 'NONE', #609, 1.500000000000001332 ) ;
#100 = DIRECTION ( 'NONE',  ( -0.000000000000000000, -1.000000000000000000, -0.000000000000000000 ) ) ;
#101 = EDGE_CURVE ( 'NONE', #120, #461, #570, .T. ) ;
#102 = CYLINDRICAL_SURFACE ( 'NONE', #471, 1.500000000000000444 ) ;
#103 = VECTOR ( 'NONE', #645, 1000.000000000000000 ) ;
#104 = AXIS2_PLACEMENT_3D ( 'NONE', #195, #628, #255 ) ;
#105 = DIRECTION ( 'NONE',  ( -0.000000000000000000, -1.000000000000000000, -0.000000000000000000 ) ) ;
#106 = AXIS2_PLACEMENT_3D ( 'NONE', #577, #517, #191 ) ;
#107 = DIRECTION ( 'NONE',  ( -0.000000000000000000, -1.000000000000000000, -0.000000000000000000 ) ) ;
#108 = VECTOR ( 'NONE', #97, 1000.000000000000000 ) ;
#109 = DIRECTION ( 'NONE',  ( -4.336808689942018722E-16, 0.000000000000000000, -1.000000000000000000 ) ) ;
#110 = ORIENTED_EDGE ( 'NONE', *, *, #112, .T. ) ;
#111 = PRODUCT_DEFINITION ( '鏈', '', #356, #366 ) ;
#112 = EDGE_CURVE ( 'NONE', #263, #31, #532, .T. ) ;
#113 = LINE ( 'NONE', #209, #436 ) ;
#114 = EDGE_LOOP ( 'NONE', ( #168, #125, #186, #179 ) ) ;
#115 = DIRECTION ( 'NONE',  ( -0.000000000000000000, -1.000000000000000000, -0.000000000000000000 ) ) ;
#116 = EDGE_LOOP ( 'NONE', ( #58, #379 ) ) ;
#117 = PRODUCT_CONTEXT ( 'NONE', #353, 'mechanical' ) ;
#118 = EDGE_LOOP ( 'NONE', ( #348, #282, #620, #216 ) ) ;
#119 = CARTESIAN_POINT ( 'NONE',  ( 12.00000000000000000, 13.00000000000000000, 2.750000000000000000 ) ) ;
#120 = VERTEX_POINT ( 'NONE', #685 ) ;
#121 = CARTESIAN_POINT ( 'NONE',  ( 0.000000000000000000, 0.000000000000000000, 0.000000000000000000 ) ) ;
#122 = ORIENTED_EDGE ( 'NONE', *, *, #336, .F. ) ;
#123 = ORIENTED_EDGE ( 'NONE', *, *, #336, .T. ) ;
#124 = FACE_OUTER_BOUND ( 'NONE', #114, .T. ) ;
#125 = ORIENTED_EDGE ( 'NONE', *, *, #240, .T. ) ;
#126 = DIRECTION ( 'NONE',  ( -1.000000000000000000, 0.000000000000000000, -0.000000000000000000 ) ) ;
#127 = DIRECTION ( 'NONE',  ( 0.000000000000000000, 1.000000000000000000, 0.000000000000000000 ) ) ;
#128 = LINE ( 'NONE', #390, #689 ) ;
#129 = EDGE_LOOP ( 'NONE', ( #452, #558, #550, #562 ) ) ;
#130 = LINE ( 'NONE', #457, #85 ) ;
#131 = DIRECTION ( 'NONE',  ( -2.168404344971008868E-16, 0.000000000000000000, -1.000000000000000000 ) ) ;
#132 =( NAMED_UNIT ( * ) PLANE_ANGLE_UNIT ( ) SI_UNIT ( $, .RADIAN. ) );
#133 = VERTEX_POINT ( 'NONE', #350 ) ;
#134 = EDGE_LOOP ( 'NONE', ( #210, #14 ) ) ;
#135 = DIRECTION ( 'NONE',  ( -0.000000000000000000, -0.000000000000000000, -1.000000000000000000 ) ) ;
#136 = EDGE_CURVE ( 'NONE', #69, #444, #358, .T. ) ;
#137 = CARTESIAN_POINT ( 'NONE',  ( 0.000000000000000000, 13.00000000000000000, 2.750000000000000000 ) ) ;
#138 = SURFACE_STYLE_FILL_AREA ( #16 ) ;
#139 = AXIS2_PLACEMENT_3D ( 'NONE', #220, #381, #52 ) ;
#140 = AXIS2_PLACEMENT_3D ( 'NONE', #389, #180, #273 ) ;
#141 = ORIENTED_EDGE ( 'NONE', *, *, #468, .T. ) ;
#142 = DIRECTION ( 'NONE',  ( 0.000000000000000000, 0.000000000000000000, 1.000000000000000000 ) ) ;
#143 = CARTESIAN_POINT ( 'NONE',  ( 1.836970198721028948E-16, 0.000000000000000000, 4.249999999999999112 ) ) ;
#144 = DIRECTION ( 'NONE',  ( 0.000000000000000000, 1.000000000000000000, 0.000000000000000000 ) ) ;
#145 = AXIS2_PLACEMENT_3D ( 'NONE', #359, #352, #407 ) ;
#146 = CYLINDRICAL_SURFACE ( 'NONE', #285, 1.499999999999999556 ) ;
#147 = ORIENTED_EDGE ( 'NONE', *, *, #214, .F. ) ;
#148 = EDGE_CURVE ( 'NONE', #349, #541, #36, .T. ) ;
#149 = CARTESIAN_POINT ( 'NONE',  ( -23.49999999999999289, -30.00000000000000355, 11.50000000000000178 ) ) ;
#150 = EDGE_CURVE ( 'NONE', #133, #174, #572, .T. ) ;
#151 = CIRCLE ( 'NONE', #445, 1.500000000000000666 ) ;
#152 = DIRECTION ( 'NONE',  ( 1.000000000000000000, 0.000000000000000000, 0.000000000000000000 ) ) ;
#153 = UNCERTAINTY_MEASURE_WITH_UNIT (LENGTH_MEASURE( 1.000000000000000082E-05 ), #603, 'distance_accuracy_value', 'NONE');
#154 = ORIENTED_EDGE ( 'NONE', *, *, #519, .F. ) ;
#155 = CARTESIAN_POINT ( 'NONE',  ( 12.00000000000000000, 13.00000000000000000, 4.250000000000000000 ) ) ;
#156 = CARTESIAN_POINT ( 'NONE',  ( 20.15924261737261958, 13.00000000000000000, -2.750000000000009326 ) ) ;
#157 = AXIS2_PLACEMENT_3D ( 'NONE', #249, #632, #674 ) ;
#158 = PLANE ( 'NONE',  #626 ) ;
#159 = ADVANCED_FACE ( 'NONE', ( #204 ), #146, .F. ) ;
#160 = EDGE_LOOP ( 'NONE', ( #8, #429 ) ) ;
#161 = AXIS2_PLACEMENT_3D ( 'NONE', #176, #608, #293 ) ;
#162 = FILL_AREA_STYLE_COLOUR ( '', #566 ) ;
#163 = ORIENTED_EDGE ( 'NONE', *, *, #639, .T. ) ;
#164 = VECTOR ( 'NONE', #269, 1000.000000000000000 ) ;
#165 = AXIS2_PLACEMENT_3D ( 'NONE', #290, #329, #230 ) ;
#166 = FACE_BOUND ( 'NONE', #489, .T. ) ;
#167 = AXIS2_PLACEMENT_3D ( 'NONE', #575, #95, #307 ) ;
#168 = ORIENTED_EDGE ( 'NONE', *, *, #370, .T. ) ;
#169 = FACE_BOUND ( 'NONE', #673, .T. ) ;
#170 = FACE_BOUND ( 'NONE', #64, .T. ) ;
#171 = VECTOR ( 'NONE', #574, 1000.000000000000000 ) ;
#172 = ORIENTED_EDGE ( 'NONE', *, *, #485, .T. ) ;
#173 = DIRECTION ( 'NONE',  ( 1.000000000000000000, 0.000000000000000000, 0.000000000000000000 ) ) ;
#174 = VERTEX_POINT ( 'NONE', #567 ) ;
#175 = PLANE ( 'NONE',  #224 ) ;
#176 = CARTESIAN_POINT ( 'NONE',  ( 23.50000000000000000, 13.00000000000000000, -5.500000000000000000 ) ) ;
#177 =( NAMED_UNIT ( * ) SI_UNIT ( $, .STERADIAN. ) SOLID_ANGLE_UNIT ( ) );
#178 = VERTEX_POINT ( 'NONE', #420 ) ;
#179 = ORIENTED_EDGE ( 'NONE', *, *, #101, .F. ) ;
#180 = DIRECTION ( 'NONE',  ( 0.000000000000000000, 0.000000000000000000, 1.000000000000000000 ) ) ;
#181 = DIRECTION ( 'NONE',  ( -0.000000000000000000, -1.000000000000000000, -0.000000000000000000 ) ) ;
#182 = ORIENTED_EDGE ( 'NONE', *, *, #298, .T. ) ;
#183 = CARTESIAN_POINT ( 'NONE',  ( 20.15924261737261958, 13.00000000000000000, -2.750000000000009326 ) ) ;
#184 = DIRECTION ( 'NONE',  ( 0.000000000000000000, 0.000000000000000000, 1.000000000000000000 ) ) ;
#185 = CARTESIAN_POINT ( 'NONE',  ( 7.500000000000000000, -15.00000000000000355, 11.50000000000000178 ) ) ;
#186 = ORIENTED_EDGE ( 'NONE', *, *, #368, .F. ) ;
#187 = EDGE_CURVE ( 'NONE', #333, #253, #686, .T. ) ;
#188 = APPLICATION_PROTOCOL_DEFINITION ( 'draft international standard', 'automotive_design', 1998, #693 ) ;
#189 = ORIENTED_EDGE ( 'NONE', *, *, #312, .F. ) ;
#190 = DIRECTION ( 'NONE',  ( -0.000000000000000000, -1.000000000000000000, -0.000000000000000000 ) ) ;
#191 = DIRECTION ( 'NONE',  ( 0.000000000000000000, 0.000000000000000000, -1.000000000000000000 ) ) ;
#192 = CARTESIAN_POINT ( 'NONE',  ( -19.34075738262738042, 13.00000000000000000, -2.750000000000009326 ) ) ;
#193 = EDGE_CURVE ( 'NONE', #35, #245, #554, .T. ) ;
#194 = EDGE_LOOP ( 'NONE', ( #270, #495, #544, #483 ) ) ;
#195 = CARTESIAN_POINT ( 'NONE',  ( -8.840757382627378647, 0.000000000000000000, -2.750000000000009326 ) ) ;
#196 = CARTESIAN_POINT ( 'NONE',  ( -8.840757382627378647, 13.00000000000000000, -1.250000000000007994 ) ) ;
#197 = DIRECTION ( 'NONE',  ( 0.000000000000000000, 0.000000000000000000, -1.000000000000000000 ) ) ;
#198 = VECTOR ( 'NONE', #93, 1000.000000000000000 ) ;
#199 = EDGE_CURVE ( 'NONE', #444, #174, #49, .T. ) ;
#200 = DIRECTION ( 'NONE',  ( 0.000000000000000000, 1.000000000000000000, 0.000000000000000000 ) ) ;
#201 = DIRECTION ( 'NONE',  ( 0.000000000000000000, 0.000000000000000000, 1.000000000000000000 ) ) ;
#202 = LINE ( 'NONE', #518, #423 ) ;
#203 = VECTOR ( 'NONE', #413, 1000.000000000000000 ) ;
#204 = FACE_OUTER_BOUND ( 'NONE', #382, .T. ) ;
#205 = DIRECTION ( 'NONE',  ( 0.000000000000000000, 1.000000000000000000, 0.000000000000000000 ) ) ;
#206 = CARTESIAN_POINT ( 'NONE',  ( -8.840757382627378647, 13.00000000000000000, -2.750000000000009326 ) ) ;
#207 = VECTOR ( 'NONE', #531, 1000.000000000000000 ) ;
#208 = EDGE_CURVE ( 'NONE', #174, #444, #437, .T. ) ;
#209 = CARTESIAN_POINT ( 'NONE',  ( 20.15924261737261958, 13.00000000000000000, -4.250000000000009770 ) ) ;
#210 = ORIENTED_EDGE ( 'NONE', *, *, #614, .T. ) ;
#211 = CYLINDRICAL_SURFACE ( 'NONE', #692, 1.500000000000000444 ) ;
#212 = AXIS2_PLACEMENT_3D ( 'NONE', #90, #100, #523 ) ;
#213 = EDGE_CURVE ( 'NONE', #486, #294, #12, .T. ) ;
#214 = EDGE_CURVE ( 'NONE', #253, #263, #130, .T. ) ;
#215 = DIRECTION ( 'NONE',  ( -0.000000000000000000, -1.000000000000000000, -0.000000000000000000 ) ) ;
#216 = ORIENTED_EDGE ( 'NONE', *, *, #384, .F. ) ;
#217 = DIRECTION ( 'NONE',  ( 0.000000000000000000, 1.000000000000000000, 0.000000000000000000 ) ) ;
#218 = EDGE_CURVE ( 'NONE', #658, #677, #302, .T. ) ;
#219 = ORIENTED_EDGE ( 'NONE', *, *, #91, .T. ) ;
#220 = CARTESIAN_POINT ( 'NONE',  ( 20.15924261737261958, 13.00000000000000000, -2.750000000000009326 ) ) ;
#221 = ORIENTED_EDGE ( 'NONE', *, *, #19, .F. ) ;
#222 = CYLINDRICAL_SURFACE ( 'NONE', #50, 14.50000000000000533 ) ;
#223 = PRESENTATION_LAYER_ASSIGNMENT (  '', '', ( #351 ) ) ;
#224 = AXIS2_PLACEMENT_3D ( 'NONE', #65, #602, #126 ) ;
#225 = CARTESIAN_POINT ( 'NONE',  ( 12.00000000000000000, 13.00000000000000000, 2.750000000000000000 ) ) ;
#226 = CARTESIAN_POINT ( 'NONE',  ( 23.50000000000000000, 0.000000000000000000, -5.500000000000000000 ) ) ;
#227 = EDGE_LOOP ( 'NONE', ( #375, #338, #446, #73 ) ) ;
#228 = DIRECTION ( 'NONE',  ( 1.000000000000000000, 0.000000000000000000, 0.000000000000000000 ) ) ;
#229 = EDGE_LOOP ( 'NONE', ( #237, #321 ) ) ;
#230 = DIRECTION ( 'NONE',  ( 0.000000000000000000, 0.000000000000000000, 1.000000000000000000 ) ) ;
#231 = VERTEX_POINT ( 'NONE', #560 ) ;
#232 = ORIENTED_EDGE ( 'NONE', *, *, #369, .T. ) ;
#233 = EDGE_LOOP ( 'NONE', ( #301, #296, #346, #660 ) ) ;
#234 = DIRECTION ( 'NONE',  ( 0.000000000000000000, 1.000000000000000000, 0.000000000000000000 ) ) ;
#235 = AXIS2_PLACEMENT_3D ( 'NONE', #185, #408, #624 ) ;
#236 = PLANE ( 'NONE',  #161 ) ;
#237 = ORIENTED_EDGE ( 'NONE', *, *, #208, .T. ) ;
#238 = ORIENTED_EDGE ( 'NONE', *, *, #368, .T. ) ;
#239 = CARTESIAN_POINT ( 'NONE',  ( 12.00000000000000000, 13.00000000000000000, 1.249999999999999112 ) ) ;
#240 = EDGE_CURVE ( 'NONE', #677, #178, #80, .T. ) ;
#241 = EDGE_CURVE ( 'NONE', #388, #391, #629, .T. ) ;
#242 = EDGE_LOOP ( 'NONE', ( #663, #647, #549, #248 ) ) ;
#243 = ORIENTED_EDGE ( 'NONE', *, *, #112, .F. ) ;
#244 = DIRECTION ( 'NONE',  ( 0.000000000000000000, 0.000000000000000000, 1.000000000000000000 ) ) ;
#245 = VERTEX_POINT ( 'NONE', #453 ) ;
#246 = CARTESIAN_POINT ( 'NONE',  ( 23.50000000000000000, 13.00000000000000000, -5.500000000000000000 ) ) ;
#247 = EDGE_CURVE ( 'NONE', #3, #29, #460, .T. ) ;
#248 = ORIENTED_EDGE ( 'NONE', *, *, #199, .F. ) ;
#249 = CARTESIAN_POINT ( 'NONE',  ( 0.000000000000000000, 13.00000000000000000, 2.750000000000000000 ) ) ;
#250 = CARTESIAN_POINT ( 'NONE',  ( -23.50000000000000000, 0.000000000000000000, 5.500000000000000000 ) ) ;
#251 = DIRECTION ( 'NONE',  ( 0.000000000000000000, 0.000000000000000000, 1.000000000000000000 ) ) ;
#252 = DIRECTION ( 'NONE',  ( 0.000000000000000000, 0.000000000000000000, 1.000000000000000000 ) ) ;
#253 = VERTEX_POINT ( 'NONE', #406 ) ;
#254 = CARTESIAN_POINT ( 'NONE',  ( -19.34075738262738042, 13.00000000000000000, -1.250000000000008660 ) ) ;
#255 = DIRECTION ( 'NONE',  ( 0.000000000000000000, 0.000000000000000000, 1.000000000000000000 ) ) ;
#256 = CARTESIAN_POINT ( 'NONE',  ( 12.00000000000000000, 0.000000000000000000, 2.750000000000000000 ) ) ;
#257 = AXIS2_PLACEMENT_3D ( 'NONE', #516, #32, #252 ) ;
#258 = DIRECTION ( 'NONE',  ( 1.000000000000000000, 0.000000000000000000, 0.000000000000000000 ) ) ;
#259 = AXIS2_PLACEMENT_3D ( 'NONE', #401, #448, #61 ) ;
#260 = ADVANCED_FACE ( 'NONE', ( #607, #546, #395, #169, #74, #166 ), #656, .F. ) ;
#261 = VECTOR ( 'NONE', #551, 1000.000000000000000 ) ;
#262 = DIRECTION ( 'NONE',  ( 0.000000000000000000, 0.000000000000000000, 1.000000000000000000 ) ) ;
#263 = VERTEX_POINT ( 'NONE', #487 ) ;
#264 = FACE_OUTER_BOUND ( 'NONE', #118, .T. ) ;
#265 = EDGE_CURVE ( 'NONE', #326, #323, #355, .T. ) ;
#266 = ADVANCED_FACE ( 'NONE', ( #124, #283 ), #175, .F. ) ;
#267 = DIRECTION ( 'NONE',  ( 1.000000000000000000, 0.000000000000000000, -0.000000000000000000 ) ) ;
#268 = EDGE_LOOP ( 'NONE', ( #600, #37 ) ) ;
#269 = DIRECTION ( 'NONE',  ( -1.000000000000000000, -0.000000000000000000, -0.000000000000000000 ) ) ;
#270 = ORIENTED_EDGE ( 'NONE', *, *, #240, .F. ) ;
#271 = DIRECTION ( 'NONE',  ( 0.000000000000000000, 0.000000000000000000, -1.000000000000000000 ) ) ;
#272 = ORIENTED_EDGE ( 'NONE', *, *, #208, .F. ) ;
#273 = DIRECTION ( 'NONE',  ( 1.000000000000000000, 0.000000000000000000, 0.000000000000000000 ) ) ;
#274 = FACE_BOUND ( 'NONE', #630, .T. ) ;
#275 = VERTEX_POINT ( 'NONE', #599 ) ;
#276 = AXIS2_PLACEMENT_3D ( 'NONE', #225, #234, #325 ) ;
#277 = ORIENTED_EDGE ( 'NONE', *, *, #218, .T. ) ;
#278 = CARTESIAN_POINT ( 'NONE',  ( -19.34075738262738042, 0.000000000000000000, -2.750000000000009326 ) ) ;
#279 = LINE ( 'NONE', #671, #365 ) ;
#280 = ORIENTED_EDGE ( 'NONE', *, *, #424, .F. ) ;
#281 = ORIENTED_EDGE ( 'NONE', *, *, #539, .T. ) ;
#282 = ORIENTED_EDGE ( 'NONE', *, *, #337, .T. ) ;
#283 = FACE_BOUND ( 'NONE', #116, .T. ) ;
#284 = DIRECTION ( 'NONE',  ( 1.000000000000000000, 0.000000000000000000, 0.000000000000000000 ) ) ;
#285 = AXIS2_PLACEMENT_3D ( 'NONE', #42, #622, #465 ) ;
#286 = VECTOR ( 'NONE', #513, 1000.000000000000000 ) ;
#287 = SHAPE_DEFINITION_REPRESENTATION ( #412, #463 ) ;
#288 = ADVANCED_FACE ( 'NONE', ( #611 ), #400, .F. ) ;
#289 = ORIENTED_EDGE ( 'NONE', *, *, #421, .F. ) ;
#290 = CARTESIAN_POINT ( 'NONE',  ( 12.00000000000000000, 13.00000000000000000, 2.750000000000000000 ) ) ;
#291 = AXIS2_PLACEMENT_3D ( 'NONE', #41, #462, #258 ) ;
#292 = CARTESIAN_POINT ( 'NONE',  ( -19.34075738262738042, 0.000000000000000000, -4.250000000000010658 ) ) ;
#293 = DIRECTION ( 'NONE',  ( 0.000000000000000000, 0.000000000000000000, 1.000000000000000000 ) ) ;
#294 = VERTEX_POINT ( 'NONE', #555 ) ;
#295 =( LENGTH_UNIT ( ) NAMED_UNIT ( * ) SI_UNIT ( .MILLI., .METRE. ) );
#296 = ORIENTED_EDGE ( 'NONE', *, *, #241, .T. ) ;
#297 = CARTESIAN_POINT ( 'NONE',  ( -23.49999999999999289, -30.00000000000000355, 21.50000000000000000 ) ) ;
#298 = EDGE_CURVE ( 'NONE', #87, #399, #415, .T. ) ;
#299 = VECTOR ( 'NONE', #583, 1000.000000000000000 ) ;
#300 = DIRECTION ( 'NONE',  ( 0.000000000000000000, 0.000000000000000000, 1.000000000000000000 ) ) ;
#301 = ORIENTED_EDGE ( 'NONE', *, *, #594, .F. ) ;
#302 = LINE ( 'NONE', #576, #315 ) ;
#303 = ORIENTED_EDGE ( 'NONE', *, *, #511, .F. ) ;
#304 = FACE_OUTER_BOUND ( 'NONE', #242, .T. ) ;
#305 = CARTESIAN_POINT ( 'NONE',  ( -23.50000000000000000, 13.00000000000000000, -5.500000000000000000 ) ) ;
#306 = FACE_OUTER_BOUND ( 'NONE', #512, .T. ) ;
#307 = DIRECTION ( 'NONE',  ( 0.000000000000000000, 0.000000000000000000, 1.000000000000000000 ) ) ;
#308 = CARTESIAN_POINT ( 'NONE',  ( 0.000000000000000000, 0.000000000000000000, 2.750000000000000000 ) ) ;
#309 = DIRECTION ( 'NONE',  ( -0.000000000000000000, -1.000000000000000000, -0.000000000000000000 ) ) ;
#310 = AXIS2_PLACEMENT_3D ( 'NONE', #256, #205, #688 ) ;
#311 = CYLINDRICAL_SURFACE ( 'NONE', #479, 1.500000000000001332 ) ;
#312 = EDGE_CURVE ( 'NONE', #440, #564, #490, .T. ) ;
#313 = DIRECTION ( 'NONE',  ( 0.000000000000000000, -1.000000000000000000, 0.000000000000000000 ) ) ;
#314 = MECHANICAL_DESIGN_GEOMETRIC_PRESENTATION_REPRESENTATION (  '', ( #351 ), #559 ) ;
#315 = VECTOR ( 'NONE', #142, 1000.000000000000000 ) ;
#316 = CARTESIAN_POINT ( 'NONE',  ( 12.00000000000000000, 0.000000000000000000, 4.250000000000000000 ) ) ;
#317 = CIRCLE ( 'NONE', #659, 1.499999999999999556 ) ;
#318 = CARTESIAN_POINT ( 'NONE',  ( 23.50000000000000355, 13.00000000000000000, 21.50000000000000000 ) ) ;
#319 = AXIS2_PLACEMENT_3D ( 'NONE', #72, #341, #284 ) ;
#320 = LINE ( 'NONE', #537, #164 ) ;
#321 = ORIENTED_EDGE ( 'NONE', *, *, #199, .T. ) ;
#322 = CARTESIAN_POINT ( 'NONE',  ( -19.34075738262738042, 0.000000000000000000, -1.250000000000008660 ) ) ;
#323 = VERTEX_POINT ( 'NONE', #542 ) ;
#324 = EDGE_CURVE ( 'NONE', #391, #87, #492, .T. ) ;
#325 = DIRECTION ( 'NONE',  ( 0.000000000000000000, 0.000000000000000000, 1.000000000000000000 ) ) ;
#326 = VERTEX_POINT ( 'NONE', #15 ) ;
#327 = DIRECTION ( 'NONE',  ( 0.000000000000000000, 0.000000000000000000, 1.000000000000000000 ) ) ;
#328 = ORIENTED_EDGE ( 'NONE', *, *, #101, .T. ) ;
#329 = DIRECTION ( 'NONE',  ( 0.000000000000000000, 1.000000000000000000, 0.000000000000000000 ) ) ;
#330 = DIRECTION ( 'NONE',  ( -1.000000000000000000, -0.000000000000000000, -0.000000000000000000 ) ) ;
#331 = EDGE_LOOP ( 'NONE', ( #219, #232, #243, #147 ) ) ;
#332 = ORIENTED_EDGE ( 'NONE', *, *, #44, .F. ) ;
#333 = VERTEX_POINT ( 'NONE', #9 ) ;
#334 = CARTESIAN_POINT ( 'NONE',  ( -19.34075738262738042, 13.00000000000000000, -4.250000000000009770 ) ) ;
#335 = CARTESIAN_POINT ( 'NONE',  ( 20.15924261737261958, 0.000000000000000000, -2.750000000000009326 ) ) ;
#336 = EDGE_CURVE ( 'NONE', #564, #440, #694, .T. ) ;
#337 = EDGE_CURVE ( 'NONE', #294, #245, #502, .T. ) ;
#338 = ORIENTED_EDGE ( 'NONE', *, *, #614, .F. ) ;
#339 = DIRECTION ( 'NONE',  ( 0.000000000000000000, 0.000000000000000000, -1.000000000000000000 ) ) ;
#340 = LINE ( 'NONE', #363, #441 ) ;
#341 = DIRECTION ( 'NONE',  ( 0.000000000000000000, 0.000000000000000000, 1.000000000000000000 ) ) ;
#342 = EDGE_CURVE ( 'NONE', #3, #120, #447, .T. ) ;
#343 = EDGE_LOOP ( 'NONE', ( #280, #154, #387, #496 ) ) ;
#344 = DIRECTION ( 'NONE',  ( -0.000000000000000000, -1.000000000000000000, -0.000000000000000000 ) ) ;
#345 = AXIS2_PLACEMENT_3D ( 'NONE', #34, #10, #667 ) ;
#346 = ORIENTED_EDGE ( 'NONE', *, *, #324, .T. ) ;
#347 = SURFACE_STYLE_USAGE ( .BOTH. , #493 ) ;
#348 = ORIENTED_EDGE ( 'NONE', *, *, #213, .T. ) ;
#349 = VERTEX_POINT ( 'NONE', #499 ) ;
#350 = CARTESIAN_POINT ( 'NONE',  ( -8.840757382627378647, 13.00000000000000000, -4.250000000000010658 ) ) ;
#351 = STYLED_ITEM ( 'NONE', ( #439 ), #477 ) ;
#352 = DIRECTION ( 'NONE',  ( -0.000000000000000000, -1.000000000000000000, -0.000000000000000000 ) ) ;
#353 = APPLICATION_CONTEXT ( 'automotive_design' ) ;
#354 = DIRECTION ( 'NONE',  ( 0.000000000000000000, -1.000000000000000000, 0.000000000000000000 ) ) ;
#355 = CIRCLE ( 'NONE', #140, 14.50000000000000533 ) ;
#356 = PRODUCT_DEFINITION_FORMATION_WITH_SPECIFIED_SOURCE ( '浠', '', #627, .NOT_KNOWN. ) ;
#357 = ORIENTED_EDGE ( 'NONE', *, *, #312, .T. ) ;
#358 = LINE ( 'NONE', #521, #419 ) ;
#359 = CARTESIAN_POINT ( 'NONE',  ( -8.840757382627378647, 13.00000000000000000, -2.750000000000009326 ) ) ;
#360 = CYLINDRICAL_SURFACE ( 'NONE', #212, 1.499999999999999556 ) ;
#361 = VECTOR ( 'NONE', #417, 1000.000000000000000 ) ;
#362 = CARTESIAN_POINT ( 'NONE',  ( -23.49999999999999289, 13.00000000000000000, 21.50000000000000000 ) ) ;
#363 = CARTESIAN_POINT ( 'NONE',  ( -7.000000000000006217, -15.00000000000000178, 11.50000000000000178 ) ) ;
#364 = FACE_BOUND ( 'NONE', #409, .T. ) ;
#365 = VECTOR ( 'NONE', #181, 1000.000000000000000 ) ;
#366 = PRODUCT_DEFINITION_CONTEXT ( 'detailed design', #693, 'design' ) ;
#367 = FACE_OUTER_BOUND ( 'NONE', #194, .T. ) ;
#368 = EDGE_CURVE ( 'NONE', #461, #178, #4, .T. ) ;
#369 = EDGE_CURVE ( 'NONE', #333, #31, #651, .T. ) ;
#370 = EDGE_CURVE ( 'NONE', #120, #677, #57, .T. ) ;
#371 = ADVANCED_FACE ( 'NONE', ( #648 ), #102, .F. ) ;
#372 = DIRECTION ( 'NONE',  ( -0.000000000000000000, -1.000000000000000000, -0.000000000000000000 ) ) ;
#373 = CARTESIAN_POINT ( 'NONE',  ( 1.836970198721028948E-16, 13.00000000000000000, 4.249999999999999112 ) ) ;
#374 = AXIS2_PLACEMENT_3D ( 'NONE', #23, #666, #661 ) ;
#375 = ORIENTED_EDGE ( 'NONE', *, *, #45, .F. ) ;
#376 = CARTESIAN_POINT ( 'NONE',  ( -23.49999999999999289, 0.000000000000000000, 11.50000000000000178 ) ) ;
#377 = VECTOR ( 'NONE', #131, 1000.000000000000000 ) ;
#378 = CARTESIAN_POINT ( 'NONE',  ( -23.50000000000000000, 13.00000000000000000, 5.500000000000000000 ) ) ;
#379 = ORIENTED_EDGE ( 'NONE', *, *, #520, .F. ) ;
#380 = CIRCLE ( 'NONE', #319, 14.50000000000000533 ) ;
#381 = DIRECTION ( 'NONE',  ( -0.000000000000000000, -1.000000000000000000, -0.000000000000000000 ) ) ;
#382 = EDGE_LOOP ( 'NONE', ( #604, #553, #450, #533 ) ) ;
#383 = AXIS2_PLACEMENT_3D ( 'NONE', #119, #115, #339 ) ;
#384 = EDGE_CURVE ( 'NONE', #486, #35, #113, .T. ) ;
#385 = AXIS2_PLACEMENT_3D ( 'NONE', #121, #327, #173 ) ;
#386 = DIRECTION ( 'NONE',  ( 0.000000000000000000, 0.000000000000000000, 1.000000000000000000 ) ) ;
#387 = ORIENTED_EDGE ( 'NONE', *, *, #396, .F. ) ;
#388 = VERTEX_POINT ( 'NONE', #482 ) ;
#389 = CARTESIAN_POINT ( 'NONE',  ( 7.500000000000000000, -15.00000000000000355, 21.50000000000000000 ) ) ;
#390 = CARTESIAN_POINT ( 'NONE',  ( -23.50000000000000000, 13.00000000000000000, -5.500000000000000000 ) ) ;
#391 = VERTEX_POINT ( 'NONE', #425 ) ;
#392 = ORIENTED_EDGE ( 'NONE', *, *, #511, .T. ) ;
#393 = EDGE_CURVE ( 'NONE', #31, #263, #411, .T. ) ;
#394 = EDGE_LOOP ( 'NONE', ( #289, #357, #506, #581 ) ) ;
#395 = FACE_BOUND ( 'NONE', #449, .T. ) ;
#396 = EDGE_CURVE ( 'NONE', #625, #349, #476, .T. ) ;
#397 = ORIENTED_EDGE ( 'NONE', *, *, #150, .F. ) ;
#398 = AXIS2_PLACEMENT_3D ( 'NONE', #414, #469, #152 ) ;
#399 = VERTEX_POINT ( 'NONE', #322 ) ;
#400 = CYLINDRICAL_SURFACE ( 'NONE', #383, 1.500000000000000666 ) ;
#401 = CARTESIAN_POINT ( 'NONE',  ( 0.000000000000000000, 0.000000000000000000, 11.50000000000000178 ) ) ;
#402 = ORIENTED_EDGE ( 'NONE', *, *, #241, .F. ) ;
#403 = DIRECTION ( 'NONE',  ( -0.000000000000000000, -1.000000000000000000, -0.000000000000000000 ) ) ;
#404 = CYLINDRICAL_SURFACE ( 'NONE', #106, 1.500000000000000666 ) ;
#405 = VERTEX_POINT ( 'NONE', #316 ) ;
#406 = CARTESIAN_POINT ( 'NONE',  ( 0.000000000000000000, 13.00000000000000000, 1.250000000000000222 ) ) ;
#407 = DIRECTION ( 'NONE',  ( 0.000000000000000000, 0.000000000000000000, -1.000000000000000000 ) ) ;
#408 = DIRECTION ( 'NONE',  ( 0.000000000000000000, 0.000000000000000000, 1.000000000000000000 ) ) ;
#409 = EDGE_LOOP ( 'NONE', ( #182, #281 ) ) ;
#410 = CARTESIAN_POINT ( 'NONE',  ( 23.50000000000000000, 0.000000000000000000, -5.500000000000000000 ) ) ;
#411 = CIRCLE ( 'NONE', #83, 1.499999999999999556 ) ;
#412 = PRODUCT_DEFINITION_SHAPE ( 'NONE', 'NONE',  #111 ) ;
#413 = DIRECTION ( 'NONE',  ( 0.000000000000000000, 0.000000000000000000, 1.000000000000000000 ) ) ;
#414 = CARTESIAN_POINT ( 'NONE',  ( 7.500000000000000000, -15.00000000000000355, 11.50000000000000178 ) ) ;
#415 = CIRCLE ( 'NONE', #472, 1.500000000000000666 ) ;
#416 = DIRECTION ( 'NONE',  ( 0.000000000000000000, 0.000000000000000000, 1.000000000000000000 ) ) ;
#417 = DIRECTION ( 'NONE',  ( 0.000000000000000000, 0.000000000000000000, 1.000000000000000000 ) ) ;
#418 = PLANE ( 'NONE',  #522 ) ;
#419 = VECTOR ( 'NONE', #403, 1000.000000000000000 ) ;
#420 = CARTESIAN_POINT ( 'NONE',  ( 23.50000000000000000, -30.00000000000000355, 21.50000000000000000 ) ) ;
#421 = EDGE_CURVE ( 'NONE', #440, #405, #6, .T. ) ;
#422 = CARTESIAN_POINT ( 'NONE',  ( 20.15924261737261958, 13.00000000000000000, -2.750000000000009326 ) ) ;
#423 = VECTOR ( 'NONE', #38, 1000.000000000000000 ) ;
#424 = EDGE_CURVE ( 'NONE', #491, #658, #586, .T. ) ;
#425 = CARTESIAN_POINT ( 'NONE',  ( -19.34075738262738042, 13.00000000000000000, -4.250000000000010658 ) ) ;
#426 = CARTESIAN_POINT ( 'NONE',  ( 23.50000000000000355, 13.00000000000000000, 21.50000000000000000 ) ) ;
#427 = CIRCLE ( 'NONE', #1, 1.500000000000000666 ) ;
#428 = DIRECTION ( 'NONE',  ( -0.000000000000000000, -1.000000000000000000, -0.000000000000000000 ) ) ;
#429 = ORIENTED_EDGE ( 'NONE', *, *, #187, .F. ) ;
#430 = FACE_OUTER_BOUND ( 'NONE', #601, .T. ) ;
#431 = ADVANCED_FACE ( 'NONE', ( #2 ), #54, .F. ) ;
#432 = ORIENTED_EDGE ( 'NONE', *, *, #370, .F. ) ;
#433 = CARTESIAN_POINT ( 'NONE',  ( 12.00000000000000000, 13.00000000000000000, 4.250000000000000000 ) ) ;
#434 = ADVANCED_FACE ( 'NONE', ( #264 ), #211, .F. ) ;
#435 = ORIENTED_EDGE ( 'NONE', *, *, #56, .F. ) ;
#436 = VECTOR ( 'NONE', #697, 1000.000000000000000 ) ;
#437 = CIRCLE ( 'NONE', #104, 1.500000000000001332 ) ;
#438 = DIRECTION ( 'NONE',  ( -0.000000000000000000, -1.000000000000000000, -0.000000000000000000 ) ) ;
#439 = PRESENTATION_STYLE_ASSIGNMENT (( #347 ) ) ;
#440 = VERTEX_POINT ( 'NONE', #433 ) ;
#441 = VECTOR ( 'NONE', #300, 1000.000000000000000 ) ;
#442 = ORIENTED_EDGE ( 'NONE', *, *, #67, .F. ) ;
#443 = CARTESIAN_POINT ( 'NONE',  ( 20.15924261737261958, 13.00000000000000000, -1.250000000000008660 ) ) ;
#444 = VERTEX_POINT ( 'NONE', #527 ) ;
#445 = AXIS2_PLACEMENT_3D ( 'NONE', #335, #676, #563 ) ;
#446 = ORIENTED_EDGE ( 'NONE', *, *, #67, .T. ) ;
#447 = LINE ( 'NONE', #26, #526 ) ;
#448 = DIRECTION ( 'NONE',  ( -0.000000000000000000, 0.000000000000000000, 1.000000000000000000 ) ) ;
#449 = EDGE_LOOP ( 'NONE', ( #640, #435 ) ) ;
#450 = ORIENTED_EDGE ( 'NONE', *, *, #214, .T. ) ;
#451 = FACE_OUTER_BOUND ( 'NONE', #227, .T. ) ;
#452 = ORIENTED_EDGE ( 'NONE', *, *, #691, .T. ) ;
#453 = CARTESIAN_POINT ( 'NONE',  ( 20.15924261737261958, 0.000000000000000000, -1.250000000000008660 ) ) ;
#454 = CARTESIAN_POINT ( 'NONE',  ( -23.50000000000000000, 13.00000000000000000, -5.500000000000000000 ) ) ;
#455 = ADVANCED_FACE ( 'NONE', ( #51 ), #534, .F. ) ;
#456 = ORIENTED_EDGE ( 'NONE', *, *, #672, .T. ) ;
#457 = CARTESIAN_POINT ( 'NONE',  ( 0.000000000000000000, 13.00000000000000000, 1.250000000000000222 ) ) ;
#458 = LINE ( 'NONE', #556, #203 ) ;
#459 = DIRECTION ( 'NONE',  ( 0.000000000000000000, 0.000000000000000000, -1.000000000000000000 ) ) ;
#460 = LINE ( 'NONE', #305, #568 ) ;
#461 = VERTEX_POINT ( 'NONE', #426 ) ;
#462 = DIRECTION ( 'NONE',  ( 0.000000000000000000, 0.000000000000000000, 1.000000000000000000 ) ) ;
#463 = ADVANCED_BREP_SHAPE_REPRESENTATION ( '\X2\5de64fa77535673a8fde63a55668\X0\', ( #477, #385 ), #86 ) ;
#464 = EDGE_CURVE ( 'NONE', #545, #541, #478, .T. ) ;
#465 = DIRECTION ( 'NONE',  ( 0.000000000000000000, 0.000000000000000000, -1.000000000000000000 ) ) ;
#466 = ADVANCED_FACE ( 'NONE', ( #646 ), #158, .F. ) ;
#467 = PLANE ( 'NONE',  #637 ) ;
#468 = EDGE_CURVE ( 'NONE', #541, #29, #320, .T. ) ;
#469 = DIRECTION ( 'NONE',  ( 0.000000000000000000, 0.000000000000000000, 1.000000000000000000 ) ) ;
#470 = CIRCLE ( 'NONE', #345, 1.500000000000000666 ) ;
#471 = AXIS2_PLACEMENT_3D ( 'NONE', #474, #107, #271 ) ;
#472 = AXIS2_PLACEMENT_3D ( 'NONE', #278, #59, #386 ) ;
#473 = CIRCLE ( 'NONE', #167, 1.500000000000000666 ) ;
#474 = CARTESIAN_POINT ( 'NONE',  ( -19.34075738262738042, 13.00000000000000000, -2.750000000000009326 ) ) ;
#475 = AXIS2_PLACEMENT_3D ( 'NONE', #94, #89, #201 ) ;
#476 = LINE ( 'NONE', #484, #103 ) ;
#477 = MANIFOLD_SOLID_BREP ( '\X2\51f853f0\X0\-\X2\62c94f38\X0\2', #591 ) ;
#478 = LINE ( 'NONE', #696, #48 ) ;
#479 = AXIS2_PLACEMENT_3D ( 'NONE', #578, #309, #459 ) ;
#480 = ORIENTED_EDGE ( 'NONE', *, *, #672, .F. ) ;
#481 = ADVANCED_FACE ( 'NONE', ( #510 ), #236, .F. ) ;
#482 = CARTESIAN_POINT ( 'NONE',  ( -19.34075738262738042, 13.00000000000000000, -1.250000000000008660 ) ) ;
#483 = ORIENTED_EDGE ( 'NONE', *, *, #7, .T. ) ;
#484 = CARTESIAN_POINT ( 'NONE',  ( 23.50000000000000000, 0.000000000000000000, 11.50000000000000178 ) ) ;
#485 = EDGE_CURVE ( 'NONE', #245, #35, #151, .T. ) ;
#486 = VERTEX_POINT ( 'NONE', #552 ) ;
#487 = CARTESIAN_POINT ( 'NONE',  ( 0.000000000000000000, 0.000000000000000000, 1.250000000000000222 ) ) ;
#488 = FACE_BOUND ( 'NONE', #229, .T. ) ;
#489 = EDGE_LOOP ( 'NONE', ( #122, #189 ) ) ;
#490 = CIRCLE ( 'NONE', #276, 1.500000000000000444 ) ;
#491 = VERTEX_POINT ( 'NONE', #619 ) ;
#492 = LINE ( 'NONE', #334, #682 ) ;
#493 = SURFACE_SIDE_STYLE ('',( #138 ) ) ;
#494 = UNCERTAINTY_MEASURE_WITH_UNIT (LENGTH_MEASURE( 1.000000000000000082E-05 ), #295, 'distance_accuracy_value', 'NONE');
#495 = ORIENTED_EDGE ( 'NONE', *, *, #218, .F. ) ;
#496 = ORIENTED_EDGE ( 'NONE', *, *, #590, .F. ) ;
#497 = VECTOR ( 'NONE', #135, 1000.000000000000000 ) ;
#498 = ORIENTED_EDGE ( 'NONE', *, *, #393, .T. ) ;
#499 = CARTESIAN_POINT ( 'NONE',  ( 23.50000000000000000, 0.000000000000000000, 11.50000000000000178 ) ) ;
#500 = PLANE ( 'NONE',  #259 ) ;
#501 = ORIENTED_EDGE ( 'NONE', *, *, #60, .T. ) ;
#502 = LINE ( 'NONE', #443, #261 ) ;
#503 = ORIENTED_EDGE ( 'NONE', *, *, #45, .T. ) ;
#504 = LINE ( 'NONE', #657, #649 ) ;
#505 = ORIENTED_EDGE ( 'NONE', *, *, #213, .F. ) ;
#506 = ORIENTED_EDGE ( 'NONE', *, *, #529, .T. ) ;
#507 = VECTOR ( 'NONE', #105, 1000.000000000000000 ) ;
#508 = DIRECTION ( 'NONE',  ( 0.000000000000000000, 1.000000000000000000, 0.000000000000000000 ) ) ;
#509 = DIRECTION ( 'NONE',  ( 0.000000000000000000, 1.000000000000000000, 0.000000000000000000 ) ) ;
#510 = FACE_OUTER_BOUND ( 'NONE', #654, .T. ) ;
#511 = EDGE_CURVE ( 'NONE', #545, #3, #128, .T. ) ;
#512 = EDGE_LOOP ( 'NONE', ( #163, #538, #272, #397 ) ) ;
#513 = DIRECTION ( 'NONE',  ( 1.000000000000000000, 0.000000000000000000, 0.000000000000000000 ) ) ;
#514 = CARTESIAN_POINT ( 'NONE',  ( 23.50000000000000355, 13.00000000000000000, 21.50000000000000000 ) ) ;
#515 = CARTESIAN_POINT ( 'NONE',  ( 0.000000000000000000, 0.000000000000000000, 0.000000000000000000 ) ) ;
#516 = CARTESIAN_POINT ( 'NONE',  ( 20.15924261737261958, 0.000000000000000000, -2.750000000000009326 ) ) ;
#517 = DIRECTION ( 'NONE',  ( -0.000000000000000000, -1.000000000000000000, -0.000000000000000000 ) ) ;
#518 = CARTESIAN_POINT ( 'NONE',  ( -23.49999999999999289, -30.00000000000000355, 11.50000000000000178 ) ) ;
#519 = EDGE_CURVE ( 'NONE', #349, #491, #504, .T. ) ;
#520 = EDGE_CURVE ( 'NONE', #323, #326, #380, .T. ) ;
#521 = CARTESIAN_POINT ( 'NONE',  ( -8.840757382627378647, 13.00000000000000000, -1.250000000000007994 ) ) ;
#522 = AXIS2_PLACEMENT_3D ( 'NONE', #149, #354, #580 ) ;
#523 = DIRECTION ( 'NONE',  ( 0.000000000000000000, 0.000000000000000000, -1.000000000000000000 ) ) ;
#524 = DIRECTION ( 'NONE',  ( 0.000000000000000000, 0.000000000000000000, 1.000000000000000000 ) ) ;
#525 = ORIENTED_EDGE ( 'NONE', *, *, #342, .F. ) ;
#526 = VECTOR ( 'NONE', #71, 1000.000000000000000 ) ;
#527 = CARTESIAN_POINT ( 'NONE',  ( -8.840757382627378647, 0.000000000000000000, -1.250000000000007994 ) ) ;
#528 = AXIS2_PLACEMENT_3D ( 'NONE', #636, #681, #88 ) ;
#529 = EDGE_CURVE ( 'NONE', #564, #275, #279, .T. ) ;
#530 = EDGE_LOOP ( 'NONE', ( #665, #25, #332, #606 ) ) ;
#531 = DIRECTION ( 'NONE',  ( -0.000000000000000000, -1.000000000000000000, -0.000000000000000000 ) ) ;
#532 = CIRCLE ( 'NONE', #92, 1.499999999999999556 ) ;
#533 = ORIENTED_EDGE ( 'NONE', *, *, #393, .F. ) ;
#534 = PLANE ( 'NONE',  #597 ) ;
#535 = AXIS2_PLACEMENT_3D ( 'NONE', #192, #76, #28 ) ;
#536 = ADVANCED_FACE ( 'NONE', ( #24, #66 ), #500, .F. ) ;
#537 = CARTESIAN_POINT ( 'NONE',  ( -23.50000000000000000, 0.000000000000000000, -5.500000000000000000 ) ) ;
#538 = ORIENTED_EDGE ( 'NONE', *, *, #136, .T. ) ;
#539 = EDGE_CURVE ( 'NONE', #399, #87, #470, .T. ) ;
#540 = CARTESIAN_POINT ( 'NONE',  ( -23.50000000000000000, 13.00000000000000000, -5.500000000000000000 ) ) ;
#541 = VERTEX_POINT ( 'NONE', #226 ) ;
#542 = CARTESIAN_POINT ( 'NONE',  ( -7.000000000000006217, -15.00000000000000178, 21.50000000000000000 ) ) ;
#543 = CYLINDRICAL_SURFACE ( 'NONE', #235, 14.50000000000000533 ) ;
#544 = ORIENTED_EDGE ( 'NONE', *, *, #590, .T. ) ;
#545 = VERTEX_POINT ( 'NONE', #246 ) ;
#546 = FACE_BOUND ( 'NONE', #621, .T. ) ;
#547 =( NAMED_UNIT ( * ) SI_UNIT ( $, .STERADIAN. ) SOLID_ANGLE_UNIT ( ) );
#548 = EDGE_LOOP ( 'NONE', ( #650, #595, #277, #432, #525, #612 ) ) ;
#549 = ORIENTED_EDGE ( 'NONE', *, *, #150, .T. ) ;
#550 = ORIENTED_EDGE ( 'NONE', *, *, #298, .F. ) ;
#551 = DIRECTION ( 'NONE',  ( -0.000000000000000000, -1.000000000000000000, -0.000000000000000000 ) ) ;
#552 = CARTESIAN_POINT ( 'NONE',  ( 20.15924261737261958, 13.00000000000000000, -4.250000000000010658 ) ) ;
#553 = ORIENTED_EDGE ( 'NONE', *, *, #187, .T. ) ;
#554 = CIRCLE ( 'NONE', #257, 1.500000000000000666 ) ;
#555 = CARTESIAN_POINT ( 'NONE',  ( 20.15924261737261958, 13.00000000000000000, -1.250000000000008660 ) ) ;
#556 = CARTESIAN_POINT ( 'NONE',  ( 22.00000000000000711, -15.00000000000000355, 11.50000000000000178 ) ) ;
#557 = CYLINDRICAL_SURFACE ( 'NONE', #535, 1.500000000000000444 ) ;
#558 = ORIENTED_EDGE ( 'NONE', *, *, #594, .T. ) ;
#559 =( GEOMETRIC_REPRESENTATION_CONTEXT ( 3 ) GLOBAL_UNCERTAINTY_ASSIGNED_CONTEXT ( ( #153 ) ) GLOBAL_UNIT_ASSIGNED_CONTEXT ( ( #603, #132, #547 ) ) REPRESENTATION_CONTEXT ( 'NONE', 'WORKASPACE' ) );
#560 = CARTESIAN_POINT ( 'NONE',  ( -7.000000000000006217, -15.00000000000000178, 11.50000000000000178 ) ) ;
#561 = ADVANCED_FACE ( 'NONE', ( #613 ), #557, .F. ) ;
#562 = ORIENTED_EDGE ( 'NONE', *, *, #324, .F. ) ;
#563 = DIRECTION ( 'NONE',  ( 0.000000000000000000, 0.000000000000000000, 1.000000000000000000 ) ) ;
#564 = VERTEX_POINT ( 'NONE', #239 ) ;
#565 = ORIENTED_EDGE ( 'NONE', *, *, #485, .F. ) ;
#566 = COLOUR_RGB ( '',0.7921568627450980005, 0.8196078431372548767, 0.9333333333333333481 ) ;
#567 = CARTESIAN_POINT ( 'NONE',  ( -8.840757382627378647, 0.000000000000000000, -4.250000000000010658 ) ) ;
#568 = VECTOR ( 'NONE', #190, 1000.000000000000000 ) ;
#569 = ADVANCED_FACE ( 'NONE', ( #451 ), #543, .F. ) ;
#570 = LINE ( 'NONE', #362, #286 ) ;
#571 = FACE_OUTER_BOUND ( 'NONE', #331, .T. ) ;
#572 = LINE ( 'NONE', #669, #687 ) ;
#573 = CIRCLE ( 'NONE', #475, 1.500000000000001332 ) ;
#574 = DIRECTION ( 'NONE',  ( 4.336808689942017736E-16, 0.000000000000000000, 1.000000000000000000 ) ) ;
#575 = CARTESIAN_POINT ( 'NONE',  ( -19.34075738262738042, 13.00000000000000000, -2.750000000000009326 ) ) ;
#576 = CARTESIAN_POINT ( 'NONE',  ( -23.49999999999999289, -30.00000000000000355, 11.50000000000000178 ) ) ;
#577 = CARTESIAN_POINT ( 'NONE',  ( 12.00000000000000000, 13.00000000000000000, 2.750000000000000000 ) ) ;
#578 = CARTESIAN_POINT ( 'NONE',  ( -8.840757382627378647, 13.00000000000000000, -2.750000000000009326 ) ) ;
#579 = CIRCLE ( 'NONE', #310, 1.500000000000000444 ) ;
#580 = DIRECTION ( 'NONE',  ( 0.000000000000000000, -0.000000000000000000, -1.000000000000000000 ) ) ;
#581 = ORIENTED_EDGE ( 'NONE', *, *, #664, .F. ) ;
#582 = ADVANCED_FACE ( 'NONE', ( #274, #488, #170, #364, #631, #46 ), #467, .T. ) ;
#583 = DIRECTION ( 'NONE',  ( -0.000000000000000000, -1.000000000000000000, -0.000000000000000000 ) ) ;
#584 = ORIENTED_EDGE ( 'NONE', *, *, #529, .F. ) ;
#585 = ORIENTED_EDGE ( 'NONE', *, *, #60, .F. ) ;
#586 = LINE ( 'NONE', #376, #11 ) ;
#587 = AXIS2_PLACEMENT_3D ( 'NONE', #678, #508, #244 ) ;
#588 = ORIENTED_EDGE ( 'NONE', *, *, #7, .F. ) ;
#589 = DIRECTION ( 'NONE',  ( 0.000000000000000000, 0.000000000000000000, 1.000000000000000000 ) ) ;
#590 = EDGE_CURVE ( 'NONE', #658, #625, #202, .T. ) ;
#591 = CLOSED_SHELL ( 'NONE', ( #695, #288, #644, #561, #98, #434, #582, #260, #481, #455, #466, #266, #431, #655, #371, #159, #47, #642, #536, #569 ) ) ;
#592 = DIRECTION ( 'NONE',  ( 1.000000000000000000, 0.000000000000000000, -4.336808689942018722E-16 ) ) ;
#593 = CIRCLE ( 'NONE', #291, 14.50000000000000533 ) ;
#594 = EDGE_CURVE ( 'NONE', #388, #399, #684, .T. ) ;
#595 = ORIENTED_EDGE ( 'NONE', *, *, #424, .T. ) ;
#596 = CARTESIAN_POINT ( 'NONE',  ( 0.000000000000000000, 0.000000000000000000, 2.750000000000000000 ) ) ;
#597 = AXIS2_PLACEMENT_3D ( 'NONE', #540, #262, #267 ) ;
#598 = ORIENTED_EDGE ( 'NONE', *, *, #247, .F. ) ;
#599 = CARTESIAN_POINT ( 'NONE',  ( 12.00000000000000000, 0.000000000000000000, 1.249999999999999112 ) ) ;
#600 = ORIENTED_EDGE ( 'NONE', *, *, #19, .T. ) ;
#601 = EDGE_LOOP ( 'NONE', ( #20, #503, #605, #442 ) ) ;
#602 = DIRECTION ( 'NONE',  ( 0.000000000000000000, 0.000000000000000000, -1.000000000000000000 ) ) ;
#603 =( LENGTH_UNIT ( ) NAMED_UNIT ( * ) SI_UNIT ( .MILLI., .METRE. ) );
#604 = ORIENTED_EDGE ( 'NONE', *, *, #369, .F. ) ;
#605 = ORIENTED_EDGE ( 'NONE', *, *, #520, .T. ) ;
#606 = ORIENTED_EDGE ( 'NONE', *, *, #468, .F. ) ;
#607 = FACE_OUTER_BOUND ( 'NONE', #668, .T. ) ;
#608 = DIRECTION ( 'NONE',  ( -1.000000000000000000, 0.000000000000000000, 0.000000000000000000 ) ) ;
#609 = AXIS2_PLACEMENT_3D ( 'NONE', #206, #144, #251 ) ;
#610 = ORIENTED_EDGE ( 'NONE', *, *, #193, .T. ) ;
#611 = FACE_OUTER_BOUND ( 'NONE', #84, .T. ) ;
#612 = ORIENTED_EDGE ( 'NONE', *, *, #247, .T. ) ;
#613 = FACE_OUTER_BOUND ( 'NONE', #129, .T. ) ;
#614 = EDGE_CURVE ( 'NONE', #79, #231, #593, .T. ) ;
#615 = EDGE_CURVE ( 'NONE', #231, #79, #77, .T. ) ;
#616 = ORIENTED_EDGE ( 'NONE', *, *, #148, .T. ) ;
#617 = DIRECTION ( 'NONE',  ( 0.000000000000000000, 1.000000000000000000, 0.000000000000000000 ) ) ;
#618 = LINE ( 'NONE', #514, #377 ) ;
#619 = CARTESIAN_POINT ( 'NONE',  ( -23.49999999999999645, 0.000000000000000000, 11.50000000000000178 ) ) ;
#620 = ORIENTED_EDGE ( 'NONE', *, *, #193, .F. ) ;
#621 = EDGE_LOOP ( 'NONE', ( #505, #480 ) ) ;
#622 = DIRECTION ( 'NONE',  ( -0.000000000000000000, -1.000000000000000000, -0.000000000000000000 ) ) ;
#623 = DIRECTION ( 'NONE',  ( 0.000000000000000000, 0.000000000000000000, 1.000000000000000000 ) ) ;
#624 = DIRECTION ( 'NONE',  ( 1.000000000000000000, 0.000000000000000000, 0.000000000000000000 ) ) ;
#625 = VERTEX_POINT ( 'NONE', #690 ) ;
#626 = AXIS2_PLACEMENT_3D ( 'NONE', #378, #592, #109 ) ;
#627 = PRODUCT ( '\X2\5de64fa77535673a8fde63a55668\X0\', '\X2\5de64fa77535673a8fde63a55668\X0\', '', ( #117 ) ) ;
#628 = DIRECTION ( 'NONE',  ( 0.000000000000000000, 1.000000000000000000, 0.000000000000000000 ) ) ;
#629 = CIRCLE ( 'NONE', #587, 1.500000000000000666 ) ;
#630 = EDGE_LOOP ( 'NONE', ( #110, #498 ) ) ;
#631 = FACE_BOUND ( 'NONE', #268, .T. ) ;
#632 = DIRECTION ( 'NONE',  ( 0.000000000000000000, 1.000000000000000000, 0.000000000000000000 ) ) ;
#633 = CIRCLE ( 'NONE', #18, 1.500000000000000444 ) ;
#634 = CARTESIAN_POINT ( 'NONE',  ( 12.00000000000000000, 0.000000000000000000, 2.750000000000000000 ) ) ;
#635 = DIRECTION ( 'NONE',  ( 0.000000000000000000, -1.000000000000000000, 0.000000000000000000 ) ) ;
#636 = CARTESIAN_POINT ( 'NONE',  ( -8.840757382627378647, 0.000000000000000000, -2.750000000000009326 ) ) ;
#637 = AXIS2_PLACEMENT_3D ( 'NONE', #515, #635, #197 ) ;
#638 = DIRECTION ( 'NONE',  ( 0.000000000000000000, 1.000000000000000000, 0.000000000000000000 ) ) ;
#639 = EDGE_CURVE ( 'NONE', #133, #69, #99, .T. ) ;
#640 = ORIENTED_EDGE ( 'NONE', *, *, #639, .F. ) ;
#641 = CARTESIAN_POINT ( 'NONE',  ( -23.49999999999999289, 13.00000000000000000, 21.50000000000000000 ) ) ;
#642 = ADVANCED_FACE ( 'NONE', ( #367 ), #418, .T. ) ;
#643 = EDGE_LOOP ( 'NONE', ( #141, #598, #303, #670 ) ) ;
#644 = ADVANCED_FACE ( 'NONE', ( #571 ), #360, .F. ) ;
#645 = DIRECTION ( 'NONE',  ( -0.000000000000000000, 1.000000000000000000, -0.000000000000000000 ) ) ;
#646 = FACE_OUTER_BOUND ( 'NONE', #548, .T. ) ;
#647 = ORIENTED_EDGE ( 'NONE', *, *, #56, .T. ) ;
#648 = FACE_OUTER_BOUND ( 'NONE', #233, .T. ) ;
#649 = VECTOR ( 'NONE', #330, 1000.000000000000000 ) ;
#650 = ORIENTED_EDGE ( 'NONE', *, *, #44, .T. ) ;
#651 = LINE ( 'NONE', #373, #299 ) ;
#652 = VECTOR ( 'NONE', #372, 1000.000000000000000 ) ;
#653 = AXIS2_PLACEMENT_3D ( 'NONE', #183, #617, #416 ) ;
#654 = EDGE_LOOP ( 'NONE', ( #238, #588, #13, #616, #62, #585 ) ) ;
#655 = ADVANCED_FACE ( 'NONE', ( #304 ), #311, .F. ) ;
#656 = PLANE ( 'NONE',  #374 ) ;
#657 = CARTESIAN_POINT ( 'NONE',  ( -23.49999999999999289, 0.000000000000000000, 11.50000000000000178 ) ) ;
#658 = VERTEX_POINT ( 'NONE', #43 ) ;
#659 = AXIS2_PLACEMENT_3D ( 'NONE', #137, #509, #623 ) ;
#660 = ORIENTED_EDGE ( 'NONE', *, *, #539, .F. ) ;
#661 = DIRECTION ( 'NONE',  ( 0.000000000000000000, 0.000000000000000000, -1.000000000000000000 ) ) ;
#662 = CARTESIAN_POINT ( 'NONE',  ( 7.500000000000000000, -15.00000000000000355, 11.50000000000000178 ) ) ;
#663 = ORIENTED_EDGE ( 'NONE', *, *, #136, .F. ) ;
#664 = EDGE_CURVE ( 'NONE', #405, #275, #579, .T. ) ;
#665 = ORIENTED_EDGE ( 'NONE', *, *, #148, .F. ) ;
#666 = DIRECTION ( 'NONE',  ( 0.000000000000000000, -1.000000000000000000, 0.000000000000000000 ) ) ;
#667 = DIRECTION ( 'NONE',  ( 0.000000000000000000, 0.000000000000000000, 1.000000000000000000 ) ) ;
#668 = EDGE_LOOP ( 'NONE', ( #501, #392, #68, #328 ) ) ;
#669 = CARTESIAN_POINT ( 'NONE',  ( -8.840757382627378647, 13.00000000000000000, -4.250000000000010658 ) ) ;
#670 = ORIENTED_EDGE ( 'NONE', *, *, #464, .T. ) ;
#671 = CARTESIAN_POINT ( 'NONE',  ( 12.00000000000000000, 13.00000000000000000, 1.249999999999999112 ) ) ;
#672 = EDGE_CURVE ( 'NONE', #294, #486, #427, .T. ) ;
#673 = EDGE_LOOP ( 'NONE', ( #70, #402 ) ) ;
#674 = DIRECTION ( 'NONE',  ( 0.000000000000000000, 0.000000000000000000, 1.000000000000000000 ) ) ;
#675 = CARTESIAN_POINT ( 'NONE',  ( 20.15924261737261958, 0.000000000000000000, -4.250000000000010658 ) ) ;
#676 = DIRECTION ( 'NONE',  ( 0.000000000000000000, 1.000000000000000000, 0.000000000000000000 ) ) ;
#677 = VERTEX_POINT ( 'NONE', #680 ) ;
#678 = CARTESIAN_POINT ( 'NONE',  ( -19.34075738262738042, 13.00000000000000000, -2.750000000000009326 ) ) ;
#679 = LINE ( 'NONE', #250, #171 ) ;
#680 = CARTESIAN_POINT ( 'NONE',  ( -23.49999999999999289, -30.00000000000000355, 21.50000000000000000 ) ) ;
#681 = DIRECTION ( 'NONE',  ( 0.000000000000000000, 1.000000000000000000, 0.000000000000000000 ) ) ;
#682 = VECTOR ( 'NONE', #438, 1000.000000000000000 ) ;
#683 = LINE ( 'NONE', #81, #361 ) ;
#684 = LINE ( 'NONE', #254, #108 ) ;
#685 = CARTESIAN_POINT ( 'NONE',  ( -23.49999999999999289, 13.00000000000000000, 21.50000000000000000 ) ) ;
#686 = CIRCLE ( 'NONE', #157, 1.499999999999999556 ) ;
#687 = VECTOR ( 'NONE', #39, 1000.000000000000000 ) ;
#688 = DIRECTION ( 'NONE',  ( 0.000000000000000000, 0.000000000000000000, 1.000000000000000000 ) ) ;
#689 = VECTOR ( 'NONE', #82, 1000.000000000000000 ) ;
#690 = CARTESIAN_POINT ( 'NONE',  ( 23.50000000000000000, -30.00000000000000355, 11.50000000000000178 ) ) ;
#691 = EDGE_CURVE ( 'NONE', #391, #388, #473, .T. ) ;
#692 = AXIS2_PLACEMENT_3D ( 'NONE', #156, #215, #53 ) ;
#693 = APPLICATION_CONTEXT ( 'automotive_design' ) ;
#694 = CIRCLE ( 'NONE', #165, 1.500000000000000444 ) ;
#695 = ADVANCED_FACE ( 'NONE', ( #430 ), #222, .F. ) ;
#696 = CARTESIAN_POINT ( 'NONE',  ( 23.50000000000000000, 13.00000000000000000, -5.500000000000000000 ) ) ;
#697 = DIRECTION ( 'NONE',  ( -0.000000000000000000, -1.000000000000000000, -0.000000000000000000 ) ) ;
ENDSEC;
END-ISO-10303-21;
