ISO-10303-21;
HEADER;
FILE_DESCRIPTION (( 'STEP AP214' ),
    '1' );
FILE_NAME ('激光连接件.STEP',
    '2026-03-23T06:31:27',
    ( '' ),
    ( '' ),
    'SwSTEP 2.0',
    'SolidWorks 2024',
    '' );
FILE_SCHEMA (( 'AUTOMOTIVE_DESIGN' ));
ENDSEC;

DATA;
#1 = ORIENTED_EDGE ( 'NONE', *, *, #317, .T. ) ;
#2 = EDGE_CURVE ( 'NONE', #119, #75, #895, .T. ) ;
#3 = CARTESIAN_POINT ( 'NONE',  ( 1.499999999999999778, 12.59999999999999964, -0.9999999999999965583 ) ) ;
#4 = EDGE_LOOP ( 'NONE', ( #723, #505 ) ) ;
#5 = CIRCLE ( 'NONE', #784, 1.500000000000001332 ) ;
#6 = AXIS2_PLACEMENT_3D ( 'NONE', #194, #20, #199 ) ;
#7 = LINE ( 'NONE', #325, #73 ) ;
#8 = ORIENTED_EDGE ( 'NONE', *, *, #952, .T. ) ;
#9 = CARTESIAN_POINT ( 'NONE',  ( -1.499999999999991562, -26.02865268665093623, 5.000000000000000000 ) ) ;
#10 = ORIENTED_EDGE ( 'NONE', *, *, #67, .T. ) ;
#11 = CARTESIAN_POINT ( 'NONE',  ( 3.985511791781603641, -6.576738943726470943, -12.45381733477948671 ) ) ;
#12 = DIRECTION ( 'NONE',  ( -0.000000000000000000, -0.000000000000000000, -1.000000000000000000 ) ) ;
#13 = LINE ( 'NONE', #334, #439 ) ;
#14 = ORIENTED_EDGE ( 'NONE', *, *, #680, .F. ) ;
#15 = VERTEX_POINT ( 'NONE', #417 ) ;
#16 = EDGE_CURVE ( 'NONE', #645, #703, #104, .T. ) ;
#17 = CIRCLE ( 'NONE', #224, 1.500000000000001332 ) ;
#18 = EDGE_CURVE ( 'NONE', #102, #220, #499, .T. ) ;
#19 = LINE ( 'NONE', #575, #473 ) ;
#20 = DIRECTION ( 'NONE',  ( -0.000000000000000000, -0.000000000000000000, 1.000000000000000000 ) ) ;
#21 = LINE ( 'NONE', #443, #35 ) ;
#22 = VERTEX_POINT ( 'NONE', #36 ) ;
#23 = VERTEX_POINT ( 'NONE', #813 ) ;
#24 = ADVANCED_FACE ( 'NONE', ( #653 ), #907, .T. ) ;
#25 = DIRECTION ( 'NONE',  ( 1.000000000000000000, 0.000000000000000000, 0.000000000000000000 ) ) ;
#26 = DIRECTION ( 'NONE',  ( -0.000000000000000000, -0.000000000000000000, 1.000000000000000000 ) ) ;
#27 = CARTESIAN_POINT ( 'NONE',  ( -7.650000000000000355, -10.59999999999999964, 5.000000000000000000 ) ) ;
#28 = ORIENTED_EDGE ( 'NONE', *, *, #887, .F. ) ;
#29 = EDGE_LOOP ( 'NONE', ( #968, #506, #227, #366, #360, #100, #579, #8 ) ) ;
#30 = LINE ( 'NONE', #255, #584 ) ;
#31 = CARTESIAN_POINT ( 'NONE',  ( 13.64999999999999858, 14.60000000000000675, 5.000000000000000000 ) ) ;
#32 = EDGE_CURVE ( 'NONE', #493, #994, #456, .T. ) ;
#33 = CARTESIAN_POINT ( 'NONE',  ( 11.24999999999999822, 14.60000000000001030, 2.603744501540754541 ) ) ;
#34 = VERTEX_POINT ( 'NONE', #819 ) ;
#35 = VECTOR ( 'NONE', #342, 999.9999999999998863 ) ;
#36 = CARTESIAN_POINT ( 'NONE',  ( -9.749999999999994671, -28.39999999999999858, 2.603744501540751877 ) ) ;
#37 = LINE ( 'NONE', #891, #856 ) ;
#38 = AXIS2_PLACEMENT_3D ( 'NONE', #388, #214, #780 ) ;
#39 = LINE ( 'NONE', #262, #815 ) ;
#40 = ORIENTED_EDGE ( 'NONE', *, *, #2, .T. ) ;
#41 = EDGE_LOOP ( 'NONE', ( #529, #954, #93, #865 ) ) ;
#42 = CARTESIAN_POINT ( 'NONE',  ( -7.650000000000003908, 10.59999999999999964, 5.000000000000000000 ) ) ;
#43 = DIRECTION ( 'NONE',  ( -0.000000000000000000, -0.000000000000000000, 1.000000000000000000 ) ) ;
#44 = LINE ( 'NONE', #659, #700 ) ;
#45 = ORIENTED_EDGE ( 'NONE', *, *, #179, .T. ) ;
#46 = ORIENTED_EDGE ( 'NONE', *, *, #598, .T. ) ;
#47 = EDGE_CURVE ( 'NONE', #754, #287, #965, .T. ) ;
#48 = VECTOR ( 'NONE', #536, 1000.000000000000000 ) ;
#49 = DIRECTION ( 'NONE',  ( -1.000000000000000000, -1.088143484830434354E-16, 0.000000000000000000 ) ) ;
#50 = FILL_AREA_STYLE ('',( #913 ) ) ;
#51 = CARTESIAN_POINT ( 'NONE',  ( 13.64999999999999858, 14.60000000000000675, 0.000000000000000000 ) ) ;
#52 = ORIENTED_EDGE ( 'NONE', *, *, #741, .T. ) ;
#53 = ORIENTED_EDGE ( 'NONE', *, *, #744, .F. ) ;
#54 = CARTESIAN_POINT ( 'NONE',  ( -13.65000000000000213, 14.60000000000000320, 0.000000000000000000 ) ) ;
#55 = CARTESIAN_POINT ( 'NONE',  ( 1.500000000000001332, -6.576738943726470943, -5.706862021830026777 ) ) ;
#56 = CARTESIAN_POINT ( 'NONE',  ( -3.985511791781597424, -23.39711614534606809, -12.45381733477948671 ) ) ;
#57 = ORIENTED_EDGE ( 'NONE', *, *, #934, .F. ) ;
#58 = ORIENTED_EDGE ( 'NONE', *, *, #760, .T. ) ;
#59 = ADVANCED_FACE ( 'NONE', ( #902 ), #423, .F. ) ;
#60 = CARTESIAN_POINT ( 'NONE',  ( 13.64999999999999858, 14.60000000000000675, 0.000000000000000000 ) ) ;
#61 = DIRECTION ( 'NONE',  ( -0.3951913076483000720, 0.000000000000000000, -0.9185988408218391799 ) ) ;
#62 = LINE ( 'NONE', #628, #309 ) ;
#63 = VERTEX_POINT ( 'NONE', #737 ) ;
#64 = CARTESIAN_POINT ( 'NONE',  ( 11.24999999999999822, 14.60000000000001030, 2.603744501540754541 ) ) ;
#65 = CARTESIAN_POINT ( 'NONE',  ( -12.47648296710002391, 14.60000000000000142, -12.45381733477948671 ) ) ;
#66 = DIRECTION ( 'NONE',  ( 1.000000000000000000, 0.000000000000000000, 0.000000000000000000 ) ) ;
#67 = EDGE_CURVE ( 'NONE', #645, #421, #30, .T. ) ;
#68 = EDGE_LOOP ( 'NONE', ( #181, #313, #52, #395 ) ) ;
#69 = CYLINDRICAL_SURFACE ( 'NONE', #384, 1.500000000000001998 ) ;
#70 = DIRECTION ( 'NONE',  ( 1.227398685832646557E-16, -1.000000000000000000, 0.000000000000000000 ) ) ;
#71 = AXIS2_PLACEMENT_3D ( 'NONE', #578, #113, #601 ) ;
#72 = ORIENTED_EDGE ( 'NONE', *, *, #1017, .T. ) ;
#73 = VECTOR ( 'NONE', #877, 1000.000000000000000 ) ;
#74 = CARTESIAN_POINT ( 'NONE',  ( -7.118714005252273935, 42.48813502408151521, 0.000000000000000000 ) ) ;
#75 = VERTEX_POINT ( 'NONE', #512 ) ;
#76 = EDGE_CURVE ( 'NONE', #432, #502, #344, .T. ) ;
#77 = DIRECTION ( 'NONE',  ( 0.9185988408218390688, 1.167410237493572389E-16, 0.3951913076483002385 ) ) ;
#78 = DIRECTION ( 'NONE',  ( 1.000000000000000000, 0.000000000000000000, 0.000000000000000000 ) ) ;
#79 = VERTEX_POINT ( 'NONE', #725 ) ;
#80 = DIRECTION ( 'NONE',  ( -0.000000000000000000, -0.000000000000000000, -1.000000000000000000 ) ) ;
#81 =( GEOMETRIC_REPRESENTATION_CONTEXT ( 3 ) GLOBAL_UNCERTAINTY_ASSIGNED_CONTEXT ( ( #90 ) ) GLOBAL_UNIT_ASSIGNED_CONTEXT ( ( #218, #802, #155 ) ) REPRESENTATION_CONTEXT ( 'NONE', 'WORKASPACE' ) );
#82 = FACE_BOUND ( 'NONE', #919, .T. ) ;
#83 = ORIENTED_EDGE ( 'NONE', *, *, #887, .T. ) ;
#84 = AXIS2_PLACEMENT_3D ( 'NONE', #632, #871, #401 ) ;
#85 = EDGE_CURVE ( 'NONE', #496, #942, #335, .T. ) ;
#86 = CARTESIAN_POINT ( 'NONE',  ( 0.000000000000000000, 0.000000000000000000, 0.000000000000000000 ) ) ;
#87 = EDGE_CURVE ( 'NONE', #216, #496, #265, .T. ) ;
#88 = CARTESIAN_POINT ( 'NONE',  ( 9.749999999999996447, 14.60000000000001030, 2.603744501540754541 ) ) ;
#89 = DIRECTION ( 'NONE',  ( 1.270859689360298160E-16, -1.000000000000000000, -0.000000000000000000 ) ) ;
#90 = UNCERTAINTY_MEASURE_WITH_UNIT (LENGTH_MEASURE( 1.000000000000000082E-05 ), #218, 'distance_accuracy_value', 'NONE');
#91 = ORIENTED_EDGE ( 'NONE', *, *, #718, .T. ) ;
#92 =( LENGTH_UNIT ( ) NAMED_UNIT ( * ) SI_UNIT ( .MILLI., .METRE. ) );
#93 = ORIENTED_EDGE ( 'NONE', *, *, #221, .T. ) ;
#94 = CARTESIAN_POINT ( 'NONE',  ( 7.649999999999999467, -10.59999999999999964, 2.000000000000000000 ) ) ;
#95 = ORIENTED_EDGE ( 'NONE', *, *, #586, .F. ) ;
#96 = EDGE_CURVE ( 'NONE', #703, #471, #970, .T. ) ;
#97 = DIRECTION ( 'NONE',  ( 1.270859689360298160E-16, -1.000000000000000000, 0.000000000000000000 ) ) ;
#98 = PLANE ( 'NONE',  #469 ) ;
#99 = DIRECTION ( 'NONE',  ( -1.000000000000000000, -1.270859689360298160E-16, -0.000000000000000000 ) ) ;
#100 = ORIENTED_EDGE ( 'NONE', *, *, #16, .F. ) ;
#101 = EDGE_CURVE ( 'NONE', #471, #747, #742, .T. ) ;
#102 = VERTEX_POINT ( 'NONE', #11 ) ;
#103 = VECTOR ( 'NONE', #775, 1000.000000000000000 ) ;
#104 = LINE ( 'NONE', #349, #391 ) ;
#105 = DIRECTION ( 'NONE',  ( 1.227398685832646557E-16, -1.000000000000000000, 0.000000000000000000 ) ) ;
#106 = CIRCLE ( 'NONE', #239, 1.500000000000000222 ) ;
#107 = VECTOR ( 'NONE', #658, 1000.000000000000000 ) ;
#108 = CARTESIAN_POINT ( 'NONE',  ( -2.449293598294704935E-16, 12.59999999999999964, 5.000000000000000000 ) ) ;
#109 = ORIENTED_EDGE ( 'NONE', *, *, #711, .F. ) ;
#110 = CARTESIAN_POINT ( 'NONE',  ( 3.985511791781593871, 42.48813502408151521, -12.45381733477948671 ) ) ;
#111 = DIRECTION ( 'NONE',  ( 1.000000000000000000, 1.188166764367676095E-16, -0.000000000000000000 ) ) ;
#112 = VECTOR ( 'NONE', #133, 1000.000000000000000 ) ;
#113 = DIRECTION ( 'NONE',  ( 1.270859689360298160E-16, -1.000000000000000000, 0.000000000000000000 ) ) ;
#114 = ORIENTED_EDGE ( 'NONE', *, *, #652, .T. ) ;
#115 = EDGE_LOOP ( 'NONE', ( #347, #550, #455, #10, #987, #258 ) ) ;
#116 = DIRECTION ( 'NONE',  ( -0.000000000000000000, -0.000000000000000000, -1.000000000000000000 ) ) ;
#117 = FACE_OUTER_BOUND ( 'NONE', #357, .T. ) ;
#118 = DIRECTION ( 'NONE',  ( 0.000000000000000000, -0.000000000000000000, 1.000000000000000000 ) ) ;
#119 = VERTEX_POINT ( 'NONE', #434 ) ;
#120 = AXIS2_PLACEMENT_3D ( 'NONE', #573, #957, #874 ) ;
#121 = CARTESIAN_POINT ( 'NONE',  ( -1.500000000000002220, 14.60000000000000142, -5.706862021830026777 ) ) ;
#122 = CARTESIAN_POINT ( 'NONE',  ( -7.650000000000003908, 10.59999999999999964, 5.000000000000000000 ) ) ;
#123 = VECTOR ( 'NONE', #12, 1000.000000000000000 ) ;
#124 = CARTESIAN_POINT ( 'NONE',  ( -3.985511791781599200, -6.576738943726468278, -12.45381733477948671 ) ) ;
#125 = EDGE_LOOP ( 'NONE', ( #385, #1008 ) ) ;
#126 = ORIENTED_EDGE ( 'NONE', *, *, #140, .T. ) ;
#127 = LINE ( 'NONE', #1009, #746 ) ;
#128 = DIRECTION ( 'NONE',  ( -1.636531581110195409E-16, 1.000000000000000000, 0.000000000000000000 ) ) ;
#129 = CARTESIAN_POINT ( 'NONE',  ( 0.000000000000000000, -10.59999999999999964, 2.000000000000000000 ) ) ;
#130 = ORIENTED_EDGE ( 'NONE', *, *, #186, .T. ) ;
#131 = ORIENTED_EDGE ( 'NONE', *, *, #2, .F. ) ;
#132 = CYLINDRICAL_SURFACE ( 'NONE', #604, 1.500000000000001332 ) ;
#133 = DIRECTION ( 'NONE',  ( -1.000000000000000000, 0.000000000000000000, 0.000000000000000000 ) ) ;
#134 = PRODUCT_DEFINITION_SHAPE ( 'NONE', 'NONE',  #348 ) ;
#135 = LINE ( 'NONE', #862, #667 ) ;
#136 = EDGE_LOOP ( 'NONE', ( #185, #574, #834, #14 ) ) ;
#137 = AXIS2_PLACEMENT_3D ( 'NONE', #468, #531, #1014 ) ;
#138 = EDGE_CURVE ( 'NONE', #989, #960, #19, .T. ) ;
#139 = ORIENTED_EDGE ( 'NONE', *, *, #87, .T. ) ;
#140 = EDGE_CURVE ( 'NONE', #287, #925, #237, .T. ) ;
#141 = VECTOR ( 'NONE', #697, 1000.000000000000000 ) ;
#142 = CARTESIAN_POINT ( 'NONE',  ( -11.25000000000000178, 14.60000000000000675, 2.603744501540751877 ) ) ;
#143 = DIRECTION ( 'NONE',  ( -1.270859689360298160E-16, 1.000000000000000000, -0.000000000000000000 ) ) ;
#144 = DIRECTION ( 'NONE',  ( 1.270859689360298160E-16, -1.000000000000000000, 0.000000000000000000 ) ) ;
#145 = AXIS2_PLACEMENT_3D ( 'NONE', #142, #605, #297 ) ;
#146 = ORIENTED_EDGE ( 'NONE', *, *, #403, .F. ) ;
#147 = EDGE_CURVE ( 'NONE', #999, #847, #995, .T. ) ;
#148 = DIRECTION ( 'NONE',  ( 1.794946031908496398E-16, -1.000000000000000000, 0.000000000000000000 ) ) ;
#149 = DIRECTION ( 'NONE',  ( -2.583587247701906723E-16, 0.000000000000000000, -1.000000000000000000 ) ) ;
#150 = FACE_OUTER_BOUND ( 'NONE', #656, .T. ) ;
#151 = ORIENTED_EDGE ( 'NONE', *, *, #693, .T. ) ;
#152 = DIRECTION ( 'NONE',  ( -0.000000000000000000, -0.000000000000000000, 1.000000000000000000 ) ) ;
#153 = FACE_OUTER_BOUND ( 'NONE', #563, .T. ) ;
#154 = ORIENTED_EDGE ( 'NONE', *, *, #598, .F. ) ;
#155 =( NAMED_UNIT ( * ) SI_UNIT ( $, .STERADIAN. ) SOLID_ANGLE_UNIT ( ) );
#156 = DIRECTION ( 'NONE',  ( 1.000000000000000000, 0.000000000000000000, 0.000000000000000000 ) ) ;
#157 = EDGE_CURVE ( 'NONE', #754, #592, #5, .T. ) ;
#158 = CIRCLE ( 'NONE', #172, 1.500000000000000000 ) ;
#159 = VERTEX_POINT ( 'NONE', #363 ) ;
#160 = DIRECTION ( 'NONE',  ( 0.000000000000000000, 0.000000000000000000, 1.000000000000000000 ) ) ;
#161 = DIRECTION ( 'NONE',  ( 0.3951913076483001830, 0.000000000000000000, 0.9185988408218390688 ) ) ;
#162 = ORIENTED_EDGE ( 'NONE', *, *, #586, .T. ) ;
#163 = CARTESIAN_POINT ( 'NONE',  ( -7.650000000000003908, 10.59999999999999964, 5.000000000000000000 ) ) ;
#164 = CARTESIAN_POINT ( 'NONE',  ( -3.985511791781599200, -6.576738943726468278, 2.000000000000000000 ) ) ;
#165 = ORIENTED_EDGE ( 'NONE', *, *, #557, .T. ) ;
#166 = EDGE_CURVE ( 'NONE', #592, #754, #17, .T. ) ;
#167 = ADVANCED_FACE ( 'NONE', ( #542, #599, #939 ), #686, .T. ) ;
#168 = CARTESIAN_POINT ( 'NONE',  ( 7.649999999999996803, 10.59999999999999964, 2.000000000000000000 ) ) ;
#169 = FACE_BOUND ( 'NONE', #410, .T. ) ;
#170 = VECTOR ( 'NONE', #97, 1000.000000000000000 ) ;
#171 = ORIENTED_EDGE ( 'NONE', *, *, #900, .F. ) ;
#172 = AXIS2_PLACEMENT_3D ( 'NONE', #108, #909, #365 ) ;
#173 = VECTOR ( 'NONE', #303, 1000.000000000000000 ) ;
#174 = ADVANCED_FACE ( 'NONE', ( #837, #217 ), #931, .F. ) ;
#175 = CARTESIAN_POINT ( 'NONE',  ( -13.65000000000000213, 14.60000000000000320, 5.000000000000000000 ) ) ;
#176 = ORIENTED_EDGE ( 'NONE', *, *, #463, .T. ) ;
#177 = EDGE_LOOP ( 'NONE', ( #950, #889, #993, #114 ) ) ;
#178 = CARTESIAN_POINT ( 'NONE',  ( 12.75000000000000000, 14.60000000000001030, 2.603744501540754541 ) ) ;
#179 = EDGE_CURVE ( 'NONE', #580, #220, #127, .T. ) ;
#180 = ORIENTED_EDGE ( 'NONE', *, *, #85, .F. ) ;
#181 = ORIENTED_EDGE ( 'NONE', *, *, #613, .F. ) ;
#182 = VERTEX_POINT ( 'NONE', #843 ) ;
#183 = FACE_OUTER_BOUND ( 'NONE', #603, .T. ) ;
#184 = DIRECTION ( 'NONE',  ( -0.000000000000000000, 0.000000000000000000, 1.000000000000000000 ) ) ;
#185 = ORIENTED_EDGE ( 'NONE', *, *, #552, .F. ) ;
#186 = EDGE_CURVE ( 'NONE', #493, #759, #369, .T. ) ;
#187 = CARTESIAN_POINT ( 'NONE',  ( 7.118714005252264165, 42.48813502408151521, 1.743582064115525255E-15 ) ) ;
#188 = CARTESIAN_POINT ( 'NONE',  ( -2.449293598294704935E-16, 12.59999999999999964, -0.9999999999999965583 ) ) ;
#189 = AXIS2_PLACEMENT_3D ( 'NONE', #266, #26, #582 ) ;
#190 = AXIS2_PLACEMENT_3D ( 'NONE', #674, #279, #350 ) ;
#191 = CARTESIAN_POINT ( 'NONE',  ( 7.649999999999996803, 10.59999999999999964, 5.000000000000000000 ) ) ;
#192 = ORIENTED_EDGE ( 'NONE', *, *, #769, .T. ) ;
#193 = DIRECTION ( 'NONE',  ( 1.270859689360298160E-16, -1.000000000000000000, 0.000000000000000000 ) ) ;
#194 = CARTESIAN_POINT ( 'NONE',  ( -2.449293598294704935E-16, 12.59999999999999964, -0.9999999999999965583 ) ) ;
#195 = DIRECTION ( 'NONE',  ( -1.000000000000000000, -1.088143484830434108E-16, -0.000000000000000000 ) ) ;
#196 = EDGE_LOOP ( 'NONE', ( #660, #146, #1023, #353 ) ) ;
#197 = EDGE_CURVE ( 'NONE', #22, #960, #855, .T. ) ;
#198 = CARTESIAN_POINT ( 'NONE',  ( 8.358112411028007644E-16, -6.576738943726470943, -5.706862021830026777 ) ) ;
#199 = DIRECTION ( 'NONE',  ( 1.000000000000000000, 0.000000000000000000, 0.000000000000000000 ) ) ;
#200 = CARTESIAN_POINT ( 'NONE',  ( 0.000000000000000000, 0.000000000000000000, 0.000000000000000000 ) ) ;
#201 = EDGE_LOOP ( 'NONE', ( #516, #884 ) ) ;
#202 = ORIENTED_EDGE ( 'NONE', *, *, #101, .T. ) ;
#203 = VECTOR ( 'NONE', #535, 1000.000000000000000 ) ;
#204 = CARTESIAN_POINT ( 'NONE',  ( -11.24999999999999645, -28.39999999999999858, 2.603744501540751877 ) ) ;
#205 = CARTESIAN_POINT ( 'NONE',  ( 12.75000000000000355, -28.39999999999999503, 2.603744501540754541 ) ) ;
#206 = VECTOR ( 'NONE', #466, 1000.000000000000000 ) ;
#207 = EDGE_CURVE ( 'NONE', #502, #580, #458, .T. ) ;
#208 = DIRECTION ( 'NONE',  ( 1.000000000000000000, 0.000000000000000000, 0.000000000000000000 ) ) ;
#209 = ORIENTED_EDGE ( 'NONE', *, *, #788, .T. ) ;
#210 = ORIENTED_EDGE ( 'NONE', *, *, #546, .T. ) ;
#211 = DIRECTION ( 'NONE',  ( 1.000000000000000000, -0.000000000000000000, -0.000000000000000000 ) ) ;
#212 = PRESENTATION_STYLE_ASSIGNMENT (( #763 ) ) ;
#213 = EDGE_CURVE ( 'NONE', #471, #243, #1003, .T. ) ;
#214 = DIRECTION ( 'NONE',  ( 0.000000000000000000, -1.000000000000000000, 0.000000000000000000 ) ) ;
#215 = EDGE_LOOP ( 'NONE', ( #368, #130, #209, #509 ) ) ;
#216 = VERTEX_POINT ( 'NONE', #121 ) ;
#217 = FACE_BOUND ( 'NONE', #316, .T. ) ;
#218 =( LENGTH_UNIT ( ) NAMED_UNIT ( * ) SI_UNIT ( .MILLI., .METRE. ) );
#219 = DIRECTION ( 'NONE',  ( -0.000000000000000000, -0.000000000000000000, 1.000000000000000000 ) ) ;
#220 = VERTEX_POINT ( 'NONE', #441 ) ;
#221 = EDGE_CURVE ( 'NONE', #79, #22, #446, .T. ) ;
#222 = LINE ( 'NONE', #54, #916 ) ;
#223 = CARTESIAN_POINT ( 'NONE',  ( 1.047667554591260132E-14, -26.02865268665093623, -12.45381733477948494 ) ) ;
#224 = AXIS2_PLACEMENT_3D ( 'NONE', #64, #301, #517 ) ;
#225 = CARTESIAN_POINT ( 'NONE',  ( -1.500000000000000222, 12.59999999999999964, -0.9999999999999965583 ) ) ;
#226 = AXIS2_PLACEMENT_3D ( 'NONE', #251, #791, #78 ) ;
#227 = ORIENTED_EDGE ( 'NONE', *, *, #741, .F. ) ;
#228 = FACE_OUTER_BOUND ( 'NONE', #672, .T. ) ;
#229 = FACE_OUTER_BOUND ( 'NONE', #489, .T. ) ;
#230 = EDGE_LOOP ( 'NONE', ( #842, #719, #91, #671 ) ) ;
#231 = DIRECTION ( 'NONE',  ( 1.000000000000000000, 0.000000000000000000, 0.000000000000000000 ) ) ;
#232 = ADVANCED_FACE ( 'NONE', ( #750 ), #756, .F. ) ;
#233 = CARTESIAN_POINT ( 'NONE',  ( 3.985511791781604529, -23.39711614534606809, 14.41095445918625728 ) ) ;
#234 = ORIENTED_EDGE ( 'NONE', *, *, #565, .T. ) ;
#235 =( NAMED_UNIT ( * ) SI_UNIT ( $, .STERADIAN. ) SOLID_ANGLE_UNIT ( ) );
#236 = CARTESIAN_POINT ( 'NONE',  ( 3.985511791781600976, 0.000000000000000000, 5.000000000000000000 ) ) ;
#237 = CIRCLE ( 'NONE', #798, 1.500000000000001332 ) ;
#238 = ORIENTED_EDGE ( 'NONE', *, *, #876, .F. ) ;
#239 = AXIS2_PLACEMENT_3D ( 'NONE', #903, #820, #358 ) ;
#240 = DIRECTION ( 'NONE',  ( 0.3951913076483002385, 0.000000000000000000, -0.9185988408218390688 ) ) ;
#241 = EDGE_CURVE ( 'NONE', #716, #588, #771, .T. ) ;
#242 = FACE_OUTER_BOUND ( 'NONE', #41, .T. ) ;
#243 = VERTEX_POINT ( 'NONE', #42 ) ;
#244 = CARTESIAN_POINT ( 'NONE',  ( 0.000000000000000000, -10.59999999999999964, 2.000000000000000000 ) ) ;
#245 = LINE ( 'NONE', #481, #337 ) ;
#246 = ORIENTED_EDGE ( 'NONE', *, *, #527, .T. ) ;
#247 = VECTOR ( 'NONE', #273, 1000.000000000000000 ) ;
#248 = ADVANCED_FACE ( 'NONE', ( #530 ), #132, .F. ) ;
#249 = APPLICATION_PROTOCOL_DEFINITION ( 'draft international standard', 'automotive_design', 1998, #755 ) ;
#250 = CARTESIAN_POINT ( 'NONE',  ( 3.985511791781600976, -10.59999999999999964, 5.000000000000000000 ) ) ;
#251 = CARTESIAN_POINT ( 'NONE',  ( -5.399645807820262988E-15, 42.48813502408151521, -5.706862021830026777 ) ) ;
#252 = ORIENTED_EDGE ( 'NONE', *, *, #503, .F. ) ;
#253 = AXIS2_PLACEMENT_3D ( 'NONE', #698, #612, #470 ) ;
#254 = AXIS2_PLACEMENT_3D ( 'NONE', #491, #705, #156 ) ;
#255 = CARTESIAN_POINT ( 'NONE',  ( 3.985511791781600088, -10.59999999999999964, 1.995003582119636354 ) ) ;
#256 = LINE ( 'NONE', #178, #768 ) ;
#257 = DIRECTION ( 'NONE',  ( 0.000000000000000000, 1.000000000000000000, 0.000000000000000000 ) ) ;
#258 = ORIENTED_EDGE ( 'NONE', *, *, #693, .F. ) ;
#259 = CARTESIAN_POINT ( 'NONE',  ( 7.649999999999996803, 10.59999999999999964, 5.000000000000000000 ) ) ;
#260 = CARTESIAN_POINT ( 'NONE',  ( -12.47648296710001858, -28.39999999999999858, -12.45381733477948671 ) ) ;
#261 = EDGE_CURVE ( 'NONE', #774, #863, #222, .T. ) ;
#262 = CARTESIAN_POINT ( 'NONE',  ( -13.65000000000000213, 14.60000000000000320, 5.000000000000000000 ) ) ;
#263 = ORIENTED_EDGE ( 'NONE', *, *, #810, .F. ) ;
#264 = VECTOR ( 'NONE', #61, 1000.000000000000227 ) ;
#265 = LINE ( 'NONE', #272, #914 ) ;
#266 = CARTESIAN_POINT ( 'NONE',  ( -2.449293598294704935E-16, 12.59999999999999964, -0.9999999999999965583 ) ) ;
#267 = LINE ( 'NONE', #997, #897 ) ;
#268 = ORIENTED_EDGE ( 'NONE', *, *, #824, .T. ) ;
#269 = ORIENTED_EDGE ( 'NONE', *, *, #934, .T. ) ;
#270 = AXIS2_PLACEMENT_3D ( 'NONE', #494, #661, #983 ) ;
#271 = AXIS2_PLACEMENT_3D ( 'NONE', #967, #257, #486 ) ;
#272 = CARTESIAN_POINT ( 'NONE',  ( -1.500000000000005773, 42.48813502408151521, -5.706862021830026777 ) ) ;
#273 = DIRECTION ( 'NONE',  ( -0.000000000000000000, -0.000000000000000000, -1.000000000000000000 ) ) ;
#274 = EDGE_CURVE ( 'NONE', #1012, #801, #696, .T. ) ;
#275 = PLANE ( 'NONE',  #935 ) ;
#276 = EDGE_LOOP ( 'NONE', ( #539, #980 ) ) ;
#277 = ADVANCED_FACE ( 'NONE', ( #800 ), #715, .F. ) ;
#278 = DIRECTION ( 'NONE',  ( 1.088143484830434354E-16, -1.000000000000000000, -0.000000000000000000 ) ) ;
#279 = DIRECTION ( 'NONE',  ( 0.000000000000000000, 0.000000000000000000, 1.000000000000000000 ) ) ;
#280 = LINE ( 'NONE', #655, #504 ) ;
#281 = EDGE_LOOP ( 'NONE', ( #83, #829 ) ) ;
#282 = ORIENTED_EDGE ( 'NONE', *, *, #361, .F. ) ;
#283 = DIRECTION ( 'NONE',  ( -1.000000000000000000, 0.000000000000000000, 0.000000000000000000 ) ) ;
#284 = DIRECTION ( 'NONE',  ( 1.000000000000000000, 0.000000000000000000, 0.000000000000000000 ) ) ;
#285 = ADVANCED_FACE ( 'NONE', ( #242 ), #888, .F. ) ;
#286 = DIRECTION ( 'NONE',  ( 1.270859689360298160E-16, -1.000000000000000000, -0.000000000000000000 ) ) ;
#287 = VERTEX_POINT ( 'NONE', #808 ) ;
#288 = EDGE_LOOP ( 'NONE', ( #609, #165, #438, #694 ) ) ;
#289 = ADVANCED_FACE ( 'NONE', ( #883 ), #397, .T. ) ;
#290 = VECTOR ( 'NONE', #1011, 1000.000000000000000 ) ;
#291 = CARTESIAN_POINT ( 'NONE',  ( -7.650000000000003908, 10.59999999999999964, 5.000000000000000000 ) ) ;
#292 = CARTESIAN_POINT ( 'NONE',  ( 3.985511791781600088, -17.60000000000000142, 1.995003582119636354 ) ) ;
#293 = CARTESIAN_POINT ( 'NONE',  ( 11.25000000000000355, -28.39999999999999503, 2.603744501540754541 ) ) ;
#294 = VECTOR ( 'NONE', #329, 1000.000000000000000 ) ;
#295 = ORIENTED_EDGE ( 'NONE', *, *, #620, .T. ) ;
#296 = ORIENTED_EDGE ( 'NONE', *, *, #241, .T. ) ;
#297 = DIRECTION ( 'NONE',  ( 1.000000000000000000, 0.000000000000000000, 0.000000000000000000 ) ) ;
#298 = CARTESIAN_POINT ( 'NONE',  ( -3.985511791781597424, -28.39999999999999503, 5.000000000000000000 ) ) ;
#299 = CARTESIAN_POINT ( 'NONE',  ( -1.499999999999991562, -26.02865268665093623, -12.45381733477948494 ) ) ;
#300 = ORIENTED_EDGE ( 'NONE', *, *, #1017, .F. ) ;
#301 = DIRECTION ( 'NONE',  ( 1.270859689360298160E-16, -1.000000000000000000, 0.000000000000000000 ) ) ;
#302 = CARTESIAN_POINT ( 'NONE',  ( 0.000000000000000000, 0.000000000000000000, 0.000000000000000000 ) ) ;
#303 = DIRECTION ( 'NONE',  ( 1.636531581110195656E-16, -1.000000000000000000, 0.000000000000000000 ) ) ;
#304 = ORIENTED_EDGE ( 'NONE', *, *, #540, .T. ) ;
#305 = CARTESIAN_POINT ( 'NONE',  ( -12.47648296710002747, 42.48813502408151521, -12.45381733477948671 ) ) ;
#306 = CARTESIAN_POINT ( 'NONE',  ( -13.64999999999999680, -28.39999999999999858, 0.000000000000000000 ) ) ;
#307 = AXIS2_PLACEMENT_3D ( 'NONE', #821, #745, #904 ) ;
#308 = LINE ( 'NONE', #1016, #290 ) ;
#309 = VECTOR ( 'NONE', #840, 1000.000000000000000 ) ;
#310 = EDGE_LOOP ( 'NONE', ( #295, #95, #372, #151 ) ) ;
#311 = DIRECTION ( 'NONE',  ( 0.000000000000000000, 0.000000000000000000, 1.000000000000000000 ) ) ;
#312 = DIRECTION ( 'NONE',  ( 0.000000000000000000, 0.000000000000000000, 1.000000000000000000 ) ) ;
#313 = ORIENTED_EDGE ( 'NONE', *, *, #684, .F. ) ;
#314 = DIRECTION ( 'NONE',  ( 1.188166764367676095E-16, -1.000000000000000000, 0.000000000000000000 ) ) ;
#315 = ADVANCED_FACE ( 'NONE', ( #492 ), #406, .F. ) ;
#316 = EDGE_LOOP ( 'NONE', ( #449, #180 ) ) ;
#317 = EDGE_CURVE ( 'NONE', #875, #942, #327, .T. ) ;
#318 = EDGE_CURVE ( 'NONE', #378, #747, #13, .T. ) ;
#319 = LINE ( 'NONE', #400, #938 ) ;
#320 = VECTOR ( 'NONE', #581, 1000.000000000000000 ) ;
#321 = CARTESIAN_POINT ( 'NONE',  ( -11.25000000000000178, 14.60000000000000675, 2.603744501540751877 ) ) ;
#322 = AXIS2_PLACEMENT_3D ( 'NONE', #816, #591, #352 ) ;
#323 = ORIENTED_EDGE ( 'NONE', *, *, #157, .F. ) ;
#324 = VECTOR ( 'NONE', #43, 1000.000000000000000 ) ;
#325 = CARTESIAN_POINT ( 'NONE',  ( -13.65000000000000213, 14.60000000000000320, 0.000000000000000000 ) ) ;
#326 = EDGE_CURVE ( 'NONE', #989, #79, #355, .T. ) ;
#327 = LINE ( 'NONE', #413, #622 ) ;
#328 = EDGE_LOOP ( 'NONE', ( #643, #330, #72, #805, #689, #109, #282, #561 ) ) ;
#329 = DIRECTION ( 'NONE',  ( 1.000000000000000000, 0.000000000000000000, 0.000000000000000000 ) ) ;
#330 = ORIENTED_EDGE ( 'NONE', *, *, #712, .T. ) ;
#331 = CARTESIAN_POINT ( 'NONE',  ( 11.25000000000000355, -28.39999999999999503, 2.603744501540754541 ) ) ;
#332 = DIRECTION ( 'NONE',  ( 1.636531581110195409E-16, -1.000000000000000000, 0.000000000000000000 ) ) ;
#333 = VECTOR ( 'NONE', #921, 1000.000000000000000 ) ;
#334 = CARTESIAN_POINT ( 'NONE',  ( 0.000000000000000000, 10.59999999999999964, 2.000000000000000000 ) ) ;
#335 = CIRCLE ( 'NONE', #405, 1.500000000000000222 ) ;
#336 = VERTEX_POINT ( 'NONE', #164 ) ;
#337 = VECTOR ( 'NONE', #795, 1000.000000000000000 ) ;
#338 = VECTOR ( 'NONE', #377, 1000.000000000000000 ) ;
#339 = EDGE_CURVE ( 'NONE', #15, #432, #245, .T. ) ;
#340 = DIRECTION ( 'NONE',  ( 1.270859689360298160E-16, -1.000000000000000000, 0.000000000000000000 ) ) ;
#341 = CARTESIAN_POINT ( 'NONE',  ( -3.985511791781599200, -15.20067833877309837, -12.45381733477948671 ) ) ;
#342 = DIRECTION ( 'NONE',  ( 0.3951913076483002385, 5.022327024758088504E-17, 0.9185988408218391799 ) ) ;
#343 = VERTEX_POINT ( 'NONE', #879 ) ;
#344 = LINE ( 'NONE', #974, #783 ) ;
#345 = CARTESIAN_POINT ( 'NONE',  ( -7.650000000000000355, -10.59999999999999964, 5.000000000000000000 ) ) ;
#346 = DIRECTION ( 'NONE',  ( 0.000000000000000000, 1.000000000000000000, 0.000000000000000000 ) ) ;
#347 = ORIENTED_EDGE ( 'NONE', *, *, #18, .T. ) ;
#348 = PRODUCT_DEFINITION ( '鏈', '', #634, #953 ) ;
#349 = CARTESIAN_POINT ( 'NONE',  ( -7.650000000000000355, -10.59999999999999964, 5.000000000000000000 ) ) ;
#350 = DIRECTION ( 'NONE',  ( 1.000000000000000000, 0.000000000000000000, 0.000000000000000000 ) ) ;
#351 = ADVANCED_FACE ( 'NONE', ( #82, #169, #828, #915 ), #986, .F. ) ;
#352 = DIRECTION ( 'NONE',  ( 1.000000000000000000, 0.000000000000000000, 0.000000000000000000 ) ) ;
#353 = ORIENTED_EDGE ( 'NONE', *, *, #724, .T. ) ;
#354 = ORIENTED_EDGE ( 'NONE', *, *, #451, .T. ) ;
#355 = CIRCLE ( 'NONE', #120, 1.500000000000001332 ) ;
#356 = VECTOR ( 'NONE', #314, 1000.000000000000000 ) ;
#357 = EDGE_LOOP ( 'NONE', ( #735, #796, #792, #162, #176, #822 ) ) ;
#358 = DIRECTION ( 'NONE',  ( 1.000000000000000000, 0.000000000000000000, 0.000000000000000000 ) ) ;
#359 = DIRECTION ( 'NONE',  ( 1.270859689360298160E-16, -1.000000000000000000, 0.000000000000000000 ) ) ;
#360 = ORIENTED_EDGE ( 'NONE', *, *, #96, .F. ) ;
#361 = EDGE_CURVE ( 'NONE', #847, #753, #39, .T. ) ;
#362 = EDGE_LOOP ( 'NONE', ( #528, #730, #860, #402 ) ) ;
#363 = CARTESIAN_POINT ( 'NONE',  ( 3.985511791781600976, -6.576738943726467390, 2.000000000000000000 ) ) ;
#364 = CARTESIAN_POINT ( 'NONE',  ( -7.118714005252270383, 14.60000000000000320, 0.000000000000000000 ) ) ;
#365 = DIRECTION ( 'NONE',  ( 1.000000000000000000, 0.000000000000000000, 0.000000000000000000 ) ) ;
#366 = ORIENTED_EDGE ( 'NONE', *, *, #213, .F. ) ;
#367 = ADVANCED_FACE ( 'NONE', ( #892 ), #275, .F. ) ;
#368 = ORIENTED_EDGE ( 'NONE', *, *, #32, .F. ) ;
#369 = LINE ( 'NONE', #830, #985 ) ;
#370 = SURFACE_SIDE_STYLE ('',( #687 ) ) ;
#371 = CARTESIAN_POINT ( 'NONE',  ( -2.449293598294704935E-16, 12.59999999999999964, -0.9999999999999965583 ) ) ;
#372 = ORIENTED_EDGE ( 'NONE', *, *, #451, .F. ) ;
#373 = ORIENTED_EDGE ( 'NONE', *, *, #613, .T. ) ;
#374 = ADVANCED_FACE ( 'NONE', ( #972, #670, #519, #526 ), #501, .T. ) ;
#375 = VECTOR ( 'NONE', #681, 1000.000000000000000 ) ;
#376 = DIRECTION ( 'NONE',  ( 1.270859689360298160E-16, -1.000000000000000000, 0.000000000000000000 ) ) ;
#377 = DIRECTION ( 'NONE',  ( -0.000000000000000000, -0.000000000000000000, -1.000000000000000000 ) ) ;
#378 = VERTEX_POINT ( 'NONE', #420 ) ;
#379 = PRODUCT ( '\X2\6fc051498fde63a54ef6\X0\', '\X2\6fc051498fde63a54ef6\X0\', '', ( #551 ) ) ;
#380 = ORIENTED_EDGE ( 'NONE', *, *, #947, .T. ) ;
#381 = DIRECTION ( 'NONE',  ( -1.188166764367676095E-16, 1.000000000000000000, -0.000000000000000000 ) ) ;
#382 = CARTESIAN_POINT ( 'NONE',  ( 1.500000000000012434, -26.02865268665093623, -12.45381733477948494 ) ) ;
#383 = CARTESIAN_POINT ( 'NONE',  ( -1.500000000000000222, 12.59999999999999964, -0.9999999999999965583 ) ) ;
#384 = AXIS2_PLACEMENT_3D ( 'NONE', #223, #152, #284 ) ;
#385 = ORIENTED_EDGE ( 'NONE', *, *, #403, .T. ) ;
#386 = DIRECTION ( 'NONE',  ( -1.000000000000000000, -1.270859689360298160E-16, -0.000000000000000000 ) ) ;
#387 = DIRECTION ( 'NONE',  ( 1.000000000000000000, 2.043021275374607593E-16, 0.000000000000000000 ) ) ;
#388 = CARTESIAN_POINT ( 'NONE',  ( -7.650000000000003908, 10.59999999999999964, 5.000000000000000000 ) ) ;
#389 = EDGE_LOOP ( 'NONE', ( #192, #45, #841, #354 ) ) ;
#390 = CARTESIAN_POINT ( 'NONE',  ( 8.358112411028007644E-16, -6.576738943726470943, -5.706862021830026777 ) ) ;
#391 = VECTOR ( 'NONE', #589, 1000.000000000000000 ) ;
#392 = CIRCLE ( 'NONE', #307, 1.500000000000001998 ) ;
#393 = PLANE ( 'NONE',  #253 ) ;
#394 = VECTOR ( 'NONE', #396, 1000.000000000000000 ) ;
#395 = ORIENTED_EDGE ( 'NONE', *, *, #900, .T. ) ;
#396 = DIRECTION ( 'NONE',  ( -0.000000000000000000, -0.000000000000000000, 1.000000000000000000 ) ) ;
#397 = PLANE ( 'NONE',  #271 ) ;
#398 = EDGE_LOOP ( 'NONE', ( #454, #761, #706, #210, #809, #854, #373, #629 ) ) ;
#399 = ADVANCED_FACE ( 'NONE', ( #431 ), #734, .T. ) ;
#400 = CARTESIAN_POINT ( 'NONE',  ( 3.985511791781602753, -15.20067833877309660, 2.000000000000000000 ) ) ;
#401 = DIRECTION ( 'NONE',  ( 1.000000000000000000, 0.000000000000000000, 0.000000000000000000 ) ) ;
#402 = ORIENTED_EDGE ( 'NONE', *, *, #711, .T. ) ;
#403 = EDGE_CURVE ( 'NONE', #994, #493, #392, .T. ) ;
#404 = DIRECTION ( 'NONE',  ( 1.000000000000000000, 0.000000000000000000, 0.000000000000000000 ) ) ;
#405 = AXIS2_PLACEMENT_3D ( 'NONE', #198, #278, #593 ) ;
#406 = CYLINDRICAL_SURFACE ( 'NONE', #84, 1.500000000000001998 ) ;
#407 = VECTOR ( 'NONE', #70, 1000.000000000000000 ) ;
#408 = ORIENTED_EDGE ( 'NONE', *, *, #565, .F. ) ;
#409 = DIRECTION ( 'NONE',  ( -0.9185988408218391799, -1.167410237493572636E-16, 0.3951913076483002385 ) ) ;
#410 = EDGE_LOOP ( 'NONE', ( #533, #414 ) ) ;
#411 = DIRECTION ( 'NONE',  ( 0.000000000000000000, -0.000000000000000000, 1.000000000000000000 ) ) ;
#412 = DIRECTION ( 'NONE',  ( 0.3951913076483002385, 5.022327024758088504E-17, -0.9185988408218390688 ) ) ;
#413 = CARTESIAN_POINT ( 'NONE',  ( 1.499999999999994893, 42.48813502408151521, -5.706862021830026777 ) ) ;
#414 = ORIENTED_EDGE ( 'NONE', *, *, #157, .T. ) ;
#415 = EDGE_CURVE ( 'NONE', #1012, #774, #21, .T. ) ;
#416 = CIRCLE ( 'NONE', #1000, 1.500000000000000000 ) ;
#417 = CARTESIAN_POINT ( 'NONE',  ( -7.650000000000000355, -10.59999999999999964, 5.000000000000000000 ) ) ;
#418 = DIRECTION ( 'NONE',  ( 1.270859689360298160E-16, -1.000000000000000000, -0.000000000000000000 ) ) ;
#419 = CIRCLE ( 'NONE', #1001, 1.500000000000000222 ) ;
#420 = CARTESIAN_POINT ( 'NONE',  ( -7.650000000000003908, 10.59999999999999964, 2.000000000000000000 ) ) ;
#421 = VERTEX_POINT ( 'NONE', #664 ) ;
#422 = CIRCLE ( 'NONE', #1006, 1.500000000000000000 ) ;
#423 = CYLINDRICAL_SURFACE ( 'NONE', #853, 1.500000000000000222 ) ;
#424 = DIRECTION ( 'NONE',  ( 1.000000000000000000, 0.000000000000000000, 0.000000000000000000 ) ) ;
#425 = LINE ( 'NONE', #124, #1022 ) ;
#426 = VERTEX_POINT ( 'NONE', #832 ) ;
#427 = ORIENTED_EDGE ( 'NONE', *, *, #1015, .F. ) ;
#428 = EDGE_CURVE ( 'NONE', #774, #63, #280, .T. ) ;
#429 = CARTESIAN_POINT ( 'NONE',  ( -7.650000000000000355, -10.59999999999999964, 5.000000000000000000 ) ) ;
#430 = CARTESIAN_POINT ( 'NONE',  ( 13.64999999999999858, 14.60000000000000675, 5.000000000000000000 ) ) ;
#431 = FACE_OUTER_BOUND ( 'NONE', #398, .T. ) ;
#432 = VERTEX_POINT ( 'NONE', #595 ) ;
#433 = EDGE_LOOP ( 'NONE', ( #811, #139, #917, #627 ) ) ;
#434 = CARTESIAN_POINT ( 'NONE',  ( 7.118714005252268606, 14.60000000000000675, 0.000000000000000000 ) ) ;
#435 = DIRECTION ( 'NONE',  ( 0.000000000000000000, 0.000000000000000000, 1.000000000000000000 ) ) ;
#436 = EDGE_CURVE ( 'NONE', #479, #666, #158, .T. ) ;
#437 = CARTESIAN_POINT ( 'NONE',  ( 0.000000000000000000, 0.000000000000000000, 5.000000000000000000 ) ) ;
#438 = ORIENTED_EDGE ( 'NONE', *, *, #179, .F. ) ;
#439 = VECTOR ( 'NONE', #649, 1000.000000000000000 ) ;
#440 = VECTOR ( 'NONE', #794, 1000.000000000000000 ) ;
#441 = CARTESIAN_POINT ( 'NONE',  ( 3.985511791781604529, -23.39711614534606809, -12.45381733477948671 ) ) ;
#442 = DIRECTION ( 'NONE',  ( 0.000000000000000000, 0.000000000000000000, 1.000000000000000000 ) ) ;
#443 = CARTESIAN_POINT ( 'NONE',  ( -7.118714005252270383, 14.60000000000000142, 1.718739018751777315E-31 ) ) ;
#444 = ORIENTED_EDGE ( 'NONE', *, *, #197, .F. ) ;
#445 = ORIENTED_EDGE ( 'NONE', *, *, #527, .F. ) ;
#446 = LINE ( 'NONE', #610, #541 ) ;
#447 = DIRECTION ( 'NONE',  ( 1.000000000000000000, 0.000000000000000000, -2.583587247701906723E-16 ) ) ;
#448 = DIRECTION ( 'NONE',  ( 0.000000000000000000, 0.000000000000000000, -1.000000000000000000 ) ) ;
#449 = ORIENTED_EDGE ( 'NONE', *, *, #976, .F. ) ;
#450 = ORIENTED_EDGE ( 'NONE', *, *, #96, .T. ) ;
#451 = EDGE_CURVE ( 'NONE', #102, #872, #425, .T. ) ;
#452 = DIRECTION ( 'NONE',  ( 1.270859689360298160E-16, -1.000000000000000000, -0.000000000000000000 ) ) ;
#453 = CARTESIAN_POINT ( 'NONE',  ( 7.649999999999998579, 9.389599946619744608E-16, 2.000000000000000000 ) ) ;
#454 = ORIENTED_EDGE ( 'NONE', *, *, #463, .F. ) ;
#455 = ORIENTED_EDGE ( 'NONE', *, *, #707, .T. ) ;
#456 = CIRCLE ( 'NONE', #270, 1.500000000000001998 ) ;
#457 = AXIS2_PLACEMENT_3D ( 'NONE', #762, #148, #920 ) ;
#458 = LINE ( 'NONE', #1013, #103 ) ;
#459 = CARTESIAN_POINT ( 'NONE',  ( -12.75000000000000178, 14.60000000000000675, 2.603744501540751877 ) ) ;
#460 = CARTESIAN_POINT ( 'NONE',  ( -13.64999999999999680, -28.39999999999999858, 5.000000000000000000 ) ) ;
#461 = ORIENTED_EDGE ( 'NONE', *, *, #824, .F. ) ;
#462 = ADVANCED_FACE ( 'NONE', ( #675 ), #752, .T. ) ;
#463 = EDGE_CURVE ( 'NONE', #336, #426, #44, .T. ) ;
#464 = DIRECTION ( 'NONE',  ( -1.088143484830434354E-16, 1.000000000000000000, 0.000000000000000000 ) ) ;
#465 = DIRECTION ( 'NONE',  ( -1.000000000000000000, 0.000000000000000000, 0.000000000000000000 ) ) ;
#466 = DIRECTION ( 'NONE',  ( -1.000000000000000000, -1.088143484830434108E-16, -0.000000000000000000 ) ) ;
#467 = ORIENTED_EDGE ( 'NONE', *, *, #1015, .T. ) ;
#468 = CARTESIAN_POINT ( 'NONE',  ( -12.47648296710002747, 42.48813502408151521, -12.45381733477948671 ) ) ;
#469 = AXIS2_PLACEMENT_3D ( 'NONE', #831, #886, #105 ) ;
#470 = DIRECTION ( 'NONE',  ( 1.188166764367676095E-16, -1.000000000000000000, 0.000000000000000000 ) ) ;
#471 = VERTEX_POINT ( 'NONE', #191 ) ;
#472 = CARTESIAN_POINT ( 'NONE',  ( -2.449293598294704935E-16, 12.59999999999999964, -0.9999999999999965583 ) ) ;
#473 = VECTOR ( 'NONE', #806, 1000.000000000000000 ) ;
#474 = AXIS2_PLACEMENT_3D ( 'NONE', #437, #728, #992 ) ;
#475 = CARTESIAN_POINT ( 'NONE',  ( 1.047667554591260132E-14, -26.02865268665093623, 5.000000000000000000 ) ) ;
#476 = EDGE_CURVE ( 'NONE', #75, #716, #267, .T. ) ;
#477 = ORIENTED_EDGE ( 'NONE', *, *, #47, .T. ) ;
#478 = FACE_OUTER_BOUND ( 'NONE', #836, .T. ) ;
#479 = VERTEX_POINT ( 'NONE', #583 ) ;
#480 = DIRECTION ( 'NONE',  ( 0.000000000000000000, 0.000000000000000000, 1.000000000000000000 ) ) ;
#481 = CARTESIAN_POINT ( 'NONE',  ( -7.650000000000000355, -10.59999999999999964, 5.000000000000000000 ) ) ;
#482 = ORIENTED_EDGE ( 'NONE', *, *, #731, .F. ) ;
#483 = COLOUR_RGB ( '',0.7921568627450980005, 0.8196078431372548767, 0.9333333333333333481 ) ;
#484 = LINE ( 'NONE', #786, #701 ) ;
#485 = AXIS2_PLACEMENT_3D ( 'NONE', #293, #777, #607 ) ;
#486 = DIRECTION ( 'NONE',  ( 0.000000000000000000, -0.000000000000000000, 1.000000000000000000 ) ) ;
#487 = CIRCLE ( 'NONE', #881, 1.500000000000000000 ) ;
#488 = UNCERTAINTY_MEASURE_WITH_UNIT (LENGTH_MEASURE( 1.000000000000000082E-05 ), #92, 'distance_accuracy_value', 'NONE');
#489 = EDGE_LOOP ( 'NONE', ( #782, #979, #602, #570 ) ) ;
#490 = ADVANCED_FACE ( 'NONE', ( #508 ), #898, .F. ) ;
#491 = CARTESIAN_POINT ( 'NONE',  ( -11.24999999999999645, -28.39999999999999858, 2.603744501540751877 ) ) ;
#492 = FACE_OUTER_BOUND ( 'NONE', #215, .T. ) ;
#493 = VERTEX_POINT ( 'NONE', #299 ) ;
#494 = CARTESIAN_POINT ( 'NONE',  ( 1.047667554591260132E-14, -26.02865268665093623, -12.45381733477948494 ) ) ;
#495 = CARTESIAN_POINT ( 'NONE',  ( -3.985511791781599200, -6.576738943726468278, -12.45381733477948671 ) ) ;
#496 = VERTEX_POINT ( 'NONE', #688 ) ;
#497 = EDGE_CURVE ( 'NONE', #747, #651, #773, .T. ) ;
#498 = AXIS2_PLACEMENT_3D ( 'NONE', #292, #447, #149 ) ;
#499 = LINE ( 'NONE', #110, #320 ) ;
#500 = DIRECTION ( 'NONE',  ( 0.000000000000000000, 0.000000000000000000, 1.000000000000000000 ) ) ;
#501 = PLANE ( 'NONE',  #474 ) ;
#502 = VERTEX_POINT ( 'NONE', #548 ) ;
#503 = EDGE_CURVE ( 'NONE', #925, #287, #522, .T. ) ;
#504 = VECTOR ( 'NONE', #359, 1000.000000000000000 ) ;
#505 = ORIENTED_EDGE ( 'NONE', *, *, #866, .F. ) ;
#506 = ORIENTED_EDGE ( 'NONE', *, *, #339, .F. ) ;
#507 = FACE_OUTER_BOUND ( 'NONE', #362, .T. ) ;
#508 = FACE_OUTER_BOUND ( 'NONE', #677, .T. ) ;
#509 = ORIENTED_EDGE ( 'NONE', *, *, #839, .F. ) ;
#510 = EDGE_CURVE ( 'NONE', #863, #34, #308, .T. ) ;
#511 = CIRCLE ( 'NONE', #926, 1.500000000000000222 ) ;
#512 = CARTESIAN_POINT ( 'NONE',  ( 7.118714005252272159, -28.39999999999999503, 1.743582064115525255E-15 ) ) ;
#513 = CARTESIAN_POINT ( 'NONE',  ( -13.65000000000000213, 14.60000000000000320, 0.000000000000000000 ) ) ;
#514 = ADVANCED_BREP_SHAPE_REPRESENTATION ( '\X2\6fc051498fde63a54ef6\X0\', ( #1025, #981 ), #812 ) ;
#515 = DIRECTION ( 'NONE',  ( 1.000000000000000000, 0.000000000000000000, 0.000000000000000000 ) ) ;
#516 = ORIENTED_EDGE ( 'NONE', *, *, #724, .F. ) ;
#517 = DIRECTION ( 'NONE',  ( -1.000000000000000000, 0.000000000000000000, 0.000000000000000000 ) ) ;
#518 = DIRECTION ( 'NONE',  ( 1.000000000000000000, 1.636531581110195409E-16, -0.000000000000000000 ) ) ;
#519 = FACE_BOUND ( 'NONE', #276, .T. ) ;
#520 = ORIENTED_EDGE ( 'NONE', *, *, #510, .F. ) ;
#521 = ORIENTED_EDGE ( 'NONE', *, *, #241, .F. ) ;
#522 = CIRCLE ( 'NONE', #485, 1.500000000000001332 ) ;
#523 = AXIS2_PLACEMENT_3D ( 'NONE', #475, #721, #404 ) ;
#524 = DIRECTION ( 'NONE',  ( 1.270859689360298160E-16, -1.000000000000000000, -0.000000000000000000 ) ) ;
#525 = LINE ( 'NONE', #611, #112 ) ;
#526 = FACE_BOUND ( 'NONE', #29, .T. ) ;
#527 = EDGE_CURVE ( 'NONE', #596, #343, #135, .T. ) ;
#528 = ORIENTED_EDGE ( 'NONE', *, *, #510, .T. ) ;
#529 = ORIENTED_EDGE ( 'NONE', *, *, #138, .F. ) ;
#530 = FACE_OUTER_BOUND ( 'NONE', #778, .T. ) ;
#531 = DIRECTION ( 'NONE',  ( 0.000000000000000000, 0.000000000000000000, -1.000000000000000000 ) ) ;
#532 = LINE ( 'NONE', #692, #338 ) ;
#533 = ORIENTED_EDGE ( 'NONE', *, *, #166, .T. ) ;
#534 = ORIENTED_EDGE ( 'NONE', *, *, #101, .F. ) ;
#535 = DIRECTION ( 'NONE',  ( -1.000000000000000000, -0.000000000000000000, -0.000000000000000000 ) ) ;
#536 = DIRECTION ( 'NONE',  ( -1.000000000000000000, -1.794946031908496398E-16, 0.000000000000000000 ) ) ;
#537 = LINE ( 'NONE', #233, #635 ) ;
#538 = ADVANCED_FACE ( 'NONE', ( #153 ), #393, .F. ) ;
#539 = ORIENTED_EDGE ( 'NONE', *, *, #704, .F. ) ;
#540 = EDGE_CURVE ( 'NONE', #614, #34, #852, .T. ) ;
#541 = VECTOR ( 'NONE', #524, 1000.000000000000000 ) ;
#542 = FACE_OUTER_BOUND ( 'NONE', #846, .T. ) ;
#543 = CARTESIAN_POINT ( 'NONE',  ( 13.65000000000000391, -28.39999999999999503, 5.000000000000000000 ) ) ;
#544 = LINE ( 'NONE', #845, #173 ) ;
#545 = EDGE_LOOP ( 'NONE', ( #252, #817 ) ) ;
#546 = EDGE_CURVE ( 'NONE', #421, #651, #929, .T. ) ;
#547 = CARTESIAN_POINT ( 'NONE',  ( -12.47648296710001858, -28.39999999999999858, -12.45381733477948671 ) ) ;
#548 = CARTESIAN_POINT ( 'NONE',  ( -3.985511791781597424, -23.39711614534606809, 4.999999999999999112 ) ) ;
#549 = EDGE_CURVE ( 'NONE', #597, #479, #702, .T. ) ;
#550 = ORIENTED_EDGE ( 'NONE', *, *, #557, .F. ) ;
#551 = PRODUCT_CONTEXT ( 'NONE', #918, 'mechanical' ) ;
#552 = EDGE_CURVE ( 'NONE', #597, #585, #422, .T. ) ;
#553 = LINE ( 'NONE', #236, #440 ) ;
#554 = ORIENTED_EDGE ( 'NONE', *, *, #261, .F. ) ;
#555 = VECTOR ( 'NONE', #927, 1000.000000000000000 ) ;
#556 = LINE ( 'NONE', #641, #650 ) ;
#557 = EDGE_CURVE ( 'NONE', #182, #220, #537, .T. ) ;
#558 = ORIENTED_EDGE ( 'NONE', *, *, #147, .F. ) ;
#559 = APPLICATION_PROTOCOL_DEFINITION ( 'draft international standard', 'automotive_design', 1998, #918 ) ;
#560 = CARTESIAN_POINT ( 'NONE',  ( -13.65000000000000213, 14.60000000000000320, 5.000000000000000000 ) ) ;
#561 = ORIENTED_EDGE ( 'NONE', *, *, #876, .T. ) ;
#562 = DIRECTION ( 'NONE',  ( -0.000000000000000000, -0.000000000000000000, 1.000000000000000000 ) ) ;
#563 = EDGE_LOOP ( 'NONE', ( #296, #238, #558, #408 ) ) ;
#564 = PRODUCT_RELATED_PRODUCT_CATEGORY ( 'part', '', ( #379 ) ) ;
#565 = EDGE_CURVE ( 'NONE', #716, #999, #62, .T. ) ;
#566 = SHAPE_DEFINITION_REPRESENTATION ( #134, #514 ) ;
#567 = CARTESIAN_POINT ( 'NONE',  ( 1.499999999999999778, 12.59999999999999964, 5.000000000000000000 ) ) ;
#568 = AXIS2_PLACEMENT_3D ( 'NONE', #33, #286, #515 ) ;
#569 = VECTOR ( 'NONE', #80, 1000.000000000000000 ) ;
#570 = ORIENTED_EDGE ( 'NONE', *, *, #428, .F. ) ;
#571 = EDGE_LOOP ( 'NONE', ( #936, #639, #1, #787 ) ) ;
#572 = CARTESIAN_POINT ( 'NONE',  ( 1.500000000000012434, -26.02865268665093623, -12.45381733477948494 ) ) ;
#573 = CARTESIAN_POINT ( 'NONE',  ( -11.25000000000000178, 14.60000000000000675, 2.603744501540751877 ) ) ;
#574 = ORIENTED_EDGE ( 'NONE', *, *, #549, .T. ) ;
#575 = CARTESIAN_POINT ( 'NONE',  ( -12.75000000000000178, 14.60000000000000675, 2.603744501540751877 ) ) ;
#576 = LINE ( 'NONE', #572, #324 ) ;
#577 = ADVANCED_FACE ( 'NONE', ( #150 ), #922, .T. ) ;
#578 = CARTESIAN_POINT ( 'NONE',  ( -13.65000000000000213, 14.60000000000000320, 5.000000000000000000 ) ) ;
#579 = ORIENTED_EDGE ( 'NONE', *, *, #707, .F. ) ;
#580 = VERTEX_POINT ( 'NONE', #56 ) ;
#581 = DIRECTION ( 'NONE',  ( 2.011520949431982107E-16, -1.000000000000000000, 0.000000000000000000 ) ) ;
#582 = DIRECTION ( 'NONE',  ( 1.000000000000000000, 0.000000000000000000, 0.000000000000000000 ) ) ;
#583 = CARTESIAN_POINT ( 'NONE',  ( -1.500000000000000222, 12.59999999999999964, 5.000000000000000000 ) ) ;
#584 = VECTOR ( 'NONE', #803, 1000.000000000000000 ) ;
#585 = VERTEX_POINT ( 'NONE', #1026 ) ;
#586 = EDGE_CURVE ( 'NONE', #872, #336, #943, .T. ) ;
#587 = AXIS2_PLACEMENT_3D ( 'NONE', #912, #464, #49 ) ;
#588 = VERTEX_POINT ( 'NONE', #51 ) ;
#589 = DIRECTION ( 'NONE',  ( 1.000000000000000000, 0.000000000000000000, 0.000000000000000000 ) ) ;
#590 = PLANE ( 'NONE',  #849 ) ;
#591 = DIRECTION ( 'NONE',  ( -0.000000000000000000, 0.000000000000000000, 1.000000000000000000 ) ) ;
#592 = VERTEX_POINT ( 'NONE', #626 ) ;
#593 = DIRECTION ( 'NONE',  ( -1.000000000000000000, 0.000000000000000000, 0.000000000000000000 ) ) ;
#594 = CARTESIAN_POINT ( 'NONE',  ( -3.985511791781599200, -17.60000000000000142, 1.995003582119637242 ) ) ;
#595 = CARTESIAN_POINT ( 'NONE',  ( -3.985511791781599200, -10.59999999999999964, 5.000000000000000000 ) ) ;
#596 = VERTEX_POINT ( 'NONE', #1005 ) ;
#597 = VERTEX_POINT ( 'NONE', #383 ) ;
#598 = EDGE_CURVE ( 'NONE', #703, #651, #532, .T. ) ;
#599 = FACE_BOUND ( 'NONE', #818, .T. ) ;
#600 = FACE_BOUND ( 'NONE', #389, .T. ) ;
#601 = DIRECTION ( 'NONE',  ( 1.000000000000000000, 1.270859689360298160E-16, 0.000000000000000000 ) ) ;
#602 = ORIENTED_EDGE ( 'NONE', *, *, #947, .F. ) ;
#603 = EDGE_LOOP ( 'NONE', ( #899, #154, #450, #202 ) ) ;
#604 = AXIS2_PLACEMENT_3D ( 'NONE', #1019, #452, #615 ) ;
#605 = DIRECTION ( 'NONE',  ( 1.270859689360298160E-16, -1.000000000000000000, -0.000000000000000000 ) ) ;
#606 = LINE ( 'NONE', #306, #333 ) ;
#607 = DIRECTION ( 'NONE',  ( 1.000000000000000000, 0.000000000000000000, 0.000000000000000000 ) ) ;
#608 = ORIENTED_EDGE ( 'NONE', *, *, #428, .T. ) ;
#609 = ORIENTED_EDGE ( 'NONE', *, *, #952, .F. ) ;
#610 = CARTESIAN_POINT ( 'NONE',  ( -9.750000000000000000, 14.60000000000000675, 2.603744501540751877 ) ) ;
#611 = CARTESIAN_POINT ( 'NONE',  ( 3.985511791781604529, -23.39711614534606809, 4.999999999999999112 ) ) ;
#612 = DIRECTION ( 'NONE',  ( -1.000000000000000000, -1.188166764367676095E-16, 0.000000000000000000 ) ) ;
#613 = EDGE_CURVE ( 'NONE', #378, #619, #544, .T. ) ;
#614 = VERTEX_POINT ( 'NONE', #617 ) ;
#615 = DIRECTION ( 'NONE',  ( 1.000000000000000000, 0.000000000000000000, 0.000000000000000000 ) ) ;
#616 = LINE ( 'NONE', #932, #264 ) ;
#617 = CARTESIAN_POINT ( 'NONE',  ( -13.64999999999999680, -28.39999999999999858, 5.000000000000000000 ) ) ;
#618 = STYLED_ITEM ( 'NONE', ( #212 ), #1025 ) ;
#619 = VERTEX_POINT ( 'NONE', #933 ) ;
#620 = EDGE_CURVE ( 'NONE', #159, #336, #859, .T. ) ;
#621 = CLOSED_SHELL ( 'NONE', ( #315, #793, #277, #232, #490, #367, #24, #374, #944, #906, #538, #351, #870, #577, #923, #462, #399, #797, #1002, #248, #285, #937, #640, #630, #59, #823, #1028, #174, #167, #289, #961 ) ) ;
#622 = VECTOR ( 'NONE', #722, 1000.000000000000000 ) ;
#623 = VECTOR ( 'NONE', #758, 1000.000000000000000 ) ;
#624 = DIRECTION ( 'NONE',  ( 1.270859689360298160E-16, -1.000000000000000000, 0.000000000000000000 ) ) ;
#625 = CARTESIAN_POINT ( 'NONE',  ( -1.855455146466034160E-15, 14.60000000000000142, -5.706862021830026777 ) ) ;
#626 = CARTESIAN_POINT ( 'NONE',  ( 12.75000000000000000, 14.60000000000001030, 2.603744501540754541 ) ) ;
#627 = ORIENTED_EDGE ( 'NONE', *, *, #317, .F. ) ;
#628 = CARTESIAN_POINT ( 'NONE',  ( 13.65000000000000391, -28.39999999999999503, 0.000000000000000000 ) ) ;
#629 = ORIENTED_EDGE ( 'NONE', *, *, #744, .T. ) ;
#630 = ADVANCED_FACE ( 'NONE', ( #229 ), #790, .T. ) ;
#631 = LINE ( 'NONE', #163, #123 ) ;
#632 = CARTESIAN_POINT ( 'NONE',  ( 1.047667554591260132E-14, -26.02865268665093623, -12.45381733477948494 ) ) ;
#633 = ORIENTED_EDGE ( 'NONE', *, *, #680, .T. ) ;
#634 = PRODUCT_DEFINITION_FORMATION_WITH_SPECIFIED_SOURCE ( '浠', '', #379, .NOT_KNOWN. ) ;
#635 = VECTOR ( 'NONE', #448, 1000.000000000000000 ) ;
#636 = LINE ( 'NONE', #864, #394 ) ;
#637 = DIRECTION ( 'NONE',  ( 1.000000000000000000, 0.000000000000000000, 0.000000000000000000 ) ) ;
#638 = AXIS2_PLACEMENT_3D ( 'NONE', #594, #807, #435 ) ;
#639 = ORIENTED_EDGE ( 'NONE', *, *, #866, .T. ) ;
#640 = ADVANCED_FACE ( 'NONE', ( #478 ), #951, .T. ) ;
#641 = CARTESIAN_POINT ( 'NONE',  ( -7.650000000000003908, 10.59999999999999964, 5.000000000000000000 ) ) ;
#642 = EDGE_CURVE ( 'NONE', #421, #159, #319, .T. ) ;
#643 = ORIENTED_EDGE ( 'NONE', *, *, #731, .T. ) ;
#644 = CARTESIAN_POINT ( 'NONE',  ( -11.25000000000000178, 14.60000000000000675, 2.603744501540751877 ) ) ;
#645 = VERTEX_POINT ( 'NONE', #250 ) ;
#646 = DIRECTION ( 'NONE',  ( 1.000000000000000000, 0.000000000000000000, 0.000000000000000000 ) ) ;
#647 = CARTESIAN_POINT ( 'NONE',  ( 13.65000000000000391, -28.39999999999999503, 0.000000000000000000 ) ) ;
#648 = VECTOR ( 'NONE', #624, 1000.000000000000000 ) ;
#649 = DIRECTION ( 'NONE',  ( 1.000000000000000000, 0.000000000000000000, 0.000000000000000000 ) ) ;
#650 = VECTOR ( 'NONE', #332, 1000.000000000000000 ) ;
#651 = VERTEX_POINT ( 'NONE', #94 ) ;
#652 = EDGE_CURVE ( 'NONE', #753, #614, #714, .T. ) ;
#653 = FACE_OUTER_BOUND ( 'NONE', #1018, .T. ) ;
#654 = LINE ( 'NONE', #975, #770 ) ;
#655 = CARTESIAN_POINT ( 'NONE',  ( -7.118714005252273935, 42.48813502408151521, 0.000000000000000000 ) ) ;
#656 = EDGE_LOOP ( 'NONE', ( #710, #534, #998, #740 ) ) ;
#657 = DIRECTION ( 'NONE',  ( 0.000000000000000000, -1.000000000000000000, 0.000000000000000000 ) ) ;
#658 = DIRECTION ( 'NONE',  ( -0.000000000000000000, -1.000000000000000000, -0.000000000000000000 ) ) ;
#659 = CARTESIAN_POINT ( 'NONE',  ( -3.985511791781599200, -15.20067833877309837, 2.000000000000000000 ) ) ;
#660 = ORIENTED_EDGE ( 'NONE', *, *, #186, .F. ) ;
#661 = DIRECTION ( 'NONE',  ( 0.000000000000000000, 0.000000000000000000, 1.000000000000000000 ) ) ;
#662 = CYLINDRICAL_SURFACE ( 'NONE', #189, 1.500000000000000000 ) ;
#663 = VECTOR ( 'NONE', #720, 1000.000000000000000 ) ;
#664 = CARTESIAN_POINT ( 'NONE',  ( 3.985511791781601865, -10.60000000000000142, 2.000000000000000000 ) ) ;
#665 = VECTOR ( 'NONE', #825, 1000.000000000000000 ) ;
#666 = VERTEX_POINT ( 'NONE', #567 ) ;
#667 = VECTOR ( 'NONE', #144, 1000.000000000000000 ) ;
#668 = DIRECTION ( 'NONE',  ( 0.000000000000000000, 1.000000000000000000, 0.000000000000000000 ) ) ;
#669 = CARTESIAN_POINT ( 'NONE',  ( 1.499999999999998224, 14.60000000000000142, -5.706862021830026777 ) ) ;
#670 = FACE_OUTER_BOUND ( 'NONE', #177, .T. ) ;
#671 = ORIENTED_EDGE ( 'NONE', *, *, #221, .F. ) ;
#672 = EDGE_LOOP ( 'NONE', ( #554, #608, #427, #520 ) ) ;
#673 = CARTESIAN_POINT ( 'NONE',  ( 13.64999999999999858, 14.60000000000000675, 5.000000000000000000 ) ) ;
#674 = CARTESIAN_POINT ( 'NONE',  ( 1.047667554591260132E-14, -26.02865268665093623, 5.000000000000000000 ) ) ;
#675 = FACE_OUTER_BOUND ( 'NONE', #958, .T. ) ;
#676 = EDGE_LOOP ( 'NONE', ( #911, #28, #633, #924 ) ) ;
#677 = EDGE_LOOP ( 'NONE', ( #323, #477, #126, #461 ) ) ;
#678 = DIRECTION ( 'NONE',  ( 1.000000000000000000, 0.000000000000000000, 0.000000000000000000 ) ) ;
#679 = DIRECTION ( 'NONE',  ( 1.000000000000000000, 0.000000000000000000, 0.000000000000000000 ) ) ;
#680 = EDGE_CURVE ( 'NONE', #585, #666, #708, .T. ) ;
#681 = DIRECTION ( 'NONE',  ( 0.000000000000000000, 0.000000000000000000, -1.000000000000000000 ) ) ;
#682 = ORIENTED_EDGE ( 'NONE', *, *, #503, .T. ) ;
#683 = ORIENTED_EDGE ( 'NONE', *, *, #810, .T. ) ;
#684 = EDGE_CURVE ( 'NONE', #243, #378, #631, .T. ) ;
#686 = PLANE ( 'NONE',  #457 ) ;
#685 = CIRCLE ( 'NONE', #190, 1.500000000000001998 ) ;
#687 = SURFACE_STYLE_FILL_AREA ( #50 ) ;
#688 = CARTESIAN_POINT ( 'NONE',  ( -1.499999999999999334, -6.576738943726470943, -5.706862021830026777 ) ) ;
#689 = ORIENTED_EDGE ( 'NONE', *, *, #261, .T. ) ;
#690 = DIRECTION ( 'NONE',  ( -0.000000000000000000, -0.000000000000000000, 1.000000000000000000 ) ) ;
#691 = DIRECTION ( 'NONE',  ( 1.000000000000000000, 0.000000000000000000, 0.000000000000000000 ) ) ;
#692 = CARTESIAN_POINT ( 'NONE',  ( 7.649999999999999467, -10.59999999999999964, 5.000000000000000000 ) ) ;
#693 = EDGE_CURVE ( 'NONE', #102, #159, #636, .T. ) ;
#694 = ORIENTED_EDGE ( 'NONE', *, *, #207, .F. ) ;
#695 = VECTOR ( 'NONE', #896, 1000.000000000000000 ) ;
#696 = LINE ( 'NONE', #305, #648 ) ;
#697 = DIRECTION ( 'NONE',  ( -1.000000000000000000, -1.270859689360298160E-16, 0.000000000000000000 ) ) ;
#698 = CARTESIAN_POINT ( 'NONE',  ( 13.64999999999999858, 14.60000000000000675, 5.000000000000000000 ) ) ;
#699 = EDGE_LOOP ( 'NONE', ( #131, #482, #521, #765 ) ) ;
#700 = VECTOR ( 'NONE', #978, 1000.000000000000000 ) ;
#701 = VECTOR ( 'NONE', #412, 1000.000000000000114 ) ;
#702 = LINE ( 'NONE', #225, #963 ) ;
#703 = VERTEX_POINT ( 'NONE', #948 ) ;
#704 = EDGE_CURVE ( 'NONE', #666, #479, #487, .T. ) ;
#705 = DIRECTION ( 'NONE',  ( 1.270859689360298160E-16, -1.000000000000000000, 0.000000000000000000 ) ) ;
#706 = ORIENTED_EDGE ( 'NONE', *, *, #642, .F. ) ;
#707 = EDGE_CURVE ( 'NONE', #182, #645, #553, .T. ) ;
#708 = LINE ( 'NONE', #3, #1024 ) ;
#709 = AXIS2_PLACEMENT_3D ( 'NONE', #302, #1020, #679 ) ;
#710 = ORIENTED_EDGE ( 'NONE', *, *, #318, .T. ) ;
#711 = EDGE_CURVE ( 'NONE', #753, #863, #869, .T. ) ;
#712 = EDGE_CURVE ( 'NONE', #119, #596, #484, .T. ) ;
#713 = VECTOR ( 'NONE', #381, 1000.000000000000000 ) ;
#714 = LINE ( 'NONE', #560, #356 ) ;
#715 = CYLINDRICAL_SURFACE ( 'NONE', #226, 1.500000000000000222 ) ;
#716 = VERTEX_POINT ( 'NONE', #647 ) ;
#717 = CARTESIAN_POINT ( 'NONE',  ( -2.449293598294704935E-16, 12.59999999999999964, 5.000000000000000000 ) ) ;
#718 = EDGE_CURVE ( 'NONE', #960, #22, #785, .T. ) ;
#719 = ORIENTED_EDGE ( 'NONE', *, *, #138, .T. ) ;
#720 = DIRECTION ( 'NONE',  ( 1.270859689360298160E-16, -1.000000000000000000, -0.000000000000000000 ) ) ;
#721 = DIRECTION ( 'NONE',  ( 0.000000000000000000, 0.000000000000000000, 1.000000000000000000 ) ) ;
#722 = DIRECTION ( 'NONE',  ( 1.270859689360298160E-16, -1.000000000000000000, 0.000000000000000000 ) ) ;
#723 = ORIENTED_EDGE ( 'NONE', *, *, #988, .F. ) ;
#724 = EDGE_CURVE ( 'NONE', #23, #759, #964, .T. ) ;
#725 = CARTESIAN_POINT ( 'NONE',  ( -9.750000000000000000, 14.60000000000000675, 2.603744501540751877 ) ) ;
#726 = CYLINDRICAL_SURFACE ( 'NONE', #6, 1.500000000000000000 ) ;
#727 = AXIS2_PLACEMENT_3D ( 'NONE', #27, #346, #118 ) ;
#728 = DIRECTION ( 'NONE',  ( -0.000000000000000000, 0.000000000000000000, 1.000000000000000000 ) ) ;
#729 = ORIENTED_EDGE ( 'NONE', *, *, #718, .F. ) ;
#730 = ORIENTED_EDGE ( 'NONE', *, *, #540, .F. ) ;
#731 = EDGE_CURVE ( 'NONE', #588, #119, #7, .T. ) ;
#732 = CARTESIAN_POINT ( 'NONE',  ( -5.399645807820262988E-15, 42.48813502408151521, -5.706862021830026777 ) ) ;
#733 = LINE ( 'NONE', #345, #247 ) ;
#734 = PLANE ( 'NONE',  #322 ) ;
#735 = ORIENTED_EDGE ( 'NONE', *, *, #76, .T. ) ;
#736 = ORIENTED_EDGE ( 'NONE', *, *, #339, .T. ) ;
#737 = CARTESIAN_POINT ( 'NONE',  ( -7.118714005252268606, -28.39999999999999858, 0.000000000000000000 ) ) ;
#738 = DIRECTION ( 'NONE',  ( -1.188166764367676095E-16, 1.000000000000000000, 0.000000000000000000 ) ) ;
#739 = DIRECTION ( 'NONE',  ( 1.000000000000000000, 0.000000000000000000, -2.669584620115644780E-16 ) ) ;
#740 = ORIENTED_EDGE ( 'NONE', *, *, #684, .T. ) ;
#741 = EDGE_CURVE ( 'NONE', #243, #15, #556, .T. ) ;
#742 = LINE ( 'NONE', #885, #982 ) ;
#743 = FACE_OUTER_BOUND ( 'NONE', #676, .T. ) ;
#744 = EDGE_CURVE ( 'NONE', #619, #426, #956, .T. ) ;
#745 = DIRECTION ( 'NONE',  ( 0.000000000000000000, 0.000000000000000000, 1.000000000000000000 ) ) ;
#746 = VECTOR ( 'NONE', #211, 1000.000000000000000 ) ;
#747 = VERTEX_POINT ( 'NONE', #168 ) ;
#748 = AXIS2_PLACEMENT_3D ( 'NONE', #74, #409, #161 ) ;
#749 = ORIENTED_EDGE ( 'NONE', *, *, #326, .T. ) ;
#750 = FACE_OUTER_BOUND ( 'NONE', #230, .T. ) ;
#751 = DIRECTION ( 'NONE',  ( -0.3951913076483001830, 0.000000000000000000, 0.9185988408218390688 ) ) ;
#752 = PLANE ( 'NONE',  #727 ) ;
#753 = VERTEX_POINT ( 'NONE', #799 ) ;
#754 = VERTEX_POINT ( 'NONE', #88 ) ;
#755 = APPLICATION_CONTEXT ( 'automotive_design' ) ;
#756 = CYLINDRICAL_SURFACE ( 'NONE', #145, 1.500000000000001332 ) ;
#757 = CARTESIAN_POINT ( 'NONE',  ( -12.47648296710002747, 14.60000000000000142, -12.45381733477948671 ) ) ;
#758 = DIRECTION ( 'NONE',  ( -0.000000000000000000, -0.000000000000000000, 1.000000000000000000 ) ) ;
#759 = VERTEX_POINT ( 'NONE', #9 ) ;
#760 = EDGE_CURVE ( 'NONE', #79, #989, #868, .T. ) ;
#761 = ORIENTED_EDGE ( 'NONE', *, *, #620, .F. ) ;
#762 = CARTESIAN_POINT ( 'NONE',  ( 4.374407577903616009E-15, -28.39999999999999503, 0.000000000000000000 ) ) ;
#763 = SURFACE_STYLE_USAGE ( .BOTH. , #370 ) ;
#764 = DIRECTION ( 'NONE',  ( 1.000000000000000000, 0.000000000000000000, 0.000000000000000000 ) ) ;
#765 = ORIENTED_EDGE ( 'NONE', *, *, #476, .F. ) ;
#766 = ORIENTED_EDGE ( 'NONE', *, *, #47, .F. ) ;
#767 = AXIS2_PLACEMENT_3D ( 'NONE', #321, #89, #637 ) ;
#768 = VECTOR ( 'NONE', #418, 1000.000000000000000 ) ;
#769 = EDGE_CURVE ( 'NONE', #872, #580, #966, .T. ) ;
#771 = LINE ( 'NONE', #60, #713 ) ;
#770 = VECTOR ( 'NONE', #751, 1000.000000000000227 ) ;
#772 = FACE_OUTER_BOUND ( 'NONE', #115, .T. ) ;
#773 = LINE ( 'NONE', #453, #407 ) ;
#774 = VERTEX_POINT ( 'NONE', #364 ) ;
#775 = DIRECTION ( 'NONE',  ( 0.000000000000000000, 0.000000000000000000, -1.000000000000000000 ) ) ;
#776 = LINE ( 'NONE', #65, #141 ) ;
#777 = DIRECTION ( 'NONE',  ( 1.270859689360298160E-16, -1.000000000000000000, 0.000000000000000000 ) ) ;
#778 = EDGE_LOOP ( 'NONE', ( #766, #880, #268, #682 ) ) ;
#779 = FACE_OUTER_BOUND ( 'NONE', #930, .T. ) ;
#780 = DIRECTION ( 'NONE',  ( 0.000000000000000000, -0.000000000000000000, -1.000000000000000000 ) ) ;
#781 = PRESENTATION_LAYER_ASSIGNMENT (  '', '', ( #618 ) ) ;
#782 = ORIENTED_EDGE ( 'NONE', *, *, #415, .F. ) ;
#783 = VECTOR ( 'NONE', #657, 1000.000000000000000 ) ;
#784 = AXIS2_PLACEMENT_3D ( 'NONE', #850, #376, #283 ) ;
#785 = CIRCLE ( 'NONE', #254, 1.500000000000001332 ) ;
#786 = CARTESIAN_POINT ( 'NONE',  ( 12.47648296710002036, 14.60000000000000497, -12.45381733477948671 ) ) ;
#787 = ORIENTED_EDGE ( 'NONE', *, *, #976, .T. ) ;
#788 = EDGE_CURVE ( 'NONE', #759, #23, #685, .T. ) ;
#789 = DIRECTION ( 'NONE',  ( 1.000000000000000000, 0.000000000000000000, -0.000000000000000000 ) ) ;
#790 = PLANE ( 'NONE',  #748 ) ;
#791 = DIRECTION ( 'NONE',  ( 1.270859689360298160E-16, -1.000000000000000000, 0.000000000000000000 ) ) ;
#792 = ORIENTED_EDGE ( 'NONE', *, *, #769, .F. ) ;
#793 = ADVANCED_FACE ( 'NONE', ( #971 ), #726, .F. ) ;
#794 = DIRECTION ( 'NONE',  ( 0.000000000000000000, 1.000000000000000000, 0.000000000000000000 ) ) ;
#795 = DIRECTION ( 'NONE',  ( 1.000000000000000000, 0.000000000000000000, 0.000000000000000000 ) ) ;
#796 = ORIENTED_EDGE ( 'NONE', *, *, #207, .T. ) ;
#797 = ADVANCED_FACE ( 'NONE', ( #117 ), #814, .F. ) ;
#798 = AXIS2_PLACEMENT_3D ( 'NONE', #331, #890, #646 ) ;
#799 = CARTESIAN_POINT ( 'NONE',  ( -13.65000000000000213, 14.60000000000000320, 5.000000000000000000 ) ) ;
#800 = FACE_OUTER_BOUND ( 'NONE', #433, .T. ) ;
#801 = VERTEX_POINT ( 'NONE', #260 ) ;
#802 =( NAMED_UNIT ( * ) PLANE_ANGLE_UNIT ( ) SI_UNIT ( $, .RADIAN. ) );
#803 = DIRECTION ( 'NONE',  ( -2.583587247701906723E-16, -0.000000000000000000, -1.000000000000000000 ) ) ;
#804 = DIRECTION ( 'NONE',  ( 1.270859689360298160E-16, -1.000000000000000000, 0.000000000000000000 ) ) ;
#805 = ORIENTED_EDGE ( 'NONE', *, *, #415, .T. ) ;
#806 = DIRECTION ( 'NONE',  ( 1.270859689360298160E-16, -1.000000000000000000, -0.000000000000000000 ) ) ;
#807 = DIRECTION ( 'NONE',  ( -1.000000000000000000, 0.000000000000000000, 0.000000000000000000 ) ) ;
#808 = CARTESIAN_POINT ( 'NONE',  ( 9.750000000000001776, -28.39999999999999503, 2.603744501540754541 ) ) ;
#809 = ORIENTED_EDGE ( 'NONE', *, *, #497, .F. ) ;
#810 = EDGE_CURVE ( 'NONE', #343, #75, #654, .T. ) ;
#811 = ORIENTED_EDGE ( 'NONE', *, *, #988, .T. ) ;
#812 =( GEOMETRIC_REPRESENTATION_CONTEXT ( 3 ) GLOBAL_UNCERTAINTY_ASSIGNED_CONTEXT ( ( #488 ) ) GLOBAL_UNIT_ASSIGNED_CONTEXT ( ( #92, #955, #235 ) ) REPRESENTATION_CONTEXT ( 'NONE', 'WORKASPACE' ) );
#813 = CARTESIAN_POINT ( 'NONE',  ( 1.500000000000012434, -26.02865268665093623, 5.000000000000000000 ) ) ;
#814 = PLANE ( 'NONE',  #638 ) ;
#815 = VECTOR ( 'NONE', #99, 1000.000000000000000 ) ;
#816 = CARTESIAN_POINT ( 'NONE',  ( 0.000000000000000000, 0.000000000000000000, 2.000000000000000000 ) ) ;
#817 = ORIENTED_EDGE ( 'NONE', *, *, #140, .F. ) ;
#818 = EDGE_LOOP ( 'NONE', ( #444, #729 ) ) ;
#819 = CARTESIAN_POINT ( 'NONE',  ( -13.64999999999999680, -28.39999999999999858, 0.000000000000000000 ) ) ;
#820 = DIRECTION ( 'NONE',  ( -1.270859689360298160E-16, 1.000000000000000000, -0.000000000000000000 ) ) ;
#821 = CARTESIAN_POINT ( 'NONE',  ( 1.047667554591260132E-14, -26.02865268665093623, -12.45381733477948494 ) ) ;
#822 = ORIENTED_EDGE ( 'NONE', *, *, #848, .T. ) ;
#823 = ADVANCED_FACE ( 'NONE', ( #743 ), #662, .F. ) ;
#824 = EDGE_CURVE ( 'NONE', #592, #925, #256, .T. ) ;
#825 = DIRECTION ( 'NONE',  ( -1.227398685832646557E-16, 1.000000000000000000, -0.000000000000000000 ) ) ;
#826 = LINE ( 'NONE', #31, #695 ) ;
#827 = AXIS2_PLACEMENT_3D ( 'NONE', #908, #111, #738 ) ;
#828 = FACE_OUTER_BOUND ( 'NONE', #328, .T. ) ;
#829 = ORIENTED_EDGE ( 'NONE', *, *, #552, .T. ) ;
#830 = CARTESIAN_POINT ( 'NONE',  ( -1.499999999999991562, -26.02865268665093623, -12.45381733477948494 ) ) ;
#831 = CARTESIAN_POINT ( 'NONE',  ( 7.649999999999996803, 10.59999999999999964, 5.000000000000000000 ) ) ;
#832 = CARTESIAN_POINT ( 'NONE',  ( -3.985511791781599200, -10.59999999999999964, 2.000000000000000000 ) ) ;
#833 = VECTOR ( 'NONE', #66, 1000.000000000000000 ) ;
#834 = ORIENTED_EDGE ( 'NONE', *, *, #436, .T. ) ;
#835 = AXIS2_PLACEMENT_3D ( 'NONE', #873, #77, #240 ) ;
#836 = EDGE_LOOP ( 'NONE', ( #1007, #40, #263, #445 ) ) ;
#837 = FACE_OUTER_BOUND ( 'NONE', #310, .T. ) ;
#838 = FACE_OUTER_BOUND ( 'NONE', #196, .T. ) ;
#839 = EDGE_CURVE ( 'NONE', #994, #23, #576, .T. ) ;
#840 = DIRECTION ( 'NONE',  ( 0.000000000000000000, 0.000000000000000000, 1.000000000000000000 ) ) ;
#841 = ORIENTED_EDGE ( 'NONE', *, *, #18, .F. ) ;
#842 = ORIENTED_EDGE ( 'NONE', *, *, #326, .F. ) ;
#843 = CARTESIAN_POINT ( 'NONE',  ( 3.985511791781604529, -23.39711614534606809, 4.999999999999999112 ) ) ;
#844 = PLANE ( 'NONE',  #709 ) ;
#845 = CARTESIAN_POINT ( 'NONE',  ( -7.650000000000002132, -1.251946659549300070E-15, 2.000000000000000000 ) ) ;
#846 = EDGE_LOOP ( 'NONE', ( #1027, #304, #467, #380, #269, #683, #969, #234 ) ) ;
#847 = VERTEX_POINT ( 'NONE', #430 ) ;
#848 = EDGE_CURVE ( 'NONE', #426, #432, #37, .T. ) ;
#849 = AXIS2_PLACEMENT_3D ( 'NONE', #122, #518, #128 ) ;
#850 = CARTESIAN_POINT ( 'NONE',  ( 11.24999999999999822, 14.60000000000001030, 2.603744501540754541 ) ) ;
#851 = FACE_BOUND ( 'NONE', #125, .T. ) ;
#852 = LINE ( 'NONE', #460, #375 ) ;
#853 = AXIS2_PLACEMENT_3D ( 'NONE', #732, #340, #25 ) ;
#854 = ORIENTED_EDGE ( 'NONE', *, *, #318, .F. ) ;
#855 = CIRCLE ( 'NONE', #867, 1.500000000000001332 ) ;
#856 = VECTOR ( 'NONE', #442, 1000.000000000000000 ) ;
#857 = DIRECTION ( 'NONE',  ( 1.270859689360298160E-16, -1.000000000000000000, 0.000000000000000000 ) ) ;
#858 = PLANE ( 'NONE',  #498 ) ;
#859 = LINE ( 'NONE', #941, #206 ) ;
#860 = ORIENTED_EDGE ( 'NONE', *, *, #652, .F. ) ;
#861 = PLANE ( 'NONE',  #137 ) ;
#862 = CARTESIAN_POINT ( 'NONE',  ( 12.47648296710001681, 42.48813502408151521, -12.45381733477948671 ) ) ;
#863 = VERTEX_POINT ( 'NONE', #513 ) ;
#864 = CARTESIAN_POINT ( 'NONE',  ( 3.985511791781600976, -6.576738943726467390, -12.45381733477948671 ) ) ;
#865 = ORIENTED_EDGE ( 'NONE', *, *, #197, .T. ) ;
#866 = EDGE_CURVE ( 'NONE', #216, #875, #106, .T. ) ;
#867 = AXIS2_PLACEMENT_3D ( 'NONE', #204, #857, #678 ) ;
#868 = CIRCLE ( 'NONE', #901, 1.500000000000001332 ) ;
#869 = LINE ( 'NONE', #175, #569 ) ;
#870 = ADVANCED_FACE ( 'NONE', ( #183 ), #98, .T. ) ;
#871 = DIRECTION ( 'NONE',  ( -0.000000000000000000, -0.000000000000000000, 1.000000000000000000 ) ) ;
#872 = VERTEX_POINT ( 'NONE', #495 ) ;
#873 = CARTESIAN_POINT ( 'NONE',  ( 12.47648296710001681, 42.48813502408151521, -12.45381733477948671 ) ) ;
#874 = DIRECTION ( 'NONE',  ( 1.000000000000000000, 0.000000000000000000, 0.000000000000000000 ) ) ;
#875 = VERTEX_POINT ( 'NONE', #669 ) ;
#876 = EDGE_CURVE ( 'NONE', #847, #588, #826, .T. ) ;
#877 = DIRECTION ( 'NONE',  ( -1.000000000000000000, -1.270859689360298160E-16, -0.000000000000000000 ) ) ;
#878 = VECTOR ( 'NONE', #387, 1000.000000000000000 ) ;
#879 = CARTESIAN_POINT ( 'NONE',  ( 12.47648296710002569, -28.39999999999999503, -12.45381733477948671 ) ) ;
#880 = ORIENTED_EDGE ( 'NONE', *, *, #166, .F. ) ;
#881 = AXIS2_PLACEMENT_3D ( 'NONE', #717, #480, #882 ) ;
#882 = DIRECTION ( 'NONE',  ( 1.000000000000000000, 0.000000000000000000, 0.000000000000000000 ) ) ;
#883 = FACE_OUTER_BOUND ( 'NONE', #288, .T. ) ;
#884 = ORIENTED_EDGE ( 'NONE', *, *, #788, .F. ) ;
#885 = CARTESIAN_POINT ( 'NONE',  ( 7.649999999999996803, 10.59999999999999964, 5.000000000000000000 ) ) ;
#886 = DIRECTION ( 'NONE',  ( -1.000000000000000000, -1.227398685832646557E-16, 0.000000000000000000 ) ) ;
#887 = EDGE_CURVE ( 'NONE', #585, #597, #416, .T. ) ;
#888 = CYLINDRICAL_SURFACE ( 'NONE', #767, 1.500000000000001332 ) ;
#889 = ORIENTED_EDGE ( 'NONE', *, *, #147, .T. ) ;
#890 = DIRECTION ( 'NONE',  ( 1.270859689360298160E-16, -1.000000000000000000, 0.000000000000000000 ) ) ;
#891 = CARTESIAN_POINT ( 'NONE',  ( -3.985511791781599200, -10.59999999999999964, 1.995003582119637242 ) ) ;
#892 = FACE_OUTER_BOUND ( 'NONE', #699, .T. ) ;
#893 = ORIENTED_EDGE ( 'NONE', *, *, #274, .F. ) ;
#894 = AXIS2_PLACEMENT_3D ( 'NONE', #429, #668, #411 ) ;
#895 = LINE ( 'NONE', #187, #170 ) ;
#896 = DIRECTION ( 'NONE',  ( -0.000000000000000000, -0.000000000000000000, -1.000000000000000000 ) ) ;
#897 = VECTOR ( 'NONE', #739, 1000.000000000000000 ) ;
#898 = CYLINDRICAL_SURFACE ( 'NONE', #568, 1.500000000000001332 ) ;
#899 = ORIENTED_EDGE ( 'NONE', *, *, #497, .T. ) ;
#900 = EDGE_CURVE ( 'NONE', #15, #619, #733, .T. ) ;
#901 = AXIS2_PLACEMENT_3D ( 'NONE', #644, #804, #959 ) ;
#902 = FACE_OUTER_BOUND ( 'NONE', #571, .T. ) ;
#903 = CARTESIAN_POINT ( 'NONE',  ( -1.855455146466034160E-15, 14.60000000000000142, -5.706862021830026777 ) ) ;
#904 = DIRECTION ( 'NONE',  ( 1.000000000000000000, 0.000000000000000000, 0.000000000000000000 ) ) ;
#905 = ORIENTED_EDGE ( 'NONE', *, *, #67, .F. ) ;
#906 = ADVANCED_FACE ( 'NONE', ( #507 ), #991, .F. ) ;
#907 = PLANE ( 'NONE',  #894 ) ;
#908 = CARTESIAN_POINT ( 'NONE',  ( -13.65000000000000213, 14.60000000000000320, 5.000000000000000000 ) ) ;
#909 = DIRECTION ( 'NONE',  ( 0.000000000000000000, 0.000000000000000000, 1.000000000000000000 ) ) ;
#910 = ORIENTED_EDGE ( 'NONE', *, *, #546, .F. ) ;
#911 = ORIENTED_EDGE ( 'NONE', *, *, #549, .F. ) ;
#912 = CARTESIAN_POINT ( 'NONE',  ( -3.985511791781599200, -6.576738943726468278, -12.45381733477948671 ) ) ;
#913 = FILL_AREA_STYLE_COLOUR ( '', #483 ) ;
#914 = VECTOR ( 'NONE', #193, 1000.000000000000000 ) ;
#915 = FACE_BOUND ( 'NONE', #4, .T. ) ;
#916 = VECTOR ( 'NONE', #386, 1000.000000000000000 ) ;
#917 = ORIENTED_EDGE ( 'NONE', *, *, #85, .T. ) ;
#918 = APPLICATION_CONTEXT ( 'automotive_design' ) ;
#919 = EDGE_LOOP ( 'NONE', ( #58, #749 ) ) ;
#920 = DIRECTION ( 'NONE',  ( 1.000000000000000000, 1.794946031908496398E-16, 0.000000000000000000 ) ) ;
#921 = DIRECTION ( 'NONE',  ( 1.000000000000000000, 0.000000000000000000, 0.000000000000000000 ) ) ;
#922 = PLANE ( 'NONE',  #38 ) ;
#923 = ADVANCED_FACE ( 'NONE', ( #984 ), #590, .T. ) ;
#924 = ORIENTED_EDGE ( 'NONE', *, *, #704, .T. ) ;
#925 = VERTEX_POINT ( 'NONE', #205 ) ;
#926 = AXIS2_PLACEMENT_3D ( 'NONE', #390, #928, #465 ) ;
#927 = DIRECTION ( 'NONE',  ( -1.188166764367676095E-16, 1.000000000000000000, -0.000000000000000000 ) ) ;
#928 = DIRECTION ( 'NONE',  ( 1.088143484830434354E-16, -1.000000000000000000, -0.000000000000000000 ) ) ;
#929 = LINE ( 'NONE', #129, #833 ) ;
#930 = EDGE_LOOP ( 'NONE', ( #246, #57, #893, #300 ) ) ;
#931 = PLANE ( 'NONE',  #587 ) ;
#932 = CARTESIAN_POINT ( 'NONE',  ( -7.118714005252268606, -28.39999999999999858, 0.000000000000000000 ) ) ;
#933 = CARTESIAN_POINT ( 'NONE',  ( -7.650000000000000355, -10.59999999999999964, 2.000000000000000000 ) ) ;
#934 = EDGE_CURVE ( 'NONE', #801, #343, #996, .T. ) ;
#935 = AXIS2_PLACEMENT_3D ( 'NONE', #200, #184, #208 ) ;
#936 = ORIENTED_EDGE ( 'NONE', *, *, #87, .F. ) ;
#937 = ADVANCED_FACE ( 'NONE', ( #851, #779, #600 ), #861, .T. ) ;
#938 = VECTOR ( 'NONE', #1029, 1000.000000000000000 ) ;
#939 = FACE_BOUND ( 'NONE', #545, .T. ) ;
#940 = PLANE ( 'NONE',  #949 ) ;
#941 = CARTESIAN_POINT ( 'NONE',  ( -3.985511791781599200, -6.576738943726468278, 2.000000000000000000 ) ) ;
#942 = VERTEX_POINT ( 'NONE', #55 ) ;
#943 = LINE ( 'NONE', #1021, #623 ) ;
#944 = ADVANCED_FACE ( 'NONE', ( #228 ), #844, .F. ) ;
#945 = ORIENTED_EDGE ( 'NONE', *, *, #848, .F. ) ;
#946 = FACE_OUTER_BOUND ( 'NONE', #281, .T. ) ;
#947 = EDGE_CURVE ( 'NONE', #63, #801, #616, .T. ) ;
#948 = CARTESIAN_POINT ( 'NONE',  ( 7.649999999999999467, -10.59999999999999964, 5.000000000000000000 ) ) ;
#949 = AXIS2_PLACEMENT_3D ( 'NONE', #472, #311, #789 ) ;
#950 = ORIENTED_EDGE ( 'NONE', *, *, #977, .F. ) ;
#951 = PLANE ( 'NONE',  #835 ) ;
#952 = EDGE_CURVE ( 'NONE', #182, #502, #525, .T. ) ;
#953 = PRODUCT_DEFINITION_CONTEXT ( 'detailed design', #755, 'design' ) ;
#954 = ORIENTED_EDGE ( 'NONE', *, *, #760, .F. ) ;
#955 =( NAMED_UNIT ( * ) PLANE_ANGLE_UNIT ( ) SI_UNIT ( $, .RADIAN. ) );
#956 = LINE ( 'NONE', #244, #294 ) ;
#957 = DIRECTION ( 'NONE',  ( 1.270859689360298160E-16, -1.000000000000000000, 0.000000000000000000 ) ) ;
#958 = EDGE_LOOP ( 'NONE', ( #905, #973, #46, #910 ) ) ;
#959 = DIRECTION ( 'NONE',  ( 1.000000000000000000, 0.000000000000000000, 0.000000000000000000 ) ) ;
#960 = VERTEX_POINT ( 'NONE', #1004 ) ;
#961 = ADVANCED_FACE ( 'NONE', ( #838 ), #69, .F. ) ;
#962 = MECHANICAL_DESIGN_GEOMETRIC_PRESENTATION_REPRESENTATION (  '', ( #618 ), #81 ) ;
#963 = VECTOR ( 'NONE', #219, 1000.000000000000000 ) ;
#964 = CIRCLE ( 'NONE', #523, 1.500000000000001998 ) ;
#965 = LINE ( 'NONE', #990, #663 ) ;
#966 = LINE ( 'NONE', #341, #107 ) ;
#967 = CARTESIAN_POINT ( 'NONE',  ( 3.985511791781604529, -23.39711614534606809, 14.41095445918625728 ) ) ;
#968 = ORIENTED_EDGE ( 'NONE', *, *, #76, .F. ) ;
#969 = ORIENTED_EDGE ( 'NONE', *, *, #476, .T. ) ;
#970 = LINE ( 'NONE', #259, #665 ) ;
#971 = FACE_OUTER_BOUND ( 'NONE', #136, .T. ) ;
#972 = FACE_BOUND ( 'NONE', #201, .T. ) ;
#973 = ORIENTED_EDGE ( 'NONE', *, *, #16, .T. ) ;
#974 = CARTESIAN_POINT ( 'NONE',  ( -3.985511791781599200, 0.000000000000000000, 5.000000000000000000 ) ) ;
#975 = CARTESIAN_POINT ( 'NONE',  ( 12.47648296710002569, -28.39999999999999503, -12.45381733477948671 ) ) ;
#976 = EDGE_CURVE ( 'NONE', #942, #496, #511, .T. ) ;
#977 = EDGE_CURVE ( 'NONE', #999, #614, #1010, .T. ) ;
#978 = DIRECTION ( 'NONE',  ( -0.000000000000000000, -1.000000000000000000, -0.000000000000000000 ) ) ;
#979 = ORIENTED_EDGE ( 'NONE', *, *, #274, .T. ) ;
#980 = ORIENTED_EDGE ( 'NONE', *, *, #436, .F. ) ;
#981 = AXIS2_PLACEMENT_3D ( 'NONE', #86, #160, #231 ) ;
#982 = VECTOR ( 'NONE', #116, 1000.000000000000000 ) ;
#983 = DIRECTION ( 'NONE',  ( 1.000000000000000000, 0.000000000000000000, 0.000000000000000000 ) ) ;
#984 = FACE_OUTER_BOUND ( 'NONE', #68, .T. ) ;
#985 = VECTOR ( 'NONE', #690, 1000.000000000000000 ) ;
#986 = PLANE ( 'NONE',  #71 ) ;
#987 = ORIENTED_EDGE ( 'NONE', *, *, #642, .T. ) ;
#988 = EDGE_CURVE ( 'NONE', #875, #216, #419, .T. ) ;
#989 = VERTEX_POINT ( 'NONE', #459 ) ;
#990 = CARTESIAN_POINT ( 'NONE',  ( 9.749999999999996447, 14.60000000000001030, 2.603744501540754541 ) ) ;
#991 = PLANE ( 'NONE',  #827 ) ;
#992 = DIRECTION ( 'NONE',  ( 1.000000000000000000, 0.000000000000000000, 0.000000000000000000 ) ) ;
#993 = ORIENTED_EDGE ( 'NONE', *, *, #361, .T. ) ;
#994 = VERTEX_POINT ( 'NONE', #382 ) ;
#995 = LINE ( 'NONE', #673, #555 ) ;
#996 = LINE ( 'NONE', #547, #878 ) ;
#997 = CARTESIAN_POINT ( 'NONE',  ( 7.118714005252272159, -28.39999999999999503, 1.743582064115525255E-15 ) ) ;
#998 = ORIENTED_EDGE ( 'NONE', *, *, #213, .T. ) ;
#999 = VERTEX_POINT ( 'NONE', #543 ) ;
#1000 = AXIS2_PLACEMENT_3D ( 'NONE', #188, #500, #424 ) ;
#1001 = AXIS2_PLACEMENT_3D ( 'NONE', #625, #143, #691 ) ;
#1002 = ADVANCED_FACE ( 'NONE', ( #772 ), #858, .F. ) ;
#1003 = LINE ( 'NONE', #291, #203 ) ;
#1004 = CARTESIAN_POINT ( 'NONE',  ( -12.75000000000000000, -28.39999999999999858, 2.603744501540751877 ) ) ;
#1005 = CARTESIAN_POINT ( 'NONE',  ( 12.47648296710002036, 14.60000000000000142, -12.45381733477948671 ) ) ;
#1006 = AXIS2_PLACEMENT_3D ( 'NONE', #371, #312, #764 ) ;
#1007 = ORIENTED_EDGE ( 'NONE', *, *, #712, .F. ) ;
#1008 = ORIENTED_EDGE ( 'NONE', *, *, #32, .T. ) ;
#1009 = CARTESIAN_POINT ( 'NONE',  ( 3.985511791781604529, -23.39711614534606809, -12.45381733477948671 ) ) ;
#1010 = LINE ( 'NONE', #298, #48 ) ;
#1011 = DIRECTION ( 'NONE',  ( 1.188166764367676095E-16, -1.000000000000000000, 0.000000000000000000 ) ) ;
#1012 = VERTEX_POINT ( 'NONE', #757 ) ;
#1013 = CARTESIAN_POINT ( 'NONE',  ( -3.985511791781597424, -23.39711614534606809, 14.41095445918625728 ) ) ;
#1014 = DIRECTION ( 'NONE',  ( -1.000000000000000000, 0.000000000000000000, -0.000000000000000000 ) ) ;
#1015 = EDGE_CURVE ( 'NONE', #34, #63, #606, .T. ) ;
#1016 = CARTESIAN_POINT ( 'NONE',  ( -13.65000000000000213, 14.60000000000000320, 0.000000000000000000 ) ) ;
#1017 = EDGE_CURVE ( 'NONE', #596, #1012, #776, .T. ) ;
#1018 = EDGE_LOOP ( 'NONE', ( #945, #53, #171, #736 ) ) ;
#1019 = CARTESIAN_POINT ( 'NONE',  ( 11.24999999999999822, 14.60000000000001030, 2.603744501540754541 ) ) ;
#1020 = DIRECTION ( 'NONE',  ( -0.000000000000000000, 0.000000000000000000, 1.000000000000000000 ) ) ;
#1021 = CARTESIAN_POINT ( 'NONE',  ( -3.985511791781599200, -6.576738943726468278, -12.45381733477948671 ) ) ;
#1022 = VECTOR ( 'NONE', #195, 1000.000000000000000 ) ;
#1023 = ORIENTED_EDGE ( 'NONE', *, *, #839, .T. ) ;
#1024 = VECTOR ( 'NONE', #562, 1000.000000000000000 ) ;
#1025 = MANIFOLD_SOLID_BREP ( '\X2\52079664\X0\-\X2\62c94f38\X0\6', #621 ) ;
#1026 = CARTESIAN_POINT ( 'NONE',  ( 1.499999999999999778, 12.59999999999999964, -0.9999999999999965583 ) ) ;
#1027 = ORIENTED_EDGE ( 'NONE', *, *, #977, .T. ) ;
#1028 = ADVANCED_FACE ( 'NONE', ( #946 ), #940, .T. ) ;
#1029 = DIRECTION ( 'NONE',  ( -2.011520949431982600E-16, 1.000000000000000000, 0.000000000000000000 ) ) ;
ENDSEC;
END-ISO-10303-21;
