ISO-10303-21;
HEADER;
FILE_DESCRIPTION (( 'STEP AP214' ),
    '1' );
FILE_NAME ('激光测距传感器20m上固定_单片.STEP',
    '2026-03-23T06:32:46',
    ( '' ),
    ( '' ),
    'SwSTEP 2.0',
    'SolidWorks 2024',
    '' );
FILE_SCHEMA (( 'AUTOMOTIVE_DESIGN' ));
ENDSEC;

DATA;
#1 =( NAMED_UNIT ( * ) PLANE_ANGLE_UNIT ( ) SI_UNIT ( $, .RADIAN. ) );
#2 = PLANE ( 'NONE',  #399 ) ;
#3 = ORIENTED_EDGE ( 'NONE', *, *, #594, .T. ) ;
#4 = DIRECTION ( 'NONE',  ( -1.734723475976805517E-15, 1.000000000000000000, -0.000000000000000000 ) ) ;
#5 = LINE ( 'NONE', #244, #527 ) ;
#6 = DIRECTION ( 'NONE',  ( 1.000000000000000000, 2.891205793294679411E-15, 0.000000000000000000 ) ) ;
#7 = AXIS2_PLACEMENT_3D ( 'NONE', #195, #950, #525 ) ;
#8 = LINE ( 'NONE', #141, #909 ) ;
#9 = LINE ( 'NONE', #344, #271 ) ;
#10 = ORIENTED_EDGE ( 'NONE', *, *, #543, .T. ) ;
#11 = AXIS2_PLACEMENT_3D ( 'NONE', #445, #697, #784 ) ;
#12 = VECTOR ( 'NONE', #1007, 1000.000000000000000 ) ;
#13 = DIRECTION ( 'NONE',  ( -1.000000000000000000, 0.000000000000000000, 0.000000000000000000 ) ) ;
#14 = EDGE_CURVE ( 'NONE', #52, #740, #51, .T. ) ;
#15 = DIRECTION ( 'NONE',  ( -1.000000000000000000, 0.000000000000000000, 0.000000000000000000 ) ) ;
#16 = CARTESIAN_POINT ( 'NONE',  ( 7.550000000000000711, -7.549999999999998046, 5.000000000000000000 ) ) ;
#17 = CARTESIAN_POINT ( 'NONE',  ( -8.450000000000002842, -2.700000000000002398, 0.000000000000000000 ) ) ;
#18 = ORIENTED_EDGE ( 'NONE', *, *, #594, .F. ) ;
#19 = CARTESIAN_POINT ( 'NONE',  ( -11.99999999999999645, -9.500000000000001776, 3.000000000000000000 ) ) ;
#20 = DIRECTION ( 'NONE',  ( -1.734723475976805517E-15, 1.000000000000000000, -0.000000000000000000 ) ) ;
#21 = ORIENTED_EDGE ( 'NONE', *, *, #495, .F. ) ;
#22 = VERTEX_POINT ( 'NONE', #239 ) ;
#23 = FACE_OUTER_BOUND ( 'NONE', #1073, .T. ) ;
#24 = DIRECTION ( 'NONE',  ( -0.000000000000000000, 0.000000000000000000, -1.000000000000000000 ) ) ;
#25 = ORIENTED_EDGE ( 'NONE', *, *, #735, .F. ) ;
#26 = ORIENTED_EDGE ( 'NONE', *, *, #847, .T. ) ;
#27 = VECTOR ( 'NONE', #540, 1000.000000000000000 ) ;
#28 = VECTOR ( 'NONE', #881, 1000.000000000000000 ) ;
#29 = DIRECTION ( 'NONE',  ( -0.000000000000000000, -0.000000000000000000, 1.000000000000000000 ) ) ;
#30 = VECTOR ( 'NONE', #362, 1000.000000000000000 ) ;
#31 = FACE_OUTER_BOUND ( 'NONE', #906, .T. ) ;
#32 = ORIENTED_EDGE ( 'NONE', *, *, #1038, .F. ) ;
#33 = CARTESIAN_POINT ( 'NONE',  ( -8.450000000000002842, -2.700000000000002398, 3.000000000000000000 ) ) ;
#34 = EDGE_LOOP ( 'NONE', ( #56, #116, #170, #485, #1030, #376, #711, #329, #25, #737, #827, #465 ) ) ;
#35 = EDGE_CURVE ( 'NONE', #52, #541, #1059, .T. ) ;
#36 = EDGE_CURVE ( 'NONE', #791, #283, #475, .T. ) ;
#37 = CARTESIAN_POINT ( 'NONE',  ( -8.450000000000002842, -2.700000000000002398, 0.000000000000000000 ) ) ;
#38 = ORIENTED_EDGE ( 'NONE', *, *, #1022, .T. ) ;
#39 = DIRECTION ( 'NONE',  ( 0.000000000000000000, -0.000000000000000000, -1.000000000000000000 ) ) ;
#40 = ORIENTED_EDGE ( 'NONE', *, *, #840, .T. ) ;
#41 = LINE ( 'NONE', #788, #617 ) ;
#42 = DIRECTION ( 'NONE',  ( -0.000000000000000000, -0.000000000000000000, -1.000000000000000000 ) ) ;
#43 = ORIENTED_EDGE ( 'NONE', *, *, #144, .F. ) ;
#44 = DIRECTION ( 'NONE',  ( 0.000000000000000000, -0.000000000000000000, 1.000000000000000000 ) ) ;
#45 = ORIENTED_EDGE ( 'NONE', *, *, #743, .T. ) ;
#46 = LINE ( 'NONE', #896, #1050 ) ;
#47 = CIRCLE ( 'NONE', #183, 2.999999999999999112 ) ;
#48 = DIRECTION ( 'NONE',  ( -1.000000000000000000, 0.000000000000000000, 0.000000000000000000 ) ) ;
#49 = VECTOR ( 'NONE', #753, 1000.000000000000000 ) ;
#50 = EDGE_CURVE ( 'NONE', #698, #430, #564, .T. ) ;
#51 = LINE ( 'NONE', #996, #310 ) ;
#52 = VERTEX_POINT ( 'NONE', #750 ) ;
#53 = DIRECTION ( 'NONE',  ( 0.000000000000000000, -1.000000000000000000, 0.000000000000000000 ) ) ;
#54 = FACE_OUTER_BOUND ( 'NONE', #377, .T. ) ;
#55 = ORIENTED_EDGE ( 'NONE', *, *, #908, .T. ) ;
#56 = ORIENTED_EDGE ( 'NONE', *, *, #1091, .F. ) ;
#57 = CARTESIAN_POINT ( 'NONE',  ( 10.49999999999999467, -9.500000000000001776, 5.000000000000000000 ) ) ;
#58 = CARTESIAN_POINT ( 'NONE',  ( -15.00000000000000355, -9.500000000000001776, 3.000000000000000000 ) ) ;
#59 = ORIENTED_EDGE ( 'NONE', *, *, #419, .T. ) ;
#60 = EDGE_LOOP ( 'NONE', ( #862, #927, #703, #787, #823, #693, #10, #185 ) ) ;
#61 = ADVANCED_FACE ( 'NONE', ( #408 ), #460, .F. ) ;
#62 = CARTESIAN_POINT ( 'NONE',  ( 0.000000000000000000, 0.000000000000000000, 0.000000000000000000 ) ) ;
#63 = VECTOR ( 'NONE', #219, 1000.000000000000000 ) ;
#64 = CARTESIAN_POINT ( 'NONE',  ( -12.84999999999999787, 0.5500000000000101474, 8.000000000000000000 ) ) ;
#65 = AXIS2_PLACEMENT_3D ( 'NONE', #434, #685, #421 ) ;
#66 = AXIS2_PLACEMENT_3D ( 'NONE', #477, #796, #978 ) ;
#67 = VECTOR ( 'NONE', #117, 1000.000000000000000 ) ;
#68 = VERTEX_POINT ( 'NONE', #1088 ) ;
#69 = ADVANCED_FACE ( 'NONE', ( #812 ), #658, .T. ) ;
#70 = EDGE_CURVE ( 'NONE', #1040, #539, #666, .T. ) ;
#71 = FACE_BOUND ( 'NONE', #272, .T. ) ;
#72 = VERTEX_POINT ( 'NONE', #464 ) ;
#73 = ORIENTED_EDGE ( 'NONE', *, *, #313, .T. ) ;
#74 = DIRECTION ( 'NONE',  ( 1.000000000000000000, 0.000000000000000000, -0.000000000000000000 ) ) ;
#75 = DIRECTION ( 'NONE',  ( -1.000000000000000000, 0.000000000000000000, 0.000000000000000000 ) ) ;
#76 = EDGE_CURVE ( 'NONE', #68, #634, #471, .T. ) ;
#77 = VECTOR ( 'NONE', #876, 1000.000000000000000 ) ;
#78 = DIRECTION ( 'NONE',  ( 1.000000000000000000, 0.000000000000000000, 0.000000000000000000 ) ) ;
#79 = VERTEX_POINT ( 'NONE', #387 ) ;
#80 = VECTOR ( 'NONE', #438, 1000.000000000000000 ) ;
#81 =( LENGTH_UNIT ( ) NAMED_UNIT ( * ) SI_UNIT ( .MILLI., .METRE. ) );
#82 = CARTESIAN_POINT ( 'NONE',  ( 10.54999999999999538, 7.550000000000004263, 3.000000000000000000 ) ) ;
#83 = ORIENTED_EDGE ( 'NONE', *, *, #817, .F. ) ;
#84 = LINE ( 'NONE', #644, #639 ) ;
#85 = CARTESIAN_POINT ( 'NONE',  ( 10.54999999999999538, 7.550000000000004263, 5.000000000000000000 ) ) ;
#86 = DIRECTION ( 'NONE',  ( -2.859434301060670737E-16, 1.000000000000000000, 0.000000000000000000 ) ) ;
#87 = ORIENTED_EDGE ( 'NONE', *, *, #338, .F. ) ;
#88 = ADVANCED_FACE ( 'NONE', ( #1065 ), #899, .F. ) ;
#89 = CARTESIAN_POINT ( 'NONE',  ( -15.00000000000000355, -12.50000000000000178, 3.000000000000000000 ) ) ;
#90 = CARTESIAN_POINT ( 'NONE',  ( 11.99999999999999645, -9.500000000000001776, 0.000000000000000000 ) ) ;
#91 = CLOSED_SHELL ( 'NONE', ( #522, #178, #988, #588, #695, #765, #801, #174, #108, #456, #1044, #448, #259, #61, #924, #1043, #204, #88, #508, #557, #138, #69, #228, #1081, #483, #951, #828, #107, #402, #763, #960, #560, #249 ) ) ;
#92 = CARTESIAN_POINT ( 'NONE',  ( 6.549999999999997158, 4.549999999999999822, 0.000000000000000000 ) ) ;
#93 = VERTEX_POINT ( 'NONE', #490 ) ;
#94 = STYLED_ITEM ( 'NONE', ( #662 ), #661 ) ;
#95 = PLANE ( 'NONE',  #668 ) ;
#96 = LINE ( 'NONE', #82, #199 ) ;
#97 = FACE_OUTER_BOUND ( 'NONE', #103, .T. ) ;
#98 = ORIENTED_EDGE ( 'NONE', *, *, #388, .F. ) ;
#99 = ORIENTED_EDGE ( 'NONE', *, *, #898, .F. ) ;
#100 = DIRECTION ( 'NONE',  ( 0.000000000000000000, 0.000000000000000000, -1.000000000000000000 ) ) ;
#101 = DIRECTION ( 'NONE',  ( -0.000000000000000000, -0.000000000000000000, 1.000000000000000000 ) ) ;
#102 = LINE ( 'NONE', #363, #805 ) ;
#103 = EDGE_LOOP ( 'NONE', ( #610, #279, #948, #936 ) ) ;
#104 = VERTEX_POINT ( 'NONE', #510 ) ;
#105 = LINE ( 'NONE', #443, #494 ) ;
#106 = EDGE_CURVE ( 'NONE', #595, #104, #96, .T. ) ;
#107 = ADVANCED_FACE ( 'NONE', ( #256 ), #1015, .T. ) ;
#108 = ADVANCED_FACE ( 'NONE', ( #586 ), #414, .F. ) ;
#109 = EDGE_LOOP ( 'NONE', ( #572, #1041, #722, #835 ) ) ;
#110 = CARTESIAN_POINT ( 'NONE',  ( -2.550000000000003819, -4.549999999999999822, 0.000000000000000000 ) ) ;
#111 = ORIENTED_EDGE ( 'NONE', *, *, #237, .T. ) ;
#112 = AXIS2_PLACEMENT_3D ( 'NONE', #552, #120, #133 ) ;
#113 = VECTOR ( 'NONE', #463, 1000.000000000000000 ) ;
#114 = CARTESIAN_POINT ( 'NONE',  ( -2.550000000000003819, -4.549999999999999822, 0.000000000000000000 ) ) ;
#115 = VERTEX_POINT ( 'NONE', #268 ) ;
#116 = ORIENTED_EDGE ( 'NONE', *, *, #645, .F. ) ;
#117 = DIRECTION ( 'NONE',  ( 1.000000000000000000, 1.084202172485503941E-16, -0.000000000000000000 ) ) ;
#118 = CARTESIAN_POINT ( 'NONE',  ( -2.550000000000003375, -2.700000000000002398, 0.000000000000000000 ) ) ;
#119 = LINE ( 'NONE', #382, #891 ) ;
#120 = DIRECTION ( 'NONE',  ( -1.470104640658311494E-16, 1.000000000000000000, 0.000000000000000000 ) ) ;
#121 = LINE ( 'NONE', #558, #444 ) ;
#122 = ORIENTED_EDGE ( 'NONE', *, *, #457, .F. ) ;
#123 = DIRECTION ( 'NONE',  ( -0.000000000000000000, 0.000000000000000000, 1.000000000000000000 ) ) ;
#124 = EDGE_CURVE ( 'NONE', #1075, #72, #5, .T. ) ;
#125 = DIRECTION ( 'NONE',  ( -0.000000000000000000, -0.000000000000000000, 1.000000000000000000 ) ) ;
#126 = DIRECTION ( 'NONE',  ( -0.000000000000000000, 0.000000000000000000, -1.000000000000000000 ) ) ;
#127 = CARTESIAN_POINT ( 'NONE',  ( -11.34999999999999964, 0.5500000000000103695, 0.000000000000000000 ) ) ;
#128 = VERTEX_POINT ( 'NONE', #842 ) ;
#129 = FACE_OUTER_BOUND ( 'NONE', #159, .T. ) ;
#130 = LINE ( 'NONE', #614, #783 ) ;
#131 = CARTESIAN_POINT ( 'NONE',  ( -12.00000000000000355, 9.500000000000000000, 0.000000000000000000 ) ) ;
#132 = AXIS2_PLACEMENT_3D ( 'NONE', #534, #381, #315 ) ;
#133 = DIRECTION ( 'NONE',  ( -1.000000000000000000, -1.470104640658311494E-16, 0.000000000000000000 ) ) ;
#134 = DIRECTION ( 'NONE',  ( 1.000000000000000000, 0.000000000000000000, 0.000000000000000000 ) ) ;
#135 = ORIENTED_EDGE ( 'NONE', *, *, #961, .T. ) ;
#136 = LINE ( 'NONE', #613, #733 ) ;
#137 = LINE ( 'NONE', #287, #149 ) ;
#138 = ADVANCED_FACE ( 'NONE', ( #677 ), #674, .F. ) ;
#139 = CARTESIAN_POINT ( 'NONE',  ( -15.00000000000000355, -12.50000000000000178, 3.000000000000000000 ) ) ;
#140 = ORIENTED_EDGE ( 'NONE', *, *, #308, .T. ) ;
#141 = CARTESIAN_POINT ( 'NONE',  ( -2.550000000000003375, -2.700000000000002398, 3.000000000000000000 ) ) ;
#142 = CARTESIAN_POINT ( 'NONE',  ( 14.99999999999999645, 9.500000000000000000, 3.000000000000000000 ) ) ;
#143 = EDGE_CURVE ( 'NONE', #518, #337, #435, .T. ) ;
#144 = EDGE_CURVE ( 'NONE', #562, #317, #102, .T. ) ;
#145 = ORIENTED_EDGE ( 'NONE', *, *, #561, .T. ) ;
#146 = AXIS2_PLACEMENT_3D ( 'NONE', #62, #571, #78 ) ;
#147 = SURFACE_STYLE_FILL_AREA ( #826 ) ;
#148 = VECTOR ( 'NONE', #597, 1000.000000000000000 ) ;
#149 = VECTOR ( 'NONE', #1052, 1000.000000000000000 ) ;
#150 = VECTOR ( 'NONE', #794, 1000.000000000000000 ) ;
#151 = VERTEX_POINT ( 'NONE', #1018 ) ;
#152 = DIRECTION ( 'NONE',  ( 0.000000000000000000, -0.000000000000000000, 1.000000000000000000 ) ) ;
#153 = ORIENTED_EDGE ( 'NONE', *, *, #641, .F. ) ;
#154 = EDGE_CURVE ( 'NONE', #518, #975, #1028, .T. ) ;
#155 = LINE ( 'NONE', #736, #530 ) ;
#156 = DIRECTION ( 'NONE',  ( -0.000000000000000000, -0.000000000000000000, -1.000000000000000000 ) ) ;
#157 = CARTESIAN_POINT ( 'NONE',  ( 11.99999999999999645, 12.50000000000000178, 0.000000000000000000 ) ) ;
#158 = CARTESIAN_POINT ( 'NONE',  ( 10.54999999999999538, 7.550000000000004263, 5.000000000000000000 ) ) ;
#159 = EDGE_LOOP ( 'NONE', ( #361, #1029, #135, #630 ) ) ;
#160 = FACE_BOUND ( 'NONE', #945, .T. ) ;
#161 = CARTESIAN_POINT ( 'NONE',  ( 11.99999999999999645, -9.499999999999998224, 3.000000000000000000 ) ) ;
#162 = AXIS2_PLACEMENT_3D ( 'NONE', #277, #429, #282 ) ;
#163 = AXIS2_PLACEMENT_3D ( 'NONE', #741, #903, #276 ) ;
#164 = ORIENTED_EDGE ( 'NONE', *, *, #124, .T. ) ;
#165 = AXIS2_PLACEMENT_3D ( 'NONE', #1077, #152, #405 ) ;
#166 = FACE_OUTER_BOUND ( 'NONE', #196, .T. ) ;
#167 = CARTESIAN_POINT ( 'NONE',  ( 11.99999999999999645, 9.500000000000001776, 0.000000000000000000 ) ) ;
#168 = CARTESIAN_POINT ( 'NONE',  ( 10.54999999999999538, 7.550000000000004263, 5.000000000000000000 ) ) ;
#169 = EDGE_CURVE ( 'NONE', #266, #1075, #9, .T. ) ;
#170 = ORIENTED_EDGE ( 'NONE', *, *, #819, .F. ) ;
#171 = DIRECTION ( 'NONE',  ( -1.000000000000000000, -1.156482317317871478E-16, 0.000000000000000000 ) ) ;
#172 = DIRECTION ( 'NONE',  ( 1.000000000000000000, 1.156482317317871478E-16, 0.000000000000000000 ) ) ;
#173 = CARTESIAN_POINT ( 'NONE',  ( 10.55000000000000249, -3.549999999999997602, 3.000000000000000000 ) ) ;
#174 = ADVANCED_FACE ( 'NONE', ( #777 ), #261, .F. ) ;
#175 = LINE ( 'NONE', #395, #201 ) ;
#176 = EDGE_LOOP ( 'NONE', ( #111, #576, #40, #688 ) ) ;
#177 = EDGE_CURVE ( 'NONE', #755, #104, #851, .T. ) ;
#178 = ADVANCED_FACE ( 'NONE', ( #269 ), #856, .F. ) ;
#179 = CARTESIAN_POINT ( 'NONE',  ( 13.49999999999999822, -9.500000000000001776, 3.000000000000000000 ) ) ;
#180 = LINE ( 'NONE', #966, #511 ) ;
#181 = DIRECTION ( 'NONE',  ( 0.000000000000000000, 0.000000000000000000, -1.000000000000000000 ) ) ;
#182 = ORIENTED_EDGE ( 'NONE', *, *, #50, .T. ) ;
#183 = AXIS2_PLACEMENT_3D ( 'NONE', #161, #493, #789 ) ;
#184 = VECTOR ( 'NONE', #859, 1000.000000000000000 ) ;
#185 = ORIENTED_EDGE ( 'NONE', *, *, #368, .T. ) ;
#186 = CARTESIAN_POINT ( 'NONE',  ( -12.00000000000000355, -9.500000000000001776, 3.000000000000000000 ) ) ;
#187 = FACE_OUTER_BOUND ( 'NONE', #194, .T. ) ;
#188 = ORIENTED_EDGE ( 'NONE', *, *, #641, .T. ) ;
#189 = VERTEX_POINT ( 'NONE', #264 ) ;
#190 = DIRECTION ( 'NONE',  ( 0.000000000000000000, 0.000000000000000000, -1.000000000000000000 ) ) ;
#191 = EDGE_CURVE ( 'NONE', #478, #270, #931, .T. ) ;
#192 = CARTESIAN_POINT ( 'NONE',  ( 10.54999999999999538, 7.550000000000004263, 5.000000000000000000 ) ) ;
#193 = ORIENTED_EDGE ( 'NONE', *, *, #669, .T. ) ;
#194 = EDGE_LOOP ( 'NONE', ( #392, #714, #547, #1082 ) ) ;
#195 = CARTESIAN_POINT ( 'NONE',  ( 11.99999999999999645, -9.500000000000001776, 3.000000000000000000 ) ) ;
#196 = EDGE_LOOP ( 'NONE', ( #319, #952, #153, #873, #949, #140, #615, #1035 ) ) ;
#197 = AXIS2_PLACEMENT_3D ( 'NONE', #411, #760, #850 ) ;
#198 = ORIENTED_EDGE ( 'NONE', *, *, #724, .T. ) ;
#199 = VECTOR ( 'NONE', #20, 1000.000000000000000 ) ;
#200 = CARTESIAN_POINT ( 'NONE',  ( -8.450000000000002842, 0.000000000000000000, 3.000000000000000000 ) ) ;
#201 = VECTOR ( 'NONE', #998, 1000.000000000000000 ) ;
#202 = PLANE ( 'NONE',  #132 ) ;
#203 = VERTEX_POINT ( 'NONE', #600 ) ;
#204 = ADVANCED_FACE ( 'NONE', ( #943 ), #349, .F. ) ;
#205 = CARTESIAN_POINT ( 'NONE',  ( 10.54999999999999538, -7.549999999999994493, 5.000000000000000000 ) ) ;
#206 = ORIENTED_EDGE ( 'NONE', *, *, #528, .T. ) ;
#207 = CYLINDRICAL_SURFACE ( 'NONE', #853, 1.500000000000001332 ) ;
#208 = CARTESIAN_POINT ( 'NONE',  ( -11.99999999999999645, -9.500000000000001776, 5.000000000000000000 ) ) ;
#209 = ORIENTED_EDGE ( 'NONE', *, *, #295, .F. ) ;
#210 = LINE ( 'NONE', #626, #77 ) ;
#211 = VERTEX_POINT ( 'NONE', #17 ) ;
#212 = DIRECTION ( 'NONE',  ( -1.000000000000000000, -1.470104640658311740E-16, 0.000000000000000000 ) ) ;
#213 = DIRECTION ( 'NONE',  ( -1.000000000000000000, -1.445602896647338917E-16, 0.000000000000000000 ) ) ;
#214 = CARTESIAN_POINT ( 'NONE',  ( 10.54999999999999538, -7.549999999999994493, 3.000000000000000000 ) ) ;
#215 = PRODUCT_DEFINITION_SHAPE ( 'NONE', 'NONE',  #373 ) ;
#216 = EDGE_LOOP ( 'NONE', ( #355, #675 ) ) ;
#217 = LINE ( 'NONE', #298, #979 ) ;
#218 = ORIENTED_EDGE ( 'NONE', *, *, #143, .T. ) ;
#219 = DIRECTION ( 'NONE',  ( 0.000000000000000000, -1.000000000000000000, 0.000000000000000000 ) ) ;
#220 = DIRECTION ( 'NONE',  ( 0.000000000000000000, 1.000000000000000000, 0.000000000000000000 ) ) ;
#221 = VECTOR ( 'NONE', #213, 1000.000000000000000 ) ;
#222 = DIRECTION ( 'NONE',  ( -0.000000000000000000, -1.000000000000000000, -0.000000000000000000 ) ) ;
#223 = CARTESIAN_POINT ( 'NONE',  ( -8.450000000000002842, -2.700000000000002398, 0.000000000000000000 ) ) ;
#224 = VERTEX_POINT ( 'NONE', #682 ) ;
#225 = CARTESIAN_POINT ( 'NONE',  ( 0.000000000000000000, 0.000000000000000000, 5.000000000000000000 ) ) ;
#226 = CARTESIAN_POINT ( 'NONE',  ( 14.99999999999999645, -12.49999999999999822, 3.000000000000000000 ) ) ;
#227 = EDGE_CURVE ( 'NONE', #278, #649, #1012, .T. ) ;
#228 = ADVANCED_FACE ( 'NONE', ( #97 ), #947, .F. ) ;
#229 = ORIENTED_EDGE ( 'NONE', *, *, #470, .F. ) ;
#230 = SURFACE_STYLE_USAGE ( .BOTH. , #829 ) ;
#231 = EDGE_LOOP ( 'NONE', ( #602, #762, #809, #3 ) ) ;
#232 = AXIS2_PLACEMENT_3D ( 'NONE', #225, #620, #888 ) ;
#233 = CARTESIAN_POINT ( 'NONE',  ( -13.49999999999999822, -9.500000000000001776, 5.000000000000000000 ) ) ;
#234 = AXIS2_PLACEMENT_3D ( 'NONE', #192, #523, #866 ) ;
#235 = COLOUR_RGB ( '',0.7921568627450980005, 0.8196078431372548767, 0.9333333333333333481 ) ;
#236 = EDGE_LOOP ( 'NONE', ( #944, #289, #87, #442 ) ) ;
#237 = EDGE_CURVE ( 'NONE', #366, #814, #729, .T. ) ;
#238 = LINE ( 'NONE', #407, #397 ) ;
#239 = CARTESIAN_POINT ( 'NONE',  ( -10.49999999999999467, -9.500000000000001776, 3.000000000000000000 ) ) ;
#240 = CARTESIAN_POINT ( 'NONE',  ( -2.550000000000003819, 4.549999999999998046, 0.000000000000000000 ) ) ;
#241 = DIRECTION ( 'NONE',  ( -1.000000000000000000, -2.859434301060670737E-16, 0.000000000000000000 ) ) ;
#242 = ORIENTED_EDGE ( 'NONE', *, *, #288, .T. ) ;
#243 = CARTESIAN_POINT ( 'NONE',  ( -13.49999999999999822, -9.500000000000001776, 0.000000000000000000 ) ) ;
#244 = CARTESIAN_POINT ( 'NONE',  ( 7.550000000000000711, -7.549999999999998046, 5.000000000000000000 ) ) ;
#245 = CARTESIAN_POINT ( 'NONE',  ( 6.550000000000000711, 7.550000000000000711, 5.000000000000000000 ) ) ;
#246 = FACE_OUTER_BOUND ( 'NONE', #963, .T. ) ;
#247 = ORIENTED_EDGE ( 'NONE', *, *, #883, .T. ) ;
#248 = DIRECTION ( 'NONE',  ( 0.000000000000000000, 0.000000000000000000, -1.000000000000000000 ) ) ;
#249 = ADVANCED_FACE ( 'NONE', ( #31 ), #930, .F. ) ;
#250 = PLANE ( 'NONE',  #65 ) ;
#251 = VECTOR ( 'NONE', #454, 1000.000000000000000 ) ;
#252 = DIRECTION ( 'NONE',  ( 0.000000000000000000, 0.000000000000000000, -1.000000000000000000 ) ) ;
#253 = DIRECTION ( 'NONE',  ( -2.344220913482174614E-16, -1.000000000000000000, 0.000000000000000000 ) ) ;
#254 = ORIENTED_EDGE ( 'NONE', *, *, #609, .F. ) ;
#255 = CARTESIAN_POINT ( 'NONE',  ( 14.99999999999999645, -12.49999999999999822, 3.000000000000000000 ) ) ;
#256 = FACE_OUTER_BOUND ( 'NONE', #718, .T. ) ;
#257 = DIRECTION ( 'NONE',  ( -0.000000000000000000, -0.000000000000000000, 1.000000000000000000 ) ) ;
#258 = EDGE_CURVE ( 'NONE', #203, #937, #663, .T. ) ;
#259 = ADVANCED_FACE ( 'NONE', ( #187 ), #250, .F. ) ;
#260 = DIRECTION ( 'NONE',  ( -1.000000000000000000, -1.084202172485503941E-16, 0.000000000000000000 ) ) ;
#261 = PLANE ( 'NONE',  #956 ) ;
#262 = ORIENTED_EDGE ( 'NONE', *, *, #778, .T. ) ;
#263 = LINE ( 'NONE', #946, #30 ) ;
#264 = CARTESIAN_POINT ( 'NONE',  ( 6.549999999999997158, -4.549999999999999822, 3.000000000000000000 ) ) ;
#265 = VERTEX_POINT ( 'NONE', #439 ) ;
#266 = VERTEX_POINT ( 'NONE', #773 ) ;
#267 = DIRECTION ( 'NONE',  ( -1.000000000000000000, 0.000000000000000000, 0.000000000000000000 ) ) ;
#268 = CARTESIAN_POINT ( 'NONE',  ( 11.99999999999999645, -12.49999999999999822, 0.000000000000000000 ) ) ;
#269 = FACE_OUTER_BOUND ( 'NONE', #993, .T. ) ;
#270 = VERTEX_POINT ( 'NONE', #839 ) ;
#271 = VECTOR ( 'NONE', #440, 1000.000000000000000 ) ;
#272 = EDGE_LOOP ( 'NONE', ( #647, #627 ) ) ;
#273 = EDGE_CURVE ( 'NONE', #283, #224, #854, .T. ) ;
#274 = CARTESIAN_POINT ( 'NONE',  ( -11.34999999999999964, 0.5500000000000103695, 8.000000000000000000 ) ) ;
#275 = DIRECTION ( 'NONE',  ( -0.000000000000000000, 0.000000000000000000, -1.000000000000000000 ) ) ;
#276 = DIRECTION ( 'NONE',  ( 1.000000000000000000, 1.445602896647338917E-16, 0.000000000000000000 ) ) ;
#277 = CARTESIAN_POINT ( 'NONE',  ( 6.549999999999997158, 0.000000000000000000, 0.000000000000000000 ) ) ;
#278 = VERTEX_POINT ( 'NONE', #1027 ) ;
#279 = ORIENTED_EDGE ( 'NONE', *, *, #177, .F. ) ;
#280 = DIRECTION ( 'NONE',  ( -0.000000000000000000, -0.000000000000000000, -1.000000000000000000 ) ) ;
#281 = DIRECTION ( 'NONE',  ( -0.000000000000000000, -0.000000000000000000, -1.000000000000000000 ) ) ;
#282 = DIRECTION ( 'NONE',  ( 0.000000000000000000, 0.000000000000000000, -1.000000000000000000 ) ) ;
#283 = VERTEX_POINT ( 'NONE', #861 ) ;
#284 = CYLINDRICAL_SURFACE ( 'NONE', #577, 2.999999999999999112 ) ;
#285 = VERTEX_POINT ( 'NONE', #245 ) ;
#286 = DIRECTION ( 'NONE',  ( -0.000000000000000000, -1.000000000000000000, -0.000000000000000000 ) ) ;
#287 = CARTESIAN_POINT ( 'NONE',  ( -8.450000000000001066, 2.700000000000000178, 0.000000000000000000 ) ) ;
#288 = EDGE_CURVE ( 'NONE', #755, #285, #580, .T. ) ;
#289 = ORIENTED_EDGE ( 'NONE', *, *, #313, .F. ) ;
#290 = EDGE_LOOP ( 'NONE', ( #145, #401, #589, #1024 ) ) ;
#291 = AXIS2_PLACEMENT_3D ( 'NONE', #759, #340, #843 ) ;
#292 = CARTESIAN_POINT ( 'NONE',  ( 11.99999999999999645, 9.500000000000001776, 3.000000000000000000 ) ) ;
#293 = VECTOR ( 'NONE', #1042, 1000.000000000000000 ) ;
#294 = CARTESIAN_POINT ( 'NONE',  ( 7.550000000000000711, -3.549999999999998046, 5.000000000000000000 ) ) ;
#295 = EDGE_CURVE ( 'NONE', #224, #283, #492, .T. ) ;
#296 = EDGE_CURVE ( 'NONE', #482, #128, #427, .T. ) ;
#297 = ORIENTED_EDGE ( 'NONE', *, *, #288, .F. ) ;
#298 = CARTESIAN_POINT ( 'NONE',  ( -2.550000000000003819, -4.549999999999999822, 3.000000000000000000 ) ) ;
#299 = ORIENTED_EDGE ( 'NONE', *, *, #496, .T. ) ;
#300 = DIRECTION ( 'NONE',  ( -0.000000000000000000, -0.000000000000000000, 1.000000000000000000 ) ) ;
#301 = CARTESIAN_POINT ( 'NONE',  ( -2.550000000000003819, 2.700000000000001066, 3.000000000000000000 ) ) ;
#302 = DIRECTION ( 'NONE',  ( 1.000000000000000000, 0.000000000000000000, 0.000000000000000000 ) ) ;
#303 = DIRECTION ( 'NONE',  ( -1.000000000000000000, 0.000000000000000000, 0.000000000000000000 ) ) ;
#304 = ORIENTED_EDGE ( 'NONE', *, *, #144, .T. ) ;
#305 = LINE ( 'NONE', #367, #293 ) ;
#306 = DIRECTION ( 'NONE',  ( -0.000000000000000000, -0.000000000000000000, -1.000000000000000000 ) ) ;
#307 = ORIENTED_EDGE ( 'NONE', *, *, #645, .T. ) ;
#308 = EDGE_CURVE ( 'NONE', #450, #115, #1051, .T. ) ;
#309 = ORIENTED_EDGE ( 'NONE', *, *, #883, .F. ) ;
#310 = VECTOR ( 'NONE', #486, 1000.000000000000000 ) ;
#311 = CYLINDRICAL_SURFACE ( 'NONE', #431, 1.500000000000001332 ) ;
#312 = AXIS2_PLACEMENT_3D ( 'NONE', #618, #894, #134 ) ;
#313 = EDGE_CURVE ( 'NONE', #1011, #317, #505, .T. ) ;
#314 = VECTOR ( 'NONE', #642, 1000.000000000000000 ) ;
#315 = DIRECTION ( 'NONE',  ( 1.000000000000000000, 0.000000000000000000, -0.000000000000000000 ) ) ;
#316 = CIRCLE ( 'NONE', #449, 2.999999999999999112 ) ;
#317 = VERTEX_POINT ( 'NONE', #173 ) ;
#318 = DIRECTION ( 'NONE',  ( -0.000000000000000000, -0.000000000000000000, 1.000000000000000000 ) ) ;
#319 = ORIENTED_EDGE ( 'NONE', *, *, #992, .F. ) ;
#320 = DIRECTION ( 'NONE',  ( 0.000000000000000000, -0.000000000000000000, 1.000000000000000000 ) ) ;
#321 = EDGE_CURVE ( 'NONE', #79, #913, #47, .T. ) ;
#322 = VERTEX_POINT ( 'NONE', #702 ) ;
#323 = AXIS2_PLACEMENT_3D ( 'NONE', #892, #833, #75 ) ;
#324 = LINE ( 'NONE', #912, #549 ) ;
#325 = ORIENTED_EDGE ( 'NONE', *, *, #860, .F. ) ;
#326 = VECTOR ( 'NONE', #506, 1000.000000000000000 ) ;
#327 = AXIS2_PLACEMENT_3D ( 'NONE', #848, #767, #13 ) ;
#328 =( NAMED_UNIT ( * ) PLANE_ANGLE_UNIT ( ) SI_UNIT ( $, .RADIAN. ) );
#329 = ORIENTED_EDGE ( 'NONE', *, *, #1060, .F. ) ;
#330 = CARTESIAN_POINT ( 'NONE',  ( -15.00000000000000355, 9.500000000000000000, 0.000000000000000000 ) ) ;
#331 = ORIENTED_EDGE ( 'NONE', *, *, #227, .T. ) ;
#332 = ORIENTED_EDGE ( 'NONE', *, *, #296, .F. ) ;
#333 = EDGE_CURVE ( 'NONE', #488, #418, #119, .T. ) ;
#334 =( NAMED_UNIT ( * ) SI_UNIT ( $, .STERADIAN. ) SOLID_ANGLE_UNIT ( ) );
#335 = CARTESIAN_POINT ( 'NONE',  ( -8.450000000000001066, 2.700000000000000178, 0.000000000000000000 ) ) ;
#336 = LINE ( 'NONE', #672, #748 ) ;
#337 = VERTEX_POINT ( 'NONE', #521 ) ;
#338 = EDGE_CURVE ( 'NONE', #72, #1011, #972, .T. ) ;
#339 = CARTESIAN_POINT ( 'NONE',  ( 10.55000000000000249, -3.549999999999997602, 5.000000000000000000 ) ) ;
#340 = DIRECTION ( 'NONE',  ( -0.000000000000000000, -0.000000000000000000, -1.000000000000000000 ) ) ;
#341 = AXIS2_PLACEMENT_3D ( 'NONE', #347, #1026, #172 ) ;
#342 = AXIS2_PLACEMENT_3D ( 'NONE', #64, #42, #48 ) ;
#343 = DIRECTION ( 'NONE',  ( 1.000000000000000000, 1.084202172485505815E-15, 0.000000000000000000 ) ) ;
#344 = CARTESIAN_POINT ( 'NONE',  ( 7.550000000000000711, -7.549999999999998046, 5.000000000000000000 ) ) ;
#345 = ORIENTED_EDGE ( 'NONE', *, *, #574, .T. ) ;
#346 = CARTESIAN_POINT ( 'NONE',  ( -12.84999999999999787, 0.5500000000000101474, 0.000000000000000000 ) ) ;
#347 = CARTESIAN_POINT ( 'NONE',  ( 14.99999999999999645, 12.50000000000000178, 3.000000000000000000 ) ) ;
#348 = APPLICATION_PROTOCOL_DEFINITION ( 'draft international standard', 'automotive_design', 1998, #573 ) ;
#349 = PLANE ( 'NONE',  #162 ) ;
#350 = EDGE_LOOP ( 'NONE', ( #986, #1036, #532, #513 ) ) ;
#351 = CARTESIAN_POINT ( 'NONE',  ( 10.54999999999999538, 7.550000000000004263, 5.000000000000000000 ) ) ;
#352 = CARTESIAN_POINT ( 'NONE',  ( 10.54999999999999538, -7.549999999999994493, 5.000000000000000000 ) ) ;
#353 = EDGE_CURVE ( 'NONE', #740, #785, #1031, .T. ) ;
#354 = EDGE_LOOP ( 'NONE', ( #900, #845, #728, #1003 ) ) ;
#355 = ORIENTED_EDGE ( 'NONE', *, *, #50, .F. ) ;
#356 = CARTESIAN_POINT ( 'NONE',  ( 10.54999999999999538, -7.549999999999994493, 5.000000000000000000 ) ) ;
#357 = CARTESIAN_POINT ( 'NONE',  ( 14.99999999999999645, -12.49999999999999822, 3.000000000000000000 ) ) ;
#358 = ORIENTED_EDGE ( 'NONE', *, *, #880, .F. ) ;
#359 = CIRCLE ( 'NONE', #690, 1.499999999999999556 ) ;
#360 = VECTOR ( 'NONE', #489, 1000.000000000000000 ) ;
#361 = ORIENTED_EDGE ( 'NONE', *, *, #36, .F. ) ;
#362 = DIRECTION ( 'NONE',  ( -1.000000000000000000, -1.470104640658311740E-16, 0.000000000000000000 ) ) ;
#363 = CARTESIAN_POINT ( 'NONE',  ( 10.55000000000000249, -3.549999999999997602, 5.000000000000000000 ) ) ;
#364 = ORIENTED_EDGE ( 'NONE', *, *, #368, .F. ) ;
#365 = DIRECTION ( 'NONE',  ( 0.000000000000000000, -0.000000000000000000, -1.000000000000000000 ) ) ;
#366 = VERTEX_POINT ( 'NONE', #968 ) ;
#367 = CARTESIAN_POINT ( 'NONE',  ( -12.00000000000000355, 12.49999999999999822, 3.000000000000000000 ) ) ;
#368 = EDGE_CURVE ( 'NONE', #211, #920, #786, .T. ) ;
#369 = EDGE_LOOP ( 'NONE', ( #529, #683 ) ) ;
#370 = CARTESIAN_POINT ( 'NONE',  ( 11.99999999999999645, -9.499999999999998224, 3.000000000000000000 ) ) ;
#371 = VERTEX_POINT ( 'NONE', #1066 ) ;
#372 = CARTESIAN_POINT ( 'NONE',  ( -12.00000000000000355, -9.500000000000001776, 3.000000000000000000 ) ) ;
#373 = PRODUCT_DEFINITION ( '鏈', '', #727, #738 ) ;
#374 = EDGE_CURVE ( 'NONE', #366, #698, #210, .T. ) ;
#375 = PLANE ( 'NONE',  #66 ) ;
#376 = ORIENTED_EDGE ( 'NONE', *, *, #1004, .F. ) ;
#377 = EDGE_LOOP ( 'NONE', ( #902, #472, #799, #990 ) ) ;
#378 = VECTOR ( 'NONE', #1016, 1000.000000000000000 ) ;
#379 = VECTOR ( 'NONE', #318, 1000.000000000000000 ) ;
#380 = DIRECTION ( 'NONE',  ( 0.000000000000000000, -0.000000000000000000, 1.000000000000000000 ) ) ;
#381 = DIRECTION ( 'NONE',  ( 0.000000000000000000, -0.000000000000000000, 1.000000000000000000 ) ) ;
#382 = CARTESIAN_POINT ( 'NONE',  ( -2.550000000000003819, -4.549999999999999822, 0.000000000000000000 ) ) ;
#383 = DIRECTION ( 'NONE',  ( -0.000000000000000000, -0.000000000000000000, 1.000000000000000000 ) ) ;
#384 = ORIENTED_EDGE ( 'NONE', *, *, #491, .F. ) ;
#385 = CARTESIAN_POINT ( 'NONE',  ( 11.99999999999999645, -9.500000000000001776, 5.000000000000000000 ) ) ;
#386 = LINE ( 'NONE', #889, #467 ) ;
#387 = CARTESIAN_POINT ( 'NONE',  ( 11.99999999999999645, -12.49999999999999822, 3.000000000000000000 ) ) ;
#388 = EDGE_CURVE ( 'NONE', #814, #366, #359, .T. ) ;
#389 = ORIENTED_EDGE ( 'NONE', *, *, #735, .T. ) ;
#390 = CARTESIAN_POINT ( 'NONE',  ( -2.550000000000003819, 4.549999999999998046, 3.000000000000000000 ) ) ;
#391 = LINE ( 'NONE', #821, #314 ) ;
#392 = ORIENTED_EDGE ( 'NONE', *, *, #977, .T. ) ;
#393 = ORIENTED_EDGE ( 'NONE', *, *, #333, .F. ) ;
#394 = AXIS2_PLACEMENT_3D ( 'NONE', #1068, #800, #123 ) ;
#395 = CARTESIAN_POINT ( 'NONE',  ( 6.549999999999997158, 4.549999999999999822, 3.000000000000000000 ) ) ;
#396 = VECTOR ( 'NONE', #914, 1000.000000000000000 ) ;
#397 = VECTOR ( 'NONE', #749, 1000.000000000000000 ) ;
#398 = CARTESIAN_POINT ( 'NONE',  ( 10.55000000000000249, -3.549999999999997602, 5.000000000000000000 ) ) ;
#399 = AXIS2_PLACEMENT_3D ( 'NONE', #926, #86, #241 ) ;
#400 = DIRECTION ( 'NONE',  ( -0.000000000000000000, -0.000000000000000000, 1.000000000000000000 ) ) ;
#401 = ORIENTED_EDGE ( 'NONE', *, *, #124, .F. ) ;
#402 = ADVANCED_FACE ( 'NONE', ( #974 ), #284, .T. ) ;
#403 = CARTESIAN_POINT ( 'NONE',  ( 0.000000000000000000, 0.000000000000000000, 0.000000000000000000 ) ) ;
#404 = ORIENTED_EDGE ( 'NONE', *, *, #1006, .T. ) ;
#405 = DIRECTION ( 'NONE',  ( 1.000000000000000000, 0.000000000000000000, 0.000000000000000000 ) ) ;
#406 = VERTEX_POINT ( 'NONE', #33 ) ;
#407 = CARTESIAN_POINT ( 'NONE',  ( -8.450000000000002842, -2.700000000000002398, 3.000000000000000000 ) ) ;
#408 = FACE_OUTER_BOUND ( 'NONE', #1023, .T. ) ;
#409 = VECTOR ( 'NONE', #890, 1000.000000000000000 ) ;
#410 = CIRCLE ( 'NONE', #1033, 1.500000000000001332 ) ;
#411 = CARTESIAN_POINT ( 'NONE',  ( 11.99999999999999645, -9.500000000000001776, 3.000000000000000000 ) ) ;
#412 = VERTEX_POINT ( 'NONE', #611 ) ;
#413 = CARTESIAN_POINT ( 'NONE',  ( -15.00000000000000355, -9.500000000000001776, 3.000000000000000000 ) ) ;
#414 = PLANE ( 'NONE',  #341 ) ;
#415 = EDGE_CURVE ( 'NONE', #913, #450, #636, .T. ) ;
#416 = CARTESIAN_POINT ( 'NONE',  ( 14.99999999999999645, 12.50000000000000178, 3.000000000000000000 ) ) ;
#417 = SHAPE_DEFINITION_REPRESENTATION ( #215, #830 ) ;
#418 = VERTEX_POINT ( 'NONE', #713 ) ;
#419 = EDGE_CURVE ( 'NONE', #93, #189, #217, .T. ) ;
#420 = LINE ( 'NONE', #955, #671 ) ;
#421 = DIRECTION ( 'NONE',  ( -0.000000000000000000, 0.000000000000000000, 1.000000000000000000 ) ) ;
#422 = PLANE ( 'NONE',  #1009 ) ;
#423 = DIRECTION ( 'NONE',  ( -1.156482317317873500E-15, 1.000000000000000000, 0.000000000000000000 ) ) ;
#424 = EDGE_LOOP ( 'NONE', ( #389, #18, #364, #793 ) ) ;
#425 = CARTESIAN_POINT ( 'NONE',  ( -11.34999999999999964, 0.5500000000000103695, 3.000000000000000000 ) ) ;
#426 = CIRCLE ( 'NONE', #563, 2.999999999999999112 ) ;
#427 = CIRCLE ( 'NONE', #466, 2.999999999999999112 ) ;
#428 = AXIS2_PLACEMENT_3D ( 'NONE', #255, #684, #171 ) ;
#429 = DIRECTION ( 'NONE',  ( 1.000000000000000000, -0.000000000000000000, 0.000000000000000000 ) ) ;
#430 = VERTEX_POINT ( 'NONE', #127 ) ;
#431 = AXIS2_PLACEMENT_3D ( 'NONE', #385, #810, #550 ) ;
#432 = DIRECTION ( 'NONE',  ( 1.000000000000000000, 0.000000000000000000, 0.000000000000000000 ) ) ;
#433 = EDGE_CURVE ( 'NONE', #771, #562, #546, .T. ) ;
#434 = CARTESIAN_POINT ( 'NONE',  ( -8.450000000000002842, 0.000000000000000000, 0.000000000000000000 ) ) ;
#435 = LINE ( 'NONE', #502, #638 ) ;
#436 = ORIENTED_EDGE ( 'NONE', *, *, #925, .T. ) ;
#437 = ORIENTED_EDGE ( 'NONE', *, *, #766, .T. ) ;
#438 = DIRECTION ( 'NONE',  ( -1.000000000000000000, -1.445602896647338917E-16, 0.000000000000000000 ) ) ;
#439 = CARTESIAN_POINT ( 'NONE',  ( -12.00000000000000355, -12.50000000000000178, 3.000000000000000000 ) ) ;
#440 = DIRECTION ( 'NONE',  ( -2.168404344971008868E-16, -1.000000000000000000, -0.000000000000000000 ) ) ;
#441 = ORIENTED_EDGE ( 'NONE', *, *, #227, .F. ) ;
#442 = ORIENTED_EDGE ( 'NONE', *, *, #561, .F. ) ;
#443 = CARTESIAN_POINT ( 'NONE',  ( 6.549999999999997158, -4.549999999999999822, 0.000000000000000000 ) ) ;
#444 = VECTOR ( 'NONE', #400, 1000.000000000000000 ) ;
#445 = CARTESIAN_POINT ( 'NONE',  ( -12.84999999999999787, 0.5500000000000101474, 3.000000000000000000 ) ) ;
#446 = ORIENTED_EDGE ( 'NONE', *, *, #143, .F. ) ;
#447 = AXIS2_PLACEMENT_3D ( 'NONE', #1002, #1017, #260 ) ;
#448 = ADVANCED_FACE ( 'NONE', ( #704 ), #953, .F. ) ;
#449 = AXIS2_PLACEMENT_3D ( 'NONE', #292, #706, #1049 ) ;
#450 = VERTEX_POINT ( 'NONE', #808 ) ;
#451 = LINE ( 'NONE', #37, #870 ) ;
#452 = ORIENTED_EDGE ( 'NONE', *, *, #70, .F. ) ;
#453 = EDGE_CURVE ( 'NONE', #22, #371, #782, .T. ) ;
#454 = DIRECTION ( 'NONE',  ( 1.000000000000000000, 0.000000000000000000, 0.000000000000000000 ) ) ;
#455 = ORIENTED_EDGE ( 'NONE', *, *, #730, .T. ) ;
#456 = ADVANCED_FACE ( 'NONE', ( #553 ), #531, .F. ) ;
#457 = EDGE_CURVE ( 'NONE', #478, #322, #121, .T. ) ;
#458 = FACE_OUTER_BOUND ( 'NONE', #879, .T. ) ;
#459 = FACE_OUTER_BOUND ( 'NONE', #290, .T. ) ;
#460 = PLANE ( 'NONE',  #112 ) ;
#461 = ORIENTED_EDGE ( 'NONE', *, *, #491, .T. ) ;
#462 = LINE ( 'NONE', #57, #825 ) ;
#463 = DIRECTION ( 'NONE',  ( 0.000000000000000000, 1.000000000000000000, 0.000000000000000000 ) ) ;
#464 = CARTESIAN_POINT ( 'NONE',  ( 7.550000000000000711, -7.549999999999998046, 3.000000000000000000 ) ) ;
#465 = ORIENTED_EDGE ( 'NONE', *, *, #908, .F. ) ;
#466 = AXIS2_PLACEMENT_3D ( 'NONE', #167, #591, #6 ) ;
#467 = VECTOR ( 'NONE', #629, 1000.000000000000000 ) ;
#468 = DIRECTION ( 'NONE',  ( -1.000000000000000000, 0.000000000000000000, 0.000000000000000000 ) ) ;
#469 = CYLINDRICAL_SURFACE ( 'NONE', #958, 1.500000000000001332 ) ;
#470 = EDGE_CURVE ( 'NONE', #535, #482, #744, .T. ) ;
#471 = LINE ( 'NONE', #806, #822 ) ;
#472 = ORIENTED_EDGE ( 'NONE', *, *, #453, .T. ) ;
#473 = LINE ( 'NONE', #877, #67 ) ;
#474 = DIRECTION ( 'NONE',  ( -0.000000000000000000, -0.000000000000000000, -1.000000000000000000 ) ) ;
#475 = LINE ( 'NONE', #569, #803 ) ;
#476 = EDGE_LOOP ( 'NONE', ( #631, #818, #867, #593 ) ) ;
#477 = CARTESIAN_POINT ( 'NONE',  ( 7.550000000000000711, -7.549999999999998046, 5.000000000000000000 ) ) ;
#478 = VERTEX_POINT ( 'NONE', #997 ) ;
#479 = EDGE_CURVE ( 'NONE', #270, #68, #570, .T. ) ;
#480 = VECTOR ( 'NONE', #517, 1000.000000000000000 ) ;
#481 = VECTOR ( 'NONE', #306, 1000.000000000000000 ) ;
#482 = VERTEX_POINT ( 'NONE', #157 ) ;
#483 = ADVANCED_FACE ( 'NONE', ( #487 ), #834, .F. ) ;
#484 = CARTESIAN_POINT ( 'NONE',  ( -14.34999999999999787, 0.5500000000000101474, 0.000000000000000000 ) ) ;
#485 = ORIENTED_EDGE ( 'NONE', *, *, #106, .F. ) ;
#486 = DIRECTION ( 'NONE',  ( 0.000000000000000000, 0.000000000000000000, -1.000000000000000000 ) ) ;
#487 = FACE_OUTER_BOUND ( 'NONE', #916, .T. ) ;
#488 = VERTEX_POINT ( 'NONE', #681 ) ;
#489 = DIRECTION ( 'NONE',  ( -0.000000000000000000, -0.000000000000000000, -1.000000000000000000 ) ) ;
#490 = CARTESIAN_POINT ( 'NONE',  ( -2.550000000000003819, -4.549999999999999822, 3.000000000000000000 ) ) ;
#491 = EDGE_CURVE ( 'NONE', #771, #1011, #180, .T. ) ;
#492 = CIRCLE ( 'NONE', #650, 1.500000000000001332 ) ;
#493 = DIRECTION ( 'NONE',  ( 0.000000000000000000, -0.000000000000000000, 1.000000000000000000 ) ) ;
#494 = VECTOR ( 'NONE', #29, 1000.000000000000000 ) ;
#495 = EDGE_CURVE ( 'NONE', #535, #731, #790, .T. ) ;
#496 = EDGE_CURVE ( 'NONE', #265, #1040, #336, .T. ) ;
#497 = ORIENTED_EDGE ( 'NONE', *, *, #656, .F. ) ;
#498 = FILL_AREA_STYLE_COLOUR ( '', #235 ) ;
#499 = DIRECTION ( 'NONE',  ( -0.000000000000000000, -0.000000000000000000, -1.000000000000000000 ) ) ;
#500 = CARTESIAN_POINT ( 'NONE',  ( 10.54999999999999538, -7.549999999999994493, 3.000000000000000000 ) ) ;
#501 = FACE_OUTER_BOUND ( 'NONE', #231, .T. ) ;
#502 = CARTESIAN_POINT ( 'NONE',  ( 10.55000000000000249, 3.550000000000001155, 5.000000000000000000 ) ) ;
#503 = EDGE_LOOP ( 'NONE', ( #980, #247 ) ) ;
#504 = LINE ( 'NONE', #689, #712 ) ;
#505 = LINE ( 'NONE', #500, #378 ) ;
#506 = DIRECTION ( 'NONE',  ( -1.000000000000000000, -2.859434301060670737E-16, 0.000000000000000000 ) ) ;
#507 = ORIENTED_EDGE ( 'NONE', *, *, #646, .T. ) ;
#508 = ADVANCED_FACE ( 'NONE', ( #582 ), #875, .F. ) ;
#509 = DIRECTION ( 'NONE',  ( 0.000000000000000000, 0.000000000000000000, -1.000000000000000000 ) ) ;
#510 = CARTESIAN_POINT ( 'NONE',  ( 10.54999999999999538, 7.550000000000004263, 3.000000000000000000 ) ) ;
#511 = VECTOR ( 'NONE', #281, 1000.000000000000000 ) ;
#512 = DIRECTION ( 'NONE',  ( -1.000000000000000000, 0.000000000000000000, 0.000000000000000000 ) ) ;
#513 = ORIENTED_EDGE ( 'NONE', *, *, #14, .F. ) ;
#514 = ORIENTED_EDGE ( 'NONE', *, *, #874, .F. ) ;
#515 = LINE ( 'NONE', #339, #80 ) ;
#516 = DIRECTION ( 'NONE',  ( -0.000000000000000000, -0.000000000000000000, 1.000000000000000000 ) ) ;
#517 = DIRECTION ( 'NONE',  ( -0.000000000000000000, -0.000000000000000000, -1.000000000000000000 ) ) ;
#518 = VERTEX_POINT ( 'NONE', #717 ) ;
#519 = EDGE_LOOP ( 'NONE', ( #745, #198, #983, #38, #193, #775, #345, #1078 ) ) ;
#520 = DIRECTION ( 'NONE',  ( -1.000000000000000000, 0.000000000000000000, 0.000000000000000000 ) ) ;
#521 = CARTESIAN_POINT ( 'NONE',  ( 10.55000000000000249, 3.550000000000001155, 5.000000000000000000 ) ) ;
#522 = ADVANCED_FACE ( 'NONE', ( #804 ), #544, .F. ) ;
#523 = DIRECTION ( 'NONE',  ( -1.000000000000000000, -1.734723475976805517E-15, 0.000000000000000000 ) ) ;
#524 = VERTEX_POINT ( 'NONE', #878 ) ;
#525 = DIRECTION ( 'NONE',  ( 1.000000000000000000, 0.000000000000000000, 0.000000000000000000 ) ) ;
#526 = VECTOR ( 'NONE', #608, 1000.000000000000000 ) ;
#527 = VECTOR ( 'NONE', #499, 1000.000000000000000 ) ;
#528 = EDGE_CURVE ( 'NONE', #450, #128, #386, .T. ) ;
#529 = ORIENTED_EDGE ( 'NONE', *, *, #766, .F. ) ;
#530 = VECTOR ( 'NONE', #923, 1000.000000000000000 ) ;
#531 = PLANE ( 'NONE',  #921 ) ;
#532 = ORIENTED_EDGE ( 'NONE', *, *, #353, .F. ) ;
#533 = DIRECTION ( 'NONE',  ( 0.000000000000000000, 1.000000000000000000, 0.000000000000000000 ) ) ;
#534 = CARTESIAN_POINT ( 'NONE',  ( 0.000000000000000000, 0.000000000000000000, 3.000000000000000000 ) ) ;
#535 = VERTEX_POINT ( 'NONE', #965 ) ;
#536 = EDGE_LOOP ( 'NONE', ( #962, #857, #545, #304 ) ) ;
#537 = DIRECTION ( 'NONE',  ( -0.000000000000000000, -0.000000000000000000, -1.000000000000000000 ) ) ;
#538 = FACE_OUTER_BOUND ( 'NONE', #519, .T. ) ;
#539 = VERTEX_POINT ( 'NONE', #551 ) ;
#540 = DIRECTION ( 'NONE',  ( 0.000000000000000000, 0.000000000000000000, -1.000000000000000000 ) ) ;
#541 = VERTEX_POINT ( 'NONE', #58 ) ;
#542 = PLANE ( 'NONE',  #394 ) ;
#543 = EDGE_CURVE ( 'NONE', #203, #211, #137, .T. ) ;
#544 = CYLINDRICAL_SURFACE ( 'NONE', #342, 1.499999999999999556 ) ;
#545 = ORIENTED_EDGE ( 'NONE', *, *, #795, .F. ) ;
#546 = LINE ( 'NONE', #205, #28 ) ;
#547 = ORIENTED_EDGE ( 'NONE', *, *, #543, .F. ) ;
#548 = VECTOR ( 'NONE', #516, 1000.000000000000000 ) ;
#549 = VECTOR ( 'NONE', #832, 1000.000000000000000 ) ;
#550 = DIRECTION ( 'NONE',  ( -1.000000000000000000, 0.000000000000000000, 0.000000000000000000 ) ) ;
#551 = CARTESIAN_POINT ( 'NONE',  ( -15.00000000000000355, -9.500000000000001776, 0.000000000000000000 ) ) ;
#552 = CARTESIAN_POINT ( 'NONE',  ( -2.550000000000003819, 2.700000000000001066, 0.000000000000000000 ) ) ;
#553 = FACE_OUTER_BOUND ( 'NONE', #969, .T. ) ;
#554 = VERTEX_POINT ( 'NONE', #142 ) ;
#555 = CARTESIAN_POINT ( 'NONE',  ( 11.99999999999999645, -9.500000000000001776, 5.000000000000000000 ) ) ;
#556 = CARTESIAN_POINT ( 'NONE',  ( 6.550000000000000711, 7.550000000000000711, 3.000000000000000000 ) ) ;
#557 = ADVANCED_FACE ( 'NONE', ( #459 ), #375, .F. ) ;
#558 = CARTESIAN_POINT ( 'NONE',  ( 6.549999999999997158, 4.549999999999999822, 0.000000000000000000 ) ) ;
#559 = ORIENTED_EDGE ( 'NONE', *, *, #76, .T. ) ;
#560 = ADVANCED_FACE ( 'NONE', ( #54 ), #469, .F. ) ;
#561 = EDGE_CURVE ( 'NONE', #1048, #72, #130, .T. ) ;
#562 = VERTEX_POINT ( 'NONE', #398 ) ;
#563 = AXIS2_PLACEMENT_3D ( 'NONE', #372, #380, #984 ) ;
#564 = CIRCLE ( 'NONE', #323, 1.499999999999999556 ) ;
#565 = AXIS2_PLACEMENT_3D ( 'NONE', #797, #1001, #624 ) ;
#566 =( GEOMETRIC_REPRESENTATION_CONTEXT ( 3 ) GLOBAL_UNCERTAINTY_ASSIGNED_CONTEXT ( ( #747 ) ) GLOBAL_UNIT_ASSIGNED_CONTEXT ( ( #81, #1, #334 ) ) REPRESENTATION_CONTEXT ( 'NONE', 'WORKASPACE' ) );
#567 = EDGE_LOOP ( 'NONE', ( #55, #973, #619, #643 ) ) ;
#568 = LINE ( 'NONE', #413, #12 ) ;
#569 = CARTESIAN_POINT ( 'NONE',  ( 13.49999999999999822, -9.500000000000001776, 5.000000000000000000 ) ) ;
#570 = LINE ( 'NONE', #240, #396 ) ;
#571 = DIRECTION ( 'NONE',  ( 0.000000000000000000, 0.000000000000000000, 1.000000000000000000 ) ) ;
#572 = ORIENTED_EDGE ( 'NONE', *, *, #35, .F. ) ;
#573 = APPLICATION_CONTEXT ( 'automotive_design' ) ;
#574 = EDGE_CURVE ( 'NONE', #913, #554, #721, .T. ) ;
#575 = CARTESIAN_POINT ( 'NONE',  ( 14.99999999999999645, -12.49999999999999822, 3.000000000000000000 ) ) ;
#576 = ORIENTED_EDGE ( 'NONE', *, *, #846, .T. ) ;
#577 = AXIS2_PLACEMENT_3D ( 'NONE', #370, #1061, #303 ) ;
#578 = DIRECTION ( 'NONE',  ( -2.344220913482174614E-16, -1.000000000000000000, 0.000000000000000000 ) ) ;
#579 = DIRECTION ( 'NONE',  ( -1.000000000000000000, 0.000000000000000000, 0.000000000000000000 ) ) ;
#580 = LINE ( 'NONE', #85, #148 ) ;
#581 = VECTOR ( 'NONE', #53, 1000.000000000000000 ) ;
#582 = FACE_OUTER_BOUND ( 'NONE', #536, .T. ) ;
#583 = CARTESIAN_POINT ( 'NONE',  ( 7.550000000000000711, -3.549999999999998046, 3.000000000000000000 ) ) ;
#584 = ORIENTED_EDGE ( 'NONE', *, *, #1004, .T. ) ;
#585 = FACE_OUTER_BOUND ( 'NONE', #350, .T. ) ;
#586 = FACE_OUTER_BOUND ( 'NONE', #999, .T. ) ;
#587 = DIRECTION ( 'NONE',  ( -0.000000000000000000, -0.000000000000000000, -1.000000000000000000 ) ) ;
#588 = ADVANCED_FACE ( 'NONE', ( #1045, #707, #538, #816, #726, #957 ), #202, .T. ) ;
#589 = ORIENTED_EDGE ( 'NONE', *, *, #169, .F. ) ;
#590 = LINE ( 'NONE', #356, #184 ) ;
#591 = DIRECTION ( 'NONE',  ( -0.000000000000000000, 0.000000000000000000, -1.000000000000000000 ) ) ;
#592 = DIRECTION ( 'NONE',  ( 0.000000000000000000, 0.000000000000000000, 1.000000000000000000 ) ) ;
#593 = ORIENTED_EDGE ( 'NONE', *, *, #817, .T. ) ;
#594 = EDGE_CURVE ( 'NONE', #920, #637, #1070, .T. ) ;
#595 = VERTEX_POINT ( 'NONE', #716 ) ;
#596 = DIRECTION ( 'NONE',  ( 0.000000000000000000, 0.000000000000000000, -1.000000000000000000 ) ) ;
#597 = DIRECTION ( 'NONE',  ( -1.000000000000000000, -1.084202172485505815E-15, 0.000000000000000000 ) ) ;
#598 = AXIS2_PLACEMENT_3D ( 'NONE', #886, #126, #302 ) ;
#599 = PRESENTATION_LAYER_ASSIGNMENT (  '', '', ( #94 ) ) ;
#600 = CARTESIAN_POINT ( 'NONE',  ( -8.450000000000001066, 2.700000000000000178, 0.000000000000000000 ) ) ;
#601 = EDGE_LOOP ( 'NONE', ( #887, #497, #452, #665 ) ) ;
#602 = ORIENTED_EDGE ( 'NONE', *, *, #1060, .T. ) ;
#603 = CARTESIAN_POINT ( 'NONE',  ( -10.49999999999999467, -9.500000000000001776, 5.000000000000000000 ) ) ;
#604 = DIRECTION ( 'NONE',  ( -1.000000000000000000, 0.000000000000000000, 0.000000000000000000 ) ) ;
#605 = ORIENTED_EDGE ( 'NONE', *, *, #680, .F. ) ;
#606 = ORIENTED_EDGE ( 'NONE', *, *, #415, .T. ) ;
#607 = EDGE_CURVE ( 'NONE', #266, #1048, #1064, .T. ) ;
#608 = DIRECTION ( 'NONE',  ( 0.000000000000000000, -1.000000000000000000, 0.000000000000000000 ) ) ;
#609 = EDGE_CURVE ( 'NONE', #418, #478, #897, .T. ) ;
#610 = ORIENTED_EDGE ( 'NONE', *, *, #106, .T. ) ;
#611 = CARTESIAN_POINT ( 'NONE',  ( 6.550000000000000711, 7.550000000000000711, 3.000000000000000000 ) ) ;
#612 = ORIENTED_EDGE ( 'NONE', *, *, #874, .T. ) ;
#613 = CARTESIAN_POINT ( 'NONE',  ( 6.549999999999997158, 0.000000000000000000, 3.000000000000000000 ) ) ;
#614 = CARTESIAN_POINT ( 'NONE',  ( 7.550000000000000711, -7.549999999999998046, 3.000000000000000000 ) ) ;
#615 = ORIENTED_EDGE ( 'NONE', *, *, #743, .F. ) ;
#616 = CIRCLE ( 'NONE', #165, 2.999999999999999112 ) ;
#617 = VECTOR ( 'NONE', #212, 1000.000000000000000 ) ;
#618 = CARTESIAN_POINT ( 'NONE',  ( -11.99999999999999645, -9.500000000000001776, 3.000000000000000000 ) ) ;
#619 = ORIENTED_EDGE ( 'NONE', *, *, #479, .F. ) ;
#620 = DIRECTION ( 'NONE',  ( 0.000000000000000000, 0.000000000000000000, -1.000000000000000000 ) ) ;
#621 = CARTESIAN_POINT ( 'NONE',  ( 6.549999999999997158, -4.549999999999999822, 0.000000000000000000 ) ) ;
#622 = DIRECTION ( 'NONE',  ( 1.000000000000000000, 0.000000000000000000, 0.000000000000000000 ) ) ;
#623 = PRODUCT ( '\X2\6fc051496d4b8ddd4f20611f5668\X0\20m\X2\4e0a56fa5b9a\X0\_\X2\53557247\X0\', '\X2\6fc051496d4b8ddd4f20611f5668\X0\20m\X2\4e0a56fa5b9a\X0\_\X2\53557247\X0\', '', ( #659 ) ) ;
#624 = DIRECTION ( 'NONE',  ( 1.000000000000000000, 0.000000000000000000, -0.000000000000000000 ) ) ;
#625 = EDGE_CURVE ( 'NONE', #317, #1048, #802, .T. ) ;
#626 = CARTESIAN_POINT ( 'NONE',  ( -14.34999999999999787, 0.5500000000000101474, 8.000000000000000000 ) ) ;
#627 = ORIENTED_EDGE ( 'NONE', *, *, #273, .T. ) ;
#628 = CARTESIAN_POINT ( 'NONE',  ( -2.550000000000003375, -2.700000000000002398, 0.000000000000000000 ) ) ;
#629 = DIRECTION ( 'NONE',  ( 0.000000000000000000, 1.000000000000000000, 0.000000000000000000 ) ) ;
#630 = ORIENTED_EDGE ( 'NONE', *, *, #273, .F. ) ;
#631 = ORIENTED_EDGE ( 'NONE', *, *, #433, .T. ) ;
#632 = CARTESIAN_POINT ( 'NONE',  ( 6.550000000000000711, 3.550000000000000711, 3.000000000000000000 ) ) ;
#633 = CARTESIAN_POINT ( 'NONE',  ( -2.550000000000003375, -2.700000000000002398, 3.000000000000000000 ) ) ;
#634 = VERTEX_POINT ( 'NONE', #301 ) ;
#635 = AXIS2_PLACEMENT_3D ( 'NONE', #223, #1055, #365 ) ;
#636 = LINE ( 'NONE', #982, #27 ) ;
#637 = VERTEX_POINT ( 'NONE', #633 ) ;
#638 = VECTOR ( 'NONE', #686, 1000.000000000000000 ) ;
#639 = VECTOR ( 'NONE', #578, 1000.000000000000000 ) ;
#640 = CARTESIAN_POINT ( 'NONE',  ( 10.54999999999999538, -7.549999999999994493, 3.000000000000000000 ) ) ;
#641 = EDGE_CURVE ( 'NONE', #482, #785, #391, .T. ) ;
#642 = DIRECTION ( 'NONE',  ( -1.000000000000000000, -1.156482317317871478E-16, 0.000000000000000000 ) ) ;
#643 = ORIENTED_EDGE ( 'NONE', *, *, #680, .T. ) ;
#644 = CARTESIAN_POINT ( 'NONE',  ( -2.550000000000003375, -2.700000000000002398, 0.000000000000000000 ) ) ;
#645 = EDGE_CURVE ( 'NONE', #412, #322, #985, .T. ) ;
#646 = EDGE_CURVE ( 'NONE', #285, #412, #971, .T. ) ;
#647 = ORIENTED_EDGE ( 'NONE', *, *, #295, .T. ) ;
#648 = LINE ( 'NONE', #575, #1072 ) ;
#649 = VERTEX_POINT ( 'NONE', #243 ) ;
#650 = AXIS2_PLACEMENT_3D ( 'NONE', #942, #101, #15 ) ;
#651 = CARTESIAN_POINT ( 'NONE',  ( -12.00000000000000355, 12.49999999999999822, 3.000000000000000000 ) ) ;
#652 = EDGE_LOOP ( 'NONE', ( #309, #1067, #209, #655 ) ) ;
#653 = DIRECTION ( 'NONE',  ( 0.000000000000000000, 0.000000000000000000, -1.000000000000000000 ) ) ;
#654 = PLANE ( 'NONE',  #1069 ) ;
#655 = ORIENTED_EDGE ( 'NONE', *, *, #961, .F. ) ;
#656 = EDGE_CURVE ( 'NONE', #539, #541, #568, .T. ) ;
#657 = CARTESIAN_POINT ( 'NONE',  ( 14.99999999999999645, -12.49999999999999822, 0.000000000000000000 ) ) ;
#658 = PLANE ( 'NONE',  #565 ) ;
#659 = PRODUCT_CONTEXT ( 'NONE', #573, 'mechanical' ) ;
#660 = ORIENTED_EDGE ( 'NONE', *, *, #374, .T. ) ;
#661 = MANIFOLD_SOLID_BREP ( '\X2\52079664\X0\-\X2\62c94f38\X0\3', #91 ) ;
#662 = PRESENTATION_STYLE_ASSIGNMENT (( #230 ) ) ;
#663 = LINE ( 'NONE', #335, #548 ) ;
#664 = CARTESIAN_POINT ( 'NONE',  ( -2.550000000000003375, -2.700000000000002398, 0.000000000000000000 ) ) ;
#665 = ORIENTED_EDGE ( 'NONE', *, *, #496, .F. ) ;
#666 = CIRCLE ( 'NONE', #598, 2.999999999999999112 ) ;
#667 = DIRECTION ( 'NONE',  ( 1.000000000000000000, 0.000000000000000000, 0.000000000000000000 ) ) ;
#668 = AXIS2_PLACEMENT_3D ( 'NONE', #89, #667, #100 ) ;
#669 = EDGE_CURVE ( 'NONE', #265, #79, #648, .T. ) ;
#670 = CARTESIAN_POINT ( 'NONE',  ( 11.99999999999999645, -9.499999999999998224, 0.000000000000000000 ) ) ;
#671 = VECTOR ( 'NONE', #884, 1000.000000000000000 ) ;
#672 = CARTESIAN_POINT ( 'NONE',  ( -12.00000000000000355, -12.50000000000000178, 3.000000000000000000 ) ) ;
#673 =( LENGTH_UNIT ( ) NAMED_UNIT ( * ) SI_UNIT ( .MILLI., .METRE. ) );
#674 = PLANE ( 'NONE',  #1085 ) ;
#675 = ORIENTED_EDGE ( 'NONE', *, *, #840, .F. ) ;
#676 = DIRECTION ( 'NONE',  ( -1.000000000000000000, 0.000000000000000000, 0.000000000000000000 ) ) ;
#677 = FACE_OUTER_BOUND ( 'NONE', #694, .T. ) ;
#678 = EDGE_CURVE ( 'NONE', #128, #554, #155, .T. ) ;
#679 = EDGE_CURVE ( 'NONE', #920, #488, #84, .T. ) ;
#680 = EDGE_CURVE ( 'NONE', #270, #524, #324, .T. ) ;
#681 = CARTESIAN_POINT ( 'NONE',  ( -2.550000000000003819, -4.549999999999999822, 0.000000000000000000 ) ) ;
#682 = CARTESIAN_POINT ( 'NONE',  ( 10.49999999999999467, -9.500000000000001776, 0.000000000000000000 ) ) ;
#683 = ORIENTED_EDGE ( 'NONE', *, *, #453, .F. ) ;
#684 = DIRECTION ( 'NONE',  ( -1.156482317317871478E-16, 1.000000000000000000, 0.000000000000000000 ) ) ;
#685 = DIRECTION ( 'NONE',  ( -1.000000000000000000, 0.000000000000000000, -0.000000000000000000 ) ) ;
#686 = DIRECTION ( 'NONE',  ( 1.000000000000000000, 1.084202172485503941E-16, -0.000000000000000000 ) ) ;
#687 = ORIENTED_EDGE ( 'NONE', *, *, #846, .F. ) ;
#688 = ORIENTED_EDGE ( 'NONE', *, *, #374, .F. ) ;
#689 = CARTESIAN_POINT ( 'NONE',  ( 10.54999999999999538, 7.550000000000004263, 3.000000000000000000 ) ) ;
#690 = AXIS2_PLACEMENT_3D ( 'NONE', #798, #44, #813 ) ;
#691 = VECTOR ( 'NONE', #869, 1000.000000000000000 ) ;
#692 = DIRECTION ( 'NONE',  ( -0.000000000000000000, -0.000000000000000000, -1.000000000000000000 ) ) ;
#693 = ORIENTED_EDGE ( 'NONE', *, *, #860, .T. ) ;
#694 = EDGE_LOOP ( 'NONE', ( #1046, #384, #83, #164 ) ) ;
#695 = ADVANCED_FACE ( 'NONE', ( #995, #166, #917, #71, #160 ), #1079, .F. ) ;
#696 = LINE ( 'NONE', #1037, #526 ) ;
#697 = DIRECTION ( 'NONE',  ( 0.000000000000000000, -0.000000000000000000, 1.000000000000000000 ) ) ;
#698 = VERTEX_POINT ( 'NONE', #484 ) ;
#699 = DIRECTION ( 'NONE',  ( 1.000000000000000000, 0.000000000000000000, 0.000000000000000000 ) ) ;
#700 = ORIENTED_EDGE ( 'NONE', *, *, #709, .F. ) ;
#701 = FACE_OUTER_BOUND ( 'NONE', #652, .T. ) ;
#702 = CARTESIAN_POINT ( 'NONE',  ( 6.549999999999997158, 4.549999999999999822, 3.000000000000000000 ) ) ;
#703 = ORIENTED_EDGE ( 'NONE', *, *, #609, .T. ) ;
#704 = FACE_OUTER_BOUND ( 'NONE', #424, .T. ) ;
#705 = ORIENTED_EDGE ( 'NONE', *, *, #678, .F. ) ;
#706 = DIRECTION ( 'NONE',  ( 0.000000000000000000, -0.000000000000000000, 1.000000000000000000 ) ) ;
#707 = FACE_BOUND ( 'NONE', #503, .T. ) ;
#708 = VECTOR ( 'NONE', #222, 1000.000000000000000 ) ;
#709 = EDGE_CURVE ( 'NONE', #371, #649, #910, .T. ) ;
#710 = AXIS2_PLACEMENT_3D ( 'NONE', #670, #24, #919 ) ;
#711 = ORIENTED_EDGE ( 'NONE', *, *, #419, .F. ) ;
#712 = VECTOR ( 'NONE', #864, 1000.000000000000000 ) ;
#713 = CARTESIAN_POINT ( 'NONE',  ( 6.549999999999997158, -4.549999999999999822, 0.000000000000000000 ) ) ;
#714 = ORIENTED_EDGE ( 'NONE', *, *, #918, .F. ) ;
#715 = CARTESIAN_POINT ( 'NONE',  ( -12.00000000000000355, -12.50000000000000178, 0.000000000000000000 ) ) ;
#716 = CARTESIAN_POINT ( 'NONE',  ( 10.55000000000000249, 3.550000000000001155, 3.000000000000000000 ) ) ;
#717 = CARTESIAN_POINT ( 'NONE',  ( 6.550000000000000711, 3.550000000000000711, 5.000000000000000000 ) ) ;
#718 = EDGE_LOOP ( 'NONE', ( #32, #705, #332, #229 ) ) ;
#719 = EDGE_LOOP ( 'NONE', ( #820, #98 ) ) ;
#720 = DIRECTION ( 'NONE',  ( -0.000000000000000000, -0.000000000000000000, -1.000000000000000000 ) ) ;
#721 = LINE ( 'NONE', #226, #922 ) ;
#722 = ORIENTED_EDGE ( 'NONE', *, *, #992, .T. ) ;
#723 = EDGE_LOOP ( 'NONE', ( #73, #43, #954, #461 ) ) ;
#724 = EDGE_CURVE ( 'NONE', #731, #52, #616, .T. ) ;
#725 = CARTESIAN_POINT ( 'NONE',  ( -8.450000000000001066, 2.700000000000000178, 3.000000000000000000 ) ) ;
#726 = FACE_BOUND ( 'NONE', #34, .T. ) ;
#727 = PRODUCT_DEFINITION_FORMATION_WITH_SPECIFIED_SOURCE ( '浠', '', #623, .NOT_KNOWN. ) ;
#728 = ORIENTED_EDGE ( 'NONE', *, *, #308, .F. ) ;
#729 = CIRCLE ( 'NONE', #11, 1.499999999999999556 ) ;
#730 = EDGE_CURVE ( 'NONE', #115, #79, #742, .T. ) ;
#731 = VERTEX_POINT ( 'NONE', #651 ) ;
#732 = VECTOR ( 'NONE', #987, 1000.000000000000000 ) ;
#733 = VECTOR ( 'NONE', #533, 1000.000000000000000 ) ;
#734 = DIRECTION ( 'NONE',  ( 1.084202172485505815E-15, -1.000000000000000000, 0.000000000000000000 ) ) ;
#735 = EDGE_CURVE ( 'NONE', #406, #637, #238, .T. ) ;
#736 = CARTESIAN_POINT ( 'NONE',  ( 14.99999999999999645, 9.500000000000000000, 3.000000000000000000 ) ) ;
#737 = ORIENTED_EDGE ( 'NONE', *, *, #977, .F. ) ;
#738 = PRODUCT_DEFINITION_CONTEXT ( 'detailed design', #849, 'design' ) ;
#739 = CARTESIAN_POINT ( 'NONE',  ( 6.550000000000000711, 7.550000000000000711, 5.000000000000000000 ) ) ;
#740 = VERTEX_POINT ( 'NONE', #330 ) ;
#741 = CARTESIAN_POINT ( 'NONE',  ( 10.55000000000000249, -3.549999999999997602, 5.000000000000000000 ) ) ;
#742 = LINE ( 'NONE', #1084, #379 ) ;
#743 = EDGE_CURVE ( 'NONE', #1040, #115, #838, .T. ) ;
#744 = LINE ( 'NONE', #989, #1071 ) ;
#745 = ORIENTED_EDGE ( 'NONE', *, *, #495, .T. ) ;
#746 = AXIS2_PLACEMENT_3D ( 'NONE', #1034, #587, #1021 ) ;
#747 = UNCERTAINTY_MEASURE_WITH_UNIT (LENGTH_MEASURE( 1.000000000000000082E-05 ), #81, 'distance_accuracy_value', 'NONE');
#748 = VECTOR ( 'NONE', #252, 1000.000000000000000 ) ;
#749 = DIRECTION ( 'NONE',  ( 1.000000000000000000, 0.000000000000000000, 0.000000000000000000 ) ) ;
#750 = CARTESIAN_POINT ( 'NONE',  ( -15.00000000000000355, 9.500000000000000000, 3.000000000000000000 ) ) ;
#751 = ORIENTED_EDGE ( 'NONE', *, *, #1091, .T. ) ;
#752 = CARTESIAN_POINT ( 'NONE',  ( 10.54999999999999538, 7.550000000000004263, 5.000000000000000000 ) ) ;
#753 = DIRECTION ( 'NONE',  ( -1.000000000000000000, -1.156482317317871478E-16, 0.000000000000000000 ) ) ;
#754 = APPLICATION_PROTOCOL_DEFINITION ( 'draft international standard', 'automotive_design', 1998, #849 ) ;
#755 = VERTEX_POINT ( 'NONE', #752 ) ;
#756 = EDGE_CURVE ( 'NONE', #649, #278, #410, .T. ) ;
#757 = CARTESIAN_POINT ( 'NONE',  ( -11.99999999999999645, -9.500000000000001776, 0.000000000000000000 ) ) ;
#758 = CARTESIAN_POINT ( 'NONE',  ( 10.54999999999999538, -7.549999999999994493, 5.000000000000000000 ) ) ;
#759 = CARTESIAN_POINT ( 'NONE',  ( -12.84999999999999787, 0.5500000000000101474, 8.000000000000000000 ) ) ;
#760 = DIRECTION ( 'NONE',  ( -0.000000000000000000, 0.000000000000000000, -1.000000000000000000 ) ) ;
#761 = DIRECTION ( 'NONE',  ( -1.000000000000000000, -1.156482317317873500E-15, 0.000000000000000000 ) ) ;
#762 = ORIENTED_EDGE ( 'NONE', *, *, #1006, .F. ) ;
#763 = ADVANCED_FACE ( 'NONE', ( #855 ), #940, .T. ) ;
#764 = AXIS2_PLACEMENT_3D ( 'NONE', #935, #181, #604 ) ;
#765 = ADVANCED_FACE ( 'NONE', ( #781 ), #95, .F. ) ;
#766 = EDGE_CURVE ( 'NONE', #371, #22, #824, .T. ) ;
#767 = DIRECTION ( 'NONE',  ( 0.000000000000000000, 0.000000000000000000, -1.000000000000000000 ) ) ;
#768 = DIRECTION ( 'NONE',  ( -1.000000000000000000, 0.000000000000000000, 0.000000000000000000 ) ) ;
#769 = CIRCLE ( 'NONE', #197, 1.500000000000001332 ) ;
#770 = DIRECTION ( 'NONE',  ( -0.000000000000000000, -0.000000000000000000, -1.000000000000000000 ) ) ;
#771 = VERTEX_POINT ( 'NONE', #1014 ) ;
#772 = LINE ( 'NONE', #351, #994 ) ;
#773 = CARTESIAN_POINT ( 'NONE',  ( 7.550000000000000711, -3.549999999999998046, 5.000000000000000000 ) ) ;
#774 = ORIENTED_EDGE ( 'NONE', *, *, #756, .F. ) ;
#775 = ORIENTED_EDGE ( 'NONE', *, *, #321, .T. ) ;
#776 = CARTESIAN_POINT ( 'NONE',  ( -12.00000000000000355, 12.49999999999999822, 0.000000000000000000 ) ) ;
#777 = FACE_OUTER_BOUND ( 'NONE', #868, .T. ) ;
#778 = EDGE_CURVE ( 'NONE', #337, #755, #772, .T. ) ;
#779 = ORIENTED_EDGE ( 'NONE', *, *, #388, .T. ) ;
#780 = ORIENTED_EDGE ( 'NONE', *, *, #819, .T. ) ;
#781 = FACE_OUTER_BOUND ( 'NONE', #109, .T. ) ;
#782 = CIRCLE ( 'NONE', #312, 1.500000000000001332 ) ;
#783 = VECTOR ( 'NONE', #811, 1000.000000000000000 ) ;
#784 = DIRECTION ( 'NONE',  ( 1.000000000000000000, 0.000000000000000000, 0.000000000000000000 ) ) ;
#785 = VERTEX_POINT ( 'NONE', #776 ) ;
#786 = LINE ( 'NONE', #1047, #251 ) ;
#787 = ORIENTED_EDGE ( 'NONE', *, *, #191, .T. ) ;
#788 = CARTESIAN_POINT ( 'NONE',  ( -2.550000000000003819, 2.700000000000001066, 3.000000000000000000 ) ) ;
#789 = DIRECTION ( 'NONE',  ( 1.000000000000000000, 0.000000000000000000, 0.000000000000000000 ) ) ;
#790 = LINE ( 'NONE', #416, #49 ) ;
#791 = VERTEX_POINT ( 'NONE', #179 ) ;
#792 = DIRECTION ( 'NONE',  ( 0.000000000000000000, -1.000000000000000000, 0.000000000000000000 ) ) ;
#793 = ORIENTED_EDGE ( 'NONE', *, *, #918, .T. ) ;
#794 = DIRECTION ( 'NONE',  ( -0.000000000000000000, -0.000000000000000000, 1.000000000000000000 ) ) ;
#795 = EDGE_CURVE ( 'NONE', #562, #266, #515, .T. ) ;
#796 = DIRECTION ( 'NONE',  ( 1.000000000000000000, -2.168404344971008868E-16, 0.000000000000000000 ) ) ;
#797 = CARTESIAN_POINT ( 'NONE',  ( 0.000000000000000000, 0.000000000000000000, 5.000000000000000000 ) ) ;
#798 = CARTESIAN_POINT ( 'NONE',  ( -12.84999999999999787, 0.5500000000000101474, 3.000000000000000000 ) ) ;
#799 = ORIENTED_EDGE ( 'NONE', *, *, #709, .T. ) ;
#800 = DIRECTION ( 'NONE',  ( -1.000000000000000000, 0.000000000000000000, -0.000000000000000000 ) ) ;
#801 = ADVANCED_FACE ( 'NONE', ( #23 ), #928, .F. ) ;
#802 = LINE ( 'NONE', #1058, #221 ) ;
#803 = VECTOR ( 'NONE', #156, 1000.000000000000000 ) ;
#804 = FACE_OUTER_BOUND ( 'NONE', #176, .T. ) ;
#805 = VECTOR ( 'NONE', #770, 1000.000000000000000 ) ;
#806 = CARTESIAN_POINT ( 'NONE',  ( -2.550000000000003819, 2.700000000000001066, 0.000000000000000000 ) ) ;
#807 = CIRCLE ( 'NONE', #941, 1.499999999999999556 ) ;
#808 = CARTESIAN_POINT ( 'NONE',  ( 14.99999999999999645, -9.499999999999998224, 0.000000000000000000 ) ) ;
#809 = ORIENTED_EDGE ( 'NONE', *, *, #679, .F. ) ;
#810 = DIRECTION ( 'NONE',  ( -0.000000000000000000, -0.000000000000000000, -1.000000000000000000 ) ) ;
#811 = DIRECTION ( 'NONE',  ( -2.168404344971008868E-16, -1.000000000000000000, -0.000000000000000000 ) ) ;
#812 = FACE_OUTER_BOUND ( 'NONE', #476, .T. ) ;
#813 = DIRECTION ( 'NONE',  ( 1.000000000000000000, 0.000000000000000000, 0.000000000000000000 ) ) ;
#814 = VERTEX_POINT ( 'NONE', #425 ) ;
#815 = LINE ( 'NONE', #114, #150 ) ;
#816 = FACE_BOUND ( 'NONE', #236, .T. ) ;
#817 = EDGE_CURVE ( 'NONE', #1075, #771, #590, .T. ) ;
#818 = ORIENTED_EDGE ( 'NONE', *, *, #795, .T. ) ;
#819 = EDGE_CURVE ( 'NONE', #104, #412, #504, .T. ) ;
#820 = ORIENTED_EDGE ( 'NONE', *, *, #237, .F. ) ;
#821 = CARTESIAN_POINT ( 'NONE',  ( 14.99999999999999645, 12.50000000000000178, 0.000000000000000000 ) ) ;
#822 = VECTOR ( 'NONE', #383, 1000.000000000000000 ) ;
#823 = ORIENTED_EDGE ( 'NONE', *, *, #479, .T. ) ;
#824 = CIRCLE ( 'NONE', #907, 1.500000000000001332 ) ;
#825 = VECTOR ( 'NONE', #720, 1000.000000000000000 ) ;
#826 = FILL_AREA_STYLE ('',( #498 ) ) ;
#827 = ORIENTED_EDGE ( 'NONE', *, *, #925, .F. ) ;
#828 = ADVANCED_FACE ( 'NONE', ( #585 ), #1025, .T. ) ;
#829 = SURFACE_SIDE_STYLE ('',( #147 ) ) ;
#830 = ADVANCED_BREP_SHAPE_REPRESENTATION ( '\X2\6fc051496d4b8ddd4f20611f5668\X0\20m\X2\4e0a56fa5b9a\X0\_\X2\53557247\X0\', ( #661, #146 ), #959 ) ;
#831 = ORIENTED_EDGE ( 'NONE', *, *, #880, .T. ) ;
#832 = DIRECTION ( 'NONE',  ( -0.000000000000000000, -0.000000000000000000, 1.000000000000000000 ) ) ;
#833 = DIRECTION ( 'NONE',  ( 0.000000000000000000, 0.000000000000000000, -1.000000000000000000 ) ) ;
#834 = PLANE ( 'NONE',  #447 ) ;
#835 = ORIENTED_EDGE ( 'NONE', *, *, #656, .T. ) ;
#836 = AXIS2_PLACEMENT_3D ( 'NONE', #758, #934, #929 ) ;
#837 = VECTOR ( 'NONE', #125, 1000.000000000000000 ) ;
#838 = LINE ( 'NONE', #657, #893 ) ;
#839 = CARTESIAN_POINT ( 'NONE',  ( -2.550000000000003819, 4.549999999999998046, 0.000000000000000000 ) ) ;
#840 = EDGE_CURVE ( 'NONE', #430, #698, #807, .T. ) ;
#841 = ORIENTED_EDGE ( 'NONE', *, *, #470, .T. ) ;
#842 = CARTESIAN_POINT ( 'NONE',  ( 14.99999999999999645, 9.500000000000000000, 0.000000000000000000 ) ) ;
#843 = DIRECTION ( 'NONE',  ( -1.000000000000000000, 0.000000000000000000, 0.000000000000000000 ) ) ;
#844 =( NAMED_UNIT ( * ) SI_UNIT ( $, .STERADIAN. ) SOLID_ANGLE_UNIT ( ) );
#845 = ORIENTED_EDGE ( 'NONE', *, *, #730, .F. ) ;
#846 = EDGE_CURVE ( 'NONE', #814, #430, #1032, .T. ) ;
#847 = EDGE_CURVE ( 'NONE', #22, #278, #1020, .T. ) ;
#848 = CARTESIAN_POINT ( 'NONE',  ( -12.00000000000000355, 9.500000000000000000, 3.000000000000000000 ) ) ;
#849 = APPLICATION_CONTEXT ( 'automotive_design' ) ;
#850 = DIRECTION ( 'NONE',  ( 1.000000000000000000, 0.000000000000000000, 0.000000000000000000 ) ) ;
#851 = LINE ( 'NONE', #168, #480 ) ;
#852 = ORIENTED_EDGE ( 'NONE', *, *, #191, .F. ) ;
#853 = AXIS2_PLACEMENT_3D ( 'NONE', #555, #537, #468 ) ;
#854 = CIRCLE ( 'NONE', #939, 1.500000000000001332 ) ;
#855 = FACE_OUTER_BOUND ( 'NONE', #601, .T. ) ;
#856 = CYLINDRICAL_SURFACE ( 'NONE', #746, 1.500000000000001332 ) ;
#857 = ORIENTED_EDGE ( 'NONE', *, *, #607, .F. ) ;
#858 = ORIENTED_EDGE ( 'NONE', *, *, #574, .F. ) ;
#859 = DIRECTION ( 'NONE',  ( 1.000000000000000000, 1.156482317317873500E-15, -0.000000000000000000 ) ) ;
#860 = EDGE_CURVE ( 'NONE', #68, #203, #263, .T. ) ;
#861 = CARTESIAN_POINT ( 'NONE',  ( 13.49999999999999822, -9.500000000000001776, 0.000000000000000000 ) ) ;
#862 = ORIENTED_EDGE ( 'NONE', *, *, #679, .T. ) ;
#863 = ORIENTED_EDGE ( 'NONE', *, *, #646, .F. ) ;
#864 = DIRECTION ( 'NONE',  ( -1.000000000000000000, -1.084202172485505815E-15, 0.000000000000000000 ) ) ;
#865 = DIRECTION ( 'NONE',  ( 1.000000000000000000, 0.000000000000000000, 0.000000000000000000 ) ) ;
#866 = DIRECTION ( 'NONE',  ( 1.734723475976805517E-15, -1.000000000000000000, 0.000000000000000000 ) ) ;
#867 = ORIENTED_EDGE ( 'NONE', *, *, #169, .T. ) ;
#868 = EDGE_LOOP ( 'NONE', ( #206, #1056, #858, #606 ) ) ;
#869 = DIRECTION ( 'NONE',  ( -0.000000000000000000, -0.000000000000000000, -1.000000000000000000 ) ) ;
#870 = VECTOR ( 'NONE', #300, 1000.000000000000000 ) ;
#871 = AXIS2_PLACEMENT_3D ( 'NONE', #131, #275, #865 ) ;
#872 = AXIS2_PLACEMENT_3D ( 'NONE', #403, #320, #74 ) ;
#873 = ORIENTED_EDGE ( 'NONE', *, *, #296, .T. ) ;
#874 = EDGE_CURVE ( 'NONE', #418, #189, #105, .T. ) ;
#875 = PLANE ( 'NONE',  #163 ) ;
#876 = DIRECTION ( 'NONE',  ( -0.000000000000000000, -0.000000000000000000, -1.000000000000000000 ) ) ;
#877 = CARTESIAN_POINT ( 'NONE',  ( 10.55000000000000249, 3.550000000000001155, 3.000000000000000000 ) ) ;
#878 = CARTESIAN_POINT ( 'NONE',  ( -2.550000000000003819, 4.549999999999998046, 3.000000000000000000 ) ) ;
#879 = EDGE_LOOP ( 'NONE', ( #262, #242, #831, #218 ) ) ;
#880 = EDGE_CURVE ( 'NONE', #285, #518, #696, .T. ) ;
#881 = DIRECTION ( 'NONE',  ( 1.734723475976808475E-15, 1.000000000000000000, 0.000000000000000000 ) ) ;
#882 = ORIENTED_EDGE ( 'NONE', *, *, #938, .T. ) ;
#883 = EDGE_CURVE ( 'NONE', #791, #151, #1074, .T. ) ;
#884 = DIRECTION ( 'NONE',  ( -0.000000000000000000, -0.000000000000000000, -1.000000000000000000 ) ) ;
#885 = DIRECTION ( 'NONE',  ( -1.000000000000000000, 0.000000000000000000, 0.000000000000000000 ) ) ;
#886 = CARTESIAN_POINT ( 'NONE',  ( -12.00000000000000355, -9.500000000000001776, 0.000000000000000000 ) ) ;
#887 = ORIENTED_EDGE ( 'NONE', *, *, #1022, .F. ) ;
#888 = DIRECTION ( 'NONE',  ( -1.000000000000000000, 0.000000000000000000, -0.000000000000000000 ) ) ;
#889 = CARTESIAN_POINT ( 'NONE',  ( 14.99999999999999645, -12.49999999999999822, 0.000000000000000000 ) ) ;
#890 = DIRECTION ( 'NONE',  ( 1.000000000000000000, 1.156482317317873500E-15, -0.000000000000000000 ) ) ;
#891 = VECTOR ( 'NONE', #622, 1000.000000000000000 ) ;
#892 = CARTESIAN_POINT ( 'NONE',  ( -12.84999999999999787, 0.5500000000000101474, 0.000000000000000000 ) ) ;
#893 = VECTOR ( 'NONE', #1000, 1000.000000000000000 ) ;
#894 = DIRECTION ( 'NONE',  ( 0.000000000000000000, -0.000000000000000000, 1.000000000000000000 ) ) ;
#895 = ORIENTED_EDGE ( 'NONE', *, *, #154, .F. ) ;
#896 = CARTESIAN_POINT ( 'NONE',  ( -15.00000000000000355, -12.50000000000000178, 0.000000000000000000 ) ) ;
#897 = LINE ( 'NONE', #621, #113 ) ;
#898 = EDGE_CURVE ( 'NONE', #337, #595, #420, .T. ) ;
#899 = PLANE ( 'NONE',  #836 ) ;
#900 = ORIENTED_EDGE ( 'NONE', *, *, #321, .F. ) ;
#901 = DIRECTION ( 'NONE',  ( 0.000000000000000000, -1.000000000000000000, 0.000000000000000000 ) ) ;
#902 = ORIENTED_EDGE ( 'NONE', *, *, #847, .F. ) ;
#903 = DIRECTION ( 'NONE',  ( 1.445602896647338917E-16, -1.000000000000000000, 0.000000000000000000 ) ) ;
#904 = DIRECTION ( 'NONE',  ( 1.000000000000000000, 1.156482317317871478E-16, -0.000000000000000000 ) ) ;
#905 = VECTOR ( 'NONE', #692, 1000.000000000000000 ) ;
#906 = EDGE_LOOP ( 'NONE', ( #687, #779, #660, #182 ) ) ;
#907 = AXIS2_PLACEMENT_3D ( 'NONE', #19, #933, #432 ) ;
#908 = EDGE_CURVE ( 'NONE', #524, #634, #1057, .T. ) ;
#909 = VECTOR ( 'NONE', #915, 1000.000000000000000 ) ;
#910 = LINE ( 'NONE', #233, #360 ) ;
#911 = ORIENTED_EDGE ( 'NONE', *, *, #457, .T. ) ;
#912 = CARTESIAN_POINT ( 'NONE',  ( -2.550000000000003819, 4.549999999999998046, 0.000000000000000000 ) ) ;
#913 = VERTEX_POINT ( 'NONE', #976 ) ;
#914 = DIRECTION ( 'NONE',  ( 0.000000000000000000, -1.000000000000000000, 0.000000000000000000 ) ) ;
#915 = DIRECTION ( 'NONE',  ( -2.344220913482174614E-16, -1.000000000000000000, 0.000000000000000000 ) ) ;
#916 = EDGE_LOOP ( 'NONE', ( #1062, #99, #446, #1090 ) ) ;
#917 = FACE_BOUND ( 'NONE', #60, .T. ) ;
#918 = EDGE_CURVE ( 'NONE', #211, #406, #451, .T. ) ;
#919 = DIRECTION ( 'NONE',  ( 1.000000000000000000, 0.000000000000000000, 0.000000000000000000 ) ) ;
#920 = VERTEX_POINT ( 'NONE', #628 ) ;
#921 = AXIS2_PLACEMENT_3D ( 'NONE', #110, #792, #39 ) ;
#922 = VECTOR ( 'NONE', #220, 1000.000000000000000 ) ;
#923 = DIRECTION ( 'NONE',  ( -0.000000000000000000, -0.000000000000000000, 1.000000000000000000 ) ) ;
#924 = ADVANCED_FACE ( 'NONE', ( #970 ), #542, .F. ) ;
#925 = EDGE_CURVE ( 'NONE', #634, #937, #41, .T. ) ;
#926 = CARTESIAN_POINT ( 'NONE',  ( 6.549999999999997158, 4.549999999999999822, 0.000000000000000000 ) ) ;
#927 = ORIENTED_EDGE ( 'NONE', *, *, #333, .T. ) ;
#928 = PLANE ( 'NONE',  #428 ) ;
#929 = DIRECTION ( 'NONE',  ( -1.734723475976808672E-15, -1.000000000000000000, 0.000000000000000000 ) ) ;
#930 = CYLINDRICAL_SURFACE ( 'NONE', #291, 1.499999999999999556 ) ;
#931 = LINE ( 'NONE', #92, #326 ) ;
#932 = ORIENTED_EDGE ( 'NONE', *, *, #669, .F. ) ;
#933 = DIRECTION ( 'NONE',  ( 0.000000000000000000, -0.000000000000000000, 1.000000000000000000 ) ) ;
#934 = DIRECTION ( 'NONE',  ( -1.000000000000000000, 1.734723475976808672E-15, 0.000000000000000000 ) ) ;
#935 = CARTESIAN_POINT ( 'NONE',  ( -11.99999999999999645, -9.500000000000001776, 0.000000000000000000 ) ) ;
#936 = ORIENTED_EDGE ( 'NONE', *, *, #898, .T. ) ;
#937 = VERTEX_POINT ( 'NONE', #725 ) ;
#938 = EDGE_CURVE ( 'NONE', #785, #731, #305, .T. ) ;
#939 = AXIS2_PLACEMENT_3D ( 'NONE', #90, #257, #768 ) ;
#940 = CYLINDRICAL_SURFACE ( 'NONE', #1013, 2.999999999999999112 ) ;
#941 = AXIS2_PLACEMENT_3D ( 'NONE', #346, #190, #676 ) ;
#942 = CARTESIAN_POINT ( 'NONE',  ( 11.99999999999999645, -9.500000000000001776, 0.000000000000000000 ) ) ;
#943 = FACE_OUTER_BOUND ( 'NONE', #1019, .T. ) ;
#944 = ORIENTED_EDGE ( 'NONE', *, *, #625, .F. ) ;
#945 = EDGE_LOOP ( 'NONE', ( #774, #441 ) ) ;
#946 = CARTESIAN_POINT ( 'NONE',  ( -2.550000000000003819, 2.700000000000001066, 0.000000000000000000 ) ) ;
#947 = PLANE ( 'NONE',  #234 ) ;
#948 = ORIENTED_EDGE ( 'NONE', *, *, #778, .F. ) ;
#949 = ORIENTED_EDGE ( 'NONE', *, *, #528, .F. ) ;
#950 = DIRECTION ( 'NONE',  ( -0.000000000000000000, 0.000000000000000000, -1.000000000000000000 ) ) ;
#951 = ADVANCED_FACE ( 'NONE', ( #458 ), #964, .F. ) ;
#952 = ORIENTED_EDGE ( 'NONE', *, *, #353, .T. ) ;
#953 = PLANE ( 'NONE',  #635 ) ;
#954 = ORIENTED_EDGE ( 'NONE', *, *, #433, .F. ) ;
#955 = CARTESIAN_POINT ( 'NONE',  ( 10.55000000000000249, 3.550000000000001155, 5.000000000000000000 ) ) ;
#956 = AXIS2_PLACEMENT_3D ( 'NONE', #357, #512, #592 ) ;
#957 = FACE_BOUND ( 'NONE', #369, .T. ) ;
#958 = AXIS2_PLACEMENT_3D ( 'NONE', #208, #474, #885 ) ;
#959 =( GEOMETRIC_REPRESENTATION_CONTEXT ( 3 ) GLOBAL_UNCERTAINTY_ASSIGNED_CONTEXT ( ( #1083 ) ) GLOBAL_UNIT_ASSIGNED_CONTEXT ( ( #673, #328, #844 ) ) REPRESENTATION_CONTEXT ( 'NONE', 'WORKASPACE' ) );
#960 = ADVANCED_FACE ( 'NONE', ( #129 ), #207, .F. ) ;
#961 = EDGE_CURVE ( 'NONE', #151, #224, #462, .T. ) ;
#962 = ORIENTED_EDGE ( 'NONE', *, *, #625, .T. ) ;
#963 = EDGE_LOOP ( 'NONE', ( #780, #863, #297, #967 ) ) ;
#964 = PLANE ( 'NONE',  #232 ) ;
#965 = CARTESIAN_POINT ( 'NONE',  ( 11.99999999999999645, 12.50000000000000178, 3.000000000000000000 ) ) ;
#966 = CARTESIAN_POINT ( 'NONE',  ( 10.54999999999999538, -7.549999999999994493, 5.000000000000000000 ) ) ;
#967 = ORIENTED_EDGE ( 'NONE', *, *, #177, .T. ) ;
#968 = CARTESIAN_POINT ( 'NONE',  ( -14.34999999999999787, 0.5500000000000101474, 3.000000000000000000 ) ) ;
#969 = EDGE_LOOP ( 'NONE', ( #59, #514, #393, #404 ) ) ;
#970 = FACE_OUTER_BOUND ( 'NONE', #567, .T. ) ;
#971 = LINE ( 'NONE', #739, #732 ) ;
#972 = LINE ( 'NONE', #214, #409 ) ;
#973 = ORIENTED_EDGE ( 'NONE', *, *, #76, .F. ) ;
#974 = FACE_OUTER_BOUND ( 'NONE', #354, .T. ) ;
#975 = VERTEX_POINT ( 'NONE', #632 ) ;
#976 = CARTESIAN_POINT ( 'NONE',  ( 14.99999999999999645, -9.499999999999998224, 3.000000000000000000 ) ) ;
#977 = EDGE_CURVE ( 'NONE', #937, #406, #1063, .T. ) ;
#978 = DIRECTION ( 'NONE',  ( 2.168404344971008868E-16, 1.000000000000000000, 0.000000000000000000 ) ) ;
#979 = VECTOR ( 'NONE', #699, 1000.000000000000000 ) ;
#980 = ORIENTED_EDGE ( 'NONE', *, *, #1076, .T. ) ;
#981 = VECTOR ( 'NONE', #280, 1000.000000000000000 ) ;
#982 = CARTESIAN_POINT ( 'NONE',  ( 14.99999999999999645, -9.499999999999998224, 3.000000000000000000 ) ) ;
#983 = ORIENTED_EDGE ( 'NONE', *, *, #35, .T. ) ;
#984 = DIRECTION ( 'NONE',  ( 1.000000000000000000, 0.000000000000000000, 0.000000000000000000 ) ) ;
#985 = LINE ( 'NONE', #556, #1053 ) ;
#986 = ORIENTED_EDGE ( 'NONE', *, *, #724, .F. ) ;
#987 = DIRECTION ( 'NONE',  ( -0.000000000000000000, -0.000000000000000000, -1.000000000000000000 ) ) ;
#988 = ADVANCED_FACE ( 'NONE', ( #701 ), #311, .F. ) ;
#989 = CARTESIAN_POINT ( 'NONE',  ( 11.99999999999999645, 12.50000000000000178, 3.000000000000000000 ) ) ;
#990 = ORIENTED_EDGE ( 'NONE', *, *, #756, .T. ) ;
#991 = AXIS2_PLACEMENT_3D ( 'NONE', #1008, #248, #579 ) ;
#992 = EDGE_CURVE ( 'NONE', #740, #539, #46, .T. ) ;
#993 = EDGE_LOOP ( 'NONE', ( #437, #26, #331, #700 ) ) ;
#994 = VECTOR ( 'NONE', #4, 1000.000000000000000 ) ;
#995 = FACE_BOUND ( 'NONE', #216, .T. ) ;
#996 = CARTESIAN_POINT ( 'NONE',  ( -15.00000000000000355, 9.500000000000000000, 3.000000000000000000 ) ) ;
#997 = CARTESIAN_POINT ( 'NONE',  ( 6.549999999999997158, 4.549999999999999822, 0.000000000000000000 ) ) ;
#998 = DIRECTION ( 'NONE',  ( -1.000000000000000000, -2.859434301060670737E-16, 0.000000000000000000 ) ) ;
#999 = EDGE_LOOP ( 'NONE', ( #188, #882, #21, #841 ) ) ;
#1000 = DIRECTION ( 'NONE',  ( 1.000000000000000000, 1.156482317317871478E-16, -0.000000000000000000 ) ) ;
#1001 = DIRECTION ( 'NONE',  ( 0.000000000000000000, -0.000000000000000000, 1.000000000000000000 ) ) ;
#1002 = CARTESIAN_POINT ( 'NONE',  ( 10.55000000000000249, 3.550000000000001155, 5.000000000000000000 ) ) ;
#1003 = ORIENTED_EDGE ( 'NONE', *, *, #415, .F. ) ;
#1004 = EDGE_CURVE ( 'NONE', #189, #975, #136, .T. ) ;
#1005 = EDGE_CURVE ( 'NONE', #975, #595, #473, .T. ) ;
#1006 = EDGE_CURVE ( 'NONE', #488, #93, #815, .T. ) ;
#1007 = DIRECTION ( 'NONE',  ( -0.000000000000000000, -0.000000000000000000, 1.000000000000000000 ) ) ;
#1008 = CARTESIAN_POINT ( 'NONE',  ( 11.99999999999999645, 9.500000000000001776, 3.000000000000000000 ) ) ;
#1009 = AXIS2_PLACEMENT_3D ( 'NONE', #664, #1010, #253 ) ;
#1010 = DIRECTION ( 'NONE',  ( -1.000000000000000000, 2.344220913482174614E-16, 0.000000000000000000 ) ) ;
#1011 = VERTEX_POINT ( 'NONE', #640 ) ;
#1012 = CIRCLE ( 'NONE', #764, 1.500000000000001332 ) ;
#1013 = AXIS2_PLACEMENT_3D ( 'NONE', #186, #596, #520 ) ;
#1014 = CARTESIAN_POINT ( 'NONE',  ( 10.54999999999999538, -7.549999999999994493, 5.000000000000000000 ) ) ;
#1015 = CYLINDRICAL_SURFACE ( 'NONE', #991, 2.999999999999999112 ) ;
#1016 = DIRECTION ( 'NONE',  ( 1.734723475976808475E-15, 1.000000000000000000, 0.000000000000000000 ) ) ;
#1017 = DIRECTION ( 'NONE',  ( -1.084202172485503941E-16, 1.000000000000000000, 0.000000000000000000 ) ) ;
#1018 = CARTESIAN_POINT ( 'NONE',  ( 10.49999999999999467, -9.500000000000001776, 3.000000000000000000 ) ) ;
#1019 = EDGE_LOOP ( 'NONE', ( #584, #895, #358, #507, #307, #122, #254, #612 ) ) ;
#1020 = LINE ( 'NONE', #603, #981 ) ;
#1021 = DIRECTION ( 'NONE',  ( -1.000000000000000000, 0.000000000000000000, 0.000000000000000000 ) ) ;
#1022 = EDGE_CURVE ( 'NONE', #541, #265, #426, .T. ) ;
#1023 = EDGE_LOOP ( 'NONE', ( #436, #1086, #325, #559 ) ) ;
#1024 = ORIENTED_EDGE ( 'NONE', *, *, #607, .T. ) ;
#1025 = CYLINDRICAL_SURFACE ( 'NONE', #327, 2.999999999999999112 ) ;
#1026 = DIRECTION ( 'NONE',  ( 1.156482317317871478E-16, -1.000000000000000000, 0.000000000000000000 ) ) ;
#1027 = CARTESIAN_POINT ( 'NONE',  ( -10.49999999999999467, -9.500000000000001776, 0.000000000000000000 ) ) ;
#1028 = LINE ( 'NONE', #1039, #905 ) ;
#1029 = ORIENTED_EDGE ( 'NONE', *, *, #1076, .F. ) ;
#1030 = ORIENTED_EDGE ( 'NONE', *, *, #1005, .F. ) ;
#1031 = CIRCLE ( 'NONE', #871, 2.999999999999999112 ) ;
#1032 = LINE ( 'NONE', #274, #691 ) ;
#1033 = AXIS2_PLACEMENT_3D ( 'NONE', #757, #509, #267 ) ;
#1034 = CARTESIAN_POINT ( 'NONE',  ( -11.99999999999999645, -9.500000000000001776, 5.000000000000000000 ) ) ;
#1035 = ORIENTED_EDGE ( 'NONE', *, *, #70, .T. ) ;
#1036 = ORIENTED_EDGE ( 'NONE', *, *, #938, .F. ) ;
#1037 = CARTESIAN_POINT ( 'NONE',  ( 6.550000000000000711, 7.550000000000000711, 5.000000000000000000 ) ) ;
#1038 = EDGE_CURVE ( 'NONE', #554, #535, #316, .T. ) ;
#1039 = CARTESIAN_POINT ( 'NONE',  ( 6.550000000000000711, 3.550000000000000711, 5.000000000000000000 ) ) ;
#1040 = VERTEX_POINT ( 'NONE', #715 ) ;
#1041 = ORIENTED_EDGE ( 'NONE', *, *, #14, .T. ) ;
#1042 = DIRECTION ( 'NONE',  ( -0.000000000000000000, -0.000000000000000000, 1.000000000000000000 ) ) ;
#1043 = ADVANCED_FACE ( 'NONE', ( #1089 ), #2, .F. ) ;
#1044 = ADVANCED_FACE ( 'NONE', ( #501 ), #422, .F. ) ;
#1045 = FACE_BOUND ( 'NONE', #719, .T. ) ;
#1046 = ORIENTED_EDGE ( 'NONE', *, *, #338, .T. ) ;
#1047 = CARTESIAN_POINT ( 'NONE',  ( -8.450000000000002842, -2.700000000000002398, 0.000000000000000000 ) ) ;
#1048 = VERTEX_POINT ( 'NONE', #583 ) ;
#1049 = DIRECTION ( 'NONE',  ( 1.000000000000000000, 0.000000000000000000, 0.000000000000000000 ) ) ;
#1050 = VECTOR ( 'NONE', #286, 1000.000000000000000 ) ;
#1051 = CIRCLE ( 'NONE', #710, 2.999999999999999112 ) ;
#1052 = DIRECTION ( 'NONE',  ( -6.424901762877063495E-16, -1.000000000000000000, 0.000000000000000000 ) ) ;
#1053 = VECTOR ( 'NONE', #901, 1000.000000000000000 ) ;
#1054 = EDGE_LOOP ( 'NONE', ( #751, #605, #852, #911 ) ) ;
#1055 = DIRECTION ( 'NONE',  ( 0.000000000000000000, -1.000000000000000000, 0.000000000000000000 ) ) ;
#1056 = ORIENTED_EDGE ( 'NONE', *, *, #678, .T. ) ;
#1057 = LINE ( 'NONE', #390, #581 ) ;
#1058 = CARTESIAN_POINT ( 'NONE',  ( 10.55000000000000249, -3.549999999999997602, 3.000000000000000000 ) ) ;
#1059 = LINE ( 'NONE', #139, #708 ) ;
#1060 = EDGE_CURVE ( 'NONE', #637, #93, #8, .T. ) ;
#1061 = DIRECTION ( 'NONE',  ( 0.000000000000000000, 0.000000000000000000, -1.000000000000000000 ) ) ;
#1062 = ORIENTED_EDGE ( 'NONE', *, *, #1005, .T. ) ;
#1063 = LINE ( 'NONE', #200, #63 ) ;
#1064 = LINE ( 'NONE', #294, #481 ) ;
#1065 = FACE_OUTER_BOUND ( 'NONE', #723, .T. ) ;
#1066 = CARTESIAN_POINT ( 'NONE',  ( -13.49999999999999822, -9.500000000000001776, 3.000000000000000000 ) ) ;
#1067 = ORIENTED_EDGE ( 'NONE', *, *, #36, .T. ) ;
#1068 = CARTESIAN_POINT ( 'NONE',  ( -2.550000000000003819, 4.549999999999998046, 0.000000000000000000 ) ) ;
#1069 = AXIS2_PLACEMENT_3D ( 'NONE', #158, #734, #343 ) ;
#1070 = LINE ( 'NONE', #118, #837 ) ;
#1071 = VECTOR ( 'NONE', #653, 1000.000000000000000 ) ;
#1072 = VECTOR ( 'NONE', #904, 1000.000000000000000 ) ;
#1073 = EDGE_LOOP ( 'NONE', ( #45, #455, #932, #299 ) ) ;
#1074 = CIRCLE ( 'NONE', #7, 1.500000000000001332 ) ;
#1075 = VERTEX_POINT ( 'NONE', #16 ) ;
#1076 = EDGE_CURVE ( 'NONE', #151, #791, #769, .T. ) ;
#1077 = CARTESIAN_POINT ( 'NONE',  ( -12.00000000000000355, 9.500000000000000000, 3.000000000000000000 ) ) ;
#1078 = ORIENTED_EDGE ( 'NONE', *, *, #1038, .T. ) ;
#1079 = PLANE ( 'NONE',  #872 ) ;
#1080 = PRODUCT_RELATED_PRODUCT_CATEGORY ( 'part', '', ( #623 ) ) ;
#1081 = ADVANCED_FACE ( 'NONE', ( #246 ), #654, .F. ) ;
#1082 = ORIENTED_EDGE ( 'NONE', *, *, #258, .T. ) ;
#1083 = UNCERTAINTY_MEASURE_WITH_UNIT (LENGTH_MEASURE( 1.000000000000000082E-05 ), #673, 'distance_accuracy_value', 'NONE');
#1084 = CARTESIAN_POINT ( 'NONE',  ( 11.99999999999999645, -12.49999999999999822, 3.000000000000000000 ) ) ;
#1085 = AXIS2_PLACEMENT_3D ( 'NONE', #352, #423, #761 ) ;
#1086 = ORIENTED_EDGE ( 'NONE', *, *, #258, .F. ) ;
#1087 = MECHANICAL_DESIGN_GEOMETRIC_PRESENTATION_REPRESENTATION (  '', ( #94 ), #566 ) ;
#1088 = CARTESIAN_POINT ( 'NONE',  ( -2.550000000000003819, 2.700000000000001066, 0.000000000000000000 ) ) ;
#1089 = FACE_OUTER_BOUND ( 'NONE', #1054, .T. ) ;
#1090 = ORIENTED_EDGE ( 'NONE', *, *, #154, .T. ) ;
#1091 = EDGE_CURVE ( 'NONE', #322, #524, #175, .T. ) ;
ENDSEC;
END-ISO-10303-21;
