ISO-10303-21;
HEADER;
FILE_DESCRIPTION (( 'STEP AP203' ),
    '1' );
FILE_NAME ('¼¤¹âÁ¬½Ó¼þ°å.STEP',
    '2026-03-23T06:31:54',
    ( '' ),
    ( '' ),
    'SwSTEP 2.0',
    'SolidWorks 2024',
    '' );
FILE_SCHEMA (( 'CONFIG_CONTROL_DESIGN' ));
ENDSEC;

DATA;
#1 = DATE_AND_TIME ( #448, #207 ) ;
#2 = APPROVAL_PERSON_ORGANIZATION ( #240, #175, #86 ) ;
#3 = CARTESIAN_POINT ( 'NONE',  ( 0.000000000000000000, -14.59999999999999787, 0.000000000000000000 ) ) ;
#4 = CIRCLE ( 'NONE', #298, 1.500000000000000888 ) ;
#5 = APPROVAL_ROLE ( '' ) ;
#6 = LINE ( 'NONE', #170, #126 ) ;
#7 = ORIENTED_EDGE ( 'NONE', *, *, #295, .F. ) ;
#8 = DIRECTION ( 'NONE',  ( -0.000000000000000000, -0.000000000000000000, -1.000000000000000000 ) ) ;
#9 = PERSON_AND_ORGANIZATION ( #102, #10 ) ;
#10 = ORGANIZATION ( 'æœª', 'æœª', '' ) ;
#11 = CARTESIAN_POINT ( 'NONE',  ( 5.000000000000000000, 0.000000000000000000, 0.000000000000000000 ) ) ;
#12 = CARTESIAN_POINT ( 'NONE',  ( -1.500000000000000888, 26.06853720190225943, 1.499999999999999556 ) ) ;
#13 = ADVANCED_FACE ( 'NONE', ( #437 ), #239, .F. ) ;
#14 = DIRECTION ( 'NONE',  ( 1.000000000000000000, 0.000000000000000000, 0.000000000000000000 ) ) ;
#15 = EDGE_LOOP ( 'NONE', ( #62, #344, #356, #155 ) ) ;
#16 = LINE ( 'NONE', #139, #323 ) ;
#17 = EDGE_LOOP ( 'NONE', ( #25, #346, #138, #97 ) ) ;
#18 = VECTOR ( 'NONE', #229, 1000.000000000000000 ) ;
#19 = EDGE_CURVE ( 'NONE', #473, #93, #244, .T. ) ;
#20 = CARTESIAN_POINT ( 'NONE',  ( 13.64999999999999858, -14.59999999999999787, 1.500000000000000000 ) ) ;
#21 = EDGE_LOOP ( 'NONE', ( #136, #518, #507, #396 ) ) ;
#22 = FACE_BOUND ( 'NONE', #192, .T. ) ;
#23 = EDGE_LOOP ( 'NONE', ( #150, #103, #141, #147 ) ) ;
#24 = CARTESIAN_POINT ( 'NONE',  ( 13.64999999999999147, 28.43988451525131822, 1.500000000000000000 ) ) ;
#25 = ORIENTED_EDGE ( 'NONE', *, *, #148, .T. ) ;
#26 = CC_DESIGN_SECURITY_CLASSIFICATION ( #252, ( #226 ) ) ;
#27 = CARTESIAN_POINT ( 'NONE',  ( 13.64999999999999147, 28.43988451525131822, 0.000000000000000000 ) ) ;
#28 = CYLINDRICAL_SURFACE ( 'NONE', #41, 1.500000000000000888 ) ;
#29 = ADVANCED_FACE ( 'NONE', ( #117 ), #28, .F. ) ;
#30 = DIRECTION ( 'NONE',  ( -0.000000000000000000, -0.000000000000000000, -1.000000000000000000 ) ) ;
#31 = DIRECTION ( 'NONE',  ( -1.000000000000000000, 0.000000000000000000, 0.000000000000000000 ) ) ;
#32 = PLANE ( 'NONE',  #290 ) ;
#33 = ORIENTED_EDGE ( 'NONE', *, *, #454, .F. ) ;
#34 = AXIS2_PLACEMENT_3D ( 'NONE', #493, #92, #257 ) ;
#35 = EDGE_CURVE ( 'NONE', #221, #37, #190, .T. ) ;
#36 = CARTESIAN_POINT ( 'NONE',  ( 0.000000000000000000, -12.56011548474867823, 1.500000000000000000 ) ) ;
#37 = VERTEX_POINT ( 'NONE', #491 ) ;
#38 = FACE_OUTER_BOUND ( 'NONE', #58, .T. ) ;
#39 = DIRECTION ( 'NONE',  ( -0.000000000000000000, -0.000000000000000000, -1.000000000000000000 ) ) ;
#40 = CARTESIAN_POINT ( 'NONE',  ( 1.500000000000000888, 26.06853720190225943, 1.499999999999999556 ) ) ;
#41 = AXIS2_PLACEMENT_3D ( 'NONE', #68, #230, #31 ) ;
#42 = APPROVAL_STATUS ( 'not_yet_approved' ) ;
#43 = AXIS2_PLACEMENT_3D ( 'NONE', #506, #135, #343 ) ;
#44 = DIRECTION ( 'NONE',  ( -1.000000000000000000, -1.253423375075978198E-16, 0.000000000000000000 ) ) ;
#45 = PRODUCT_DEFINITION ( 'æœ', '', #226, #400 ) ;
#46 = APPROVAL_DATE_TIME ( #76, #288 ) ;
#47 = CARTESIAN_POINT ( 'NONE',  ( -5.000000000000000000, -8.560115484748678227, 1.500000000000000000 ) ) ;
#48 = CALENDAR_DATE ( 2026, 23, 3 ) ;
#49 = CYLINDRICAL_SURFACE ( 'NONE', #106, 1.500000000000000888 ) ;
#50 = APPLICATION_PROTOCOL_DEFINITION ( 'international standard', 'config_control_design', 1994, #378 ) ;
#51 = CIRCLE ( 'NONE', #262, 1.500000000000000000 ) ;
#52 = LINE ( 'NONE', #47, #479 ) ;
#53 = CARTESIAN_POINT ( 'NONE',  ( -3.614310280049504278E-15, 28.43988451525131822, 1.500000000000000000 ) ) ;
#54 = LINE ( 'NONE', #213, #306 ) ;
#55 = ORIENTED_EDGE ( 'NONE', *, *, #134, .F. ) ;
#56 = EDGE_CURVE ( 'NONE', #180, #93, #130, .T. ) ;
#57 = DIRECTION ( 'NONE',  ( -0.000000000000000000, -0.000000000000000000, -1.000000000000000000 ) ) ;
#58 = EDGE_LOOP ( 'NONE', ( #388, #55, #185, #264 ) ) ;
#59 = DIRECTION ( 'NONE',  ( -1.000000000000000000, 0.000000000000000000, 0.000000000000000000 ) ) ;
#60 = VERTEX_POINT ( 'NONE', #204 ) ;
#61 = DIRECTION ( 'NONE',  ( -0.000000000000000000, 0.000000000000000000, 1.000000000000000000 ) ) ;
#62 = ORIENTED_EDGE ( 'NONE', *, *, #383, .F. ) ;
#63 = DIRECTION ( 'NONE',  ( 0.000000000000000000, -1.000000000000000000, 0.000000000000000000 ) ) ;
#64 = EDGE_CURVE ( 'NONE', #315, #300, #451, .T. ) ;
#65 = ORIENTED_EDGE ( 'NONE', *, *, #391, .T. ) ;
#66 = VECTOR ( 'NONE', #216, 1000.000000000000000 ) ;
#67 = DIRECTION ( 'NONE',  ( 0.000000000000000000, -1.000000000000000000, 0.000000000000000000 ) ) ;
#68 = CARTESIAN_POINT ( 'NONE',  ( 0.000000000000000000, 26.06853720190225943, 10.00000000000000000 ) ) ;
#69 = CARTESIAN_POINT ( 'NONE',  ( 0.000000000000000000, -14.59999999999999787, 1.500000000000000000 ) ) ;
#70 = EDGE_LOOP ( 'NONE', ( #164, #354, #282, #308 ) ) ;
#71 = PLANE ( 'NONE',  #245 ) ;
#72 = EDGE_LOOP ( 'NONE', ( #177, #233 ) ) ;
#73 = VECTOR ( 'NONE', #234, 1000.000000000000000 ) ;
#74 = DIRECTION ( 'NONE',  ( 0.000000000000000000, -1.000000000000000000, 0.000000000000000000 ) ) ;
#75 = VERTEX_POINT ( 'NONE', #40 ) ;
#76 = DATE_AND_TIME ( #331, #427 ) ;
#77 = CARTESIAN_POINT ( 'NONE',  ( 5.000000000000000000, 7.439884515251321773, 1.500000000000000000 ) ) ;
#78 = CALENDAR_DATE ( 2026, 23, 3 ) ;
#79 = PLANE ( 'NONE',  #513 ) ;
#80 = EDGE_CURVE ( 'NONE', #99, #349, #406, .T. ) ;
#81 = CC_DESIGN_APPROVAL ( #325, ( #45 ) ) ;
#82 = CARTESIAN_POINT ( 'NONE',  ( -5.000000000000000000, -8.560115484748678227, 1.500000000000000000 ) ) ;
#83 = DATE_AND_TIME ( #48, #131 ) ;
#84 = LINE ( 'NONE', #3, #467 ) ;
#85 = EDGE_CURVE ( 'NONE', #93, #473, #218, .T. ) ;
#86 = APPROVAL_ROLE ( '' ) ;
#87 = FACE_OUTER_BOUND ( 'NONE', #21, .T. ) ;
#88 = APPROVAL_PERSON_ORGANIZATION ( #246, #288, #5 ) ;
#89 = PLANE ( 'NONE',  #123 ) ;
#90 = VECTOR ( 'NONE', #176, 1000.000000000000000 ) ;
#91 = APPROVAL_DATE_TIME ( #253, #175 ) ;
#92 = DIRECTION ( 'NONE',  ( -0.000000000000000000, 0.000000000000000000, 1.000000000000000000 ) ) ;
#93 = VERTEX_POINT ( 'NONE', #242 ) ;
#94 = DIRECTION ( 'NONE',  ( 1.000000000000000000, 0.000000000000000000, 0.000000000000000000 ) ) ;
#95 = ORIENTED_EDGE ( 'NONE', *, *, #454, .T. ) ;
#96 = CARTESIAN_POINT ( 'NONE',  ( 5.000000000000000000, -8.560115484748678227, 1.500000000000000000 ) ) ;
#97 = ORIENTED_EDGE ( 'NONE', *, *, #483, .T. ) ;
#98 = CARTESIAN_POINT ( 'NONE',  ( 5.000000000000000000, -8.560115484748678227, 0.000000000000000000 ) ) ;
#99 = VERTEX_POINT ( 'NONE', #296 ) ;
#100 = EDGE_CURVE ( 'NONE', #60, #105, #6, .T. ) ;
#101 = CARTESIAN_POINT ( 'NONE',  ( 5.000000000000000000, 0.000000000000000000, 1.500000000000000000 ) ) ;
#102 = PERSON ( 'æœª', 'æœª', 'æœª', ('æœª'), ('æœª'), ('æœª') ) ;
#103 = ORIENTED_EDGE ( 'NONE', *, *, #318, .T. ) ;
#104 = FACE_OUTER_BOUND ( 'NONE', #458, .T. ) ;
#105 = VERTEX_POINT ( 'NONE', #82 ) ;
#106 = AXIS2_PLACEMENT_3D ( 'NONE', #205, #367, #129 ) ;
#107 = AXIS2_PLACEMENT_3D ( 'NONE', #36, #30, #472 ) ;
#108 = DIRECTION ( 'NONE',  ( -1.000000000000000000, 0.000000000000000000, 0.000000000000000000 ) ) ;
#109 = ORIENTED_EDGE ( 'NONE', *, *, #270, .F. ) ;
#110 = CC_DESIGN_PERSON_AND_ORGANIZATION_ASSIGNMENT ( #321, #124, ( #226 ) ) ;
#111 = FACE_OUTER_BOUND ( 'NONE', #475, .T. ) ;
#112 = ORIENTED_EDGE ( 'NONE', *, *, #85, .F. ) ;
#113 = DIRECTION ( 'NONE',  ( -0.000000000000000000, 0.000000000000000000, 1.000000000000000000 ) ) ;
#114 = VERTEX_POINT ( 'NONE', #77 ) ;
#115 = LOCAL_TIME ( 14, 31, 54.00000000000000000, #250 ) ;
#116 = DIRECTION ( 'NONE',  ( 0.000000000000000000, 0.000000000000000000, 1.000000000000000000 ) ) ;
#117 = FACE_OUTER_BOUND ( 'NONE', #462, .T. ) ;
#118 = EDGE_CURVE ( 'NONE', #60, #114, #484, .T. ) ;
#119 = PERSON_AND_ORGANIZATION ( #102, #10 ) ;
#120 = DIRECTION ( 'NONE',  ( -0.000000000000000000, -0.000000000000000000, -1.000000000000000000 ) ) ;
#121 =( NAMED_UNIT ( * ) PLANE_ANGLE_UNIT ( ) SI_UNIT ( $, .RADIAN. ) );
#122 = DIRECTION ( 'NONE',  ( 1.000000000000000000, 0.000000000000000000, 0.000000000000000000 ) ) ;
#123 = AXIS2_PLACEMENT_3D ( 'NONE', #256, #372, #14 ) ;
#124 = PERSON_AND_ORGANIZATION_ROLE ( 'design_supplier' ) ;
#125 = DIRECTION ( 'NONE',  ( -0.000000000000000000, 0.000000000000000000, 1.000000000000000000 ) ) ;
#126 = VECTOR ( 'NONE', #163, 1000.000000000000000 ) ;
#127 = EDGE_CURVE ( 'NONE', #342, #373, #289, .T. ) ;
#128 = DIRECTION ( 'NONE',  ( 1.000000000000000000, 0.000000000000000000, -0.000000000000000000 ) ) ;
#129 = DIRECTION ( 'NONE',  ( -1.000000000000000000, 0.000000000000000000, 0.000000000000000000 ) ) ;
#130 = LINE ( 'NONE', #294, #412 ) ;
#131 = LOCAL_TIME ( 14, 31, 54.00000000000000000, #160 ) ;
#132 = CARTESIAN_POINT ( 'NONE',  ( 0.000000000000000000, 7.439884515251321773, 0.000000000000000000 ) ) ;
#133 = SHAPE_DEFINITION_REPRESENTATION ( #210, #224 ) ;
#134 = EDGE_CURVE ( 'NONE', #105, #268, #52, .T. ) ;
#135 = DIRECTION ( 'NONE',  ( -0.000000000000000000, 0.000000000000000000, 1.000000000000000000 ) ) ;
#136 = ORIENTED_EDGE ( 'NONE', *, *, #438, .F. ) ;
#137 = CARTESIAN_POINT ( 'NONE',  ( -13.65000000000000213, -14.59999999999999787, 0.000000000000000000 ) ) ;
#138 = ORIENTED_EDGE ( 'NONE', *, *, #142, .F. ) ;
#139 = CARTESIAN_POINT ( 'NONE',  ( -13.65000000000000924, 28.43988451525131467, 1.500000000000000000 ) ) ;
#140 = CIRCLE ( 'NONE', #34, 1.500000000000000888 ) ;
#141 = ORIENTED_EDGE ( 'NONE', *, *, #19, .T. ) ;
#142 = EDGE_CURVE ( 'NONE', #327, #258, #293, .T. ) ;
#143 = CARTESIAN_POINT ( 'NONE',  ( 5.000000000000000000, 7.439884515251321773, 0.000000000000000000 ) ) ;
#144 = MANIFOLD_SOLID_BREP ( '\X2\52079664\X0\-\X2\62c94f38\X0\1', #178 ) ;
#145 = EDGE_LOOP ( 'NONE', ( #112, #478 ) ) ;
#146 = DIRECTION ( 'NONE',  ( -1.270859689360298160E-16, 1.000000000000000000, 0.000000000000000000 ) ) ;
#147 = ORIENTED_EDGE ( 'NONE', *, *, #56, .F. ) ;
#148 = EDGE_CURVE ( 'NONE', #221, #303, #84, .T. ) ;
#149 = DIRECTION ( 'NONE',  ( 0.000000000000000000, 1.000000000000000000, 0.000000000000000000 ) ) ;
#150 = ORIENTED_EDGE ( 'NONE', *, *, #255, .T. ) ;
#151 = AXIS2_PLACEMENT_3D ( 'NONE', #251, #411, #362 ) ;
#152 = DIRECTION ( 'NONE',  ( -1.000000000000000000, 0.000000000000000000, 0.000000000000000000 ) ) ;
#153 = ORIENTED_EDGE ( 'NONE', *, *, #375, .T. ) ;
#154 = CARTESIAN_POINT ( 'NONE',  ( -5.000000000000000000, 0.000000000000000000, 0.000000000000000000 ) ) ;
#155 = ORIENTED_EDGE ( 'NONE', *, *, #100, .T. ) ;
#156 = APPROVAL_DATE_TIME ( #1, #325 ) ;
#157 = DIRECTION ( 'NONE',  ( 0.000000000000000000, 0.000000000000000000, -1.000000000000000000 ) ) ;
#158 = ADVANCED_FACE ( 'NONE', ( #332 ), #49, .F. ) ;
#159 = VECTOR ( 'NONE', #389, 1000.000000000000000 ) ;
#160 = COORDINATED_UNIVERSAL_TIME_OFFSET ( 8, 0, .AHEAD. ) ;
#161 = DIRECTION ( 'NONE',  ( -1.000000000000000000, 0.000000000000000000, 0.000000000000000000 ) ) ;
#162 = SECURITY_CLASSIFICATION_LEVEL ( 'unclassified' ) ;
#163 = DIRECTION ( 'NONE',  ( -1.000000000000000000, 0.000000000000000000, 0.000000000000000000 ) ) ;
#164 = ORIENTED_EDGE ( 'NONE', *, *, #35, .F. ) ;
#165 = MECHANICAL_CONTEXT ( 'NONE', #277, 'mechanical' ) ;
#166 = ADVANCED_FACE ( 'NONE', ( #87 ), #359, .T. ) ;
#167 = CARTESIAN_POINT ( 'NONE',  ( -13.65000000000000568, -1.710922906978710923E-15, 0.000000000000000000 ) ) ;
#168 = VECTOR ( 'NONE', #59, 1000.000000000000000 ) ;
#169 = PERSON_AND_ORGANIZATION_ROLE ( 'creator' ) ;
#170 = CARTESIAN_POINT ( 'NONE',  ( 0.000000000000000000, -8.560115484748678227, 1.500000000000000000 ) ) ;
#171 = DIRECTION ( 'NONE',  ( 0.000000000000000000, 1.000000000000000000, -0.000000000000000000 ) ) ;
#172 = CARTESIAN_POINT ( 'NONE',  ( -13.65000000000000213, -14.59999999999999787, 1.500000000000000000 ) ) ;
#173 = ORIENTED_EDGE ( 'NONE', *, *, #127, .F. ) ;
#174 = EDGE_CURVE ( 'NONE', #327, #214, #209, .T. ) ;
#175 = APPROVAL ( #42, 'æœª' ) ;
#176 = DIRECTION ( 'NONE',  ( -0.000000000000000000, -0.000000000000000000, -1.000000000000000000 ) ) ;
#177 = ORIENTED_EDGE ( 'NONE', *, *, #255, .F. ) ;
#178 = CLOSED_SHELL ( 'NONE', ( #158, #13, #519, #492, #407, #166, #510, #212, #446, #476, #500, #347, #352, #29 ) ) ;
#179 = CARTESIAN_POINT ( 'NONE',  ( 13.64999999999999858, -14.59999999999999787, 0.000000000000000000 ) ) ;
#180 = VERTEX_POINT ( 'NONE', #12 ) ;
#181 = FACE_BOUND ( 'NONE', #15, .T. ) ;
#182 = EDGE_CURVE ( 'NONE', #114, #99, #334, .T. ) ;
#183 = EDGE_LOOP ( 'NONE', ( #223, #416 ) ) ;
#184 = FACE_BOUND ( 'NONE', #384, .T. ) ;
#185 = ORIENTED_EDGE ( 'NONE', *, *, #100, .F. ) ;
#186 = VECTOR ( 'NONE', #171, 1000.000000000000000 ) ;
#187 = FACE_OUTER_BOUND ( 'NONE', #313, .T. ) ;
#188 = ORIENTED_EDGE ( 'NONE', *, *, #80, .T. ) ;
#189 = CYLINDRICAL_SURFACE ( 'NONE', #107, 1.500000000000000000 ) ;
#190 = LINE ( 'NONE', #167, #447 ) ;
#191 = LINE ( 'NONE', #511, #73 ) ;
#192 = EDGE_LOOP ( 'NONE', ( #173, #7 ) ) ;
#193 = VECTOR ( 'NONE', #249, 1000.000000000000000 ) ;
#194 = LINE ( 'NONE', #278, #159 ) ;
#195 = ORIENTED_EDGE ( 'NONE', *, *, #311, .F. ) ;
#196 = CARTESIAN_POINT ( 'NONE',  ( 0.000000000000000000, -12.56011548474867823, 0.000000000000000000 ) ) ;
#197 = DIRECTION ( 'NONE',  ( -1.000000000000000000, 0.000000000000000000, 0.000000000000000000 ) ) ;
#198 = EDGE_CURVE ( 'NONE', #114, #300, #324, .T. ) ;
#199 = COORDINATED_UNIVERSAL_TIME_OFFSET ( 8, 0, .AHEAD. ) ;
#200 = DIRECTION ( 'NONE',  ( 1.000000000000000000, 0.000000000000000000, 0.000000000000000000 ) ) ;
#201 = LOCAL_TIME ( 14, 31, 54.00000000000000000, #292 ) ;
#202 = DIRECTION ( 'NONE',  ( 1.253423375075978198E-16, -1.000000000000000000, 0.000000000000000000 ) ) ;
#203 = COORDINATED_UNIVERSAL_TIME_OFFSET ( 8, 0, .AHEAD. ) ;
#204 = CARTESIAN_POINT ( 'NONE',  ( 5.000000000000000000, -8.560115484748678227, 1.500000000000000000 ) ) ;
#205 = CARTESIAN_POINT ( 'NONE',  ( 0.000000000000000000, 26.06853720190225943, 10.00000000000000000 ) ) ;
#206 = ORIENTED_EDGE ( 'NONE', *, *, #391, .F. ) ;
#207 = LOCAL_TIME ( 14, 31, 54.00000000000000000, #199 ) ;
#208 = PERSON_AND_ORGANIZATION ( #102, #10 ) ;
#209 = LINE ( 'NONE', #241, #444 ) ;
#210 = PRODUCT_DEFINITION_SHAPE ( 'NONE', 'NONE',  #45 ) ;
#211 = FACE_OUTER_BOUND ( 'NONE', #429, .T. ) ;
#212 = ADVANCED_FACE ( 'NONE', ( #442 ), #79, .T. ) ;
#213 = CARTESIAN_POINT ( 'NONE',  ( 13.64999999999999147, 28.43988451525131822, 1.500000000000000000 ) ) ;
#214 = VERTEX_POINT ( 'NONE', #417 ) ;
#215 = VECTOR ( 'NONE', #120, 1000.000000000000000 ) ;
#216 = DIRECTION ( 'NONE',  ( 1.253423375075977951E-16, -1.000000000000000000, 0.000000000000000000 ) ) ;
#217 = EDGE_LOOP ( 'NONE', ( #109, #195, #440, #320 ) ) ;
#218 = CIRCLE ( 'NONE', #291, 1.500000000000000888 ) ;
#219 = EDGE_CURVE ( 'NONE', #214, #37, #16, .T. ) ;
#220 = CARTESIAN_POINT ( 'NONE',  ( -1.500000000000000000, -12.56011548474867823, 1.500000000000000000 ) ) ;
#221 = VERTEX_POINT ( 'NONE', #137 ) ;
#222 = CARTESIAN_POINT ( 'NONE',  ( -5.000000000000000000, 7.439884515251321773, 0.000000000000000000 ) ) ;
#223 = ORIENTED_EDGE ( 'NONE', *, *, #243, .T. ) ;
#224 = ADVANCED_BREP_SHAPE_REPRESENTATION ( '\X2\6fc051498fde63a54ef6677f\X0\', ( #144, #504 ), #385 ) ;
#225 = CARTESIAN_POINT ( 'NONE',  ( -0.000000000000000000, -8.560115484748678227, 0.000000000000000000 ) ) ;
#226 = PRODUCT_DEFINITION_FORMATION_WITH_SPECIFIED_SOURCE ( 'ä»', '', #485, .NOT_KNOWN. ) ;
#227 = ORIENTED_EDGE ( 'NONE', *, *, #118, .T. ) ;
#228 = AXIS2_PLACEMENT_3D ( 'NONE', #374, #413, #94 ) ;
#229 = DIRECTION ( 'NONE',  ( 1.253423375075977951E-16, -1.000000000000000000, 0.000000000000000000 ) ) ;
#230 = DIRECTION ( 'NONE',  ( -0.000000000000000000, -0.000000000000000000, -1.000000000000000000 ) ) ;
#231 = CC_DESIGN_DATE_AND_TIME_ASSIGNMENT ( #83, #403, ( #45 ) ) ;
#232 = LINE ( 'NONE', #394, #18 ) ;
#233 = ORIENTED_EDGE ( 'NONE', *, *, #366, .F. ) ;
#234 = DIRECTION ( 'NONE',  ( -0.000000000000000000, -0.000000000000000000, -1.000000000000000000 ) ) ;
#235 = ORIENTED_EDGE ( 'NONE', *, *, #80, .F. ) ;
#236 = APPROVAL_PERSON_ORGANIZATION ( #482, #325, #399 ) ;
#237 = EDGE_CURVE ( 'NONE', #60, #315, #304, .T. ) ;
#238 = CARTESIAN_POINT ( 'NONE',  ( -1.500000000000000000, -12.56011548474867823, 0.000000000000000000 ) ) ;
#239 = CYLINDRICAL_SURFACE ( 'NONE', #496, 1.500000000000000000 ) ;
#240 = PERSON_AND_ORGANIZATION ( #102, #10 ) ;
#241 = CARTESIAN_POINT ( 'NONE',  ( -13.65000000000000568, -1.710922906978710923E-15, 1.500000000000000000 ) ) ;
#242 = CARTESIAN_POINT ( 'NONE',  ( -1.500000000000000888, 26.06853720190225943, 0.000000000000000000 ) ) ;
#243 = EDGE_CURVE ( 'NONE', #466, #317, #387, .T. ) ;
#244 = CIRCLE ( 'NONE', #419, 1.500000000000000888 ) ;
#245 = AXIS2_PLACEMENT_3D ( 'NONE', #435, #74, #397 ) ;
#246 = PERSON_AND_ORGANIZATION ( #102, #10 ) ;
#247 = CARTESIAN_POINT ( 'NONE',  ( 5.000000000000000000, 0.000000000000000000, 1.500000000000000000 ) ) ;
#248 = PERSON_AND_ORGANIZATION_ROLE ( 'creator' ) ;
#249 = DIRECTION ( 'NONE',  ( 0.000000000000000000, 1.000000000000000000, -0.000000000000000000 ) ) ;
#250 = COORDINATED_UNIVERSAL_TIME_OFFSET ( 8, 0, .AHEAD. ) ;
#251 = CARTESIAN_POINT ( 'NONE',  ( 13.64999999999999503, 1.710922906978709345E-15, 1.500000000000000000 ) ) ;
#252 = SECURITY_CLASSIFICATION ( '', '', #162 ) ;
#253 = DATE_AND_TIME ( #78, #115 ) ;
#254 = UNCERTAINTY_MEASURE_WITH_UNIT (LENGTH_MEASURE( 1.000000000000000082E-05 ), #480, 'distance_accuracy_value', 'NONE');
#255 = EDGE_CURVE ( 'NONE', #180, #75, #4, .T. ) ;
#256 = CARTESIAN_POINT ( 'NONE',  ( 0.000000000000000000, 0.000000000000000000, 0.000000000000000000 ) ) ;
#257 = DIRECTION ( 'NONE',  ( 1.000000000000000000, 0.000000000000000000, 0.000000000000000000 ) ) ;
#258 = VERTEX_POINT ( 'NONE', #20 ) ;
#259 = LINE ( 'NONE', #497, #495 ) ;
#260 = ORIENTED_EDGE ( 'NONE', *, *, #470, .T. ) ;
#261 = CC_DESIGN_DATE_AND_TIME_ASSIGNMENT ( #450, #439, ( #252 ) ) ;
#262 = AXIS2_PLACEMENT_3D ( 'NONE', #196, #113, #355 ) ;
#263 = DIRECTION ( 'NONE',  ( -0.000000000000000000, -0.000000000000000000, -1.000000000000000000 ) ) ;
#264 = ORIENTED_EDGE ( 'NONE', *, *, #237, .T. ) ;
#265 = PLANE ( 'NONE',  #514 ) ;
#266 = EDGE_LOOP ( 'NONE', ( #464, #272, #227, #516 ) ) ;
#267 = CARTESIAN_POINT ( 'NONE',  ( 0.000000000000000000, -8.560115484748678227, 1.500000000000000000 ) ) ;
#268 = VERTEX_POINT ( 'NONE', #339 ) ;
#269 = PLANE ( 'NONE',  #360 ) ;
#270 = EDGE_CURVE ( 'NONE', #279, #258, #457, .T. ) ;
#271 = VECTOR ( 'NONE', #433, 1000.000000000000000 ) ;
#272 = ORIENTED_EDGE ( 'NONE', *, *, #237, .F. ) ;
#273 = PRODUCT_RELATED_PRODUCT_CATEGORY ( 'detail', '', ( #485 ) ) ;
#274 = VECTOR ( 'NONE', #445, 1000.000000000000000 ) ;
#275 = LINE ( 'NONE', #350, #330 ) ;
#276 = ORIENTED_EDGE ( 'NONE', *, *, #243, .F. ) ;
#277 = APPLICATION_CONTEXT ( 'configuration controlled 3d designs of mechanical parts and assemblies' ) ;
#278 = CARTESIAN_POINT ( 'NONE',  ( -3.614310280049504278E-15, 28.43988451525131822, 0.000000000000000000 ) ) ;
#279 = VERTEX_POINT ( 'NONE', #24 ) ;
#280 = EDGE_CURVE ( 'NONE', #342, #466, #499, .T. ) ;
#281 = DIRECTION ( 'NONE',  ( -0.000000000000000000, -0.000000000000000000, -1.000000000000000000 ) ) ;
#282 = ORIENTED_EDGE ( 'NONE', *, *, #174, .T. ) ;
#283 = VECTOR ( 'NONE', #502, 1000.000000000000000 ) ;
#284 = VECTOR ( 'NONE', #200, 1000.000000000000000 ) ;
#285 = ORIENTED_EDGE ( 'NONE', *, *, #280, .T. ) ;
#286 = CARTESIAN_POINT ( 'NONE',  ( -13.65000000000000568, -1.710922906978710923E-15, 1.500000000000000000 ) ) ;
#287 = DIRECTION ( 'NONE',  ( -0.000000000000000000, -0.000000000000000000, -1.000000000000000000 ) ) ;
#288 = APPROVAL ( #361, 'æœª' ) ;
#289 = CIRCLE ( 'NONE', #488, 1.500000000000000000 ) ;
#290 = AXIS2_PLACEMENT_3D ( 'NONE', #69, #149, #520 ) ;
#291 = AXIS2_PLACEMENT_3D ( 'NONE', #326, #487, #329 ) ;
#292 = COORDINATED_UNIVERSAL_TIME_OFFSET ( 8, 0, .AHEAD. ) ;
#293 = LINE ( 'NONE', #449, #284 ) ;
#294 = CARTESIAN_POINT ( 'NONE',  ( -1.500000000000000888, 26.06853720190225943, 10.00000000000000000 ) ) ;
#295 = EDGE_CURVE ( 'NONE', #373, #342, #369, .T. ) ;
#296 = CARTESIAN_POINT ( 'NONE',  ( -5.000000000000000000, 7.439884515251321773, 1.500000000000000000 ) ) ;
#297 = AXIS2_PLACEMENT_3D ( 'NONE', #101, #108, #465 ) ;
#298 = AXIS2_PLACEMENT_3D ( 'NONE', #307, #377, #452 ) ;
#299 = DIRECTION ( 'NONE',  ( 1.000000000000000000, 0.000000000000000000, 0.000000000000000000 ) ) ;
#300 = VERTEX_POINT ( 'NONE', #143 ) ;
#301 = CARTESIAN_POINT ( 'NONE',  ( 1.500000000000000000, -12.56011548474867823, 0.000000000000000000 ) ) ;
#302 = CC_DESIGN_PERSON_AND_ORGANIZATION_ASSIGNMENT ( #486, #169, ( #45 ) ) ;
#303 = VERTEX_POINT ( 'NONE', #179 ) ;
#304 = LINE ( 'NONE', #96, #90 ) ;
#305 = ORIENTED_EDGE ( 'NONE', *, *, #148, .F. ) ;
#306 = VECTOR ( 'NONE', #463, 1000.000000000000000 ) ;
#307 = CARTESIAN_POINT ( 'NONE',  ( 0.000000000000000000, 26.06853720190225943, 1.499999999999999556 ) ) ;
#308 = ORIENTED_EDGE ( 'NONE', *, *, #219, .T. ) ;
#309 = PLANE ( 'NONE',  #337 ) ;
#310 = ORIENTED_EDGE ( 'NONE', *, *, #198, .F. ) ;
#311 = EDGE_CURVE ( 'NONE', #214, #279, #341, .T. ) ;
#312 = DIRECTION ( 'NONE',  ( -1.000000000000000000, -1.270859689360298160E-16, 0.000000000000000000 ) ) ;
#313 = EDGE_LOOP ( 'NONE', ( #33, #434, #381, #153 ) ) ;
#314 = CARTESIAN_POINT ( 'NONE',  ( -13.65000000000000213, -14.59999999999999787, 1.500000000000000000 ) ) ;
#315 = VERTEX_POINT ( 'NONE', #98 ) ;
#316 = FACE_OUTER_BOUND ( 'NONE', #426, .T. ) ;
#317 = VERTEX_POINT ( 'NONE', #301 ) ;
#318 = EDGE_CURVE ( 'NONE', #75, #473, #259, .T. ) ;
#319 = LINE ( 'NONE', #425, #271 ) ;
#320 = ORIENTED_EDGE ( 'NONE', *, *, #142, .T. ) ;
#321 = PERSON_AND_ORGANIZATION ( #102, #10 ) ;
#322 = DIRECTION ( 'NONE',  ( -1.000000000000000000, 0.000000000000000000, 0.000000000000000000 ) ) ;
#323 = VECTOR ( 'NONE', #57, 1000.000000000000000 ) ;
#324 = LINE ( 'NONE', #481, #215 ) ;
#325 = APPROVAL ( #443, 'æœª' ) ;
#326 = CARTESIAN_POINT ( 'NONE',  ( 0.000000000000000000, 26.06853720190225943, 0.000000000000000000 ) ) ;
#327 = VERTEX_POINT ( 'NONE', #172 ) ;
#328 =( NAMED_UNIT ( * ) SI_UNIT ( $, .STERADIAN. ) SOLID_ANGLE_UNIT ( ) );
#329 = DIRECTION ( 'NONE',  ( -1.000000000000000000, 0.000000000000000000, 0.000000000000000000 ) ) ;
#330 = VECTOR ( 'NONE', #67, 1000.000000000000000 ) ;
#331 = CALENDAR_DATE ( 2026, 23, 3 ) ;
#332 = FACE_OUTER_BOUND ( 'NONE', #23, .T. ) ;
#333 = EDGE_CURVE ( 'NONE', #300, #349, #420, .T. ) ;
#334 = LINE ( 'NONE', #404, #505 ) ;
#335 = CARTESIAN_POINT ( 'NONE',  ( -1.500000000000000000, -12.56011548474867823, 1.500000000000000000 ) ) ;
#336 = ORIENTED_EDGE ( 'NONE', *, *, #402, .F. ) ;
#337 = AXIS2_PLACEMENT_3D ( 'NONE', #267, #63, #386 ) ;
#338 = CC_DESIGN_PERSON_AND_ORGANIZATION_ASSIGNMENT ( #119, #441, ( #252 ) ) ;
#339 = CARTESIAN_POINT ( 'NONE',  ( -5.000000000000000000, -8.560115484748678227, 0.000000000000000000 ) ) ;
#340 = ORIENTED_EDGE ( 'NONE', *, *, #35, .T. ) ;
#341 = LINE ( 'NONE', #53, #283 ) ;
#342 = VERTEX_POINT ( 'NONE', #220 ) ;
#343 = DIRECTION ( 'NONE',  ( 1.000000000000000000, 0.000000000000000000, 0.000000000000000000 ) ) ;
#344 = ORIENTED_EDGE ( 'NONE', *, *, #182, .F. ) ;
#345 = FACE_OUTER_BOUND ( 'NONE', #217, .T. ) ;
#346 = ORIENTED_EDGE ( 'NONE', *, *, #422, .F. ) ;
#347 = ADVANCED_FACE ( 'NONE', ( #380, #22, #345, #181 ), #265, .T. ) ;
#348 = PLANE ( 'NONE',  #436 ) ;
#349 = VERTEX_POINT ( 'NONE', #222 ) ;
#350 = CARTESIAN_POINT ( 'NONE',  ( -5.000000000000000000, 0.000000000000000000, 1.500000000000000000 ) ) ;
#351 = ORIENTED_EDGE ( 'NONE', *, *, #127, .T. ) ;
#352 = ADVANCED_FACE ( 'NONE', ( #382, #455, #211, #184 ), #89, .F. ) ;
#353 = LINE ( 'NONE', #225, #468 ) ;
#354 = ORIENTED_EDGE ( 'NONE', *, *, #483, .F. ) ;
#355 = DIRECTION ( 'NONE',  ( 1.000000000000000000, 0.000000000000000000, 0.000000000000000000 ) ) ;
#356 = ORIENTED_EDGE ( 'NONE', *, *, #118, .F. ) ;
#357 = LINE ( 'NONE', #154, #477 ) ;
#358 = EDGE_LOOP ( 'NONE', ( #351, #65, #276, #512 ) ) ;
#359 = PLANE ( 'NONE',  #151 ) ;
#360 = AXIS2_PLACEMENT_3D ( 'NONE', #428, #128, #410 ) ;
#361 = APPROVAL_STATUS ( 'not_yet_approved' ) ;
#362 = DIRECTION ( 'NONE',  ( -1.253423375075977951E-16, 1.000000000000000000, 0.000000000000000000 ) ) ;
#363 = DIRECTION ( 'NONE',  ( 1.000000000000000000, 0.000000000000000000, 0.000000000000000000 ) ) ;
#364 = CARTESIAN_POINT ( 'NONE',  ( -5.000000000000000000, 7.439884515251321773, 1.500000000000000000 ) ) ;
#365 = PERSON_AND_ORGANIZATION_ROLE ( 'design_owner' ) ;
#366 = EDGE_CURVE ( 'NONE', #75, #180, #140, .T. ) ;
#367 = DIRECTION ( 'NONE',  ( -0.000000000000000000, -0.000000000000000000, -1.000000000000000000 ) ) ;
#368 = ORIENTED_EDGE ( 'NONE', *, *, #56, .T. ) ;
#369 = CIRCLE ( 'NONE', #43, 1.500000000000000000 ) ;
#370 = CARTESIAN_POINT ( 'NONE',  ( 0.000000000000000000, 0.000000000000000000, 0.000000000000000000 ) ) ;
#371 = DIRECTION ( 'NONE',  ( -1.253423375075978198E-16, 1.000000000000000000, 0.000000000000000000 ) ) ;
#372 = DIRECTION ( 'NONE',  ( -0.000000000000000000, 0.000000000000000000, 1.000000000000000000 ) ) ;
#373 = VERTEX_POINT ( 'NONE', #414 ) ;
#374 = CARTESIAN_POINT ( 'NONE',  ( 0.000000000000000000, -12.56011548474867823, 0.000000000000000000 ) ) ;
#375 = EDGE_CURVE ( 'NONE', #279, #509, #54, .T. ) ;
#376 = CC_DESIGN_APPROVAL ( #175, ( #252 ) ) ;
#377 = DIRECTION ( 'NONE',  ( -0.000000000000000000, 0.000000000000000000, 1.000000000000000000 ) ) ;
#378 = APPLICATION_CONTEXT ( 'configuration controlled 3d designs of mechanical parts and assemblies' ) ;
#379 = ORIENTED_EDGE ( 'NONE', *, *, #460, .F. ) ;
#380 = FACE_BOUND ( 'NONE', #72, .T. ) ;
#381 = ORIENTED_EDGE ( 'NONE', *, *, #311, .T. ) ;
#382 = FACE_BOUND ( 'NONE', #145, .T. ) ;
#383 = EDGE_CURVE ( 'NONE', #99, #105, #275, .T. ) ;
#384 = EDGE_LOOP ( 'NONE', ( #260, #379, #456, #390 ) ) ;
#385 =( GEOMETRIC_REPRESENTATION_CONTEXT ( 3 ) GLOBAL_UNCERTAINTY_ASSIGNED_CONTEXT ( ( #254 ) ) GLOBAL_UNIT_ASSIGNED_CONTEXT ( ( #480, #121, #328 ) ) REPRESENTATION_CONTEXT ( 'NONE', 'WORKASPACE' ) );
#386 = DIRECTION ( 'NONE',  ( 0.000000000000000000, -0.000000000000000000, -1.000000000000000000 ) ) ;
#387 = CIRCLE ( 'NONE', #228, 1.500000000000000000 ) ;
#388 = ORIENTED_EDGE ( 'NONE', *, *, #460, .T. ) ;
#389 = DIRECTION ( 'NONE',  ( 1.000000000000000000, 1.270859689360298160E-16, 0.000000000000000000 ) ) ;
#390 = ORIENTED_EDGE ( 'NONE', *, *, #333, .T. ) ;
#391 = EDGE_CURVE ( 'NONE', #373, #317, #191, .T. ) ;
#392 = FACE_OUTER_BOUND ( 'NONE', #17, .T. ) ;
#393 = ORIENTED_EDGE ( 'NONE', *, *, #318, .F. ) ;
#394 = CARTESIAN_POINT ( 'NONE',  ( 13.64999999999999503, 1.710922906978709345E-15, 0.000000000000000000 ) ) ;
#395 = VECTOR ( 'NONE', #459, 1000.000000000000000 ) ;
#396 = ORIENTED_EDGE ( 'NONE', *, *, #422, .T. ) ;
#397 = DIRECTION ( 'NONE',  ( 0.000000000000000000, -0.000000000000000000, -1.000000000000000000 ) ) ;
#398 = CARTESIAN_POINT ( 'NONE',  ( 0.000000000000000000, -12.56011548474867823, 1.500000000000000000 ) ) ;
#399 = APPROVAL_ROLE ( '' ) ;
#400 = DESIGN_CONTEXT ( 'detailed design', #378, 'design' ) ;
#401 = CARTESIAN_POINT ( 'NONE',  ( 0.000000000000000000, -12.56011548474867823, 1.500000000000000000 ) ) ;
#402 = EDGE_CURVE ( 'NONE', #317, #466, #51, .T. ) ;
#403 = DATE_TIME_ROLE ( 'creation_date' ) ;
#404 = CARTESIAN_POINT ( 'NONE',  ( 0.000000000000000000, 7.439884515251321773, 1.500000000000000000 ) ) ;
#405 = VECTOR ( 'NONE', #281, 1000.000000000000000 ) ;
#406 = LINE ( 'NONE', #364, #274 ) ;
#407 = ADVANCED_FACE ( 'NONE', ( #431 ), #517, .T. ) ;
#408 = APPLICATION_PROTOCOL_DEFINITION ( 'international standard', 'config_control_design', 1994, #277 ) ;
#409 = DIRECTION ( 'NONE',  ( 1.000000000000000000, 0.000000000000000000, 0.000000000000000000 ) ) ;
#410 = DIRECTION ( 'NONE',  ( -0.000000000000000000, 0.000000000000000000, -1.000000000000000000 ) ) ;
#411 = DIRECTION ( 'NONE',  ( 1.000000000000000000, 1.253423375075977951E-16, -0.000000000000000000 ) ) ;
#412 = VECTOR ( 'NONE', #287, 1000.000000000000000 ) ;
#413 = DIRECTION ( 'NONE',  ( -0.000000000000000000, 0.000000000000000000, 1.000000000000000000 ) ) ;
#414 = CARTESIAN_POINT ( 'NONE',  ( 1.500000000000000000, -12.56011548474867823, 1.500000000000000000 ) ) ;
#415 = CC_DESIGN_PERSON_AND_ORGANIZATION_ASSIGNMENT ( #208, #365, ( #485 ) ) ;
#416 = ORIENTED_EDGE ( 'NONE', *, *, #402, .T. ) ;
#417 = CARTESIAN_POINT ( 'NONE',  ( -13.65000000000000924, 28.43988451525131467, 1.500000000000000000 ) ) ;
#418 = ORIENTED_EDGE ( 'NONE', *, *, #134, .T. ) ;
#419 = AXIS2_PLACEMENT_3D ( 'NONE', #521, #157, #322 ) ;
#420 = LINE ( 'NONE', #132, #168 ) ;
#421 = ORIENTED_EDGE ( 'NONE', *, *, #383, .T. ) ;
#422 = EDGE_CURVE ( 'NONE', #258, #303, #319, .T. ) ;
#423 = CARTESIAN_POINT ( 'NONE',  ( 0.000000000000000000, 0.000000000000000000, 1.500000000000000000 ) ) ;
#424 = ORIENTED_EDGE ( 'NONE', *, *, #438, .T. ) ;
#425 = CARTESIAN_POINT ( 'NONE',  ( 13.64999999999999858, -14.59999999999999787, 1.500000000000000000 ) ) ;
#426 = EDGE_LOOP ( 'NONE', ( #206, #494, #285, #336 ) ) ;
#427 = LOCAL_TIME ( 14, 31, 54.00000000000000000, #203 ) ;
#428 = CARTESIAN_POINT ( 'NONE',  ( -5.000000000000000000, 0.000000000000000000, 1.500000000000000000 ) ) ;
#429 = EDGE_LOOP ( 'NONE', ( #424, #305, #340, #95 ) ) ;
#430 = CC_DESIGN_PERSON_AND_ORGANIZATION_ASSIGNMENT ( #9, #248, ( #226 ) ) ;
#431 = FACE_OUTER_BOUND ( 'NONE', #266, .T. ) ;
#432 = ORIENTED_EDGE ( 'NONE', *, *, #182, .T. ) ;
#433 = DIRECTION ( 'NONE',  ( -0.000000000000000000, -0.000000000000000000, -1.000000000000000000 ) ) ;
#434 = ORIENTED_EDGE ( 'NONE', *, *, #219, .F. ) ;
#435 = CARTESIAN_POINT ( 'NONE',  ( 0.000000000000000000, 7.439884515251321773, 1.500000000000000000 ) ) ;
#436 = AXIS2_PLACEMENT_3D ( 'NONE', #508, #146, #312 ) ;
#437 = FACE_OUTER_BOUND ( 'NONE', #358, .T. ) ;
#438 = EDGE_CURVE ( 'NONE', #509, #303, #232, .T. ) ;
#439 = DATE_TIME_ROLE ( 'classification_date' ) ;
#440 = ORIENTED_EDGE ( 'NONE', *, *, #174, .F. ) ;
#441 = PERSON_AND_ORGANIZATION_ROLE ( 'classification_officer' ) ;
#442 = FACE_OUTER_BOUND ( 'NONE', #70, .T. ) ;
#443 = APPROVAL_STATUS ( 'not_yet_approved' ) ;
#444 = VECTOR ( 'NONE', #371, 1000.000000000000000 ) ;
#445 = DIRECTION ( 'NONE',  ( -0.000000000000000000, -0.000000000000000000, -1.000000000000000000 ) ) ;
#446 = ADVANCED_FACE ( 'NONE', ( #392 ), #32, .F. ) ;
#447 = VECTOR ( 'NONE', #490, 1000.000000000000000 ) ;
#448 = CALENDAR_DATE ( 2026, 23, 3 ) ;
#449 = CARTESIAN_POINT ( 'NONE',  ( 0.000000000000000000, -14.59999999999999787, 1.500000000000000000 ) ) ;
#450 = DATE_AND_TIME ( #489, #201 ) ;
#451 = LINE ( 'NONE', #11, #186 ) ;
#452 = DIRECTION ( 'NONE',  ( 1.000000000000000000, 0.000000000000000000, 0.000000000000000000 ) ) ;
#453 = CC_DESIGN_APPROVAL ( #288, ( #226 ) ) ;
#454 = EDGE_CURVE ( 'NONE', #37, #509, #194, .T. ) ;
#455 = FACE_BOUND ( 'NONE', #183, .T. ) ;
#456 = ORIENTED_EDGE ( 'NONE', *, *, #64, .T. ) ;
#457 = LINE ( 'NONE', #461, #66 ) ;
#458 = EDGE_LOOP ( 'NONE', ( #503, #235, #421, #418 ) ) ;
#459 = DIRECTION ( 'NONE',  ( -0.000000000000000000, -0.000000000000000000, -1.000000000000000000 ) ) ;
#460 = EDGE_CURVE ( 'NONE', #315, #268, #353, .T. ) ;
#461 = CARTESIAN_POINT ( 'NONE',  ( 13.64999999999999503, 1.710922906978709345E-15, 1.500000000000000000 ) ) ;
#462 = EDGE_LOOP ( 'NONE', ( #393, #471, #368, #498 ) ) ;
#463 = DIRECTION ( 'NONE',  ( -0.000000000000000000, -0.000000000000000000, -1.000000000000000000 ) ) ;
#464 = ORIENTED_EDGE ( 'NONE', *, *, #64, .F. ) ;
#465 = DIRECTION ( 'NONE',  ( 0.000000000000000000, 0.000000000000000000, 1.000000000000000000 ) ) ;
#466 = VERTEX_POINT ( 'NONE', #238 ) ;
#467 = VECTOR ( 'NONE', #409, 1000.000000000000000 ) ;
#468 = VECTOR ( 'NONE', #152, 1000.000000000000000 ) ;
#469 = DIRECTION ( 'NONE',  ( 0.000000000000000000, -1.000000000000000000, 0.000000000000000000 ) ) ;
#470 = EDGE_CURVE ( 'NONE', #349, #268, #357, .T. ) ;
#471 = ORIENTED_EDGE ( 'NONE', *, *, #366, .T. ) ;
#472 = DIRECTION ( 'NONE',  ( -1.000000000000000000, 0.000000000000000000, 0.000000000000000000 ) ) ;
#473 = VERTEX_POINT ( 'NONE', #515 ) ;
#474 = LINE ( 'NONE', #314, #405 ) ;
#475 = EDGE_LOOP ( 'NONE', ( #501, #310, #432, #188 ) ) ;
#476 = ADVANCED_FACE ( 'NONE', ( #316 ), #189, .F. ) ;
#477 = VECTOR ( 'NONE', #469, 1000.000000000000000 ) ;
#478 = ORIENTED_EDGE ( 'NONE', *, *, #19, .F. ) ;
#479 = VECTOR ( 'NONE', #8, 1000.000000000000000 ) ;
#480 =( LENGTH_UNIT ( ) NAMED_UNIT ( * ) SI_UNIT ( .MILLI., .METRE. ) );
#481 = CARTESIAN_POINT ( 'NONE',  ( 5.000000000000000000, 7.439884515251321773, 1.500000000000000000 ) ) ;
#482 = PERSON_AND_ORGANIZATION ( #102, #10 ) ;
#483 = EDGE_CURVE ( 'NONE', #327, #221, #474, .T. ) ;
#484 = LINE ( 'NONE', #247, #193 ) ;
#485 = PRODUCT ( '\X2\6fc051498fde63a54ef6677f\X0\', '\X2\6fc051498fde63a54ef6677f\X0\', '', ( #165 ) ) ;
#486 = PERSON_AND_ORGANIZATION ( #102, #10 ) ;
#487 = DIRECTION ( 'NONE',  ( 0.000000000000000000, 0.000000000000000000, -1.000000000000000000 ) ) ;
#488 = AXIS2_PLACEMENT_3D ( 'NONE', #401, #125, #122 ) ;
#489 = CALENDAR_DATE ( 2026, 23, 3 ) ;
#490 = DIRECTION ( 'NONE',  ( -1.253423375075978198E-16, 1.000000000000000000, 0.000000000000000000 ) ) ;
#491 = CARTESIAN_POINT ( 'NONE',  ( -13.65000000000000924, 28.43988451525131467, 0.000000000000000000 ) ) ;
#492 = ADVANCED_FACE ( 'NONE', ( #111 ), #71, .T. ) ;
#493 = CARTESIAN_POINT ( 'NONE',  ( 0.000000000000000000, 26.06853720190225943, 1.499999999999999556 ) ) ;
#494 = ORIENTED_EDGE ( 'NONE', *, *, #295, .T. ) ;
#495 = VECTOR ( 'NONE', #263, 1000.000000000000000 ) ;
#496 = AXIS2_PLACEMENT_3D ( 'NONE', #398, #39, #197 ) ;
#497 = CARTESIAN_POINT ( 'NONE',  ( 1.500000000000000888, 26.06853720190225943, 10.00000000000000000 ) ) ;
#498 = ORIENTED_EDGE ( 'NONE', *, *, #85, .T. ) ;
#499 = LINE ( 'NONE', #335, #395 ) ;
#500 = ADVANCED_FACE ( 'NONE', ( #38 ), #309, .F. ) ;
#501 = ORIENTED_EDGE ( 'NONE', *, *, #333, .F. ) ;
#502 = DIRECTION ( 'NONE',  ( 1.000000000000000000, 1.270859689360298160E-16, 0.000000000000000000 ) ) ;
#503 = ORIENTED_EDGE ( 'NONE', *, *, #470, .F. ) ;
#504 = AXIS2_PLACEMENT_3D ( 'NONE', #370, #116, #363 ) ;
#505 = VECTOR ( 'NONE', #161, 1000.000000000000000 ) ;
#506 = CARTESIAN_POINT ( 'NONE',  ( 0.000000000000000000, -12.56011548474867823, 1.500000000000000000 ) ) ;
#507 = ORIENTED_EDGE ( 'NONE', *, *, #270, .T. ) ;
#508 = CARTESIAN_POINT ( 'NONE',  ( -3.614310280049504278E-15, 28.43988451525131822, 1.500000000000000000 ) ) ;
#509 = VERTEX_POINT ( 'NONE', #27 ) ;
#510 = ADVANCED_FACE ( 'NONE', ( #187 ), #348, .T. ) ;
#511 = CARTESIAN_POINT ( 'NONE',  ( 1.500000000000000000, -12.56011548474867823, 1.500000000000000000 ) ) ;
#512 = ORIENTED_EDGE ( 'NONE', *, *, #280, .F. ) ;
#513 = AXIS2_PLACEMENT_3D ( 'NONE', #286, #44, #202 ) ;
#514 = AXIS2_PLACEMENT_3D ( 'NONE', #423, #61, #299 ) ;
#515 = CARTESIAN_POINT ( 'NONE',  ( 1.500000000000000888, 26.06853720190225943, 0.000000000000000000 ) ) ;
#516 = ORIENTED_EDGE ( 'NONE', *, *, #198, .T. ) ;
#517 = PLANE ( 'NONE',  #297 ) ;
#518 = ORIENTED_EDGE ( 'NONE', *, *, #375, .F. ) ;
#519 = ADVANCED_FACE ( 'NONE', ( #104 ), #269, .T. ) ;
#520 = DIRECTION ( 'NONE',  ( 0.000000000000000000, -0.000000000000000000, 1.000000000000000000 ) ) ;
#521 = CARTESIAN_POINT ( 'NONE',  ( 0.000000000000000000, 26.06853720190225943, 0.000000000000000000 ) ) ;
ENDSEC;
END-ISO-10303-21;
